<svg width="336" height="40" viewBox="0 0 336 40" fill="none" xmlns="http://www.w3.org/2000/svg">
<mask id="path-1-inside-1_1_927" fill="white">
<path d="M0 0H87V40H0V0Z"/>
</mask>
<path d="M87 39H0V41H87V39Z" fill="#676767" mask="url(#path-1-inside-1_1_927)"/>
<path d="M21.5156 20.5391H18.4766V19.3125H21.5156C22.1042 19.3125 22.5807 19.2188 22.9453 19.0312C23.3099 18.8438 23.5755 18.5833 23.7422 18.25C23.9141 17.9167 24 17.5365 24 17.1094C24 16.7188 23.9141 16.3516 23.7422 16.0078C23.5755 15.6641 23.3099 15.388 22.9453 15.1797C22.5807 14.9661 22.1042 14.8594 21.5156 14.8594H18.8281V25H17.3203V13.625H21.5156C22.375 13.625 23.1016 13.7734 23.6953 14.0703C24.2891 14.3672 24.7396 14.7786 25.0469 15.3047C25.3542 15.8255 25.5078 16.4219 25.5078 17.0938C25.5078 17.8229 25.3542 18.4453 25.0469 18.9609C24.7396 19.4766 24.2891 19.8698 23.6953 20.1406C23.1016 20.4062 22.375 20.5391 21.5156 20.5391ZM26.7031 20.8672V20.6875C26.7031 20.0781 26.7917 19.513 26.9688 18.9922C27.1458 18.4661 27.401 18.0104 27.7344 17.625C28.0677 17.2344 28.4714 16.9323 28.9453 16.7188C29.4193 16.5 29.9505 16.3906 30.5391 16.3906C31.1328 16.3906 31.6667 16.5 32.1406 16.7188C32.6198 16.9323 33.026 17.2344 33.3594 17.625C33.6979 18.0104 33.9557 18.4661 34.1328 18.9922C34.3099 19.513 34.3984 20.0781 34.3984 20.6875V20.8672C34.3984 21.4766 34.3099 22.0417 34.1328 22.5625C33.9557 23.0833 33.6979 23.5391 33.3594 23.9297C33.026 24.3151 32.6224 24.6172 32.1484 24.8359C31.6797 25.0495 31.1484 25.1562 30.5547 25.1562C29.9609 25.1562 29.4271 25.0495 28.9531 24.8359C28.4792 24.6172 28.0729 24.3151 27.7344 23.9297C27.401 23.5391 27.1458 23.0833 26.9688 22.5625C26.7917 22.0417 26.7031 21.4766 26.7031 20.8672ZM28.1484 20.6875V20.8672C28.1484 21.2891 28.1979 21.6875 28.2969 22.0625C28.3958 22.4323 28.5443 22.7604 28.7422 23.0469C28.9453 23.3333 29.1979 23.5599 29.5 23.7266C29.8021 23.888 30.1536 23.9688 30.5547 23.9688C30.9505 23.9688 31.2969 23.888 31.5938 23.7266C31.8958 23.5599 32.1458 23.3333 32.3438 23.0469C32.5417 22.7604 32.6901 22.4323 32.7891 22.0625C32.8932 21.6875 32.9453 21.2891 32.9453 20.8672V20.6875C32.9453 20.2708 32.8932 19.8776 32.7891 19.5078C32.6901 19.1328 32.5391 18.8021 32.3359 18.5156C32.138 18.224 31.888 17.9948 31.5859 17.8281C31.2891 17.6615 30.9401 17.5781 30.5391 17.5781C30.1432 17.5781 29.7943 17.6615 29.4922 17.8281C29.1953 17.9948 28.9453 18.224 28.7422 18.5156C28.5443 18.8021 28.3958 19.1328 28.2969 19.5078C28.1979 19.8776 28.1484 20.2708 28.1484 20.6875ZM37.6562 18.1719V28.25H36.2031V16.5469H37.5312L37.6562 18.1719ZM43.3516 20.7031V20.8672C43.3516 21.4818 43.2786 22.0521 43.1328 22.5781C42.987 23.099 42.7734 23.5521 42.4922 23.9375C42.2161 24.3229 41.875 24.6224 41.4688 24.8359C41.0625 25.0495 40.5964 25.1562 40.0703 25.1562C39.5339 25.1562 39.0599 25.0677 38.6484 24.8906C38.237 24.7135 37.888 24.4557 37.6016 24.1172C37.3151 23.7786 37.0859 23.3724 36.9141 22.8984C36.7474 22.4245 36.6328 21.8906 36.5703 21.2969V20.4219C36.6328 19.7969 36.75 19.237 36.9219 18.7422C37.0938 18.2474 37.3203 17.8255 37.6016 17.4766C37.888 17.1224 38.2344 16.8542 38.6406 16.6719C39.0469 16.4844 39.5156 16.3906 40.0469 16.3906C40.5781 16.3906 41.0495 16.4948 41.4609 16.7031C41.8724 16.9062 42.2188 17.1979 42.5 17.5781C42.7812 17.9583 42.9922 18.4141 43.1328 18.9453C43.2786 19.4714 43.3516 20.0573 43.3516 20.7031ZM41.8984 20.8672V20.7031C41.8984 20.2812 41.8542 19.8854 41.7656 19.5156C41.6771 19.1406 41.5391 18.8125 41.3516 18.5312C41.1693 18.2448 40.9349 18.0208 40.6484 17.8594C40.362 17.6927 40.0208 17.6094 39.625 17.6094C39.2604 17.6094 38.9427 17.6719 38.6719 17.7969C38.4062 17.9219 38.1797 18.0911 37.9922 18.3047C37.8047 18.513 37.651 18.7526 37.5312 19.0234C37.4167 19.2891 37.3307 19.5651 37.2734 19.8516V21.875C37.3776 22.2396 37.5234 22.5833 37.7109 22.9062C37.8984 23.224 38.1484 23.4818 38.4609 23.6797C38.7734 23.8724 39.1667 23.9688 39.6406 23.9688C40.0312 23.9688 40.3672 23.888 40.6484 23.7266C40.9349 23.5599 41.1693 23.3333 41.3516 23.0469C41.5391 22.7604 41.6771 22.4323 41.7656 22.0625C41.8542 21.6875 41.8984 21.2891 41.8984 20.8672ZM50.3672 23.0469V16.5469H51.8203V25H50.4375L50.3672 23.0469ZM50.6406 21.2656L51.2422 21.25C51.2422 21.8125 51.1823 22.3333 51.0625 22.8125C50.9479 23.2865 50.7604 23.6979 50.5 24.0469C50.2396 24.3958 49.8984 24.6693 49.4766 24.8672C49.0547 25.0599 48.5417 25.1562 47.9375 25.1562C47.526 25.1562 47.1484 25.0964 46.8047 24.9766C46.4661 24.8568 46.1745 24.6719 45.9297 24.4219C45.6849 24.1719 45.4948 23.8464 45.3594 23.4453C45.2292 23.0443 45.1641 22.5625 45.1641 22V16.5469H46.6094V22.0156C46.6094 22.3958 46.651 22.7109 46.7344 22.9609C46.8229 23.2057 46.9401 23.401 47.0859 23.5469C47.237 23.6875 47.4036 23.7865 47.5859 23.8438C47.7734 23.901 47.9661 23.9297 48.1641 23.9297C48.7786 23.9297 49.2656 23.8125 49.625 23.5781C49.9844 23.3385 50.2422 23.0182 50.3984 22.6172C50.5599 22.2109 50.6406 21.7604 50.6406 21.2656ZM55.5938 13V25H54.1406V13H55.5938ZM62.8984 23.5547V19.2031C62.8984 18.8698 62.8307 18.5807 62.6953 18.3359C62.5651 18.0859 62.3672 17.8932 62.1016 17.7578C61.8359 17.6224 61.5078 17.5547 61.1172 17.5547C60.7526 17.5547 60.4323 17.6172 60.1562 17.7422C59.8854 17.8672 59.6719 18.0312 59.5156 18.2344C59.3646 18.4375 59.2891 18.6562 59.2891 18.8906H57.8438C57.8438 18.5885 57.9219 18.2891 58.0781 17.9922C58.2344 17.6953 58.4583 17.4271 58.75 17.1875C59.0469 16.9427 59.401 16.75 59.8125 16.6094C60.2292 16.4635 60.6927 16.3906 61.2031 16.3906C61.8177 16.3906 62.3594 16.4948 62.8281 16.7031C63.3021 16.9115 63.6719 17.2266 63.9375 17.6484C64.2083 18.0651 64.3438 18.5885 64.3438 19.2188V23.1562C64.3438 23.4375 64.3672 23.737 64.4141 24.0547C64.4661 24.3724 64.5417 24.6458 64.6406 24.875V25H63.1328C63.0599 24.8333 63.0026 24.612 62.9609 24.3359C62.9193 24.0547 62.8984 23.7943 62.8984 23.5547ZM63.1484 19.875L63.1641 20.8906H61.7031C61.2917 20.8906 60.9245 20.9245 60.6016 20.9922C60.2786 21.0547 60.0078 21.151 59.7891 21.2812C59.5703 21.4115 59.4036 21.5755 59.2891 21.7734C59.1745 21.9661 59.1172 22.1927 59.1172 22.4531C59.1172 22.7188 59.1771 22.9609 59.2969 23.1797C59.4167 23.3984 59.5964 23.5729 59.8359 23.7031C60.0807 23.8281 60.3802 23.8906 60.7344 23.8906C61.1771 23.8906 61.5677 23.7969 61.9062 23.6094C62.2448 23.4219 62.513 23.1927 62.7109 22.9219C62.9141 22.651 63.0234 22.388 63.0391 22.1328L63.6562 22.8281C63.6198 23.0469 63.5208 23.2891 63.3594 23.5547C63.1979 23.8203 62.9818 24.0755 62.7109 24.3203C62.4453 24.5599 62.1276 24.7604 61.7578 24.9219C61.3932 25.0781 60.9818 25.1562 60.5234 25.1562C59.9505 25.1562 59.4479 25.0443 59.0156 24.8203C58.5885 24.5964 58.2552 24.2969 58.0156 23.9219C57.7812 23.5417 57.6641 23.1172 57.6641 22.6484C57.6641 22.1953 57.7526 21.7969 57.9297 21.4531C58.1068 21.1042 58.362 20.8151 58.6953 20.5859C59.0286 20.3516 59.4297 20.1745 59.8984 20.0547C60.3672 19.9349 60.8906 19.875 61.4688 19.875H63.1484ZM68.0625 17.875V25H66.6172V16.5469H68.0234L68.0625 17.875ZM70.7031 16.5L70.6953 17.8438C70.5755 17.8177 70.4609 17.8021 70.3516 17.7969C70.2474 17.7865 70.1276 17.7812 69.9922 17.7812C69.6589 17.7812 69.3646 17.8333 69.1094 17.9375C68.8542 18.0417 68.638 18.1875 68.4609 18.375C68.2839 18.5625 68.1432 18.7865 68.0391 19.0469C67.9401 19.3021 67.875 19.5833 67.8438 19.8906L67.4375 20.125C67.4375 19.6146 67.487 19.1354 67.5859 18.6875C67.6901 18.2396 67.849 17.8438 68.0625 17.5C68.276 17.151 68.5469 16.8802 68.875 16.6875C69.2083 16.4896 69.6042 16.3906 70.0625 16.3906C70.1667 16.3906 70.2865 16.4036 70.4219 16.4297C70.5573 16.4505 70.651 16.474 70.7031 16.5Z" fill="black"/>
<path d="M104.32 13.625H108.086C108.94 13.625 109.661 13.7552 110.25 14.0156C110.844 14.276 111.294 14.6615 111.602 15.1719C111.914 15.6771 112.07 16.2995 112.07 17.0391C112.07 17.5599 111.964 18.0365 111.75 18.4688C111.542 18.8958 111.24 19.2604 110.844 19.5625C110.453 19.8594 109.984 20.0807 109.438 20.2266L109.016 20.3906H105.477L105.461 19.1641H108.133C108.674 19.1641 109.125 19.0703 109.484 18.8828C109.844 18.6901 110.115 18.4323 110.297 18.1094C110.479 17.7865 110.57 17.4297 110.57 17.0391C110.57 16.6016 110.484 16.2188 110.312 15.8906C110.141 15.5625 109.87 15.3099 109.5 15.1328C109.135 14.9505 108.664 14.8594 108.086 14.8594H105.828V25H104.32V13.625ZM110.969 25L108.203 19.8438L109.773 19.8359L112.578 24.9062V25H110.969ZM117.469 25.1562C116.88 25.1562 116.346 25.0573 115.867 24.8594C115.393 24.6562 114.984 24.3724 114.641 24.0078C114.302 23.6432 114.042 23.2109 113.859 22.7109C113.677 22.2109 113.586 21.6641 113.586 21.0703V20.7422C113.586 20.0547 113.688 19.4427 113.891 18.9062C114.094 18.3646 114.37 17.9062 114.719 17.5312C115.068 17.1562 115.464 16.8724 115.906 16.6797C116.349 16.487 116.807 16.3906 117.281 16.3906C117.885 16.3906 118.406 16.4948 118.844 16.7031C119.286 16.9115 119.648 17.2031 119.93 17.5781C120.211 17.9479 120.419 18.3854 120.555 18.8906C120.69 19.3906 120.758 19.9375 120.758 20.5312V21.1797H114.445V20H119.312V19.8906C119.292 19.5156 119.214 19.151 119.078 18.7969C118.948 18.4427 118.74 18.151 118.453 17.9219C118.167 17.6927 117.776 17.5781 117.281 17.5781C116.953 17.5781 116.651 17.6484 116.375 17.7891C116.099 17.9245 115.862 18.1276 115.664 18.3984C115.466 18.6693 115.312 19 115.203 19.3906C115.094 19.7812 115.039 20.2318 115.039 20.7422V21.0703C115.039 21.4714 115.094 21.849 115.203 22.2031C115.318 22.5521 115.482 22.8594 115.695 23.125C115.914 23.3906 116.177 23.599 116.484 23.75C116.797 23.901 117.151 23.9766 117.547 23.9766C118.057 23.9766 118.49 23.8724 118.844 23.6641C119.198 23.4557 119.508 23.1771 119.773 22.8281L120.648 23.5234C120.466 23.7995 120.234 24.0625 119.953 24.3125C119.672 24.5625 119.326 24.7656 118.914 24.9219C118.508 25.0781 118.026 25.1562 117.469 25.1562ZM125.828 23.9688C126.172 23.9688 126.49 23.8984 126.781 23.7578C127.073 23.6172 127.312 23.4245 127.5 23.1797C127.688 22.9297 127.794 22.6458 127.82 22.3281H129.195C129.169 22.8281 129 23.2943 128.688 23.7266C128.38 24.1536 127.977 24.5 127.477 24.7656C126.977 25.026 126.427 25.1562 125.828 25.1562C125.193 25.1562 124.638 25.0443 124.164 24.8203C123.695 24.5964 123.305 24.2891 122.992 23.8984C122.685 23.5078 122.453 23.0599 122.297 22.5547C122.146 22.0443 122.07 21.5052 122.07 20.9375V20.6094C122.07 20.0417 122.146 19.5052 122.297 19C122.453 18.4896 122.685 18.0391 122.992 17.6484C123.305 17.2578 123.695 16.9505 124.164 16.7266C124.638 16.5026 125.193 16.3906 125.828 16.3906C126.49 16.3906 127.068 16.526 127.562 16.7969C128.057 17.0625 128.445 17.4271 128.727 17.8906C129.013 18.349 129.169 18.8698 129.195 19.4531H127.82C127.794 19.1042 127.695 18.7891 127.523 18.5078C127.357 18.2266 127.128 18.0026 126.836 17.8359C126.549 17.6641 126.214 17.5781 125.828 17.5781C125.385 17.5781 125.013 17.6667 124.711 17.8438C124.414 18.0156 124.177 18.25 124 18.5469C123.828 18.8385 123.703 19.1641 123.625 19.5234C123.552 19.8776 123.516 20.2396 123.516 20.6094V20.9375C123.516 21.3073 123.552 21.6719 123.625 22.0312C123.698 22.3906 123.82 22.7161 123.992 23.0078C124.169 23.2995 124.406 23.5339 124.703 23.7109C125.005 23.8828 125.38 23.9688 125.828 23.9688ZM130.438 20.8672V20.6875C130.438 20.0781 130.526 19.513 130.703 18.9922C130.88 18.4661 131.135 18.0104 131.469 17.625C131.802 17.2344 132.206 16.9323 132.68 16.7188C133.154 16.5 133.685 16.3906 134.273 16.3906C134.867 16.3906 135.401 16.5 135.875 16.7188C136.354 16.9323 136.76 17.2344 137.094 17.625C137.432 18.0104 137.69 18.4661 137.867 18.9922C138.044 19.513 138.133 20.0781 138.133 20.6875V20.8672C138.133 21.4766 138.044 22.0417 137.867 22.5625C137.69 23.0833 137.432 23.5391 137.094 23.9297C136.76 24.3151 136.357 24.6172 135.883 24.8359C135.414 25.0495 134.883 25.1562 134.289 25.1562C133.695 25.1562 133.161 25.0495 132.688 24.8359C132.214 24.6172 131.807 24.3151 131.469 23.9297C131.135 23.5391 130.88 23.0833 130.703 22.5625C130.526 22.0417 130.438 21.4766 130.438 20.8672ZM131.883 20.6875V20.8672C131.883 21.2891 131.932 21.6875 132.031 22.0625C132.13 22.4323 132.279 22.7604 132.477 23.0469C132.68 23.3333 132.932 23.5599 133.234 23.7266C133.536 23.888 133.888 23.9688 134.289 23.9688C134.685 23.9688 135.031 23.888 135.328 23.7266C135.63 23.5599 135.88 23.3333 136.078 23.0469C136.276 22.7604 136.424 22.4323 136.523 22.0625C136.628 21.6875 136.68 21.2891 136.68 20.8672V20.6875C136.68 20.2708 136.628 19.8776 136.523 19.5078C136.424 19.1328 136.273 18.8021 136.07 18.5156C135.872 18.224 135.622 17.9948 135.32 17.8281C135.023 17.6615 134.674 17.5781 134.273 17.5781C133.878 17.5781 133.529 17.6615 133.227 17.8281C132.93 17.9948 132.68 18.224 132.477 18.5156C132.279 18.8021 132.13 19.1328 132.031 19.5078C131.932 19.8776 131.883 20.2708 131.883 20.6875ZM141.383 18.2266V25H139.93V16.5469H141.305L141.383 18.2266ZM141.086 20.4531L140.414 20.4297C140.419 19.8516 140.495 19.3177 140.641 18.8281C140.786 18.3333 141.003 17.9036 141.289 17.5391C141.576 17.1745 141.932 16.8932 142.359 16.6953C142.786 16.4922 143.281 16.3906 143.844 16.3906C144.24 16.3906 144.604 16.4479 144.938 16.5625C145.271 16.6719 145.56 16.8464 145.805 17.0859C146.049 17.3255 146.24 17.6328 146.375 18.0078C146.51 18.3828 146.578 18.8359 146.578 19.3672V25H145.133V19.4375C145.133 18.9948 145.057 18.6406 144.906 18.375C144.76 18.1094 144.552 17.9167 144.281 17.7969C144.01 17.6719 143.693 17.6094 143.328 17.6094C142.901 17.6094 142.544 17.6849 142.258 17.8359C141.971 17.987 141.742 18.1953 141.57 18.4609C141.398 18.7266 141.273 19.0312 141.195 19.375C141.122 19.7135 141.086 20.0729 141.086 20.4531ZM146.562 19.6562L145.594 19.9531C145.599 19.4896 145.674 19.0443 145.82 18.6172C145.971 18.1901 146.188 17.8099 146.469 17.4766C146.755 17.1432 147.107 16.8802 147.523 16.6875C147.94 16.4896 148.417 16.3906 148.953 16.3906C149.406 16.3906 149.807 16.4505 150.156 16.5703C150.51 16.6901 150.807 16.875 151.047 17.125C151.292 17.3698 151.477 17.6849 151.602 18.0703C151.727 18.4557 151.789 18.9141 151.789 19.4453V25H150.336V19.4297C150.336 18.9557 150.26 18.5885 150.109 18.3281C149.964 18.0625 149.755 17.8776 149.484 17.7734C149.219 17.6641 148.901 17.6094 148.531 17.6094C148.214 17.6094 147.932 17.6641 147.688 17.7734C147.443 17.8828 147.237 18.0339 147.07 18.2266C146.904 18.4141 146.776 18.6302 146.688 18.875C146.604 19.1198 146.562 19.3802 146.562 19.6562ZM155.414 18.2266V25H153.961V16.5469H155.336L155.414 18.2266ZM155.117 20.4531L154.445 20.4297C154.451 19.8516 154.526 19.3177 154.672 18.8281C154.818 18.3333 155.034 17.9036 155.32 17.5391C155.607 17.1745 155.964 16.8932 156.391 16.6953C156.818 16.4922 157.312 16.3906 157.875 16.3906C158.271 16.3906 158.635 16.4479 158.969 16.5625C159.302 16.6719 159.591 16.8464 159.836 17.0859C160.081 17.3255 160.271 17.6328 160.406 18.0078C160.542 18.3828 160.609 18.8359 160.609 19.3672V25H159.164V19.4375C159.164 18.9948 159.089 18.6406 158.938 18.375C158.792 18.1094 158.583 17.9167 158.312 17.7969C158.042 17.6719 157.724 17.6094 157.359 17.6094C156.932 17.6094 156.576 17.6849 156.289 17.8359C156.003 17.987 155.773 18.1953 155.602 18.4609C155.43 18.7266 155.305 19.0312 155.227 19.375C155.154 19.7135 155.117 20.0729 155.117 20.4531ZM160.594 19.6562L159.625 19.9531C159.63 19.4896 159.706 19.0443 159.852 18.6172C160.003 18.1901 160.219 17.8099 160.5 17.4766C160.786 17.1432 161.138 16.8802 161.555 16.6875C161.971 16.4896 162.448 16.3906 162.984 16.3906C163.438 16.3906 163.839 16.4505 164.188 16.5703C164.542 16.6901 164.839 16.875 165.078 17.125C165.323 17.3698 165.508 17.6849 165.633 18.0703C165.758 18.4557 165.82 18.9141 165.82 19.4453V25H164.367V19.4297C164.367 18.9557 164.292 18.5885 164.141 18.3281C163.995 18.0625 163.786 17.8776 163.516 17.7734C163.25 17.6641 162.932 17.6094 162.562 17.6094C162.245 17.6094 161.964 17.6641 161.719 17.7734C161.474 17.8828 161.268 18.0339 161.102 18.2266C160.935 18.4141 160.807 18.6302 160.719 18.875C160.635 19.1198 160.594 19.3802 160.594 19.6562ZM171.516 25.1562C170.927 25.1562 170.393 25.0573 169.914 24.8594C169.44 24.6562 169.031 24.3724 168.688 24.0078C168.349 23.6432 168.089 23.2109 167.906 22.7109C167.724 22.2109 167.633 21.6641 167.633 21.0703V20.7422C167.633 20.0547 167.734 19.4427 167.938 18.9062C168.141 18.3646 168.417 17.9062 168.766 17.5312C169.115 17.1562 169.51 16.8724 169.953 16.6797C170.396 16.487 170.854 16.3906 171.328 16.3906C171.932 16.3906 172.453 16.4948 172.891 16.7031C173.333 16.9115 173.695 17.2031 173.977 17.5781C174.258 17.9479 174.466 18.3854 174.602 18.8906C174.737 19.3906 174.805 19.9375 174.805 20.5312V21.1797H168.492V20H173.359V19.8906C173.339 19.5156 173.26 19.151 173.125 18.7969C172.995 18.4427 172.786 18.151 172.5 17.9219C172.214 17.6927 171.823 17.5781 171.328 17.5781C171 17.5781 170.698 17.6484 170.422 17.7891C170.146 17.9245 169.909 18.1276 169.711 18.3984C169.513 18.6693 169.359 19 169.25 19.3906C169.141 19.7812 169.086 20.2318 169.086 20.7422V21.0703C169.086 21.4714 169.141 21.849 169.25 22.2031C169.365 22.5521 169.529 22.8594 169.742 23.125C169.961 23.3906 170.224 23.599 170.531 23.75C170.844 23.901 171.198 23.9766 171.594 23.9766C172.104 23.9766 172.536 23.8724 172.891 23.6641C173.245 23.4557 173.555 23.1771 173.82 22.8281L174.695 23.5234C174.513 23.7995 174.281 24.0625 174 24.3125C173.719 24.5625 173.372 24.7656 172.961 24.9219C172.555 25.0781 172.073 25.1562 171.516 25.1562ZM177.938 18.3516V25H176.492V16.5469H177.859L177.938 18.3516ZM177.594 20.4531L176.992 20.4297C176.997 19.8516 177.083 19.3177 177.25 18.8281C177.417 18.3333 177.651 17.9036 177.953 17.5391C178.255 17.1745 178.615 16.8932 179.031 16.6953C179.453 16.4922 179.919 16.3906 180.43 16.3906C180.846 16.3906 181.221 16.4479 181.555 16.5625C181.888 16.6719 182.172 16.849 182.406 17.0938C182.646 17.3385 182.828 17.6562 182.953 18.0469C183.078 18.4323 183.141 18.9036 183.141 19.4609V25H181.688V19.4453C181.688 19.0026 181.622 18.6484 181.492 18.3828C181.362 18.112 181.172 17.9167 180.922 17.7969C180.672 17.6719 180.365 17.6094 180 17.6094C179.641 17.6094 179.312 17.6849 179.016 17.8359C178.724 17.987 178.471 18.1953 178.258 18.4609C178.049 18.7266 177.885 19.0312 177.766 19.375C177.651 19.7135 177.594 20.0729 177.594 20.4531ZM190.664 23.3594V13H192.117V25H190.789L190.664 23.3594ZM184.977 20.8672V20.7031C184.977 20.0573 185.055 19.4714 185.211 18.9453C185.372 18.4141 185.599 17.9583 185.891 17.5781C186.188 17.1979 186.539 16.9062 186.945 16.7031C187.357 16.4948 187.815 16.3906 188.32 16.3906C188.852 16.3906 189.315 16.4844 189.711 16.6719C190.112 16.8542 190.451 17.1224 190.727 17.4766C191.008 17.8255 191.229 18.2474 191.391 18.7422C191.552 19.237 191.664 19.7969 191.727 20.4219V21.1406C191.669 21.7604 191.557 22.3177 191.391 22.8125C191.229 23.3073 191.008 23.7292 190.727 24.0781C190.451 24.4271 190.112 24.6953 189.711 24.8828C189.31 25.0651 188.841 25.1562 188.305 25.1562C187.81 25.1562 187.357 25.0495 186.945 24.8359C186.539 24.6224 186.188 24.3229 185.891 23.9375C185.599 23.5521 185.372 23.099 185.211 22.5781C185.055 22.0521 184.977 21.4818 184.977 20.8672ZM186.43 20.7031V20.8672C186.43 21.2891 186.471 21.6849 186.555 22.0547C186.643 22.4245 186.779 22.75 186.961 23.0312C187.143 23.3125 187.375 23.5339 187.656 23.6953C187.938 23.8516 188.273 23.9297 188.664 23.9297C189.143 23.9297 189.536 23.8281 189.844 23.625C190.156 23.4219 190.406 23.1536 190.594 22.8203C190.781 22.487 190.927 22.125 191.031 21.7344V19.8516C190.969 19.5651 190.878 19.2891 190.758 19.0234C190.643 18.7526 190.492 18.513 190.305 18.3047C190.122 18.0911 189.896 17.9219 189.625 17.7969C189.359 17.6719 189.044 17.6094 188.68 17.6094C188.284 17.6094 187.943 17.6927 187.656 17.8594C187.375 18.0208 187.143 18.2448 186.961 18.5312C186.779 18.8125 186.643 19.1406 186.555 19.5156C186.471 19.8854 186.43 20.2812 186.43 20.7031ZM197.875 25.1562C197.286 25.1562 196.753 25.0573 196.273 24.8594C195.799 24.6562 195.391 24.3724 195.047 24.0078C194.708 23.6432 194.448 23.2109 194.266 22.7109C194.083 22.2109 193.992 21.6641 193.992 21.0703V20.7422C193.992 20.0547 194.094 19.4427 194.297 18.9062C194.5 18.3646 194.776 17.9062 195.125 17.5312C195.474 17.1562 195.87 16.8724 196.312 16.6797C196.755 16.487 197.214 16.3906 197.688 16.3906C198.292 16.3906 198.812 16.4948 199.25 16.7031C199.693 16.9115 200.055 17.2031 200.336 17.5781C200.617 17.9479 200.826 18.3854 200.961 18.8906C201.096 19.3906 201.164 19.9375 201.164 20.5312V21.1797H194.852V20H199.719V19.8906C199.698 19.5156 199.62 19.151 199.484 18.7969C199.354 18.4427 199.146 18.151 198.859 17.9219C198.573 17.6927 198.182 17.5781 197.688 17.5781C197.359 17.5781 197.057 17.6484 196.781 17.7891C196.505 17.9245 196.268 18.1276 196.07 18.3984C195.872 18.6693 195.719 19 195.609 19.3906C195.5 19.7812 195.445 20.2318 195.445 20.7422V21.0703C195.445 21.4714 195.5 21.849 195.609 22.2031C195.724 22.5521 195.888 22.8594 196.102 23.125C196.32 23.3906 196.583 23.599 196.891 23.75C197.203 23.901 197.557 23.9766 197.953 23.9766C198.464 23.9766 198.896 23.8724 199.25 23.6641C199.604 23.4557 199.914 23.1771 200.18 22.8281L201.055 23.5234C200.872 23.7995 200.641 24.0625 200.359 24.3125C200.078 24.5625 199.732 24.7656 199.32 24.9219C198.914 25.0781 198.432 25.1562 197.875 25.1562ZM208.18 23.3594V13H209.633V25H208.305L208.18 23.3594ZM202.492 20.8672V20.7031C202.492 20.0573 202.57 19.4714 202.727 18.9453C202.888 18.4141 203.115 17.9583 203.406 17.5781C203.703 17.1979 204.055 16.9062 204.461 16.7031C204.872 16.4948 205.331 16.3906 205.836 16.3906C206.367 16.3906 206.831 16.4844 207.227 16.6719C207.628 16.8542 207.966 17.1224 208.242 17.4766C208.523 17.8255 208.745 18.2474 208.906 18.7422C209.068 19.237 209.18 19.7969 209.242 20.4219V21.1406C209.185 21.7604 209.073 22.3177 208.906 22.8125C208.745 23.3073 208.523 23.7292 208.242 24.0781C207.966 24.4271 207.628 24.6953 207.227 24.8828C206.826 25.0651 206.357 25.1562 205.82 25.1562C205.326 25.1562 204.872 25.0495 204.461 24.8359C204.055 24.6224 203.703 24.3229 203.406 23.9375C203.115 23.5521 202.888 23.099 202.727 22.5781C202.57 22.0521 202.492 21.4818 202.492 20.8672ZM203.945 20.7031V20.8672C203.945 21.2891 203.987 21.6849 204.07 22.0547C204.159 22.4245 204.294 22.75 204.477 23.0312C204.659 23.3125 204.891 23.5339 205.172 23.6953C205.453 23.8516 205.789 23.9297 206.18 23.9297C206.659 23.9297 207.052 23.8281 207.359 23.625C207.672 23.4219 207.922 23.1536 208.109 22.8203C208.297 22.487 208.443 22.125 208.547 21.7344V19.8516C208.484 19.5651 208.393 19.2891 208.273 19.0234C208.159 18.7526 208.008 18.513 207.82 18.3047C207.638 18.0911 207.411 17.9219 207.141 17.7969C206.875 17.6719 206.56 17.6094 206.195 17.6094C205.799 17.6094 205.458 17.6927 205.172 17.8594C204.891 18.0208 204.659 18.2448 204.477 18.5312C204.294 18.8125 204.159 19.1406 204.07 19.5156C203.987 19.8854 203.945 20.2812 203.945 20.7031Z" fill="black"/>
<path d="M248.375 19.6797H245.492L245.477 18.4688H248.094C248.526 18.4688 248.904 18.3958 249.227 18.25C249.549 18.1042 249.799 17.8958 249.977 17.625C250.159 17.349 250.25 17.0208 250.25 16.6406C250.25 16.224 250.169 15.8854 250.008 15.625C249.852 15.3594 249.609 15.1667 249.281 15.0469C248.958 14.9219 248.547 14.8594 248.047 14.8594H245.828V25H244.32V13.625H248.047C248.63 13.625 249.151 13.6849 249.609 13.8047C250.068 13.9193 250.456 14.1016 250.773 14.3516C251.096 14.5964 251.341 14.9089 251.508 15.2891C251.674 15.6693 251.758 16.125 251.758 16.6562C251.758 17.125 251.638 17.5495 251.398 17.9297C251.159 18.3047 250.826 18.612 250.398 18.8516C249.977 19.0911 249.482 19.2448 248.914 19.3125L248.375 19.6797ZM248.305 25H244.898L245.75 23.7734H248.305C248.784 23.7734 249.19 23.6901 249.523 23.5234C249.862 23.3568 250.12 23.1224 250.297 22.8203C250.474 22.513 250.562 22.151 250.562 21.7344C250.562 21.3125 250.487 20.9479 250.336 20.6406C250.185 20.3333 249.948 20.0964 249.625 19.9297C249.302 19.763 248.885 19.6797 248.375 19.6797H246.227L246.242 18.4688H249.18L249.5 18.9062C250.047 18.9531 250.51 19.1094 250.891 19.375C251.271 19.6354 251.56 19.9688 251.758 20.375C251.961 20.7812 252.062 21.2292 252.062 21.7188C252.062 22.4271 251.906 23.026 251.594 23.5156C251.286 24 250.852 24.3698 250.289 24.625C249.727 24.875 249.065 25 248.305 25ZM257.578 25.1562C256.99 25.1562 256.456 25.0573 255.977 24.8594C255.503 24.6562 255.094 24.3724 254.75 24.0078C254.411 23.6432 254.151 23.2109 253.969 22.7109C253.786 22.2109 253.695 21.6641 253.695 21.0703V20.7422C253.695 20.0547 253.797 19.4427 254 18.9062C254.203 18.3646 254.479 17.9062 254.828 17.5312C255.177 17.1562 255.573 16.8724 256.016 16.6797C256.458 16.487 256.917 16.3906 257.391 16.3906C257.995 16.3906 258.516 16.4948 258.953 16.7031C259.396 16.9115 259.758 17.2031 260.039 17.5781C260.32 17.9479 260.529 18.3854 260.664 18.8906C260.799 19.3906 260.867 19.9375 260.867 20.5312V21.1797H254.555V20H259.422V19.8906C259.401 19.5156 259.323 19.151 259.188 18.7969C259.057 18.4427 258.849 18.151 258.562 17.9219C258.276 17.6927 257.885 17.5781 257.391 17.5781C257.062 17.5781 256.76 17.6484 256.484 17.7891C256.208 17.9245 255.971 18.1276 255.773 18.3984C255.576 18.6693 255.422 19 255.312 19.3906C255.203 19.7812 255.148 20.2318 255.148 20.7422V21.0703C255.148 21.4714 255.203 21.849 255.312 22.2031C255.427 22.5521 255.591 22.8594 255.805 23.125C256.023 23.3906 256.286 23.599 256.594 23.75C256.906 23.901 257.26 23.9766 257.656 23.9766C258.167 23.9766 258.599 23.8724 258.953 23.6641C259.307 23.4557 259.617 23.1771 259.883 22.8281L260.758 23.5234C260.576 23.7995 260.344 24.0625 260.062 24.3125C259.781 24.5625 259.435 24.7656 259.023 24.9219C258.617 25.0781 258.135 25.1562 257.578 25.1562ZM267.477 22.7578C267.477 22.5495 267.43 22.3568 267.336 22.1797C267.247 21.9974 267.062 21.8333 266.781 21.6875C266.505 21.5365 266.089 21.4062 265.531 21.2969C265.062 21.1979 264.638 21.0807 264.258 20.9453C263.883 20.8099 263.562 20.6458 263.297 20.4531C263.036 20.2604 262.836 20.0339 262.695 19.7734C262.555 19.513 262.484 19.2083 262.484 18.8594C262.484 18.526 262.557 18.2109 262.703 17.9141C262.854 17.6172 263.065 17.3542 263.336 17.125C263.612 16.8958 263.943 16.7161 264.328 16.5859C264.714 16.4557 265.143 16.3906 265.617 16.3906C266.294 16.3906 266.872 16.5104 267.352 16.75C267.831 16.9896 268.198 17.3099 268.453 17.7109C268.708 18.1068 268.836 18.5469 268.836 19.0312H267.391C267.391 18.7969 267.32 18.5703 267.18 18.3516C267.044 18.1276 266.844 17.9427 266.578 17.7969C266.318 17.651 265.997 17.5781 265.617 17.5781C265.216 17.5781 264.891 17.6406 264.641 17.7656C264.396 17.8854 264.216 18.0391 264.102 18.2266C263.992 18.4141 263.938 18.612 263.938 18.8203C263.938 18.9766 263.964 19.1172 264.016 19.2422C264.073 19.362 264.172 19.474 264.312 19.5781C264.453 19.6771 264.651 19.7708 264.906 19.8594C265.161 19.9479 265.487 20.0365 265.883 20.125C266.576 20.2812 267.146 20.4688 267.594 20.6875C268.042 20.9062 268.375 21.1745 268.594 21.4922C268.812 21.8099 268.922 22.1953 268.922 22.6484C268.922 23.0182 268.844 23.3568 268.688 23.6641C268.536 23.9714 268.315 24.237 268.023 24.4609C267.737 24.6797 267.393 24.8516 266.992 24.9766C266.596 25.0964 266.151 25.1562 265.656 25.1562C264.911 25.1562 264.281 25.0234 263.766 24.7578C263.25 24.4922 262.859 24.1484 262.594 23.7266C262.328 23.3047 262.195 22.8594 262.195 22.3906H263.648C263.669 22.7865 263.784 23.1016 263.992 23.3359C264.201 23.5651 264.456 23.7292 264.758 23.8281C265.06 23.9219 265.359 23.9688 265.656 23.9688C266.052 23.9688 266.383 23.9167 266.648 23.8125C266.919 23.7083 267.125 23.5651 267.266 23.3828C267.406 23.2005 267.477 22.9922 267.477 22.7578ZM274.359 16.5469V17.6562H269.789V16.5469H274.359ZM271.336 14.4922H272.781V22.9062C272.781 23.1927 272.826 23.4089 272.914 23.5547C273.003 23.7005 273.117 23.7969 273.258 23.8438C273.398 23.8906 273.549 23.9141 273.711 23.9141C273.831 23.9141 273.956 23.9036 274.086 23.8828C274.221 23.8568 274.323 23.8359 274.391 23.8203L274.398 25C274.284 25.0365 274.133 25.0703 273.945 25.1016C273.763 25.138 273.542 25.1562 273.281 25.1562C272.927 25.1562 272.602 25.0859 272.305 24.9453C272.008 24.8047 271.771 24.5703 271.594 24.2422C271.422 23.9089 271.336 23.4609 271.336 22.8984V14.4922ZM288.406 20.5391H285.367V19.3125H288.406C288.995 19.3125 289.471 19.2188 289.836 19.0312C290.201 18.8438 290.466 18.5833 290.633 18.25C290.805 17.9167 290.891 17.5365 290.891 17.1094C290.891 16.7188 290.805 16.3516 290.633 16.0078C290.466 15.6641 290.201 15.388 289.836 15.1797C289.471 14.9661 288.995 14.8594 288.406 14.8594H285.719V25H284.211V13.625H288.406C289.266 13.625 289.992 13.7734 290.586 14.0703C291.18 14.3672 291.63 14.7786 291.938 15.3047C292.245 15.8255 292.398 16.4219 292.398 17.0938C292.398 17.8229 292.245 18.4453 291.938 18.9609C291.63 19.4766 291.18 19.8698 290.586 20.1406C289.992 20.4062 289.266 20.5391 288.406 20.5391ZM295.531 17.875V25H294.086V16.5469H295.492L295.531 17.875ZM298.172 16.5L298.164 17.8438C298.044 17.8177 297.93 17.8021 297.82 17.7969C297.716 17.7865 297.596 17.7812 297.461 17.7812C297.128 17.7812 296.833 17.8333 296.578 17.9375C296.323 18.0417 296.107 18.1875 295.93 18.375C295.753 18.5625 295.612 18.7865 295.508 19.0469C295.409 19.3021 295.344 19.5833 295.312 19.8906L294.906 20.125C294.906 19.6146 294.956 19.1354 295.055 18.6875C295.159 18.2396 295.318 17.8438 295.531 17.5C295.745 17.151 296.016 16.8802 296.344 16.6875C296.677 16.4896 297.073 16.3906 297.531 16.3906C297.635 16.3906 297.755 16.4036 297.891 16.4297C298.026 16.4505 298.12 16.474 298.172 16.5ZM301.078 16.5469V25H299.625V16.5469H301.078ZM299.516 14.3047C299.516 14.0703 299.586 13.8724 299.727 13.7109C299.872 13.5495 300.086 13.4688 300.367 13.4688C300.643 13.4688 300.854 13.5495 301 13.7109C301.151 13.8724 301.227 14.0703 301.227 14.3047C301.227 14.5286 301.151 14.7214 301 14.8828C300.854 15.0391 300.643 15.1172 300.367 15.1172C300.086 15.1172 299.872 15.0391 299.727 14.8828C299.586 14.7214 299.516 14.5286 299.516 14.3047ZM306.781 23.9688C307.125 23.9688 307.443 23.8984 307.734 23.7578C308.026 23.6172 308.266 23.4245 308.453 23.1797C308.641 22.9297 308.747 22.6458 308.773 22.3281H310.148C310.122 22.8281 309.953 23.2943 309.641 23.7266C309.333 24.1536 308.93 24.5 308.43 24.7656C307.93 25.026 307.38 25.1562 306.781 25.1562C306.146 25.1562 305.591 25.0443 305.117 24.8203C304.648 24.5964 304.258 24.2891 303.945 23.8984C303.638 23.5078 303.406 23.0599 303.25 22.5547C303.099 22.0443 303.023 21.5052 303.023 20.9375V20.6094C303.023 20.0417 303.099 19.5052 303.25 19C303.406 18.4896 303.638 18.0391 303.945 17.6484C304.258 17.2578 304.648 16.9505 305.117 16.7266C305.591 16.5026 306.146 16.3906 306.781 16.3906C307.443 16.3906 308.021 16.526 308.516 16.7969C309.01 17.0625 309.398 17.4271 309.68 17.8906C309.966 18.349 310.122 18.8698 310.148 19.4531H308.773C308.747 19.1042 308.648 18.7891 308.477 18.5078C308.31 18.2266 308.081 18.0026 307.789 17.8359C307.503 17.6641 307.167 17.5781 306.781 17.5781C306.339 17.5781 305.966 17.6667 305.664 17.8438C305.367 18.0156 305.13 18.25 304.953 18.5469C304.781 18.8385 304.656 19.1641 304.578 19.5234C304.505 19.8776 304.469 20.2396 304.469 20.6094V20.9375C304.469 21.3073 304.505 21.6719 304.578 22.0312C304.651 22.3906 304.773 22.7161 304.945 23.0078C305.122 23.2995 305.359 23.5339 305.656 23.7109C305.958 23.8828 306.333 23.9688 306.781 23.9688ZM315.281 25.1562C314.693 25.1562 314.159 25.0573 313.68 24.8594C313.206 24.6562 312.797 24.3724 312.453 24.0078C312.115 23.6432 311.854 23.2109 311.672 22.7109C311.49 22.2109 311.398 21.6641 311.398 21.0703V20.7422C311.398 20.0547 311.5 19.4427 311.703 18.9062C311.906 18.3646 312.182 17.9062 312.531 17.5312C312.88 17.1562 313.276 16.8724 313.719 16.6797C314.161 16.487 314.62 16.3906 315.094 16.3906C315.698 16.3906 316.219 16.4948 316.656 16.7031C317.099 16.9115 317.461 17.2031 317.742 17.5781C318.023 17.9479 318.232 18.3854 318.367 18.8906C318.503 19.3906 318.57 19.9375 318.57 20.5312V21.1797H312.258V20H317.125V19.8906C317.104 19.5156 317.026 19.151 316.891 18.7969C316.76 18.4427 316.552 18.151 316.266 17.9219C315.979 17.6927 315.589 17.5781 315.094 17.5781C314.766 17.5781 314.464 17.6484 314.188 17.7891C313.911 17.9245 313.674 18.1276 313.477 18.3984C313.279 18.6693 313.125 19 313.016 19.3906C312.906 19.7812 312.852 20.2318 312.852 20.7422V21.0703C312.852 21.4714 312.906 21.849 313.016 22.2031C313.13 22.5521 313.294 22.8594 313.508 23.125C313.727 23.3906 313.99 23.599 314.297 23.75C314.609 23.901 314.964 23.9766 315.359 23.9766C315.87 23.9766 316.302 23.8724 316.656 23.6641C317.01 23.4557 317.32 23.1771 317.586 22.8281L318.461 23.5234C318.279 23.7995 318.047 24.0625 317.766 24.3125C317.484 24.5625 317.138 24.7656 316.727 24.9219C316.32 25.0781 315.839 25.1562 315.281 25.1562Z" fill="black"/>
</svg>
