<svg width="768" height="118" viewBox="0 0 768 118" fill="none" xmlns="http://www.w3.org/2000/svg">
<path d="M306.672 39.793H314.848C314.684 42.4727 313.945 44.8516 312.633 46.9297C311.339 49.0078 309.525 50.6302 307.191 51.7969C304.876 52.9635 302.087 53.5469 298.824 53.5469C296.272 53.5469 293.984 53.1094 291.961 52.2344C289.938 51.3411 288.206 50.0651 286.766 48.4062C285.344 46.7474 284.259 44.7422 283.512 42.3906C282.764 40.0391 282.391 37.4049 282.391 34.4883V31.7266C282.391 28.8099 282.773 26.1758 283.539 23.8242C284.323 21.4544 285.435 19.4401 286.875 17.7812C288.333 16.1224 290.074 14.8464 292.098 13.9531C294.121 13.0599 296.382 12.6133 298.879 12.6133C302.197 12.6133 304.995 13.2148 307.273 14.418C309.57 15.6211 311.348 17.2799 312.605 19.3945C313.882 21.5091 314.647 23.9154 314.902 26.6133H306.699C306.608 25.0091 306.289 23.651 305.742 22.5391C305.195 21.4089 304.366 20.5612 303.254 19.9961C302.16 19.4128 300.702 19.1211 298.879 19.1211C297.512 19.1211 296.318 19.3763 295.297 19.8867C294.276 20.3971 293.419 21.1719 292.727 22.2109C292.034 23.25 291.514 24.5625 291.168 26.1484C290.84 27.7161 290.676 29.5573 290.676 31.6719V34.4883C290.676 36.5482 290.831 38.362 291.141 39.9297C291.451 41.4792 291.924 42.7917 292.562 43.8672C293.219 44.9245 294.057 45.7266 295.078 46.2734C296.117 46.8021 297.366 47.0664 298.824 47.0664C300.538 47.0664 301.951 46.793 303.062 46.2461C304.174 45.6992 305.022 44.888 305.605 43.8125C306.207 42.737 306.562 41.3971 306.672 39.793ZM318.484 38.5078V37.9336C318.484 35.7643 318.794 33.7682 319.414 31.9453C320.034 30.1042 320.936 28.5091 322.121 27.1602C323.306 25.8112 324.764 24.763 326.496 24.0156C328.228 23.25 330.215 22.8672 332.457 22.8672C334.699 22.8672 336.695 23.25 338.445 24.0156C340.195 24.763 341.663 25.8112 342.848 27.1602C344.051 28.5091 344.962 30.1042 345.582 31.9453C346.202 33.7682 346.512 35.7643 346.512 37.9336V38.5078C346.512 40.6589 346.202 42.6549 345.582 44.4961C344.962 46.319 344.051 47.9141 342.848 49.2812C341.663 50.6302 340.204 51.6784 338.473 52.4258C336.741 53.1732 334.754 53.5469 332.512 53.5469C330.27 53.5469 328.273 53.1732 326.523 52.4258C324.792 51.6784 323.324 50.6302 322.121 49.2812C320.936 47.9141 320.034 46.319 319.414 44.4961C318.794 42.6549 318.484 40.6589 318.484 38.5078ZM326.359 37.9336V38.5078C326.359 39.7474 326.469 40.9049 326.688 41.9805C326.906 43.056 327.253 44.0039 327.727 44.8242C328.219 45.6263 328.857 46.2552 329.641 46.7109C330.424 47.1667 331.382 47.3945 332.512 47.3945C333.605 47.3945 334.544 47.1667 335.328 46.7109C336.112 46.2552 336.741 45.6263 337.215 44.8242C337.689 44.0039 338.035 43.056 338.254 41.9805C338.491 40.9049 338.609 39.7474 338.609 38.5078V37.9336C338.609 36.7305 338.491 35.6003 338.254 34.543C338.035 33.4674 337.68 32.5195 337.188 31.6992C336.714 30.8607 336.085 30.2044 335.301 29.7305C334.517 29.2565 333.569 29.0195 332.457 29.0195C331.345 29.0195 330.397 29.2565 329.613 29.7305C328.848 30.2044 328.219 30.8607 327.727 31.6992C327.253 32.5195 326.906 33.4674 326.688 34.543C326.469 35.6003 326.359 36.7305 326.359 37.9336ZM368.852 45.918V23.4141H376.727V53H369.316L368.852 45.918ZM369.727 39.8477L372.051 39.793C372.051 41.7617 371.823 43.5938 371.367 45.2891C370.911 46.9661 370.228 48.4245 369.316 49.6641C368.405 50.8854 367.257 51.8424 365.871 52.5352C364.486 53.2096 362.854 53.5469 360.977 53.5469C359.536 53.5469 358.206 53.3464 356.984 52.9453C355.781 52.526 354.742 51.8789 353.867 51.0039C353.01 50.1107 352.336 48.9714 351.844 47.5859C351.37 46.1823 351.133 44.4961 351.133 42.5273V23.4141H359.008V42.582C359.008 43.457 359.108 44.1953 359.309 44.7969C359.527 45.3984 359.828 45.8906 360.211 46.2734C360.594 46.6562 361.04 46.9297 361.551 47.0938C362.079 47.2578 362.663 47.3398 363.301 47.3398C364.923 47.3398 366.199 47.0117 367.129 46.3555C368.077 45.6992 368.742 44.806 369.125 43.6758C369.526 42.5273 369.727 41.2513 369.727 39.8477ZM390.617 29.8672V53H382.742V23.4141H390.152L390.617 29.8672ZM399.531 23.2227L399.395 30.5234C399.012 30.4688 398.547 30.4232 398 30.3867C397.471 30.332 396.988 30.3047 396.551 30.3047C395.439 30.3047 394.473 30.4505 393.652 30.7422C392.85 31.0156 392.176 31.4258 391.629 31.9727C391.1 32.5195 390.699 33.1849 390.426 33.9688C390.171 34.7526 390.025 35.6458 389.988 36.6484L388.402 36.1562C388.402 34.2422 388.594 32.4831 388.977 30.8789C389.359 29.2565 389.915 27.8438 390.645 26.6406C391.392 25.4375 392.303 24.5078 393.379 23.8516C394.454 23.1953 395.685 22.8672 397.07 22.8672C397.508 22.8672 397.954 22.9036 398.41 22.9766C398.866 23.0312 399.24 23.1133 399.531 23.2227ZM419.246 44.8242C419.246 44.2591 419.082 43.7487 418.754 43.293C418.426 42.8372 417.815 42.418 416.922 42.0352C416.047 41.6341 414.78 41.2695 413.121 40.9414C411.626 40.6133 410.232 40.2031 408.938 39.7109C407.661 39.2005 406.549 38.5898 405.602 37.8789C404.672 37.168 403.943 36.3294 403.414 35.3633C402.885 34.3789 402.621 33.2578 402.621 32C402.621 30.7604 402.885 29.5938 403.414 28.5C403.961 27.4062 404.736 26.4401 405.738 25.6016C406.759 24.7448 407.999 24.0794 409.457 23.6055C410.934 23.1133 412.592 22.8672 414.434 22.8672C417.004 22.8672 419.21 23.2773 421.051 24.0977C422.91 24.918 424.332 26.0482 425.316 27.4883C426.319 28.9102 426.82 30.5326 426.82 32.3555H418.945C418.945 31.5898 418.781 30.9062 418.453 30.3047C418.143 29.6849 417.651 29.2018 416.977 28.8555C416.32 28.4909 415.464 28.3086 414.406 28.3086C413.531 28.3086 412.775 28.4635 412.137 28.7734C411.499 29.0651 411.007 29.4661 410.66 29.9766C410.332 30.4688 410.168 31.0156 410.168 31.6172C410.168 32.0729 410.259 32.4831 410.441 32.8477C410.642 33.194 410.961 33.513 411.398 33.8047C411.836 34.0964 412.401 34.3698 413.094 34.625C413.805 34.862 414.68 35.0807 415.719 35.2812C417.852 35.7188 419.757 36.293 421.434 37.0039C423.111 37.6966 424.441 38.6445 425.426 39.8477C426.41 41.0326 426.902 42.5911 426.902 44.5234C426.902 45.8359 426.611 47.0391 426.027 48.1328C425.444 49.2266 424.605 50.1836 423.512 51.0039C422.418 51.806 421.105 52.4349 419.574 52.8906C418.061 53.3281 416.357 53.5469 414.461 53.5469C411.708 53.5469 409.375 53.0547 407.461 52.0703C405.565 51.0859 404.125 49.8372 403.141 48.3242C402.174 46.793 401.691 45.2253 401.691 43.6211H409.156C409.193 44.6966 409.466 45.5625 409.977 46.2188C410.505 46.875 411.171 47.349 411.973 47.6406C412.793 47.9323 413.677 48.0781 414.625 48.0781C415.646 48.0781 416.493 47.9414 417.168 47.668C417.842 47.3763 418.353 46.9935 418.699 46.5195C419.064 46.0273 419.246 45.4622 419.246 44.8242ZM445.633 53.5469C443.336 53.5469 441.276 53.1823 439.453 52.4531C437.63 51.7057 436.081 50.6758 434.805 49.3633C433.547 48.0508 432.581 46.5286 431.906 44.7969C431.232 43.0469 430.895 41.1875 430.895 39.2188V38.125C430.895 35.8828 431.214 33.832 431.852 31.9727C432.49 30.1133 433.401 28.5 434.586 27.1328C435.789 25.7656 437.247 24.7174 438.961 23.9883C440.674 23.2409 442.607 22.8672 444.758 22.8672C446.854 22.8672 448.714 23.2135 450.336 23.9062C451.958 24.599 453.316 25.5833 454.41 26.8594C455.522 28.1354 456.361 29.6667 456.926 31.4531C457.491 33.2214 457.773 35.1901 457.773 37.3594V40.6406H434.258V35.3906H450.035V34.7891C450.035 33.6953 449.835 32.7201 449.434 31.8633C449.051 30.9883 448.467 30.2956 447.684 29.7852C446.9 29.2747 445.897 29.0195 444.676 29.0195C443.637 29.0195 442.743 29.2474 441.996 29.7031C441.249 30.1589 440.638 30.7969 440.164 31.6172C439.708 32.4375 439.362 33.4036 439.125 34.5156C438.906 35.6094 438.797 36.8125 438.797 38.125V39.2188C438.797 40.4036 438.961 41.4974 439.289 42.5C439.635 43.5026 440.118 44.3685 440.738 45.0977C441.376 45.8268 442.142 46.3919 443.035 46.793C443.947 47.194 444.977 47.3945 446.125 47.3945C447.547 47.3945 448.868 47.1211 450.09 46.5742C451.329 46.0091 452.396 45.1615 453.289 44.0312L457.117 48.1875C456.497 49.0807 455.65 49.9375 454.574 50.7578C453.517 51.5781 452.241 52.2526 450.746 52.7812C449.251 53.2917 447.547 53.5469 445.633 53.5469ZM478.254 44.8242C478.254 44.2591 478.09 43.7487 477.762 43.293C477.434 42.8372 476.823 42.418 475.93 42.0352C475.055 41.6341 473.788 41.2695 472.129 40.9414C470.634 40.6133 469.24 40.2031 467.945 39.7109C466.669 39.2005 465.557 38.5898 464.609 37.8789C463.68 37.168 462.951 36.3294 462.422 35.3633C461.893 34.3789 461.629 33.2578 461.629 32C461.629 30.7604 461.893 29.5938 462.422 28.5C462.969 27.4062 463.743 26.4401 464.746 25.6016C465.767 24.7448 467.007 24.0794 468.465 23.6055C469.941 23.1133 471.6 22.8672 473.441 22.8672C476.012 22.8672 478.217 23.2773 480.059 24.0977C481.918 24.918 483.34 26.0482 484.324 27.4883C485.327 28.9102 485.828 30.5326 485.828 32.3555H477.953C477.953 31.5898 477.789 30.9062 477.461 30.3047C477.151 29.6849 476.659 29.2018 475.984 28.8555C475.328 28.4909 474.471 28.3086 473.414 28.3086C472.539 28.3086 471.783 28.4635 471.145 28.7734C470.507 29.0651 470.014 29.4661 469.668 29.9766C469.34 30.4688 469.176 31.0156 469.176 31.6172C469.176 32.0729 469.267 32.4831 469.449 32.8477C469.65 33.194 469.969 33.513 470.406 33.8047C470.844 34.0964 471.409 34.3698 472.102 34.625C472.812 34.862 473.688 35.0807 474.727 35.2812C476.859 35.7188 478.764 36.293 480.441 37.0039C482.118 37.6966 483.449 38.6445 484.434 39.8477C485.418 41.0326 485.91 42.5911 485.91 44.5234C485.91 45.8359 485.618 47.0391 485.035 48.1328C484.452 49.2266 483.613 50.1836 482.52 51.0039C481.426 51.806 480.113 52.4349 478.582 52.8906C477.069 53.3281 475.365 53.5469 473.469 53.5469C470.716 53.5469 468.383 53.0547 466.469 52.0703C464.573 51.0859 463.133 49.8372 462.148 48.3242C461.182 46.793 460.699 45.2253 460.699 43.6211H468.164C468.201 44.6966 468.474 45.5625 468.984 46.2188C469.513 46.875 470.178 47.349 470.98 47.6406C471.801 47.9323 472.685 48.0781 473.633 48.0781C474.654 48.0781 475.501 47.9414 476.176 47.668C476.85 47.3763 477.361 46.9935 477.707 46.5195C478.072 46.0273 478.254 45.4622 478.254 44.8242Z" fill="black"/>
<path d="M261.99 98.2031L265.312 104.628L268.644 98.2031H270.568L266.156 106.219V111H264.46V106.219L260.048 98.2031H261.99ZM270.955 106.351V106.148C270.955 105.463 271.055 104.827 271.254 104.241C271.453 103.649 271.74 103.137 272.115 102.703C272.49 102.264 272.944 101.924 273.478 101.684C274.011 101.438 274.608 101.314 275.271 101.314C275.938 101.314 276.539 101.438 277.072 101.684C277.611 101.924 278.068 102.264 278.443 102.703C278.824 103.137 279.114 103.649 279.313 104.241C279.513 104.827 279.612 105.463 279.612 106.148V106.351C279.612 107.036 279.513 107.672 279.313 108.258C279.114 108.844 278.824 109.356 278.443 109.796C278.068 110.229 277.614 110.569 277.081 110.815C276.554 111.056 275.956 111.176 275.288 111.176C274.62 111.176 274.02 111.056 273.486 110.815C272.953 110.569 272.496 110.229 272.115 109.796C271.74 109.356 271.453 108.844 271.254 108.258C271.055 107.672 270.955 107.036 270.955 106.351ZM272.581 106.148V106.351C272.581 106.825 272.637 107.273 272.748 107.695C272.859 108.111 273.026 108.48 273.249 108.803C273.478 109.125 273.762 109.38 274.102 109.567C274.441 109.749 274.837 109.84 275.288 109.84C275.733 109.84 276.123 109.749 276.457 109.567C276.797 109.38 277.078 109.125 277.301 108.803C277.523 108.48 277.69 108.111 277.802 107.695C277.919 107.273 277.978 106.825 277.978 106.351V106.148C277.978 105.68 277.919 105.237 277.802 104.821C277.69 104.399 277.521 104.027 277.292 103.705C277.069 103.377 276.788 103.119 276.448 102.932C276.114 102.744 275.722 102.65 275.271 102.65C274.825 102.65 274.433 102.744 274.093 102.932C273.759 103.119 273.478 103.377 273.249 103.705C273.026 104.027 272.859 104.399 272.748 104.821C272.637 105.237 272.581 105.68 272.581 106.148ZM287.47 108.803V101.49H289.104V111H287.549L287.47 108.803ZM287.777 106.799L288.454 106.781C288.454 107.414 288.387 108 288.252 108.539C288.123 109.072 287.912 109.535 287.619 109.928C287.326 110.32 286.942 110.628 286.468 110.851C285.993 111.067 285.416 111.176 284.736 111.176C284.273 111.176 283.849 111.108 283.462 110.974C283.081 110.839 282.753 110.631 282.478 110.35C282.202 110.068 281.988 109.702 281.836 109.251C281.689 108.8 281.616 108.258 281.616 107.625V101.49H283.242V107.643C283.242 108.07 283.289 108.425 283.383 108.706C283.482 108.981 283.614 109.201 283.778 109.365C283.948 109.523 284.136 109.635 284.341 109.699C284.552 109.764 284.769 109.796 284.991 109.796C285.683 109.796 286.23 109.664 286.635 109.4C287.039 109.131 287.329 108.771 287.505 108.319C287.687 107.862 287.777 107.355 287.777 106.799ZM293.209 102.984V111H291.583V101.49H293.165L293.209 102.984ZM296.18 101.438L296.171 102.949C296.036 102.92 295.907 102.902 295.784 102.896C295.667 102.885 295.532 102.879 295.38 102.879C295.005 102.879 294.674 102.938 294.387 103.055C294.1 103.172 293.856 103.336 293.657 103.547C293.458 103.758 293.3 104.01 293.183 104.303C293.071 104.59 292.998 104.906 292.963 105.252L292.506 105.516C292.506 104.941 292.562 104.402 292.673 103.898C292.79 103.395 292.969 102.949 293.209 102.562C293.449 102.17 293.754 101.865 294.123 101.648C294.498 101.426 294.943 101.314 295.459 101.314C295.576 101.314 295.711 101.329 295.863 101.358C296.016 101.382 296.121 101.408 296.18 101.438ZM309.715 98.2031H311.402V106.86C311.402 107.821 311.188 108.621 310.761 109.26C310.333 109.898 309.765 110.379 309.056 110.701C308.353 111.018 307.588 111.176 306.762 111.176C305.895 111.176 305.109 111.018 304.406 110.701C303.709 110.379 303.155 109.898 302.745 109.26C302.341 108.621 302.139 107.821 302.139 106.86V98.2031H303.817V106.86C303.817 107.528 303.94 108.079 304.187 108.513C304.433 108.946 304.775 109.269 305.215 109.479C305.66 109.69 306.176 109.796 306.762 109.796C307.354 109.796 307.869 109.69 308.309 109.479C308.754 109.269 309.1 108.946 309.346 108.513C309.592 108.079 309.715 107.528 309.715 106.86V98.2031ZM315.586 97.5V111H313.951V97.5H315.586ZM322.178 101.49V102.738H317.036V101.49H322.178ZM318.776 99.1787H320.402V108.645C320.402 108.967 320.452 109.21 320.552 109.374C320.651 109.538 320.78 109.646 320.938 109.699C321.097 109.752 321.267 109.778 321.448 109.778C321.583 109.778 321.724 109.767 321.87 109.743C322.022 109.714 322.137 109.69 322.213 109.673L322.222 111C322.093 111.041 321.923 111.079 321.712 111.114C321.507 111.155 321.258 111.176 320.965 111.176C320.566 111.176 320.2 111.097 319.866 110.938C319.532 110.78 319.266 110.517 319.066 110.147C318.873 109.772 318.776 109.269 318.776 108.636V99.1787ZM325.852 101.49V111H324.217V101.49H325.852ZM324.094 98.9678C324.094 98.7041 324.173 98.4814 324.331 98.2998C324.495 98.1182 324.735 98.0273 325.052 98.0273C325.362 98.0273 325.6 98.1182 325.764 98.2998C325.934 98.4814 326.019 98.7041 326.019 98.9678C326.019 99.2197 325.934 99.4365 325.764 99.6182C325.6 99.7939 325.362 99.8818 325.052 99.8818C324.735 99.8818 324.495 99.7939 324.331 99.6182C324.173 99.4365 324.094 99.2197 324.094 98.9678ZM330.079 103.38V111H328.444V101.49H329.991L330.079 103.38ZM329.745 105.885L328.989 105.858C328.995 105.208 329.08 104.607 329.244 104.057C329.408 103.5 329.651 103.017 329.974 102.606C330.296 102.196 330.697 101.88 331.178 101.657C331.658 101.429 332.215 101.314 332.848 101.314C333.293 101.314 333.703 101.379 334.078 101.508C334.453 101.631 334.778 101.827 335.054 102.097C335.329 102.366 335.543 102.712 335.695 103.134C335.848 103.556 335.924 104.065 335.924 104.663V111H334.298V104.742C334.298 104.244 334.213 103.846 334.043 103.547C333.879 103.248 333.645 103.031 333.34 102.896C333.035 102.756 332.678 102.686 332.268 102.686C331.787 102.686 331.386 102.771 331.063 102.94C330.741 103.11 330.483 103.345 330.29 103.644C330.097 103.942 329.956 104.285 329.868 104.672C329.786 105.053 329.745 105.457 329.745 105.885ZM335.906 104.988L334.816 105.322C334.822 104.801 334.907 104.3 335.071 103.819C335.241 103.339 335.484 102.911 335.801 102.536C336.123 102.161 336.519 101.865 336.987 101.648C337.456 101.426 337.992 101.314 338.596 101.314C339.105 101.314 339.557 101.382 339.949 101.517C340.348 101.651 340.682 101.859 340.951 102.141C341.227 102.416 341.435 102.771 341.575 103.204C341.716 103.638 341.786 104.153 341.786 104.751V111H340.151V104.733C340.151 104.2 340.066 103.787 339.896 103.494C339.732 103.195 339.498 102.987 339.193 102.87C338.895 102.747 338.537 102.686 338.121 102.686C337.764 102.686 337.447 102.747 337.172 102.87C336.896 102.993 336.665 103.163 336.478 103.38C336.29 103.591 336.146 103.834 336.047 104.109C335.953 104.385 335.906 104.678 335.906 104.988ZM349.854 109.374V104.479C349.854 104.104 349.778 103.778 349.626 103.503C349.479 103.222 349.257 103.005 348.958 102.853C348.659 102.7 348.29 102.624 347.851 102.624C347.44 102.624 347.08 102.694 346.77 102.835C346.465 102.976 346.225 103.16 346.049 103.389C345.879 103.617 345.794 103.863 345.794 104.127H344.168C344.168 103.787 344.256 103.45 344.432 103.116C344.607 102.782 344.859 102.48 345.188 102.211C345.521 101.936 345.92 101.719 346.383 101.561C346.852 101.396 347.373 101.314 347.947 101.314C348.639 101.314 349.248 101.432 349.775 101.666C350.309 101.9 350.725 102.255 351.023 102.729C351.328 103.198 351.48 103.787 351.48 104.496V108.926C351.48 109.242 351.507 109.579 351.56 109.937C351.618 110.294 351.703 110.602 351.814 110.859V111H350.118C350.036 110.812 349.972 110.563 349.925 110.253C349.878 109.937 349.854 109.644 349.854 109.374ZM350.136 105.234L350.153 106.377H348.51C348.047 106.377 347.634 106.415 347.271 106.491C346.907 106.562 346.603 106.67 346.356 106.816C346.11 106.963 345.923 107.147 345.794 107.37C345.665 107.587 345.601 107.842 345.601 108.135C345.601 108.434 345.668 108.706 345.803 108.952C345.938 109.198 346.14 109.395 346.409 109.541C346.685 109.682 347.021 109.752 347.42 109.752C347.918 109.752 348.357 109.646 348.738 109.436C349.119 109.225 349.421 108.967 349.644 108.662C349.872 108.357 349.995 108.062 350.013 107.774L350.707 108.557C350.666 108.803 350.555 109.075 350.373 109.374C350.191 109.673 349.948 109.96 349.644 110.235C349.345 110.505 348.987 110.73 348.571 110.912C348.161 111.088 347.698 111.176 347.183 111.176C346.538 111.176 345.973 111.05 345.486 110.798C345.006 110.546 344.631 110.209 344.361 109.787C344.098 109.359 343.966 108.882 343.966 108.354C343.966 107.845 344.065 107.396 344.265 107.01C344.464 106.617 344.751 106.292 345.126 106.034C345.501 105.771 345.952 105.571 346.479 105.437C347.007 105.302 347.596 105.234 348.246 105.234H350.136ZM358.02 101.49V102.738H352.878V101.49H358.02ZM354.618 99.1787H356.244V108.645C356.244 108.967 356.294 109.21 356.394 109.374C356.493 109.538 356.622 109.646 356.78 109.699C356.938 109.752 357.108 109.778 357.29 109.778C357.425 109.778 357.565 109.767 357.712 109.743C357.864 109.714 357.979 109.69 358.055 109.673L358.063 111C357.935 111.041 357.765 111.079 357.554 111.114C357.349 111.155 357.1 111.176 356.807 111.176C356.408 111.176 356.042 111.097 355.708 110.938C355.374 110.78 355.107 110.517 354.908 110.147C354.715 109.772 354.618 109.269 354.618 108.636V99.1787ZM363.873 111.176C363.211 111.176 362.61 111.064 362.071 110.842C361.538 110.613 361.078 110.294 360.691 109.884C360.311 109.474 360.018 108.987 359.812 108.425C359.607 107.862 359.505 107.247 359.505 106.579V106.21C359.505 105.437 359.619 104.748 359.848 104.145C360.076 103.535 360.387 103.02 360.779 102.598C361.172 102.176 361.617 101.856 362.115 101.64C362.613 101.423 363.129 101.314 363.662 101.314C364.342 101.314 364.928 101.432 365.42 101.666C365.918 101.9 366.325 102.229 366.642 102.65C366.958 103.066 367.192 103.559 367.345 104.127C367.497 104.689 367.573 105.305 367.573 105.973V106.702H360.472V105.375H365.947V105.252C365.924 104.83 365.836 104.42 365.684 104.021C365.537 103.623 365.303 103.295 364.98 103.037C364.658 102.779 364.219 102.65 363.662 102.65C363.293 102.65 362.953 102.729 362.643 102.888C362.332 103.04 362.065 103.269 361.843 103.573C361.62 103.878 361.447 104.25 361.324 104.689C361.201 105.129 361.14 105.636 361.14 106.21V106.579C361.14 107.03 361.201 107.455 361.324 107.854C361.453 108.246 361.638 108.592 361.878 108.891C362.124 109.189 362.42 109.424 362.766 109.594C363.117 109.764 363.516 109.849 363.961 109.849C364.535 109.849 365.021 109.731 365.42 109.497C365.818 109.263 366.167 108.949 366.466 108.557L367.45 109.339C367.245 109.649 366.984 109.945 366.668 110.227C366.352 110.508 365.962 110.736 365.499 110.912C365.042 111.088 364.5 111.176 363.873 111.176ZM383.64 104.628V109.312C383.481 109.547 383.229 109.811 382.884 110.104C382.538 110.391 382.061 110.643 381.451 110.859C380.848 111.07 380.068 111.176 379.113 111.176C378.334 111.176 377.616 111.041 376.96 110.771C376.31 110.496 375.744 110.098 375.264 109.576C374.789 109.049 374.42 108.41 374.156 107.66C373.898 106.904 373.77 106.049 373.77 105.094V104.101C373.77 103.146 373.881 102.293 374.104 101.543C374.332 100.793 374.666 100.157 375.105 99.6357C375.545 99.1084 376.084 98.71 376.723 98.4404C377.361 98.165 378.094 98.0273 378.92 98.0273C379.898 98.0273 380.716 98.1973 381.372 98.5371C382.034 98.8711 382.55 99.334 382.919 99.9258C383.294 100.518 383.534 101.191 383.64 101.947H381.943C381.867 101.484 381.715 101.062 381.486 100.682C381.264 100.301 380.944 99.9961 380.528 99.7676C380.112 99.5332 379.576 99.416 378.92 99.416C378.328 99.416 377.815 99.5244 377.382 99.7412C376.948 99.958 376.591 100.269 376.31 100.673C376.028 101.077 375.817 101.566 375.677 102.141C375.542 102.715 375.475 103.362 375.475 104.083V105.094C375.475 105.832 375.56 106.491 375.729 107.071C375.905 107.651 376.154 108.146 376.477 108.557C376.799 108.961 377.183 109.269 377.628 109.479C378.079 109.69 378.577 109.796 379.122 109.796C379.726 109.796 380.215 109.746 380.59 109.646C380.965 109.541 381.258 109.418 381.469 109.277C381.68 109.131 381.841 108.993 381.952 108.864V105.999H378.99V104.628H383.64ZM392.024 108.803V101.49H393.659V111H392.104L392.024 108.803ZM392.332 106.799L393.009 106.781C393.009 107.414 392.941 108 392.807 108.539C392.678 109.072 392.467 109.535 392.174 109.928C391.881 110.32 391.497 110.628 391.022 110.851C390.548 111.067 389.971 111.176 389.291 111.176C388.828 111.176 388.403 111.108 388.017 110.974C387.636 110.839 387.308 110.631 387.032 110.35C386.757 110.068 386.543 109.702 386.391 109.251C386.244 108.8 386.171 108.258 386.171 107.625V101.49H387.797V107.643C387.797 108.07 387.844 108.425 387.938 108.706C388.037 108.981 388.169 109.201 388.333 109.365C388.503 109.523 388.69 109.635 388.896 109.699C389.106 109.764 389.323 109.796 389.546 109.796C390.237 109.796 390.785 109.664 391.189 109.4C391.594 109.131 391.884 108.771 392.06 108.319C392.241 107.862 392.332 107.355 392.332 106.799ZM397.904 101.49V111H396.27V101.49H397.904ZM396.146 98.9678C396.146 98.7041 396.226 98.4814 396.384 98.2998C396.548 98.1182 396.788 98.0273 397.104 98.0273C397.415 98.0273 397.652 98.1182 397.816 98.2998C397.986 98.4814 398.071 98.7041 398.071 98.9678C398.071 99.2197 397.986 99.4365 397.816 99.6182C397.652 99.7939 397.415 99.8818 397.104 99.8818C396.788 99.8818 396.548 99.7939 396.384 99.6182C396.226 99.4365 396.146 99.2197 396.146 98.9678ZM406.509 109.154V97.5H408.144V111H406.649L406.509 109.154ZM400.11 106.351V106.166C400.11 105.439 400.198 104.78 400.374 104.188C400.556 103.591 400.811 103.078 401.139 102.65C401.473 102.223 401.868 101.895 402.325 101.666C402.788 101.432 403.304 101.314 403.872 101.314C404.47 101.314 404.991 101.42 405.437 101.631C405.888 101.836 406.269 102.138 406.579 102.536C406.896 102.929 407.145 103.403 407.326 103.96C407.508 104.517 407.634 105.146 407.704 105.85V106.658C407.64 107.355 407.514 107.982 407.326 108.539C407.145 109.096 406.896 109.57 406.579 109.963C406.269 110.355 405.888 110.657 405.437 110.868C404.985 111.073 404.458 111.176 403.854 111.176C403.298 111.176 402.788 111.056 402.325 110.815C401.868 110.575 401.473 110.238 401.139 109.805C400.811 109.371 400.556 108.861 400.374 108.275C400.198 107.684 400.11 107.042 400.11 106.351ZM401.745 106.166V106.351C401.745 106.825 401.792 107.271 401.886 107.687C401.985 108.103 402.138 108.469 402.343 108.785C402.548 109.102 402.809 109.351 403.125 109.532C403.441 109.708 403.819 109.796 404.259 109.796C404.798 109.796 405.24 109.682 405.586 109.453C405.938 109.225 406.219 108.923 406.43 108.548C406.641 108.173 406.805 107.766 406.922 107.326V105.208C406.852 104.886 406.749 104.575 406.614 104.276C406.485 103.972 406.315 103.702 406.104 103.468C405.899 103.228 405.645 103.037 405.34 102.896C405.041 102.756 404.687 102.686 404.276 102.686C403.831 102.686 403.447 102.779 403.125 102.967C402.809 103.148 402.548 103.4 402.343 103.723C402.138 104.039 401.985 104.408 401.886 104.83C401.792 105.246 401.745 105.691 401.745 106.166ZM414.621 111.176C413.959 111.176 413.358 111.064 412.819 110.842C412.286 110.613 411.826 110.294 411.439 109.884C411.059 109.474 410.766 108.987 410.561 108.425C410.355 107.862 410.253 107.247 410.253 106.579V106.21C410.253 105.437 410.367 104.748 410.596 104.145C410.824 103.535 411.135 103.02 411.527 102.598C411.92 102.176 412.365 101.856 412.863 101.64C413.361 101.423 413.877 101.314 414.41 101.314C415.09 101.314 415.676 101.432 416.168 101.666C416.666 101.9 417.073 102.229 417.39 102.65C417.706 103.066 417.94 103.559 418.093 104.127C418.245 104.689 418.321 105.305 418.321 105.973V106.702H411.22V105.375H416.695V105.252C416.672 104.83 416.584 104.42 416.432 104.021C416.285 103.623 416.051 103.295 415.729 103.037C415.406 102.779 414.967 102.65 414.41 102.65C414.041 102.65 413.701 102.729 413.391 102.888C413.08 103.04 412.813 103.269 412.591 103.573C412.368 103.878 412.195 104.25 412.072 104.689C411.949 105.129 411.888 105.636 411.888 106.21V106.579C411.888 107.03 411.949 107.455 412.072 107.854C412.201 108.246 412.386 108.592 412.626 108.891C412.872 109.189 413.168 109.424 413.514 109.594C413.865 109.764 414.264 109.849 414.709 109.849C415.283 109.849 415.77 109.731 416.168 109.497C416.566 109.263 416.915 108.949 417.214 108.557L418.198 109.339C417.993 109.649 417.732 109.945 417.416 110.227C417.1 110.508 416.71 110.736 416.247 110.912C415.79 111.088 415.248 111.176 414.621 111.176ZM428.666 101.49V102.738H423.524V101.49H428.666ZM425.265 99.1787H426.891V108.645C426.891 108.967 426.94 109.21 427.04 109.374C427.14 109.538 427.269 109.646 427.427 109.699C427.585 109.752 427.755 109.778 427.937 109.778C428.071 109.778 428.212 109.767 428.358 109.743C428.511 109.714 428.625 109.69 428.701 109.673L428.71 111C428.581 111.041 428.411 111.079 428.2 111.114C427.995 111.155 427.746 111.176 427.453 111.176C427.055 111.176 426.688 111.097 426.354 110.938C426.021 110.78 425.754 110.517 425.555 110.147C425.361 109.772 425.265 109.269 425.265 108.636V99.1787ZM429.967 106.351V106.148C429.967 105.463 430.066 104.827 430.266 104.241C430.465 103.649 430.752 103.137 431.127 102.703C431.502 102.264 431.956 101.924 432.489 101.684C433.022 101.438 433.62 101.314 434.282 101.314C434.95 101.314 435.551 101.438 436.084 101.684C436.623 101.924 437.08 102.264 437.455 102.703C437.836 103.137 438.126 103.649 438.325 104.241C438.524 104.827 438.624 105.463 438.624 106.148V106.351C438.624 107.036 438.524 107.672 438.325 108.258C438.126 108.844 437.836 109.356 437.455 109.796C437.08 110.229 436.626 110.569 436.093 110.815C435.565 111.056 434.968 111.176 434.3 111.176C433.632 111.176 433.031 111.056 432.498 110.815C431.965 110.569 431.508 110.229 431.127 109.796C430.752 109.356 430.465 108.844 430.266 108.258C430.066 107.672 429.967 107.036 429.967 106.351ZM431.593 106.148V106.351C431.593 106.825 431.648 107.273 431.76 107.695C431.871 108.111 432.038 108.48 432.261 108.803C432.489 109.125 432.773 109.38 433.113 109.567C433.453 109.749 433.849 109.84 434.3 109.84C434.745 109.84 435.135 109.749 435.469 109.567C435.809 109.38 436.09 109.125 436.312 108.803C436.535 108.48 436.702 108.111 436.813 107.695C436.931 107.273 436.989 106.825 436.989 106.351V106.148C436.989 105.68 436.931 105.237 436.813 104.821C436.702 104.399 436.532 104.027 436.304 103.705C436.081 103.377 435.8 103.119 435.46 102.932C435.126 102.744 434.733 102.65 434.282 102.65C433.837 102.65 433.444 102.744 433.104 102.932C432.771 103.119 432.489 103.377 432.261 103.705C432.038 104.027 431.871 104.399 431.76 104.821C431.648 105.237 431.593 105.68 431.593 106.148ZM446.895 97.5V111H445.26V97.5H446.895ZM453.451 111.176C452.789 111.176 452.188 111.064 451.649 110.842C451.116 110.613 450.656 110.294 450.27 109.884C449.889 109.474 449.596 108.987 449.391 108.425C449.186 107.862 449.083 107.247 449.083 106.579V106.21C449.083 105.437 449.197 104.748 449.426 104.145C449.654 103.535 449.965 103.02 450.357 102.598C450.75 102.176 451.195 101.856 451.693 101.64C452.191 101.423 452.707 101.314 453.24 101.314C453.92 101.314 454.506 101.432 454.998 101.666C455.496 101.9 455.903 102.229 456.22 102.65C456.536 103.066 456.771 103.559 456.923 104.127C457.075 104.689 457.151 105.305 457.151 105.973V106.702H450.05V105.375H455.525V105.252C455.502 104.83 455.414 104.42 455.262 104.021C455.115 103.623 454.881 103.295 454.559 103.037C454.236 102.779 453.797 102.65 453.24 102.65C452.871 102.65 452.531 102.729 452.221 102.888C451.91 103.04 451.644 103.269 451.421 103.573C451.198 103.878 451.025 104.25 450.902 104.689C450.779 105.129 450.718 105.636 450.718 106.21V106.579C450.718 107.03 450.779 107.455 450.902 107.854C451.031 108.246 451.216 108.592 451.456 108.891C451.702 109.189 451.998 109.424 452.344 109.594C452.695 109.764 453.094 109.849 453.539 109.849C454.113 109.849 454.6 109.731 454.998 109.497C455.396 109.263 455.745 108.949 456.044 108.557L457.028 109.339C456.823 109.649 456.562 109.945 456.246 110.227C455.93 110.508 455.54 110.736 455.077 110.912C454.62 111.088 454.078 111.176 453.451 111.176ZM464.657 109.374V104.479C464.657 104.104 464.581 103.778 464.429 103.503C464.282 103.222 464.06 103.005 463.761 102.853C463.462 102.7 463.093 102.624 462.653 102.624C462.243 102.624 461.883 102.694 461.572 102.835C461.268 102.976 461.027 103.16 460.852 103.389C460.682 103.617 460.597 103.863 460.597 104.127H458.971C458.971 103.787 459.059 103.45 459.234 103.116C459.41 102.782 459.662 102.48 459.99 102.211C460.324 101.936 460.723 101.719 461.186 101.561C461.654 101.396 462.176 101.314 462.75 101.314C463.441 101.314 464.051 101.432 464.578 101.666C465.111 101.9 465.527 102.255 465.826 102.729C466.131 103.198 466.283 103.787 466.283 104.496V108.926C466.283 109.242 466.31 109.579 466.362 109.937C466.421 110.294 466.506 110.602 466.617 110.859V111H464.921C464.839 110.812 464.774 110.563 464.728 110.253C464.681 109.937 464.657 109.644 464.657 109.374ZM464.938 105.234L464.956 106.377H463.312C462.85 106.377 462.437 106.415 462.073 106.491C461.71 106.562 461.405 106.67 461.159 106.816C460.913 106.963 460.726 107.147 460.597 107.37C460.468 107.587 460.403 107.842 460.403 108.135C460.403 108.434 460.471 108.706 460.605 108.952C460.74 109.198 460.942 109.395 461.212 109.541C461.487 109.682 461.824 109.752 462.223 109.752C462.721 109.752 463.16 109.646 463.541 109.436C463.922 109.225 464.224 108.967 464.446 108.662C464.675 108.357 464.798 108.062 464.815 107.774L465.51 108.557C465.469 108.803 465.357 109.075 465.176 109.374C464.994 109.673 464.751 109.96 464.446 110.235C464.147 110.505 463.79 110.73 463.374 110.912C462.964 111.088 462.501 111.176 461.985 111.176C461.341 111.176 460.775 111.05 460.289 110.798C459.809 110.546 459.434 110.209 459.164 109.787C458.9 109.359 458.769 108.882 458.769 108.354C458.769 107.845 458.868 107.396 459.067 107.01C459.267 106.617 459.554 106.292 459.929 106.034C460.304 105.771 460.755 105.571 461.282 105.437C461.81 105.302 462.398 105.234 463.049 105.234H464.938ZM470.467 102.984V111H468.841V101.49H470.423L470.467 102.984ZM473.438 101.438L473.429 102.949C473.294 102.92 473.165 102.902 473.042 102.896C472.925 102.885 472.79 102.879 472.638 102.879C472.263 102.879 471.932 102.938 471.645 103.055C471.357 103.172 471.114 103.336 470.915 103.547C470.716 103.758 470.558 104.01 470.44 104.303C470.329 104.59 470.256 104.906 470.221 105.252L469.764 105.516C469.764 104.941 469.819 104.402 469.931 103.898C470.048 103.395 470.227 102.949 470.467 102.562C470.707 102.17 471.012 101.865 471.381 101.648C471.756 101.426 472.201 101.314 472.717 101.314C472.834 101.314 472.969 101.329 473.121 101.358C473.273 101.382 473.379 101.408 473.438 101.438ZM476.566 103.521V111H474.94V101.49H476.479L476.566 103.521ZM476.18 105.885L475.503 105.858C475.509 105.208 475.605 104.607 475.793 104.057C475.98 103.5 476.244 103.017 476.584 102.606C476.924 102.196 477.328 101.88 477.797 101.657C478.271 101.429 478.796 101.314 479.37 101.314C479.839 101.314 480.261 101.379 480.636 101.508C481.011 101.631 481.33 101.83 481.594 102.105C481.863 102.381 482.068 102.738 482.209 103.178C482.35 103.611 482.42 104.142 482.42 104.769V111H480.785V104.751C480.785 104.253 480.712 103.854 480.565 103.556C480.419 103.251 480.205 103.031 479.924 102.896C479.643 102.756 479.297 102.686 478.887 102.686C478.482 102.686 478.113 102.771 477.779 102.94C477.451 103.11 477.167 103.345 476.927 103.644C476.692 103.942 476.508 104.285 476.373 104.672C476.244 105.053 476.18 105.457 476.18 105.885ZM486.656 101.49V111H485.021V101.49H486.656ZM484.898 98.9678C484.898 98.7041 484.978 98.4814 485.136 98.2998C485.3 98.1182 485.54 98.0273 485.856 98.0273C486.167 98.0273 486.404 98.1182 486.568 98.2998C486.738 98.4814 486.823 98.7041 486.823 98.9678C486.823 99.2197 486.738 99.4365 486.568 99.6182C486.404 99.7939 486.167 99.8818 485.856 99.8818C485.54 99.8818 485.3 99.7939 485.136 99.6182C484.978 99.4365 484.898 99.2197 484.898 98.9678ZM490.893 103.521V111H489.267V101.49H490.805L490.893 103.521ZM490.506 105.885L489.829 105.858C489.835 105.208 489.932 104.607 490.119 104.057C490.307 103.5 490.57 103.017 490.91 102.606C491.25 102.196 491.654 101.88 492.123 101.657C492.598 101.429 493.122 101.314 493.696 101.314C494.165 101.314 494.587 101.379 494.962 101.508C495.337 101.631 495.656 101.83 495.92 102.105C496.189 102.381 496.395 102.738 496.535 103.178C496.676 103.611 496.746 104.142 496.746 104.769V111H495.111V104.751C495.111 104.253 495.038 103.854 494.892 103.556C494.745 103.251 494.531 103.031 494.25 102.896C493.969 102.756 493.623 102.686 493.213 102.686C492.809 102.686 492.439 102.771 492.105 102.94C491.777 103.11 491.493 103.345 491.253 103.644C491.019 103.942 490.834 104.285 490.699 104.672C490.57 105.053 490.506 105.457 490.506 105.885ZM505.377 101.49H506.854V110.798C506.854 111.636 506.684 112.351 506.344 112.942C506.004 113.534 505.529 113.982 504.92 114.287C504.316 114.598 503.619 114.753 502.828 114.753C502.5 114.753 502.113 114.7 501.668 114.595C501.229 114.495 500.795 114.322 500.367 114.076C499.945 113.836 499.591 113.511 499.304 113.101L500.156 112.134C500.555 112.614 500.971 112.948 501.404 113.136C501.844 113.323 502.277 113.417 502.705 113.417C503.221 113.417 503.666 113.32 504.041 113.127C504.416 112.934 504.706 112.646 504.911 112.266C505.122 111.891 505.228 111.428 505.228 110.877V103.582L505.377 101.49ZM498.829 106.351V106.166C498.829 105.439 498.914 104.78 499.084 104.188C499.26 103.591 499.509 103.078 499.831 102.65C500.159 102.223 500.555 101.895 501.018 101.666C501.48 101.432 502.002 101.314 502.582 101.314C503.18 101.314 503.701 101.42 504.146 101.631C504.598 101.836 504.979 102.138 505.289 102.536C505.605 102.929 505.854 103.403 506.036 103.96C506.218 104.517 506.344 105.146 506.414 105.85V106.658C506.35 107.355 506.224 107.982 506.036 108.539C505.854 109.096 505.605 109.57 505.289 109.963C504.979 110.355 504.598 110.657 504.146 110.868C503.695 111.073 503.168 111.176 502.564 111.176C501.996 111.176 501.48 111.056 501.018 110.815C500.561 110.575 500.168 110.238 499.84 109.805C499.512 109.371 499.26 108.861 499.084 108.275C498.914 107.684 498.829 107.042 498.829 106.351ZM500.455 106.166V106.351C500.455 106.825 500.502 107.271 500.596 107.687C500.695 108.103 500.845 108.469 501.044 108.785C501.249 109.102 501.51 109.351 501.826 109.532C502.143 109.708 502.521 109.796 502.96 109.796C503.499 109.796 503.944 109.682 504.296 109.453C504.647 109.225 504.926 108.923 505.131 108.548C505.342 108.173 505.506 107.766 505.623 107.326V105.208C505.559 104.886 505.459 104.575 505.324 104.276C505.195 103.972 505.025 103.702 504.814 103.468C504.609 103.228 504.354 103.037 504.05 102.896C503.745 102.756 503.388 102.686 502.978 102.686C502.532 102.686 502.148 102.779 501.826 102.967C501.51 103.148 501.249 103.4 501.044 103.723C500.845 104.039 500.695 104.408 500.596 104.83C500.502 105.246 500.455 105.691 500.455 106.166Z" fill="black"/>
</svg>
