<svg width="100" height="100" viewBox="0 0 100 100" fill="none" xmlns="http://www.w3.org/2000/svg">
<rect width="100" height="100" rx="5" fill="white"/>
<path d="M48.3334 64.0001H51.6934C52.9734 64.0001 53.8 63.0934 53.56 61.9867L53.0133 59.5735H47.0133L46.4667 61.9867C46.2267 63.0267 47.1334 64.0001 48.3334 64.0001Z" stroke="#292D32" stroke-width="1.5" stroke-linecap="round" stroke-linejoin="round"/>
<path d="M53.0134 59.5602L55.3201 57.5069C56.6134 56.3602 56.6667 55.5601 55.6401 54.2668L51.5734 49.1069C50.7201 48.0269 49.3201 48.0269 48.4667 49.1069L44.4001 54.2668C43.3734 55.5601 43.3734 56.4002 44.7201 57.5069L47.0267 59.5602" stroke="#292D32" stroke-width="1.5" stroke-linecap="round" stroke-linejoin="round"/>
<path d="M50.0134 48.8269V52.2003" stroke="#292D32" stroke-width="1.5" stroke-linecap="round" stroke-linejoin="round"/>
<path d="M50.6933 40.6667H49.3599C48.6266 40.6667 48.0266 40.0667 48.0266 39.3334V38.0001C48.0266 37.2667 48.6266 36.6667 49.3599 36.6667H50.6933C51.4266 36.6667 52.0266 37.2667 52.0266 38.0001V39.3334C52.0266 40.0667 51.4266 40.6667 50.6933 40.6667Z" stroke="#292D32" stroke-width="1.5" stroke-linecap="round" stroke-linejoin="round"/>
<path d="M38.3599 52.8934H39.6933C40.4266 52.8934 41.0266 52.2934 41.0266 51.5601V50.2267C41.0266 49.4934 40.4266 48.8933 39.6933 48.8933H38.3599C37.6266 48.8933 37.0266 49.4934 37.0266 50.2267V51.5601C37.0266 52.2934 37.6266 52.8934 38.3599 52.8934Z" stroke="#292D32" stroke-width="1.5" stroke-linecap="round" stroke-linejoin="round"/>
<path d="M61.6401 52.8934H60.3067C59.5734 52.8934 58.9734 52.2934 58.9734 51.5601V50.2267C58.9734 49.4934 59.5734 48.8933 60.3067 48.8933H61.6401C62.3734 48.8933 62.9734 49.4934 62.9734 50.2267V51.5601C62.9734 52.2934 62.3734 52.8934 61.6401 52.8934Z" stroke="#292D32" stroke-width="1.5" stroke-linecap="round" stroke-linejoin="round"/>
<path d="M48.0267 38.7468C42.9467 39.3468 39 43.6535 39 48.8935" stroke="#292D32" stroke-width="1.5" stroke-linecap="round" stroke-linejoin="round"/>
<path d="M60.9999 48.8935C60.9999 43.6668 57.0799 39.3735 52.0266 38.7468" stroke="#292D32" stroke-width="1.5" stroke-linecap="round" stroke-linejoin="round"/>
</svg>
