<svg width="624" height="47" viewBox="0 0 624 47" fill="none" xmlns="http://www.w3.org/2000/svg">
<path d="M22.9453 30.5156V36H4.78125V30.5156H22.9453ZM7.07812 1.875V36H0.046875V1.875H7.07812ZM20.5781 15.7734V21.1172H4.78125V15.7734H20.5781ZM22.9219 1.875V7.38281H4.78125V1.875H22.9219ZM32.0625 10.6406L36.2578 18.3516L40.5703 10.6406H47.7656L40.5938 23.0391L48.0938 36H40.875L36.3047 27.8438L31.7344 36H24.5156L32.0156 23.0391L24.8438 10.6406H32.0625ZM57.7969 15.5156V45.75H51.0469V10.6406H57.3047L57.7969 15.5156ZM73.8516 23.0391V23.5312C73.8516 25.375 73.6328 27.0859 73.1953 28.6641C72.7734 30.2422 72.1484 31.6172 71.3203 32.7891C70.4922 33.9453 69.4609 34.8516 68.2266 35.5078C67.0078 36.1484 65.6016 36.4688 64.0078 36.4688C62.4609 36.4688 61.1172 36.1562 59.9766 35.5312C58.8359 34.9062 57.875 34.0312 57.0938 32.9062C56.3281 31.7656 55.7109 30.4453 55.2422 28.9453C54.7734 27.4453 54.4141 25.8359 54.1641 24.1172V22.8281C54.4141 20.9844 54.7734 19.2969 55.2422 17.7656C55.7109 16.2188 56.3281 14.8828 57.0938 13.7578C57.875 12.6172 58.8281 11.7344 59.9531 11.1094C61.0938 10.4844 62.4297 10.1719 63.9609 10.1719C65.5703 10.1719 66.9844 10.4766 68.2031 11.0859C69.4375 11.6953 70.4688 12.5703 71.2969 13.7109C72.1406 14.8516 72.7734 16.2109 73.1953 17.7891C73.6328 19.3672 73.8516 21.1172 73.8516 23.0391ZM67.0781 23.5312V23.0391C67.0781 21.9609 66.9844 20.9688 66.7969 20.0625C66.625 19.1406 66.3438 18.3359 65.9531 17.6484C65.5781 16.9609 65.0781 16.4297 64.4531 16.0547C63.8438 15.6641 63.1016 15.4688 62.2266 15.4688C61.3047 15.4688 60.5156 15.6172 59.8594 15.9141C59.2188 16.2109 58.6953 16.6406 58.2891 17.2031C57.8828 17.7656 57.5781 18.4375 57.375 19.2188C57.1719 20 57.0469 20.8828 57 21.8672V25.125C57.0781 26.2812 57.2969 27.3203 57.6562 28.2422C58.0156 29.1484 58.5703 29.8672 59.3203 30.3984C60.0703 30.9297 61.0547 31.1953 62.2734 31.1953C63.1641 31.1953 63.9141 31 64.5234 30.6094C65.1328 30.2031 65.625 29.6484 66 28.9453C66.3906 28.2422 66.6641 27.4297 66.8203 26.5078C66.9922 25.5859 67.0781 24.5938 67.0781 23.5312ZM85.1719 0V36H78.3984V0H85.1719ZM89.6719 23.5781V23.0859C89.6719 21.2266 89.9375 19.5156 90.4688 17.9531C91 16.375 91.7734 15.0078 92.7891 13.8516C93.8047 12.6953 95.0547 11.7969 96.5391 11.1562C98.0234 10.5 99.7266 10.1719 101.648 10.1719C103.57 10.1719 105.281 10.5 106.781 11.1562C108.281 11.7969 109.539 12.6953 110.555 13.8516C111.586 15.0078 112.367 16.375 112.898 17.9531C113.43 19.5156 113.695 21.2266 113.695 23.0859V23.5781C113.695 25.4219 113.43 27.1328 112.898 28.7109C112.367 30.2734 111.586 31.6406 110.555 32.8125C109.539 33.9688 108.289 34.8672 106.805 35.5078C105.32 36.1484 103.617 36.4688 101.695 36.4688C99.7734 36.4688 98.0625 36.1484 96.5625 35.5078C95.0781 34.8672 93.8203 33.9688 92.7891 32.8125C91.7734 31.6406 91 30.2734 90.4688 28.7109C89.9375 27.1328 89.6719 25.4219 89.6719 23.5781ZM96.4219 23.0859V23.5781C96.4219 24.6406 96.5156 25.6328 96.7031 26.5547C96.8906 27.4766 97.1875 28.2891 97.5938 28.9922C98.0156 29.6797 98.5625 30.2188 99.2344 30.6094C99.9062 31 100.727 31.1953 101.695 31.1953C102.633 31.1953 103.438 31 104.109 30.6094C104.781 30.2188 105.32 29.6797 105.727 28.9922C106.133 28.2891 106.43 27.4766 106.617 26.5547C106.82 25.6328 106.922 24.6406 106.922 23.5781V23.0859C106.922 22.0547 106.82 21.0859 106.617 20.1797C106.43 19.2578 106.125 18.4453 105.703 17.7422C105.297 17.0234 104.758 16.4609 104.086 16.0547C103.414 15.6484 102.602 15.4453 101.648 15.4453C100.695 15.4453 99.8828 15.6484 99.2109 16.0547C98.5547 16.4609 98.0156 17.0234 97.5938 17.7422C97.1875 18.4453 96.8906 19.2578 96.7031 20.1797C96.5156 21.0859 96.4219 22.0547 96.4219 23.0859ZM124.594 16.1719V36H117.844V10.6406H124.195L124.594 16.1719ZM132.234 10.4766L132.117 16.7344C131.789 16.6875 131.391 16.6484 130.922 16.6172C130.469 16.5703 130.055 16.5469 129.68 16.5469C128.727 16.5469 127.898 16.6719 127.195 16.9219C126.508 17.1562 125.93 17.5078 125.461 17.9766C125.008 18.4453 124.664 19.0156 124.43 19.6875C124.211 20.3594 124.086 21.125 124.055 21.9844L122.695 21.5625C122.695 19.9219 122.859 18.4141 123.188 17.0391C123.516 15.6484 123.992 14.4375 124.617 13.4062C125.258 12.375 126.039 11.5781 126.961 11.0156C127.883 10.4531 128.938 10.1719 130.125 10.1719C130.5 10.1719 130.883 10.2031 131.273 10.2656C131.664 10.3125 131.984 10.3828 132.234 10.4766ZM146.625 36.4688C144.656 36.4688 142.891 36.1562 141.328 35.5312C139.766 34.8906 138.438 34.0078 137.344 32.8828C136.266 31.7578 135.438 30.4531 134.859 28.9688C134.281 27.4688 133.992 25.875 133.992 24.1875V23.25C133.992 21.3281 134.266 19.5703 134.812 17.9766C135.359 16.3828 136.141 15 137.156 13.8281C138.188 12.6562 139.438 11.7578 140.906 11.1328C142.375 10.4922 144.031 10.1719 145.875 10.1719C147.672 10.1719 149.266 10.4688 150.656 11.0625C152.047 11.6562 153.211 12.5 154.148 13.5938C155.102 14.6875 155.82 16 156.305 17.5312C156.789 19.0469 157.031 20.7344 157.031 22.5938V25.4062H136.875V20.9062H150.398V20.3906C150.398 19.4531 150.227 18.6172 149.883 17.8828C149.555 17.1328 149.055 16.5391 148.383 16.1016C147.711 15.6641 146.852 15.4453 145.805 15.4453C144.914 15.4453 144.148 15.6406 143.508 16.0312C142.867 16.4219 142.344 16.9688 141.938 17.6719C141.547 18.375 141.25 19.2031 141.047 20.1562C140.859 21.0938 140.766 22.125 140.766 23.25V24.1875C140.766 25.2031 140.906 26.1406 141.188 27C141.484 27.8594 141.898 28.6016 142.43 29.2266C142.977 29.8516 143.633 30.3359 144.398 30.6797C145.18 31.0234 146.062 31.1953 147.047 31.1953C148.266 31.1953 149.398 30.9609 150.445 30.4922C151.508 30.0078 152.422 29.2812 153.188 28.3125L156.469 31.875C155.938 32.6406 155.211 33.375 154.289 34.0781C153.383 34.7812 152.289 35.3594 151.008 35.8125C149.727 36.25 148.266 36.4688 146.625 36.4688ZM193.031 24.6797H200.039C199.898 26.9766 199.266 29.0156 198.141 30.7969C197.031 32.5781 195.477 33.9688 193.477 34.9688C191.492 35.9688 189.102 36.4688 186.305 36.4688C184.117 36.4688 182.156 36.0938 180.422 35.3438C178.688 34.5781 177.203 33.4844 175.969 32.0625C174.75 30.6406 173.82 28.9219 173.18 26.9062C172.539 24.8906 172.219 22.6328 172.219 20.1328V17.7656C172.219 15.2656 172.547 13.0078 173.203 10.9922C173.875 8.96094 174.828 7.23438 176.062 5.8125C177.312 4.39062 178.805 3.29688 180.539 2.53125C182.273 1.76562 184.211 1.38281 186.352 1.38281C189.195 1.38281 191.594 1.89844 193.547 2.92969C195.516 3.96094 197.039 5.38281 198.117 7.19531C199.211 9.00781 199.867 11.0703 200.086 13.3828H193.055C192.977 12.0078 192.703 10.8438 192.234 9.89062C191.766 8.92188 191.055 8.19531 190.102 7.71094C189.164 7.21094 187.914 6.96094 186.352 6.96094C185.18 6.96094 184.156 7.17969 183.281 7.61719C182.406 8.05469 181.672 8.71875 181.078 9.60938C180.484 10.5 180.039 11.625 179.742 12.9844C179.461 14.3281 179.32 15.9062 179.32 17.7188V20.1328C179.32 21.8984 179.453 23.4531 179.719 24.7969C179.984 26.125 180.391 27.25 180.938 28.1719C181.5 29.0781 182.219 29.7656 183.094 30.2344C183.984 30.6875 185.055 30.9141 186.305 30.9141C187.773 30.9141 188.984 30.6797 189.938 30.2109C190.891 29.7422 191.617 29.0469 192.117 28.125C192.633 27.2031 192.938 26.0547 193.031 24.6797ZM203.156 23.5781V23.0859C203.156 21.2266 203.422 19.5156 203.953 17.9531C204.484 16.375 205.258 15.0078 206.273 13.8516C207.289 12.6953 208.539 11.7969 210.023 11.1562C211.508 10.5 213.211 10.1719 215.133 10.1719C217.055 10.1719 218.766 10.5 220.266 11.1562C221.766 11.7969 223.023 12.6953 224.039 13.8516C225.07 15.0078 225.852 16.375 226.383 17.9531C226.914 19.5156 227.18 21.2266 227.18 23.0859V23.5781C227.18 25.4219 226.914 27.1328 226.383 28.7109C225.852 30.2734 225.07 31.6406 224.039 32.8125C223.023 33.9688 221.773 34.8672 220.289 35.5078C218.805 36.1484 217.102 36.4688 215.18 36.4688C213.258 36.4688 211.547 36.1484 210.047 35.5078C208.562 34.8672 207.305 33.9688 206.273 32.8125C205.258 31.6406 204.484 30.2734 203.953 28.7109C203.422 27.1328 203.156 25.4219 203.156 23.5781ZM209.906 23.0859V23.5781C209.906 24.6406 210 25.6328 210.188 26.5547C210.375 27.4766 210.672 28.2891 211.078 28.9922C211.5 29.6797 212.047 30.2188 212.719 30.6094C213.391 31 214.211 31.1953 215.18 31.1953C216.117 31.1953 216.922 31 217.594 30.6094C218.266 30.2188 218.805 29.6797 219.211 28.9922C219.617 28.2891 219.914 27.4766 220.102 26.5547C220.305 25.6328 220.406 24.6406 220.406 23.5781V23.0859C220.406 22.0547 220.305 21.0859 220.102 20.1797C219.914 19.2578 219.609 18.4453 219.188 17.7422C218.781 17.0234 218.242 16.4609 217.57 16.0547C216.898 15.6484 216.086 15.4453 215.133 15.4453C214.18 15.4453 213.367 15.6484 212.695 16.0547C212.039 16.4609 211.5 17.0234 211.078 17.7422C210.672 18.4453 210.375 19.2578 210.188 20.1797C210 21.0859 209.906 22.0547 209.906 23.0859ZM246.328 29.9297V10.6406H253.078V36H246.727L246.328 29.9297ZM247.078 24.7266L249.07 24.6797C249.07 26.3672 248.875 27.9375 248.484 29.3906C248.094 30.8281 247.508 32.0781 246.727 33.1406C245.945 34.1875 244.961 35.0078 243.773 35.6016C242.586 36.1797 241.188 36.4688 239.578 36.4688C238.344 36.4688 237.203 36.2969 236.156 35.9531C235.125 35.5938 234.234 35.0391 233.484 34.2891C232.75 33.5234 232.172 32.5469 231.75 31.3594C231.344 30.1562 231.141 28.7109 231.141 27.0234V10.6406H237.891V27.0703C237.891 27.8203 237.977 28.4531 238.148 28.9688C238.336 29.4844 238.594 29.9062 238.922 30.2344C239.25 30.5625 239.633 30.7969 240.07 30.9375C240.523 31.0781 241.023 31.1484 241.57 31.1484C242.961 31.1484 244.055 30.8672 244.852 30.3047C245.664 29.7422 246.234 28.9766 246.562 28.0078C246.906 27.0234 247.078 25.9297 247.078 24.7266ZM264.984 16.1719V36H258.234V10.6406H264.586L264.984 16.1719ZM272.625 10.4766L272.508 16.7344C272.18 16.6875 271.781 16.6484 271.312 16.6172C270.859 16.5703 270.445 16.5469 270.07 16.5469C269.117 16.5469 268.289 16.6719 267.586 16.9219C266.898 17.1562 266.32 17.5078 265.852 17.9766C265.398 18.4453 265.055 19.0156 264.82 19.6875C264.602 20.3594 264.477 21.125 264.445 21.9844L263.086 21.5625C263.086 19.9219 263.25 18.4141 263.578 17.0391C263.906 15.6484 264.383 14.4375 265.008 13.4062C265.648 12.375 266.43 11.5781 267.352 11.0156C268.273 10.4531 269.328 10.1719 270.516 10.1719C270.891 10.1719 271.273 10.2031 271.664 10.2656C272.055 10.3125 272.375 10.3828 272.625 10.4766ZM289.523 28.9922C289.523 28.5078 289.383 28.0703 289.102 27.6797C288.82 27.2891 288.297 26.9297 287.531 26.6016C286.781 26.2578 285.695 25.9453 284.273 25.6641C282.992 25.3828 281.797 25.0312 280.688 24.6094C279.594 24.1719 278.641 23.6484 277.828 23.0391C277.031 22.4297 276.406 21.7109 275.953 20.8828C275.5 20.0391 275.273 19.0781 275.273 18C275.273 16.9375 275.5 15.9375 275.953 15C276.422 14.0625 277.086 13.2344 277.945 12.5156C278.82 11.7812 279.883 11.2109 281.133 10.8047C282.398 10.3828 283.82 10.1719 285.398 10.1719C287.602 10.1719 289.492 10.5234 291.07 11.2266C292.664 11.9297 293.883 12.8984 294.727 14.1328C295.586 15.3516 296.016 16.7422 296.016 18.3047H289.266C289.266 17.6484 289.125 17.0625 288.844 16.5469C288.578 16.0156 288.156 15.6016 287.578 15.3047C287.016 14.9922 286.281 14.8359 285.375 14.8359C284.625 14.8359 283.977 14.9688 283.43 15.2344C282.883 15.4844 282.461 15.8281 282.164 16.2656C281.883 16.6875 281.742 17.1562 281.742 17.6719C281.742 18.0625 281.82 18.4141 281.977 18.7266C282.148 19.0234 282.422 19.2969 282.797 19.5469C283.172 19.7969 283.656 20.0312 284.25 20.25C284.859 20.4531 285.609 20.6406 286.5 20.8125C288.328 21.1875 289.961 21.6797 291.398 22.2891C292.836 22.8828 293.977 23.6953 294.82 24.7266C295.664 25.7422 296.086 27.0781 296.086 28.7344C296.086 29.8594 295.836 30.8906 295.336 31.8281C294.836 32.7656 294.117 33.5859 293.18 34.2891C292.242 34.9766 291.117 35.5156 289.805 35.9062C288.508 36.2812 287.047 36.4688 285.422 36.4688C283.062 36.4688 281.062 36.0469 279.422 35.2031C277.797 34.3594 276.562 33.2891 275.719 31.9922C274.891 30.6797 274.477 29.3359 274.477 27.9609H280.875C280.906 28.8828 281.141 29.625 281.578 30.1875C282.031 30.75 282.602 31.1562 283.289 31.4062C283.992 31.6562 284.75 31.7812 285.562 31.7812C286.438 31.7812 287.164 31.6641 287.742 31.4297C288.32 31.1797 288.758 30.8516 289.055 30.4453C289.367 30.0234 289.523 29.5391 289.523 28.9922ZM312.141 36.4688C310.172 36.4688 308.406 36.1562 306.844 35.5312C305.281 34.8906 303.953 34.0078 302.859 32.8828C301.781 31.7578 300.953 30.4531 300.375 28.9688C299.797 27.4688 299.508 25.875 299.508 24.1875V23.25C299.508 21.3281 299.781 19.5703 300.328 17.9766C300.875 16.3828 301.656 15 302.672 13.8281C303.703 12.6562 304.953 11.7578 306.422 11.1328C307.891 10.4922 309.547 10.1719 311.391 10.1719C313.188 10.1719 314.781 10.4688 316.172 11.0625C317.562 11.6562 318.727 12.5 319.664 13.5938C320.617 14.6875 321.336 16 321.82 17.5312C322.305 19.0469 322.547 20.7344 322.547 22.5938V25.4062H302.391V20.9062H315.914V20.3906C315.914 19.4531 315.742 18.6172 315.398 17.8828C315.07 17.1328 314.57 16.5391 313.898 16.1016C313.227 15.6641 312.367 15.4453 311.32 15.4453C310.43 15.4453 309.664 15.6406 309.023 16.0312C308.383 16.4219 307.859 16.9688 307.453 17.6719C307.062 18.375 306.766 19.2031 306.562 20.1562C306.375 21.0938 306.281 22.125 306.281 23.25V24.1875C306.281 25.2031 306.422 26.1406 306.703 27C307 27.8594 307.414 28.6016 307.945 29.2266C308.492 29.8516 309.148 30.3359 309.914 30.6797C310.695 31.0234 311.578 31.1953 312.562 31.1953C313.781 31.1953 314.914 30.9609 315.961 30.4922C317.023 30.0078 317.938 29.2812 318.703 28.3125L321.984 31.875C321.453 32.6406 320.727 33.375 319.805 34.0781C318.898 34.7812 317.805 35.3594 316.523 35.8125C315.242 36.25 313.781 36.4688 312.141 36.4688ZM340.102 28.9922C340.102 28.5078 339.961 28.0703 339.68 27.6797C339.398 27.2891 338.875 26.9297 338.109 26.6016C337.359 26.2578 336.273 25.9453 334.852 25.6641C333.57 25.3828 332.375 25.0312 331.266 24.6094C330.172 24.1719 329.219 23.6484 328.406 23.0391C327.609 22.4297 326.984 21.7109 326.531 20.8828C326.078 20.0391 325.852 19.0781 325.852 18C325.852 16.9375 326.078 15.9375 326.531 15C327 14.0625 327.664 13.2344 328.523 12.5156C329.398 11.7812 330.461 11.2109 331.711 10.8047C332.977 10.3828 334.398 10.1719 335.977 10.1719C338.18 10.1719 340.07 10.5234 341.648 11.2266C343.242 11.9297 344.461 12.8984 345.305 14.1328C346.164 15.3516 346.594 16.7422 346.594 18.3047H339.844C339.844 17.6484 339.703 17.0625 339.422 16.5469C339.156 16.0156 338.734 15.6016 338.156 15.3047C337.594 14.9922 336.859 14.8359 335.953 14.8359C335.203 14.8359 334.555 14.9688 334.008 15.2344C333.461 15.4844 333.039 15.8281 332.742 16.2656C332.461 16.6875 332.32 17.1562 332.32 17.6719C332.32 18.0625 332.398 18.4141 332.555 18.7266C332.727 19.0234 333 19.2969 333.375 19.5469C333.75 19.7969 334.234 20.0312 334.828 20.25C335.438 20.4531 336.188 20.6406 337.078 20.8125C338.906 21.1875 340.539 21.6797 341.977 22.2891C343.414 22.8828 344.555 23.6953 345.398 24.7266C346.242 25.7422 346.664 27.0781 346.664 28.7344C346.664 29.8594 346.414 30.8906 345.914 31.8281C345.414 32.7656 344.695 33.5859 343.758 34.2891C342.82 34.9766 341.695 35.5156 340.383 35.9062C339.086 36.2812 337.625 36.4688 336 36.4688C333.641 36.4688 331.641 36.0469 330 35.2031C328.375 34.3594 327.141 33.2891 326.297 31.9922C325.469 30.6797 325.055 29.3359 325.055 27.9609H331.453C331.484 28.8828 331.719 29.625 332.156 30.1875C332.609 30.75 333.18 31.1562 333.867 31.4062C334.57 31.6562 335.328 31.7812 336.141 31.7812C337.016 31.7812 337.742 31.6641 338.32 31.4297C338.898 31.1797 339.336 30.8516 339.633 30.4453C339.945 30.0234 340.102 29.5391 340.102 28.9922ZM376.781 21.0234H368.016L367.969 16.1953H375.328C376.625 16.1953 377.688 16.0312 378.516 15.7031C379.344 15.3594 379.961 14.8672 380.367 14.2266C380.789 13.5703 381 12.7734 381 11.8359C381 10.7734 380.797 9.91406 380.391 9.25781C380 8.60156 379.383 8.125 378.539 7.82812C377.711 7.53125 376.641 7.38281 375.328 7.38281H370.453V36H363.422V1.875H375.328C377.312 1.875 379.086 2.0625 380.648 2.4375C382.227 2.8125 383.562 3.38281 384.656 4.14844C385.75 4.91406 386.586 5.88281 387.164 7.05469C387.742 8.21094 388.031 9.58594 388.031 11.1797C388.031 12.5859 387.711 13.8828 387.07 15.0703C386.445 16.2578 385.453 17.2266 384.094 17.9766C382.75 18.7266 380.992 19.1406 378.82 19.2188L376.781 21.0234ZM376.477 36H366.094L368.836 30.5156H376.477C377.711 30.5156 378.719 30.3203 379.5 29.9297C380.281 29.5234 380.859 28.9766 381.234 28.2891C381.609 27.6016 381.797 26.8125 381.797 25.9219C381.797 24.9219 381.625 24.0547 381.281 23.3203C380.953 22.5859 380.422 22.0234 379.688 21.6328C378.953 21.2266 377.984 21.0234 376.781 21.0234H370.008L370.055 16.1953H378.492L380.109 18.0938C382.188 18.0625 383.859 18.4297 385.125 19.1953C386.406 19.9453 387.336 20.9219 387.914 22.125C388.508 23.3281 388.805 24.6172 388.805 25.9922C388.805 28.1797 388.328 30.0234 387.375 31.5234C386.422 33.0078 385.023 34.125 383.18 34.875C381.352 35.625 379.117 36 376.477 36ZM401.18 33.1406L407.906 10.6406H415.148L404.953 39.8203C404.734 40.4609 404.438 41.1484 404.062 41.8828C403.703 42.6172 403.211 43.3125 402.586 43.9688C401.977 44.6406 401.203 45.1875 400.266 45.6094C399.344 46.0312 398.211 46.2422 396.867 46.2422C396.227 46.2422 395.703 46.2031 395.297 46.125C394.891 46.0469 394.406 45.9375 393.844 45.7969V40.8516C394.016 40.8516 394.195 40.8516 394.383 40.8516C394.57 40.8672 394.75 40.875 394.922 40.875C395.812 40.875 396.539 40.7734 397.102 40.5703C397.664 40.3672 398.117 40.0547 398.461 39.6328C398.805 39.2266 399.078 38.6953 399.281 38.0391L401.18 33.1406ZM398.367 10.6406L403.875 29.0156L404.836 36.1641L400.242 36.6562L391.125 10.6406H398.367ZM450 24.6797H457.008C456.867 26.9766 456.234 29.0156 455.109 30.7969C454 32.5781 452.445 33.9688 450.445 34.9688C448.461 35.9688 446.07 36.4688 443.273 36.4688C441.086 36.4688 439.125 36.0938 437.391 35.3438C435.656 34.5781 434.172 33.4844 432.938 32.0625C431.719 30.6406 430.789 28.9219 430.148 26.9062C429.508 24.8906 429.188 22.6328 429.188 20.1328V17.7656C429.188 15.2656 429.516 13.0078 430.172 10.9922C430.844 8.96094 431.797 7.23438 433.031 5.8125C434.281 4.39062 435.773 3.29688 437.508 2.53125C439.242 1.76562 441.18 1.38281 443.32 1.38281C446.164 1.38281 448.562 1.89844 450.516 2.92969C452.484 3.96094 454.008 5.38281 455.086 7.19531C456.18 9.00781 456.836 11.0703 457.055 13.3828H450.023C449.945 12.0078 449.672 10.8438 449.203 9.89062C448.734 8.92188 448.023 8.19531 447.07 7.71094C446.133 7.21094 444.883 6.96094 443.32 6.96094C442.148 6.96094 441.125 7.17969 440.25 7.61719C439.375 8.05469 438.641 8.71875 438.047 9.60938C437.453 10.5 437.008 11.625 436.711 12.9844C436.43 14.3281 436.289 15.9062 436.289 17.7188V20.1328C436.289 21.8984 436.422 23.4531 436.688 24.7969C436.953 26.125 437.359 27.25 437.906 28.1719C438.469 29.0781 439.188 29.7656 440.062 30.2344C440.953 30.6875 442.023 30.9141 443.273 30.9141C444.742 30.9141 445.953 30.6797 446.906 30.2109C447.859 29.7422 448.586 29.0469 449.086 28.125C449.602 27.2031 449.906 26.0547 450 24.6797ZM474.891 30.2812V18.9844C474.891 18.1719 474.758 17.4766 474.492 16.8984C474.227 16.3047 473.812 15.8438 473.25 15.5156C472.703 15.1875 471.992 15.0234 471.117 15.0234C470.367 15.0234 469.719 15.1562 469.172 15.4219C468.625 15.6719 468.203 16.0391 467.906 16.5234C467.609 16.9922 467.461 17.5469 467.461 18.1875H460.711C460.711 17.1094 460.961 16.0859 461.461 15.1172C461.961 14.1484 462.688 13.2969 463.641 12.5625C464.594 11.8125 465.727 11.2266 467.039 10.8047C468.367 10.3828 469.852 10.1719 471.492 10.1719C473.461 10.1719 475.211 10.5 476.742 11.1562C478.273 11.8125 479.477 12.7969 480.352 14.1094C481.242 15.4219 481.688 17.0625 481.688 19.0312V29.8828C481.688 31.2734 481.773 32.4141 481.945 33.3047C482.117 34.1797 482.367 34.9453 482.695 35.6016V36H475.875C475.547 35.3125 475.297 34.4531 475.125 33.4219C474.969 32.375 474.891 31.3281 474.891 30.2812ZM475.781 20.5547L475.828 24.375H472.055C471.164 24.375 470.391 24.4766 469.734 24.6797C469.078 24.8828 468.539 25.1719 468.117 25.5469C467.695 25.9062 467.383 26.3281 467.18 26.8125C466.992 27.2969 466.898 27.8281 466.898 28.4062C466.898 28.9844 467.031 29.5078 467.297 29.9766C467.562 30.4297 467.945 30.7891 468.445 31.0547C468.945 31.3047 469.531 31.4297 470.203 31.4297C471.219 31.4297 472.102 31.2266 472.852 30.8203C473.602 30.4141 474.18 29.9141 474.586 29.3203C475.008 28.7266 475.227 28.1641 475.242 27.6328L477.023 30.4922C476.773 31.1328 476.43 31.7969 475.992 32.4844C475.57 33.1719 475.031 33.8203 474.375 34.4297C473.719 35.0234 472.93 35.5156 472.008 35.9062C471.086 36.2812 469.992 36.4688 468.727 36.4688C467.117 36.4688 465.656 36.1484 464.344 35.5078C463.047 34.8516 462.016 33.9531 461.25 32.8125C460.5 31.6562 460.125 30.3438 460.125 28.875C460.125 27.5469 460.375 26.3672 460.875 25.3359C461.375 24.3047 462.109 23.4375 463.078 22.7344C464.062 22.0156 465.289 21.4766 466.758 21.1172C468.227 20.7422 469.93 20.5547 471.867 20.5547H475.781ZM499.312 10.6406V15.4219H484.547V10.6406H499.312ZM488.203 4.38281H494.953V28.3594C494.953 29.0938 495.047 29.6562 495.234 30.0469C495.438 30.4375 495.734 30.7109 496.125 30.8672C496.516 31.0078 497.008 31.0781 497.602 31.0781C498.023 31.0781 498.398 31.0625 498.727 31.0312C499.07 30.9844 499.359 30.9375 499.594 30.8906L499.617 35.8594C499.039 36.0469 498.414 36.1953 497.742 36.3047C497.07 36.4141 496.328 36.4688 495.516 36.4688C494.031 36.4688 492.734 36.2266 491.625 35.7422C490.531 35.2422 489.688 34.4453 489.094 33.3516C488.5 32.2578 488.203 30.8203 488.203 29.0391V4.38281ZM514.828 36.4688C512.859 36.4688 511.094 36.1562 509.531 35.5312C507.969 34.8906 506.641 34.0078 505.547 32.8828C504.469 31.7578 503.641 30.4531 503.062 28.9688C502.484 27.4688 502.195 25.875 502.195 24.1875V23.25C502.195 21.3281 502.469 19.5703 503.016 17.9766C503.562 16.3828 504.344 15 505.359 13.8281C506.391 12.6562 507.641 11.7578 509.109 11.1328C510.578 10.4922 512.234 10.1719 514.078 10.1719C515.875 10.1719 517.469 10.4688 518.859 11.0625C520.25 11.6562 521.414 12.5 522.352 13.5938C523.305 14.6875 524.023 16 524.508 17.5312C524.992 19.0469 525.234 20.7344 525.234 22.5938V25.4062H505.078V20.9062H518.602V20.3906C518.602 19.4531 518.43 18.6172 518.086 17.8828C517.758 17.1328 517.258 16.5391 516.586 16.1016C515.914 15.6641 515.055 15.4453 514.008 15.4453C513.117 15.4453 512.352 15.6406 511.711 16.0312C511.07 16.4219 510.547 16.9688 510.141 17.6719C509.75 18.375 509.453 19.2031 509.25 20.1562C509.062 21.0938 508.969 22.125 508.969 23.25V24.1875C508.969 25.2031 509.109 26.1406 509.391 27C509.688 27.8594 510.102 28.6016 510.633 29.2266C511.18 29.8516 511.836 30.3359 512.602 30.6797C513.383 31.0234 514.266 31.1953 515.25 31.1953C516.469 31.1953 517.602 30.9609 518.648 30.4922C519.711 30.0078 520.625 29.2812 521.391 28.3125L524.672 31.875C524.141 32.6406 523.414 33.375 522.492 34.0781C521.586 34.7812 520.492 35.3594 519.211 35.8125C517.93 36.25 516.469 36.4688 514.828 36.4688ZM545.133 10.6406H551.25V35.1562C551.25 37.4688 550.734 39.4297 549.703 41.0391C548.688 42.6641 547.266 43.8906 545.438 44.7188C543.609 45.5625 541.484 45.9844 539.062 45.9844C538 45.9844 536.875 45.8438 535.688 45.5625C534.516 45.2812 533.391 44.8438 532.312 44.25C531.25 43.6562 530.359 42.9062 529.641 42L532.617 38.0156C533.398 38.9219 534.305 39.625 535.336 40.125C536.367 40.6406 537.508 40.8984 538.758 40.8984C539.977 40.8984 541.008 40.6719 541.852 40.2188C542.695 39.7812 543.344 39.1328 543.797 38.2734C544.25 37.4297 544.477 36.4062 544.477 35.2031V16.5L545.133 10.6406ZM528.07 23.625V23.1328C528.07 21.1953 528.305 19.4375 528.773 17.8594C529.258 16.2656 529.938 14.8984 530.812 13.7578C531.703 12.6172 532.781 11.7344 534.047 11.1094C535.312 10.4844 536.742 10.1719 538.336 10.1719C540.023 10.1719 541.438 10.4844 542.578 11.1094C543.719 11.7344 544.656 12.625 545.391 13.7812C546.125 14.9219 546.695 16.2734 547.102 17.8359C547.523 19.3828 547.852 21.0781 548.086 22.9219V24C547.852 25.7656 547.5 27.4062 547.031 28.9219C546.562 30.4375 545.945 31.7656 545.18 32.9062C544.414 34.0312 543.461 34.9062 542.32 35.5312C541.195 36.1562 539.852 36.4688 538.289 36.4688C536.727 36.4688 535.312 36.1484 534.047 35.5078C532.797 34.8672 531.727 33.9688 530.836 32.8125C529.945 31.6562 529.258 30.2969 528.773 28.7344C528.305 27.1719 528.07 25.4688 528.07 23.625ZM534.82 23.1328V23.625C534.82 24.6719 534.922 25.6484 535.125 26.5547C535.328 27.4609 535.641 28.2656 536.062 28.9688C536.5 29.6562 537.039 30.1953 537.68 30.5859C538.336 30.9609 539.109 31.1484 540 31.1484C541.234 31.1484 542.242 30.8906 543.023 30.375C543.805 29.8438 544.391 29.1172 544.781 28.1953C545.172 27.2734 545.398 26.2109 545.461 25.0078V21.9375C545.43 20.9531 545.297 20.0703 545.062 19.2891C544.828 18.4922 544.5 17.8125 544.078 17.25C543.656 16.6875 543.109 16.25 542.438 15.9375C541.766 15.625 540.969 15.4688 540.047 15.4688C539.156 15.4688 538.383 15.6719 537.727 16.0781C537.086 16.4688 536.547 17.0078 536.109 17.6953C535.688 18.3828 535.367 19.1953 535.148 20.1328C534.93 21.0547 534.82 22.0547 534.82 23.1328ZM555.422 23.5781V23.0859C555.422 21.2266 555.688 19.5156 556.219 17.9531C556.75 16.375 557.523 15.0078 558.539 13.8516C559.555 12.6953 560.805 11.7969 562.289 11.1562C563.773 10.5 565.477 10.1719 567.398 10.1719C569.32 10.1719 571.031 10.5 572.531 11.1562C574.031 11.7969 575.289 12.6953 576.305 13.8516C577.336 15.0078 578.117 16.375 578.648 17.9531C579.18 19.5156 579.445 21.2266 579.445 23.0859V23.5781C579.445 25.4219 579.18 27.1328 578.648 28.7109C578.117 30.2734 577.336 31.6406 576.305 32.8125C575.289 33.9688 574.039 34.8672 572.555 35.5078C571.07 36.1484 569.367 36.4688 567.445 36.4688C565.523 36.4688 563.812 36.1484 562.312 35.5078C560.828 34.8672 559.57 33.9688 558.539 32.8125C557.523 31.6406 556.75 30.2734 556.219 28.7109C555.688 27.1328 555.422 25.4219 555.422 23.5781ZM562.172 23.0859V23.5781C562.172 24.6406 562.266 25.6328 562.453 26.5547C562.641 27.4766 562.938 28.2891 563.344 28.9922C563.766 29.6797 564.312 30.2188 564.984 30.6094C565.656 31 566.477 31.1953 567.445 31.1953C568.383 31.1953 569.188 31 569.859 30.6094C570.531 30.2188 571.07 29.6797 571.477 28.9922C571.883 28.2891 572.18 27.4766 572.367 26.5547C572.57 25.6328 572.672 24.6406 572.672 23.5781V23.0859C572.672 22.0547 572.57 21.0859 572.367 20.1797C572.18 19.2578 571.875 18.4453 571.453 17.7422C571.047 17.0234 570.508 16.4609 569.836 16.0547C569.164 15.6484 568.352 15.4453 567.398 15.4453C566.445 15.4453 565.633 15.6484 564.961 16.0547C564.305 16.4609 563.766 17.0234 563.344 17.7422C562.938 18.4453 562.641 19.2578 562.453 20.1797C562.266 21.0859 562.172 22.0547 562.172 23.0859ZM590.344 16.1719V36H583.594V10.6406H589.945L590.344 16.1719ZM597.984 10.4766L597.867 16.7344C597.539 16.6875 597.141 16.6484 596.672 16.6172C596.219 16.5703 595.805 16.5469 595.43 16.5469C594.477 16.5469 593.648 16.6719 592.945 16.9219C592.258 17.1562 591.68 17.5078 591.211 17.9766C590.758 18.4453 590.414 19.0156 590.18 19.6875C589.961 20.3594 589.836 21.125 589.805 21.9844L588.445 21.5625C588.445 19.9219 588.609 18.4141 588.938 17.0391C589.266 15.6484 589.742 14.4375 590.367 13.4062C591.008 12.375 591.789 11.5781 592.711 11.0156C593.633 10.4531 594.688 10.1719 595.875 10.1719C596.25 10.1719 596.633 10.2031 597.023 10.2656C597.414 10.3125 597.734 10.3828 597.984 10.4766ZM609.117 33.1406L615.844 10.6406H623.086L612.891 39.8203C612.672 40.4609 612.375 41.1484 612 41.8828C611.641 42.6172 611.148 43.3125 610.523 43.9688C609.914 44.6406 609.141 45.1875 608.203 45.6094C607.281 46.0312 606.148 46.2422 604.805 46.2422C604.164 46.2422 603.641 46.2031 603.234 46.125C602.828 46.0469 602.344 45.9375 601.781 45.7969V40.8516C601.953 40.8516 602.133 40.8516 602.32 40.8516C602.508 40.8672 602.688 40.875 602.859 40.875C603.75 40.875 604.477 40.7734 605.039 40.5703C605.602 40.3672 606.055 40.0547 606.398 39.6328C606.742 39.2266 607.016 38.6953 607.219 38.0391L609.117 33.1406ZM606.305 10.6406L611.812 29.0156L612.773 36.1641L608.18 36.6562L599.062 10.6406H606.305Z" fill="black"/>
</svg>
