<svg width="1120" height="57" viewBox="0 0 1120 57" fill="none" xmlns="http://www.w3.org/2000/svg">
<rect width="1120" height="1" fill="black"/>
<path d="M7.34863 46.9609V48H0.833984V47.0908L4.09473 43.4609C4.49577 43.0143 4.80566 42.6361 5.02441 42.3262C5.24772 42.0117 5.40267 41.7314 5.48926 41.4854C5.5804 41.2347 5.62598 40.9795 5.62598 40.7197C5.62598 40.3916 5.55762 40.0954 5.4209 39.8311C5.28874 39.5622 5.09277 39.348 4.83301 39.1885C4.57324 39.029 4.25879 38.9492 3.88965 38.9492C3.44759 38.9492 3.07845 39.0358 2.78223 39.209C2.49056 39.3776 2.27181 39.6146 2.12598 39.9199C1.98014 40.2253 1.90723 40.5762 1.90723 40.9727H0.642578C0.642578 40.4121 0.765625 39.8994 1.01172 39.4346C1.25781 38.9697 1.6224 38.6006 2.10547 38.3271C2.58854 38.0492 3.18327 37.9102 3.88965 37.9102C4.51855 37.9102 5.05632 38.0218 5.50293 38.2451C5.94954 38.4639 6.29134 38.7738 6.52832 39.1748C6.76986 39.5713 6.89062 40.0361 6.89062 40.5693C6.89062 40.861 6.84049 41.1572 6.74023 41.458C6.64453 41.7542 6.51009 42.0505 6.33691 42.3467C6.16829 42.6429 5.97005 42.9346 5.74219 43.2217C5.51888 43.5088 5.27962 43.7913 5.02441 44.0693L2.3584 46.9609H7.34863ZM14.9502 42.2305V43.748C14.9502 44.5638 14.8773 45.252 14.7314 45.8125C14.5856 46.373 14.376 46.8242 14.1025 47.166C13.8291 47.5078 13.4987 47.7562 13.1113 47.9111C12.7285 48.0615 12.2956 48.1367 11.8125 48.1367C11.4297 48.1367 11.0765 48.0889 10.7529 47.9932C10.4294 47.8975 10.1377 47.7448 9.87793 47.5352C9.62272 47.321 9.40397 47.043 9.22168 46.7012C9.03939 46.3594 8.90039 45.9447 8.80469 45.457C8.70898 44.9694 8.66113 44.3997 8.66113 43.748V42.2305C8.66113 41.4147 8.73405 40.7311 8.87988 40.1797C9.03027 39.6283 9.24219 39.1862 9.51562 38.8535C9.78906 38.5163 10.1172 38.2747 10.5 38.1289C10.8874 37.9831 11.3203 37.9102 11.7988 37.9102C12.1862 37.9102 12.5417 37.958 12.8652 38.0537C13.1934 38.1449 13.485 38.293 13.7402 38.498C13.9954 38.6986 14.2119 38.9674 14.3896 39.3047C14.5719 39.6374 14.7109 40.0452 14.8066 40.5283C14.9023 41.0114 14.9502 41.5788 14.9502 42.2305ZM13.6787 43.9531V42.0186C13.6787 41.5719 13.6514 41.18 13.5967 40.8428C13.5465 40.501 13.4714 40.2093 13.3711 39.9678C13.2708 39.7262 13.1432 39.5303 12.9883 39.3799C12.8379 39.2295 12.6624 39.1201 12.4619 39.0518C12.266 38.9788 12.0449 38.9424 11.7988 38.9424C11.498 38.9424 11.2314 38.9993 10.999 39.1133C10.7666 39.2227 10.5706 39.3981 10.4111 39.6396C10.2562 39.8812 10.1377 40.1979 10.0557 40.5898C9.97363 40.9818 9.93262 41.458 9.93262 42.0186V43.9531C9.93262 44.3997 9.95768 44.7939 10.0078 45.1357C10.0625 45.4775 10.1423 45.7738 10.2471 46.0244C10.3519 46.2705 10.4795 46.4733 10.6299 46.6328C10.7803 46.7923 10.9535 46.9108 11.1494 46.9883C11.3499 47.0612 11.571 47.0977 11.8125 47.0977C12.1224 47.0977 12.3936 47.0384 12.626 46.9199C12.8584 46.8014 13.0521 46.6169 13.207 46.3662C13.3665 46.111 13.485 45.7852 13.5625 45.3887C13.64 44.9876 13.6787 44.5091 13.6787 43.9531ZM23.0986 46.9609V48H16.584V47.0908L19.8447 43.4609C20.2458 43.0143 20.5557 42.6361 20.7744 42.3262C20.9977 42.0117 21.1527 41.7314 21.2393 41.4854C21.3304 41.2347 21.376 40.9795 21.376 40.7197C21.376 40.3916 21.3076 40.0954 21.1709 39.8311C21.0387 39.5622 20.8428 39.348 20.583 39.1885C20.3232 39.029 20.0088 38.9492 19.6396 38.9492C19.1976 38.9492 18.8285 39.0358 18.5322 39.209C18.2406 39.3776 18.0218 39.6146 17.876 39.9199C17.7301 40.2253 17.6572 40.5762 17.6572 40.9727H16.3926C16.3926 40.4121 16.5156 39.8994 16.7617 39.4346C17.0078 38.9697 17.3724 38.6006 17.8555 38.3271C18.3385 38.0492 18.9333 37.9102 19.6396 37.9102C20.2686 37.9102 20.8063 38.0218 21.2529 38.2451C21.6995 38.4639 22.0413 38.7738 22.2783 39.1748C22.5199 39.5713 22.6406 40.0361 22.6406 40.5693C22.6406 40.861 22.5905 41.1572 22.4902 41.458C22.3945 41.7542 22.2601 42.0505 22.0869 42.3467C21.9183 42.6429 21.7201 42.9346 21.4922 43.2217C21.2689 43.5088 21.0296 43.7913 20.7744 44.0693L18.1084 46.9609H23.0986ZM26.2979 42.4014H27.2002C27.6423 42.4014 28.0068 42.3285 28.2939 42.1826C28.5856 42.0322 28.8021 41.8294 28.9434 41.5742C29.0892 41.3145 29.1621 41.0228 29.1621 40.6992C29.1621 40.3164 29.0983 39.9951 28.9707 39.7354C28.8431 39.4756 28.6517 39.2796 28.3965 39.1475C28.1413 39.0153 27.8177 38.9492 27.4258 38.9492C27.0703 38.9492 26.7559 39.0199 26.4824 39.1611C26.2135 39.2979 26.0016 39.4938 25.8467 39.749C25.6963 40.0042 25.6211 40.305 25.6211 40.6514H24.3564C24.3564 40.1455 24.484 39.6852 24.7393 39.2705C24.9945 38.8558 25.3522 38.5254 25.8125 38.2793C26.2773 38.0332 26.8151 37.9102 27.4258 37.9102C28.0273 37.9102 28.5537 38.0173 29.0049 38.2314C29.4561 38.4411 29.807 38.7555 30.0576 39.1748C30.3083 39.5895 30.4336 40.1068 30.4336 40.7266C30.4336 40.9772 30.3743 41.2461 30.2559 41.5332C30.1419 41.8158 29.9619 42.0801 29.7158 42.3262C29.4743 42.5723 29.1598 42.7751 28.7725 42.9346C28.3851 43.0895 27.9202 43.167 27.3779 43.167H26.2979V42.4014ZM26.2979 43.4404V42.6816H27.3779C28.0114 42.6816 28.5355 42.7568 28.9502 42.9072C29.3649 43.0576 29.6908 43.2581 29.9277 43.5088C30.1693 43.7594 30.3379 44.0352 30.4336 44.3359C30.5339 44.6322 30.584 44.9284 30.584 45.2246C30.584 45.6895 30.5042 46.1019 30.3447 46.4619C30.1898 46.8219 29.9688 47.1273 29.6816 47.3779C29.3991 47.6286 29.0664 47.8177 28.6836 47.9453C28.3008 48.0729 27.8838 48.1367 27.4326 48.1367C26.9997 48.1367 26.5918 48.0752 26.209 47.9521C25.8307 47.8291 25.4958 47.6514 25.2041 47.4189C24.9124 47.182 24.6846 46.8926 24.5205 46.5508C24.3564 46.2044 24.2744 45.8102 24.2744 45.3682H25.5391C25.5391 45.7145 25.6143 46.0176 25.7646 46.2773C25.9196 46.5371 26.1383 46.7399 26.4209 46.8857C26.708 47.027 27.0452 47.0977 27.4326 47.0977C27.82 47.0977 28.1527 47.0316 28.4307 46.8994C28.7132 46.7627 28.9297 46.5576 29.0801 46.2842C29.235 46.0107 29.3125 45.6667 29.3125 45.252C29.3125 44.8372 29.2259 44.4977 29.0527 44.2334C28.8796 43.9645 28.6335 43.7663 28.3145 43.6387C28 43.5065 27.6286 43.4404 27.2002 43.4404H26.2979ZM38.8213 48H36.7432L36.7568 46.9268H38.8213C39.5322 46.9268 40.1247 46.7786 40.5986 46.4824C41.0726 46.1816 41.4281 45.7624 41.665 45.2246C41.9066 44.6823 42.0273 44.0488 42.0273 43.3242V42.7158C42.0273 42.1462 41.959 41.6403 41.8223 41.1982C41.6855 40.7516 41.485 40.3757 41.2207 40.0703C40.9564 39.7604 40.6328 39.5257 40.25 39.3662C39.8717 39.2067 39.4365 39.127 38.9443 39.127H36.7021V38.0469H38.9443C39.596 38.0469 40.1908 38.1562 40.7285 38.375C41.2663 38.5892 41.7288 38.9014 42.1162 39.3115C42.5081 39.7171 42.8089 40.2093 43.0186 40.7881C43.2282 41.3623 43.333 42.0094 43.333 42.7295V43.3242C43.333 44.0443 43.2282 44.6937 43.0186 45.2725C42.8089 45.8467 42.5059 46.3366 42.1094 46.7422C41.7174 47.1478 41.2435 47.46 40.6875 47.6787C40.1361 47.8929 39.514 48 38.8213 48ZM37.4473 38.0469V48H36.1279V38.0469H37.4473ZM49.7861 46.5645V37.5H51.0576V48H49.8955L49.7861 46.5645ZM44.8096 44.3838V44.2402C44.8096 43.6751 44.8779 43.1624 45.0146 42.7021C45.1559 42.2373 45.3542 41.8385 45.6094 41.5059C45.8691 41.1732 46.1768 40.918 46.5322 40.7402C46.8923 40.5579 47.2933 40.4668 47.7354 40.4668C48.2002 40.4668 48.6058 40.5488 48.9521 40.7129C49.3031 40.8724 49.5993 41.1071 49.8408 41.417C50.0869 41.7223 50.2806 42.0915 50.4219 42.5244C50.5632 42.9574 50.6611 43.4473 50.7158 43.9941V44.623C50.6657 45.1654 50.5677 45.653 50.4219 46.0859C50.2806 46.5189 50.0869 46.888 49.8408 47.1934C49.5993 47.4987 49.3031 47.7334 48.9521 47.8975C48.6012 48.057 48.1911 48.1367 47.7217 48.1367C47.2887 48.1367 46.8923 48.0433 46.5322 47.8564C46.1768 47.6696 45.8691 47.4076 45.6094 47.0703C45.3542 46.7331 45.1559 46.3366 45.0146 45.8809C44.8779 45.4206 44.8096 44.9215 44.8096 44.3838ZM46.0811 44.2402V44.3838C46.0811 44.7529 46.1175 45.0993 46.1904 45.4229C46.2679 45.7464 46.3864 46.0312 46.5459 46.2773C46.7054 46.5234 46.9082 46.7171 47.1543 46.8584C47.4004 46.9951 47.6943 47.0635 48.0361 47.0635C48.4554 47.0635 48.7995 46.9746 49.0684 46.7969C49.3418 46.6191 49.5605 46.3844 49.7246 46.0928C49.8887 45.8011 50.0163 45.4844 50.1074 45.1426V43.4951C50.0527 43.2445 49.973 43.0029 49.8682 42.7705C49.7679 42.5335 49.6357 42.3239 49.4717 42.1416C49.3122 41.9548 49.1139 41.8066 48.877 41.6973C48.6445 41.5879 48.3688 41.5332 48.0498 41.5332C47.7035 41.5332 47.4049 41.6061 47.1543 41.752C46.9082 41.8932 46.7054 42.0892 46.5459 42.3398C46.3864 42.5859 46.2679 42.873 46.1904 43.2012C46.1175 43.5247 46.0811 43.8711 46.0811 44.2402ZM57.333 46.0381C57.333 45.8558 57.292 45.6872 57.21 45.5322C57.1325 45.3727 56.9707 45.2292 56.7246 45.1016C56.4831 44.9694 56.1185 44.8555 55.6309 44.7598C55.2207 44.6732 54.8493 44.5706 54.5166 44.4521C54.1885 44.3337 53.9082 44.1901 53.6758 44.0215C53.4479 43.8529 53.2725 43.6546 53.1494 43.4268C53.0264 43.1989 52.9648 42.9323 52.9648 42.627C52.9648 42.3353 53.0286 42.0596 53.1562 41.7998C53.2884 41.54 53.473 41.3099 53.71 41.1094C53.9515 40.9089 54.2409 40.7516 54.5781 40.6377C54.9154 40.5238 55.2913 40.4668 55.7061 40.4668C56.2985 40.4668 56.8044 40.5716 57.2236 40.7812C57.6429 40.9909 57.9642 41.2712 58.1875 41.6221C58.4108 41.9684 58.5225 42.3535 58.5225 42.7773H57.2578C57.2578 42.5723 57.1963 42.374 57.0732 42.1826C56.9548 41.9867 56.7793 41.8249 56.5469 41.6973C56.319 41.5697 56.0387 41.5059 55.7061 41.5059C55.3551 41.5059 55.0703 41.5605 54.8516 41.6699C54.6374 41.7747 54.4801 41.9092 54.3799 42.0732C54.2842 42.2373 54.2363 42.4105 54.2363 42.5928C54.2363 42.7295 54.2591 42.8525 54.3047 42.9619C54.3548 43.0667 54.4414 43.1647 54.5645 43.2559C54.6875 43.3424 54.8607 43.4245 55.084 43.502C55.3073 43.5794 55.5921 43.6569 55.9385 43.7344C56.5446 43.8711 57.0436 44.0352 57.4355 44.2266C57.8275 44.418 58.1191 44.6527 58.3105 44.9307C58.502 45.2087 58.5977 45.5459 58.5977 45.9424C58.5977 46.266 58.5293 46.5622 58.3926 46.8311C58.2604 47.0999 58.0667 47.3324 57.8115 47.5283C57.5609 47.7197 57.2601 47.8701 56.9092 47.9795C56.5628 48.0843 56.1732 48.1367 55.7402 48.1367C55.0885 48.1367 54.5371 48.0205 54.0859 47.7881C53.6348 47.5557 53.293 47.2549 53.0605 46.8857C52.8281 46.5166 52.7119 46.127 52.7119 45.7168H53.9834C54.0016 46.0632 54.1019 46.3389 54.2842 46.5439C54.4665 46.7445 54.6898 46.888 54.9541 46.9746C55.2184 47.0566 55.4805 47.0977 55.7402 47.0977C56.0866 47.0977 56.376 47.0521 56.6084 46.9609C56.8454 46.8698 57.0254 46.7445 57.1484 46.585C57.2715 46.4255 57.333 46.2432 57.333 46.0381ZM65.0508 40.6035H66.1992V47.8428C66.1992 48.4945 66.0671 49.0505 65.8027 49.5107C65.5384 49.971 65.1693 50.3197 64.6953 50.5566C64.2259 50.7982 63.6836 50.9189 63.0684 50.9189C62.8132 50.9189 62.5124 50.8779 62.166 50.7959C61.8242 50.7184 61.487 50.584 61.1543 50.3926C60.8262 50.2057 60.5505 49.9528 60.3271 49.6338L60.9902 48.8818C61.3001 49.2555 61.6237 49.5153 61.9609 49.6611C62.3027 49.807 62.64 49.8799 62.9727 49.8799C63.3737 49.8799 63.7201 49.8047 64.0117 49.6543C64.3034 49.5039 64.529 49.2806 64.6885 48.9844C64.8525 48.6927 64.9346 48.3327 64.9346 47.9043V42.2305L65.0508 40.6035ZM59.958 44.3838V44.2402C59.958 43.6751 60.0241 43.1624 60.1562 42.7021C60.293 42.2373 60.4867 41.8385 60.7373 41.5059C60.9925 41.1732 61.3001 40.918 61.6602 40.7402C62.0202 40.5579 62.4258 40.4668 62.877 40.4668C63.3418 40.4668 63.7474 40.5488 64.0938 40.7129C64.4447 40.8724 64.7409 41.1071 64.9824 41.417C65.2285 41.7223 65.4222 42.0915 65.5635 42.5244C65.7048 42.9574 65.8027 43.4473 65.8574 43.9941V44.623C65.8073 45.1654 65.7093 45.653 65.5635 46.0859C65.4222 46.5189 65.2285 46.888 64.9824 47.1934C64.7409 47.4987 64.4447 47.7334 64.0938 47.8975C63.7428 48.057 63.3327 48.1367 62.8633 48.1367C62.4212 48.1367 62.0202 48.0433 61.6602 47.8564C61.3047 47.6696 60.9993 47.4076 60.7441 47.0703C60.4889 46.7331 60.293 46.3366 60.1562 45.8809C60.0241 45.4206 59.958 44.9215 59.958 44.3838ZM61.2227 44.2402V44.3838C61.2227 44.7529 61.2591 45.0993 61.332 45.4229C61.4095 45.7464 61.5257 46.0312 61.6807 46.2773C61.8402 46.5234 62.043 46.7171 62.2891 46.8584C62.5352 46.9951 62.8291 47.0635 63.1709 47.0635C63.5902 47.0635 63.9365 46.9746 64.21 46.7969C64.4834 46.6191 64.6999 46.3844 64.8594 46.0928C65.0234 45.8011 65.151 45.4844 65.2422 45.1426V43.4951C65.1921 43.2445 65.1146 43.0029 65.0098 42.7705C64.9095 42.5335 64.7773 42.3239 64.6133 42.1416C64.4538 41.9548 64.2555 41.8066 64.0186 41.6973C63.7816 41.5879 63.5036 41.5332 63.1846 41.5332C62.8382 41.5332 62.5397 41.6061 62.2891 41.752C62.043 41.8932 61.8402 42.0892 61.6807 42.3398C61.5257 42.5859 61.4095 42.873 61.332 43.2012C61.2591 43.5247 61.2227 43.8711 61.2227 44.2402ZM69.3848 42.1826V48H68.1201V40.6035H69.3164L69.3848 42.1826ZM69.084 44.0215L68.5576 44.001C68.5622 43.4951 68.6374 43.028 68.7832 42.5996C68.929 42.1667 69.1341 41.7907 69.3984 41.4717C69.6628 41.1527 69.9772 40.9066 70.3418 40.7334C70.7109 40.5557 71.1188 40.4668 71.5654 40.4668C71.93 40.4668 72.2581 40.5169 72.5498 40.6172C72.8415 40.7129 73.0898 40.8678 73.2949 41.082C73.5046 41.2962 73.6641 41.5742 73.7734 41.916C73.8828 42.2533 73.9375 42.6657 73.9375 43.1533V48H72.666V43.1396C72.666 42.7523 72.609 42.4424 72.4951 42.21C72.3812 41.973 72.2148 41.8021 71.9961 41.6973C71.7773 41.5879 71.5085 41.5332 71.1895 41.5332C70.875 41.5332 70.5879 41.5993 70.3281 41.7314C70.0729 41.8636 69.8519 42.0459 69.665 42.2783C69.4827 42.5107 69.3392 42.7773 69.2344 43.0781C69.1341 43.3743 69.084 43.6888 69.084 44.0215ZM77.123 41.7656V48H75.8584V40.6035H77.0889L77.123 41.7656ZM79.4336 40.5625L79.4268 41.7383C79.3219 41.7155 79.2217 41.7018 79.126 41.6973C79.0348 41.6882 78.93 41.6836 78.8115 41.6836C78.5199 41.6836 78.2624 41.7292 78.0391 41.8203C77.8158 41.9115 77.6266 42.0391 77.4717 42.2031C77.3167 42.3672 77.1937 42.5632 77.1025 42.791C77.016 43.0143 76.959 43.2604 76.9316 43.5293L76.5762 43.7344C76.5762 43.2878 76.6195 42.8685 76.7061 42.4766C76.7972 42.0846 76.9362 41.7383 77.123 41.4375C77.3099 41.1322 77.5469 40.8952 77.834 40.7266C78.1257 40.5534 78.472 40.4668 78.873 40.4668C78.9642 40.4668 79.069 40.4782 79.1875 40.501C79.306 40.5192 79.388 40.5397 79.4336 40.5625ZM79.7754 47.3301C79.7754 47.1159 79.8415 46.9359 79.9736 46.79C80.1104 46.6396 80.3063 46.5645 80.5615 46.5645C80.8167 46.5645 81.0104 46.6396 81.1426 46.79C81.2793 46.9359 81.3477 47.1159 81.3477 47.3301C81.3477 47.5397 81.2793 47.7174 81.1426 47.8633C81.0104 48.0091 80.8167 48.082 80.5615 48.082C80.3063 48.082 80.1104 48.0091 79.9736 47.8633C79.8415 47.7174 79.7754 47.5397 79.7754 47.3301ZM90.7949 38.9287L87.5 48H86.1533L89.9473 38.0469H90.8154L90.7949 38.9287ZM93.5566 48L90.2549 38.9287L90.2344 38.0469H91.1025L94.9102 48H93.5566ZM93.3857 44.3154V45.3955H87.7939V44.3154H93.3857ZM97.4258 37.5V48H96.1543V37.5H97.4258ZM100.83 37.5V48H99.5586V37.5H100.83ZM107.598 41.7656V48H106.333V40.6035H107.563L107.598 41.7656ZM109.908 40.5625L109.901 41.7383C109.797 41.7155 109.696 41.7018 109.601 41.6973C109.509 41.6882 109.405 41.6836 109.286 41.6836C108.994 41.6836 108.737 41.7292 108.514 41.8203C108.29 41.9115 108.101 42.0391 107.946 42.2031C107.791 42.3672 107.668 42.5632 107.577 42.791C107.491 43.0143 107.434 43.2604 107.406 43.5293L107.051 43.7344C107.051 43.2878 107.094 42.8685 107.181 42.4766C107.272 42.0846 107.411 41.7383 107.598 41.4375C107.785 41.1322 108.021 40.8952 108.309 40.7266C108.6 40.5534 108.947 40.4668 109.348 40.4668C109.439 40.4668 109.544 40.4782 109.662 40.501C109.781 40.5192 109.863 40.5397 109.908 40.5625ZM112.451 40.6035V48H111.18V40.6035H112.451ZM111.084 38.6416C111.084 38.4365 111.146 38.2633 111.269 38.1221C111.396 37.9808 111.583 37.9102 111.829 37.9102C112.071 37.9102 112.255 37.9808 112.383 38.1221C112.515 38.2633 112.581 38.4365 112.581 38.6416C112.581 38.8376 112.515 39.0062 112.383 39.1475C112.255 39.2842 112.071 39.3525 111.829 39.3525C111.583 39.3525 111.396 39.2842 111.269 39.1475C111.146 39.0062 111.084 38.8376 111.084 38.6416ZM119.273 40.6035H120.422V47.8428C120.422 48.4945 120.29 49.0505 120.025 49.5107C119.761 49.971 119.392 50.3197 118.918 50.5566C118.449 50.7982 117.906 50.9189 117.291 50.9189C117.036 50.9189 116.735 50.8779 116.389 50.7959C116.047 50.7184 115.71 50.584 115.377 50.3926C115.049 50.2057 114.773 49.9528 114.55 49.6338L115.213 48.8818C115.523 49.2555 115.846 49.5153 116.184 49.6611C116.525 49.807 116.863 49.8799 117.195 49.8799C117.596 49.8799 117.943 49.8047 118.234 49.6543C118.526 49.5039 118.752 49.2806 118.911 48.9844C119.075 48.6927 119.157 48.3327 119.157 47.9043V42.2305L119.273 40.6035ZM114.181 44.3838V44.2402C114.181 43.6751 114.247 43.1624 114.379 42.7021C114.516 42.2373 114.709 41.8385 114.96 41.5059C115.215 41.1732 115.523 40.918 115.883 40.7402C116.243 40.5579 116.648 40.4668 117.1 40.4668C117.564 40.4668 117.97 40.5488 118.316 40.7129C118.667 40.8724 118.964 41.1071 119.205 41.417C119.451 41.7223 119.645 42.0915 119.786 42.5244C119.927 42.9574 120.025 43.4473 120.08 43.9941V44.623C120.03 45.1654 119.932 45.653 119.786 46.0859C119.645 46.5189 119.451 46.888 119.205 47.1934C118.964 47.4987 118.667 47.7334 118.316 47.8975C117.965 48.057 117.555 48.1367 117.086 48.1367C116.644 48.1367 116.243 48.0433 115.883 47.8564C115.527 47.6696 115.222 47.4076 114.967 47.0703C114.712 46.7331 114.516 46.3366 114.379 45.8809C114.247 45.4206 114.181 44.9215 114.181 44.3838ZM115.445 44.2402V44.3838C115.445 44.7529 115.482 45.0993 115.555 45.4229C115.632 45.7464 115.748 46.0312 115.903 46.2773C116.063 46.5234 116.266 46.7171 116.512 46.8584C116.758 46.9951 117.052 47.0635 117.394 47.0635C117.813 47.0635 118.159 46.9746 118.433 46.7969C118.706 46.6191 118.923 46.3844 119.082 46.0928C119.246 45.8011 119.374 45.4844 119.465 45.1426V43.4951C119.415 43.2445 119.337 43.0029 119.232 42.7705C119.132 42.5335 119 42.3239 118.836 42.1416C118.676 41.9548 118.478 41.8066 118.241 41.6973C118.004 41.5879 117.726 41.5332 117.407 41.5332C117.061 41.5332 116.762 41.6061 116.512 41.752C116.266 41.8932 116.063 42.0892 115.903 42.3398C115.748 42.5859 115.632 42.873 115.555 43.2012C115.482 43.5247 115.445 43.8711 115.445 44.2402ZM123.607 37.5V48H122.343V37.5H123.607ZM123.307 44.0215L122.78 44.001C122.785 43.4951 122.86 43.028 123.006 42.5996C123.152 42.1667 123.357 41.7907 123.621 41.4717C123.885 41.1527 124.2 40.9066 124.564 40.7334C124.934 40.5557 125.341 40.4668 125.788 40.4668C126.153 40.4668 126.481 40.5169 126.772 40.6172C127.064 40.7129 127.312 40.8678 127.518 41.082C127.727 41.2962 127.887 41.5742 127.996 41.916C128.105 42.2533 128.16 42.6657 128.16 43.1533V48H126.889V43.1396C126.889 42.7523 126.832 42.4424 126.718 42.21C126.604 41.973 126.438 41.8021 126.219 41.6973C126 41.5879 125.731 41.5332 125.412 41.5332C125.098 41.5332 124.811 41.5993 124.551 41.7314C124.296 41.8636 124.075 42.0459 123.888 42.2783C123.705 42.5107 123.562 42.7773 123.457 43.0781C123.357 43.3743 123.307 43.6888 123.307 44.0215ZM133.15 40.6035V41.5742H129.151V40.6035H133.15ZM130.505 38.8057H131.77V46.168C131.77 46.4186 131.808 46.6077 131.886 46.7354C131.963 46.863 132.063 46.9473 132.187 46.9883C132.31 47.0293 132.442 47.0498 132.583 47.0498C132.688 47.0498 132.797 47.0407 132.911 47.0225C133.03 46.9997 133.118 46.9814 133.178 46.9678L133.185 48C133.084 48.0319 132.952 48.0615 132.788 48.0889C132.629 48.1208 132.435 48.1367 132.207 48.1367C131.897 48.1367 131.612 48.0752 131.353 47.9521C131.093 47.8291 130.885 47.624 130.73 47.3369C130.58 47.0452 130.505 46.6533 130.505 46.1611V38.8057ZM139.371 41.7656V48H138.106V40.6035H139.337L139.371 41.7656ZM141.682 40.5625L141.675 41.7383C141.57 41.7155 141.47 41.7018 141.374 41.6973C141.283 41.6882 141.178 41.6836 141.06 41.6836C140.768 41.6836 140.51 41.7292 140.287 41.8203C140.064 41.9115 139.875 42.0391 139.72 42.2031C139.565 42.3672 139.442 42.5632 139.351 42.791C139.264 43.0143 139.207 43.2604 139.18 43.5293L138.824 43.7344C138.824 43.2878 138.868 42.8685 138.954 42.4766C139.045 42.0846 139.184 41.7383 139.371 41.4375C139.558 41.1322 139.795 40.8952 140.082 40.7266C140.374 40.5534 140.72 40.4668 141.121 40.4668C141.212 40.4668 141.317 40.4782 141.436 40.501C141.554 40.5192 141.636 40.5397 141.682 40.5625ZM145.783 48.1367C145.268 48.1367 144.801 48.0501 144.382 47.877C143.967 47.6992 143.609 47.4508 143.309 47.1318C143.012 46.8128 142.785 46.4346 142.625 45.9971C142.465 45.5596 142.386 45.0811 142.386 44.5615V44.2744C142.386 43.6729 142.475 43.1374 142.652 42.668C142.83 42.194 143.072 41.793 143.377 41.4648C143.682 41.1367 144.029 40.8883 144.416 40.7197C144.803 40.5511 145.204 40.4668 145.619 40.4668C146.148 40.4668 146.604 40.5579 146.986 40.7402C147.374 40.9225 147.69 41.1777 147.937 41.5059C148.183 41.8294 148.365 42.2122 148.483 42.6543C148.602 43.0918 148.661 43.5703 148.661 44.0898V44.6572H143.138V43.625H147.396V43.5293C147.378 43.2012 147.31 42.8822 147.191 42.5723C147.077 42.2624 146.895 42.0072 146.645 41.8066C146.394 41.6061 146.052 41.5059 145.619 41.5059C145.332 41.5059 145.068 41.5674 144.826 41.6904C144.585 41.8089 144.377 41.9867 144.204 42.2236C144.031 42.4606 143.896 42.75 143.801 43.0918C143.705 43.4336 143.657 43.8278 143.657 44.2744V44.5615C143.657 44.9124 143.705 45.2428 143.801 45.5527C143.901 45.8581 144.045 46.127 144.231 46.3594C144.423 46.5918 144.653 46.7741 144.922 46.9062C145.195 47.0384 145.505 47.1045 145.852 47.1045C146.298 47.1045 146.676 47.0133 146.986 46.8311C147.296 46.6488 147.567 46.4049 147.8 46.0996L148.565 46.708C148.406 46.9495 148.203 47.1797 147.957 47.3984C147.711 47.6172 147.408 47.7949 147.048 47.9316C146.692 48.0684 146.271 48.1367 145.783 48.1367ZM154.444 46.0381C154.444 45.8558 154.403 45.6872 154.321 45.5322C154.244 45.3727 154.082 45.2292 153.836 45.1016C153.594 44.9694 153.23 44.8555 152.742 44.7598C152.332 44.6732 151.961 44.5706 151.628 44.4521C151.3 44.3337 151.02 44.1901 150.787 44.0215C150.559 43.8529 150.384 43.6546 150.261 43.4268C150.138 43.1989 150.076 42.9323 150.076 42.627C150.076 42.3353 150.14 42.0596 150.268 41.7998C150.4 41.54 150.584 41.3099 150.821 41.1094C151.063 40.9089 151.352 40.7516 151.689 40.6377C152.027 40.5238 152.403 40.4668 152.817 40.4668C153.41 40.4668 153.916 40.5716 154.335 40.7812C154.754 40.9909 155.076 41.2712 155.299 41.6221C155.522 41.9684 155.634 42.3535 155.634 42.7773H154.369C154.369 42.5723 154.308 42.374 154.185 42.1826C154.066 41.9867 153.891 41.8249 153.658 41.6973C153.43 41.5697 153.15 41.5059 152.817 41.5059C152.466 41.5059 152.182 41.5605 151.963 41.6699C151.749 41.7747 151.591 41.9092 151.491 42.0732C151.396 42.2373 151.348 42.4105 151.348 42.5928C151.348 42.7295 151.37 42.8525 151.416 42.9619C151.466 43.0667 151.553 43.1647 151.676 43.2559C151.799 43.3424 151.972 43.4245 152.195 43.502C152.419 43.5794 152.703 43.6569 153.05 43.7344C153.656 43.8711 154.155 44.0352 154.547 44.2266C154.939 44.418 155.23 44.6527 155.422 44.9307C155.613 45.2087 155.709 45.5459 155.709 45.9424C155.709 46.266 155.641 46.5622 155.504 46.8311C155.372 47.0999 155.178 47.3324 154.923 47.5283C154.672 47.7197 154.371 47.8701 154.021 47.9795C153.674 48.0843 153.285 48.1367 152.852 48.1367C152.2 48.1367 151.648 48.0205 151.197 47.7881C150.746 47.5557 150.404 47.2549 150.172 46.8857C149.939 46.5166 149.823 46.127 149.823 45.7168H151.095C151.113 46.0632 151.213 46.3389 151.396 46.5439C151.578 46.7445 151.801 46.888 152.065 46.9746C152.33 47.0566 152.592 47.0977 152.852 47.0977C153.198 47.0977 153.487 47.0521 153.72 46.9609C153.957 46.8698 154.137 46.7445 154.26 46.585C154.383 46.4255 154.444 46.2432 154.444 46.0381ZM160.439 48.1367C159.924 48.1367 159.457 48.0501 159.038 47.877C158.623 47.6992 158.266 47.4508 157.965 47.1318C157.669 46.8128 157.441 46.4346 157.281 45.9971C157.122 45.5596 157.042 45.0811 157.042 44.5615V44.2744C157.042 43.6729 157.131 43.1374 157.309 42.668C157.486 42.194 157.728 41.793 158.033 41.4648C158.339 41.1367 158.685 40.8883 159.072 40.7197C159.46 40.5511 159.861 40.4668 160.275 40.4668C160.804 40.4668 161.26 40.5579 161.643 40.7402C162.03 40.9225 162.347 41.1777 162.593 41.5059C162.839 41.8294 163.021 42.2122 163.14 42.6543C163.258 43.0918 163.317 43.5703 163.317 44.0898V44.6572H157.794V43.625H162.053V43.5293C162.035 43.2012 161.966 42.8822 161.848 42.5723C161.734 42.2624 161.551 42.0072 161.301 41.8066C161.05 41.6061 160.708 41.5059 160.275 41.5059C159.988 41.5059 159.724 41.5674 159.482 41.6904C159.241 41.8089 159.034 41.9867 158.86 42.2236C158.687 42.4606 158.553 42.75 158.457 43.0918C158.361 43.4336 158.313 43.8278 158.313 44.2744V44.5615C158.313 44.9124 158.361 45.2428 158.457 45.5527C158.557 45.8581 158.701 46.127 158.888 46.3594C159.079 46.5918 159.309 46.7741 159.578 46.9062C159.852 47.0384 160.161 47.1045 160.508 47.1045C160.954 47.1045 161.333 47.0133 161.643 46.8311C161.952 46.6488 162.224 46.4049 162.456 46.0996L163.222 46.708C163.062 46.9495 162.859 47.1797 162.613 47.3984C162.367 47.6172 162.064 47.7949 161.704 47.9316C161.349 48.0684 160.927 48.1367 160.439 48.1367ZM166.059 41.7656V48H164.794V40.6035H166.024L166.059 41.7656ZM168.369 40.5625L168.362 41.7383C168.257 41.7155 168.157 41.7018 168.062 41.6973C167.97 41.6882 167.866 41.6836 167.747 41.6836C167.455 41.6836 167.198 41.7292 166.975 41.8203C166.751 41.9115 166.562 42.0391 166.407 42.2031C166.252 42.3672 166.129 42.5632 166.038 42.791C165.951 43.0143 165.895 43.2604 165.867 43.5293L165.512 43.7344C165.512 43.2878 165.555 42.8685 165.642 42.4766C165.733 42.0846 165.872 41.7383 166.059 41.4375C166.245 41.1322 166.482 40.8952 166.77 40.7266C167.061 40.5534 167.408 40.4668 167.809 40.4668C167.9 40.4668 168.005 40.4782 168.123 40.501C168.242 40.5192 168.324 40.5397 168.369 40.5625ZM171.91 46.8584L173.934 40.6035H175.226L172.566 48H171.719L171.91 46.8584ZM170.222 40.6035L172.307 46.8926L172.45 48H171.603L168.923 40.6035H170.222ZM179.416 48.1367C178.901 48.1367 178.434 48.0501 178.015 47.877C177.6 47.6992 177.242 47.4508 176.941 47.1318C176.645 46.8128 176.417 46.4346 176.258 45.9971C176.098 45.5596 176.019 45.0811 176.019 44.5615V44.2744C176.019 43.6729 176.107 43.1374 176.285 42.668C176.463 42.194 176.704 41.793 177.01 41.4648C177.315 41.1367 177.661 40.8883 178.049 40.7197C178.436 40.5511 178.837 40.4668 179.252 40.4668C179.781 40.4668 180.236 40.5579 180.619 40.7402C181.007 40.9225 181.323 41.1777 181.569 41.5059C181.815 41.8294 181.998 42.2122 182.116 42.6543C182.235 43.0918 182.294 43.5703 182.294 44.0898V44.6572H176.771V43.625H181.029V43.5293C181.011 43.2012 180.943 42.8822 180.824 42.5723C180.71 42.2624 180.528 42.0072 180.277 41.8066C180.027 41.6061 179.685 41.5059 179.252 41.5059C178.965 41.5059 178.701 41.5674 178.459 41.6904C178.217 41.8089 178.01 41.9867 177.837 42.2236C177.664 42.4606 177.529 42.75 177.434 43.0918C177.338 43.4336 177.29 43.8278 177.29 44.2744V44.5615C177.29 44.9124 177.338 45.2428 177.434 45.5527C177.534 45.8581 177.677 46.127 177.864 46.3594C178.056 46.5918 178.286 46.7741 178.555 46.9062C178.828 47.0384 179.138 47.1045 179.484 47.1045C179.931 47.1045 180.309 47.0133 180.619 46.8311C180.929 46.6488 181.2 46.4049 181.433 46.0996L182.198 46.708C182.039 46.9495 181.836 47.1797 181.59 47.3984C181.344 47.6172 181.041 47.7949 180.681 47.9316C180.325 48.0684 179.904 48.1367 179.416 48.1367ZM188.433 46.5645V37.5H189.704V48H188.542L188.433 46.5645ZM183.456 44.3838V44.2402C183.456 43.6751 183.524 43.1624 183.661 42.7021C183.802 42.2373 184.001 41.8385 184.256 41.5059C184.516 41.1732 184.823 40.918 185.179 40.7402C185.539 40.5579 185.94 40.4668 186.382 40.4668C186.847 40.4668 187.252 40.5488 187.599 40.7129C187.95 40.8724 188.246 41.1071 188.487 41.417C188.733 41.7223 188.927 42.0915 189.068 42.5244C189.21 42.9574 189.308 43.4473 189.362 43.9941V44.623C189.312 45.1654 189.214 45.653 189.068 46.0859C188.927 46.5189 188.733 46.888 188.487 47.1934C188.246 47.4987 187.95 47.7334 187.599 47.8975C187.248 48.057 186.838 48.1367 186.368 48.1367C185.935 48.1367 185.539 48.0433 185.179 47.8564C184.823 47.6696 184.516 47.4076 184.256 47.0703C184.001 46.7331 183.802 46.3366 183.661 45.8809C183.524 45.4206 183.456 44.9215 183.456 44.3838ZM184.728 44.2402V44.3838C184.728 44.7529 184.764 45.0993 184.837 45.4229C184.914 45.7464 185.033 46.0312 185.192 46.2773C185.352 46.5234 185.555 46.7171 185.801 46.8584C186.047 46.9951 186.341 47.0635 186.683 47.0635C187.102 47.0635 187.446 46.9746 187.715 46.7969C187.988 46.6191 188.207 46.3844 188.371 46.0928C188.535 45.8011 188.663 45.4844 188.754 45.1426V43.4951C188.699 43.2445 188.619 43.0029 188.515 42.7705C188.414 42.5335 188.282 42.3239 188.118 42.1416C187.959 41.9548 187.76 41.8066 187.523 41.6973C187.291 41.5879 187.015 41.5332 186.696 41.5332C186.35 41.5332 186.051 41.6061 185.801 41.752C185.555 41.8932 185.352 42.0892 185.192 42.3398C185.033 42.5859 184.914 42.873 184.837 43.2012C184.764 43.5247 184.728 43.8711 184.728 44.2402ZM191.693 47.3301C191.693 47.1159 191.759 46.9359 191.892 46.79C192.028 46.6396 192.224 46.5645 192.479 46.5645C192.735 46.5645 192.928 46.6396 193.061 46.79C193.197 46.9359 193.266 47.1159 193.266 47.3301C193.266 47.5397 193.197 47.7174 193.061 47.8633C192.928 48.0091 192.735 48.082 192.479 48.082C192.224 48.082 192.028 48.0091 191.892 47.8633C191.759 47.7174 191.693 47.5397 191.693 47.3301Z" fill="black"/>
<path d="M223.826 44.0967H221.167V43.0234H223.826C224.341 43.0234 224.758 42.9414 225.077 42.7773C225.396 42.6133 225.629 42.3854 225.774 42.0938C225.925 41.8021 226 41.4694 226 41.0957C226 40.7539 225.925 40.4326 225.774 40.1318C225.629 39.8311 225.396 39.5895 225.077 39.4072C224.758 39.2204 224.341 39.127 223.826 39.127H221.475V48H220.155V38.0469H223.826C224.578 38.0469 225.214 38.1768 225.733 38.4365C226.253 38.6963 226.647 39.0563 226.916 39.5166C227.185 39.9723 227.319 40.4941 227.319 41.082C227.319 41.7201 227.185 42.2646 226.916 42.7158C226.647 43.167 226.253 43.5111 225.733 43.748C225.214 43.9805 224.578 44.0967 223.826 44.0967ZM230.061 41.7656V48H228.796V40.6035H230.026L230.061 41.7656ZM232.371 40.5625L232.364 41.7383C232.259 41.7155 232.159 41.7018 232.063 41.6973C231.972 41.6882 231.868 41.6836 231.749 41.6836C231.457 41.6836 231.2 41.7292 230.977 41.8203C230.753 41.9115 230.564 42.0391 230.409 42.2031C230.254 42.3672 230.131 42.5632 230.04 42.791C229.953 43.0143 229.896 43.2604 229.869 43.5293L229.514 43.7344C229.514 43.2878 229.557 42.8685 229.644 42.4766C229.735 42.0846 229.874 41.7383 230.061 41.4375C230.247 41.1322 230.484 40.8952 230.771 40.7266C231.063 40.5534 231.41 40.4668 231.811 40.4668C231.902 40.4668 232.007 40.4782 232.125 40.501C232.243 40.5192 232.326 40.5397 232.371 40.5625ZM234.914 40.6035V48H233.643V40.6035H234.914ZM233.547 38.6416C233.547 38.4365 233.608 38.2633 233.731 38.1221C233.859 37.9808 234.046 37.9102 234.292 37.9102C234.534 37.9102 234.718 37.9808 234.846 38.1221C234.978 38.2633 235.044 38.4365 235.044 38.6416C235.044 38.8376 234.978 39.0062 234.846 39.1475C234.718 39.2842 234.534 39.3525 234.292 39.3525C234.046 39.3525 233.859 39.2842 233.731 39.1475C233.608 39.0062 233.547 38.8376 233.547 38.6416ZM239.193 46.8584L241.217 40.6035H242.509L239.85 48H239.002L239.193 46.8584ZM237.505 40.6035L239.59 46.8926L239.733 48H238.886L236.206 40.6035H237.505ZM247.978 46.7354V42.9277C247.978 42.6361 247.918 42.3831 247.8 42.1689C247.686 41.9502 247.513 41.7816 247.28 41.6631C247.048 41.5446 246.761 41.4854 246.419 41.4854C246.1 41.4854 245.82 41.54 245.578 41.6494C245.341 41.7588 245.154 41.9023 245.018 42.0801C244.885 42.2578 244.819 42.4492 244.819 42.6543H243.555C243.555 42.39 243.623 42.1279 243.76 41.8682C243.896 41.6084 244.092 41.3737 244.348 41.1641C244.607 40.9499 244.917 40.7812 245.277 40.6582C245.642 40.5306 246.048 40.4668 246.494 40.4668C247.032 40.4668 247.506 40.5579 247.916 40.7402C248.331 40.9225 248.654 41.1982 248.887 41.5674C249.124 41.932 249.242 42.39 249.242 42.9414V46.3867C249.242 46.6328 249.263 46.8949 249.304 47.1729C249.349 47.4508 249.415 47.6901 249.502 47.8906V48H248.183C248.119 47.8542 248.069 47.6605 248.032 47.4189C247.996 47.1729 247.978 46.945 247.978 46.7354ZM248.196 43.5156L248.21 44.4043H246.932C246.572 44.4043 246.25 44.4339 245.968 44.4932C245.685 44.5479 245.448 44.6322 245.257 44.7461C245.065 44.86 244.92 45.0036 244.819 45.1768C244.719 45.3454 244.669 45.5436 244.669 45.7715C244.669 46.0039 244.721 46.2158 244.826 46.4072C244.931 46.5986 245.088 46.7513 245.298 46.8652C245.512 46.9746 245.774 47.0293 246.084 47.0293C246.471 47.0293 246.813 46.9473 247.109 46.7832C247.406 46.6191 247.64 46.4186 247.813 46.1816C247.991 45.9447 248.087 45.7145 248.101 45.4912L248.641 46.0996C248.609 46.291 248.522 46.5029 248.381 46.7354C248.24 46.9678 248.05 47.1911 247.813 47.4053C247.581 47.6149 247.303 47.7904 246.979 47.9316C246.66 48.0684 246.3 48.1367 245.899 48.1367C245.398 48.1367 244.958 48.0387 244.58 47.8428C244.206 47.6468 243.915 47.3848 243.705 47.0566C243.5 46.724 243.397 46.3525 243.397 45.9424C243.397 45.5459 243.475 45.1973 243.63 44.8965C243.785 44.5911 244.008 44.3382 244.3 44.1377C244.591 43.9326 244.942 43.7777 245.353 43.6729C245.763 43.568 246.221 43.5156 246.727 43.5156H248.196ZM254.191 47.0977C254.492 47.0977 254.77 47.0361 255.025 46.9131C255.281 46.79 255.49 46.6214 255.654 46.4072C255.818 46.1885 255.912 45.9401 255.935 45.6621H257.138C257.115 46.0996 256.967 46.5075 256.693 46.8857C256.424 47.2594 256.071 47.5625 255.634 47.7949C255.196 48.0228 254.715 48.1367 254.191 48.1367C253.635 48.1367 253.15 48.0387 252.735 47.8428C252.325 47.6468 251.983 47.3779 251.71 47.0361C251.441 46.6943 251.238 46.3024 251.102 45.8604C250.969 45.4137 250.903 44.9421 250.903 44.4453V44.1582C250.903 43.6615 250.969 43.1921 251.102 42.75C251.238 42.3034 251.441 41.9092 251.71 41.5674C251.983 41.2256 252.325 40.9567 252.735 40.7607C253.15 40.5648 253.635 40.4668 254.191 40.4668C254.77 40.4668 255.276 40.5853 255.709 40.8223C256.142 41.0547 256.481 41.3737 256.728 41.7793C256.978 42.1803 257.115 42.6361 257.138 43.1465H255.935C255.912 42.8411 255.825 42.5654 255.675 42.3193C255.529 42.0732 255.328 41.8773 255.073 41.7314C254.823 41.5811 254.529 41.5059 254.191 41.5059C253.804 41.5059 253.478 41.5833 253.214 41.7383C252.954 41.8887 252.747 42.0938 252.592 42.3535C252.441 42.6087 252.332 42.8936 252.264 43.208C252.2 43.5179 252.168 43.8346 252.168 44.1582V44.4453C252.168 44.7689 252.2 45.0879 252.264 45.4023C252.327 45.7168 252.435 46.0016 252.585 46.2568C252.74 46.512 252.947 46.7171 253.207 46.8721C253.471 47.0225 253.799 47.0977 254.191 47.0977ZM260.638 47.2344L262.695 40.6035H264.049L261.082 49.1416C261.014 49.3239 260.923 49.5199 260.809 49.7295C260.699 49.9437 260.558 50.1465 260.385 50.3379C260.212 50.5293 260.002 50.6842 259.756 50.8027C259.514 50.9258 259.225 50.9873 258.888 50.9873C258.787 50.9873 258.66 50.9736 258.505 50.9463C258.35 50.9189 258.241 50.8962 258.177 50.8779L258.17 49.8525C258.206 49.8571 258.263 49.8617 258.341 49.8662C258.423 49.8753 258.48 49.8799 258.512 49.8799C258.799 49.8799 259.043 49.8411 259.243 49.7637C259.444 49.6908 259.612 49.5654 259.749 49.3877C259.89 49.2145 260.011 48.9753 260.111 48.6699L260.638 47.2344ZM259.127 40.6035L261.048 46.3457L261.376 47.6787L260.467 48.1436L257.746 40.6035H259.127ZM272.525 44.0967H269.866V43.0234H272.525C273.04 43.0234 273.457 42.9414 273.776 42.7773C274.095 42.6133 274.328 42.3854 274.474 42.0938C274.624 41.8021 274.699 41.4694 274.699 41.0957C274.699 40.7539 274.624 40.4326 274.474 40.1318C274.328 39.8311 274.095 39.5895 273.776 39.4072C273.457 39.2204 273.04 39.127 272.525 39.127H270.174V48H268.854V38.0469H272.525C273.277 38.0469 273.913 38.1768 274.433 38.4365C274.952 38.6963 275.346 39.0563 275.615 39.5166C275.884 39.9723 276.019 40.4941 276.019 41.082C276.019 41.7201 275.884 42.2646 275.615 42.7158C275.346 43.167 274.952 43.5111 274.433 43.748C273.913 43.9805 273.277 44.0967 272.525 44.0967ZM277.064 44.3838V44.2266C277.064 43.6934 277.142 43.1989 277.297 42.7432C277.452 42.2829 277.675 41.8841 277.967 41.5469C278.258 41.2051 278.612 40.9408 279.026 40.7539C279.441 40.5625 279.906 40.4668 280.421 40.4668C280.94 40.4668 281.408 40.5625 281.822 40.7539C282.242 40.9408 282.597 41.2051 282.889 41.5469C283.185 41.8841 283.41 42.2829 283.565 42.7432C283.72 43.1989 283.798 43.6934 283.798 44.2266V44.3838C283.798 44.917 283.72 45.4115 283.565 45.8672C283.41 46.3229 283.185 46.7217 282.889 47.0635C282.597 47.4007 282.244 47.665 281.829 47.8564C281.419 48.0433 280.954 48.1367 280.435 48.1367C279.915 48.1367 279.448 48.0433 279.033 47.8564C278.618 47.665 278.263 47.4007 277.967 47.0635C277.675 46.7217 277.452 46.3229 277.297 45.8672C277.142 45.4115 277.064 44.917 277.064 44.3838ZM278.329 44.2266V44.3838C278.329 44.7529 278.372 45.1016 278.459 45.4297C278.546 45.7533 278.675 46.0404 278.849 46.291C279.026 46.5417 279.247 46.7399 279.512 46.8857C279.776 47.027 280.084 47.0977 280.435 47.0977C280.781 47.0977 281.084 47.027 281.344 46.8857C281.608 46.7399 281.827 46.5417 282 46.291C282.173 46.0404 282.303 45.7533 282.39 45.4297C282.481 45.1016 282.526 44.7529 282.526 44.3838V44.2266C282.526 43.862 282.481 43.5179 282.39 43.1943C282.303 42.8662 282.171 42.5768 281.993 42.3262C281.82 42.071 281.601 41.8704 281.337 41.7246C281.077 41.5788 280.772 41.5059 280.421 41.5059C280.075 41.5059 279.769 41.5788 279.505 41.7246C279.245 41.8704 279.026 42.071 278.849 42.3262C278.675 42.5768 278.546 42.8662 278.459 43.1943C278.372 43.5179 278.329 43.862 278.329 44.2266ZM286.758 37.5V48H285.486V37.5H286.758ZM290.162 40.6035V48H288.891V40.6035H290.162ZM288.795 38.6416C288.795 38.4365 288.856 38.2633 288.979 38.1221C289.107 37.9808 289.294 37.9102 289.54 37.9102C289.782 37.9102 289.966 37.9808 290.094 38.1221C290.226 38.2633 290.292 38.4365 290.292 38.6416C290.292 38.8376 290.226 39.0062 290.094 39.1475C289.966 39.2842 289.782 39.3525 289.54 39.3525C289.294 39.3525 289.107 39.2842 288.979 39.1475C288.856 39.0062 288.795 38.8376 288.795 38.6416ZM295.152 47.0977C295.453 47.0977 295.731 47.0361 295.986 46.9131C296.242 46.79 296.451 46.6214 296.615 46.4072C296.779 46.1885 296.873 45.9401 296.896 45.6621H298.099C298.076 46.0996 297.928 46.5075 297.654 46.8857C297.385 47.2594 297.032 47.5625 296.595 47.7949C296.157 48.0228 295.676 48.1367 295.152 48.1367C294.596 48.1367 294.111 48.0387 293.696 47.8428C293.286 47.6468 292.944 47.3779 292.671 47.0361C292.402 46.6943 292.199 46.3024 292.062 45.8604C291.93 45.4137 291.864 44.9421 291.864 44.4453V44.1582C291.864 43.6615 291.93 43.1921 292.062 42.75C292.199 42.3034 292.402 41.9092 292.671 41.5674C292.944 41.2256 293.286 40.9567 293.696 40.7607C294.111 40.5648 294.596 40.4668 295.152 40.4668C295.731 40.4668 296.237 40.5853 296.67 40.8223C297.103 41.0547 297.442 41.3737 297.688 41.7793C297.939 42.1803 298.076 42.6361 298.099 43.1465H296.896C296.873 42.8411 296.786 42.5654 296.636 42.3193C296.49 42.0732 296.289 41.8773 296.034 41.7314C295.784 41.5811 295.49 41.5059 295.152 41.5059C294.765 41.5059 294.439 41.5833 294.175 41.7383C293.915 41.8887 293.708 42.0938 293.553 42.3535C293.402 42.6087 293.293 42.8936 293.225 43.208C293.161 43.5179 293.129 43.8346 293.129 44.1582V44.4453C293.129 44.7689 293.161 45.0879 293.225 45.4023C293.288 45.7168 293.396 46.0016 293.546 46.2568C293.701 46.512 293.908 46.7171 294.168 46.8721C294.432 47.0225 294.76 47.0977 295.152 47.0977ZM301.599 47.2344L303.656 40.6035H305.01L302.043 49.1416C301.975 49.3239 301.883 49.5199 301.77 49.7295C301.66 49.9437 301.519 50.1465 301.346 50.3379C301.173 50.5293 300.963 50.6842 300.717 50.8027C300.475 50.9258 300.186 50.9873 299.849 50.9873C299.748 50.9873 299.621 50.9736 299.466 50.9463C299.311 50.9189 299.201 50.8962 299.138 50.8779L299.131 49.8525C299.167 49.8571 299.224 49.8617 299.302 49.8662C299.384 49.8753 299.441 49.8799 299.473 49.8799C299.76 49.8799 300.004 49.8411 300.204 49.7637C300.405 49.6908 300.573 49.5654 300.71 49.3877C300.851 49.2145 300.972 48.9753 301.072 48.6699L301.599 47.2344ZM300.088 40.6035L302.009 46.3457L302.337 47.6787L301.428 48.1436L298.707 40.6035H300.088Z" fill="black"/>
<path d="M219 49.3672H305.181V50.0508H219V49.3672Z" fill="black"/>
<path d="M334.833 38.0469V48H333.534V38.0469H334.833ZM338.032 38.0469V39.127H330.342V38.0469H338.032ZM341.703 48.1367C341.188 48.1367 340.721 48.0501 340.302 47.877C339.887 47.6992 339.529 47.4508 339.229 47.1318C338.932 46.8128 338.704 46.4346 338.545 45.9971C338.385 45.5596 338.306 45.0811 338.306 44.5615V44.2744C338.306 43.6729 338.395 43.1374 338.572 42.668C338.75 42.194 338.992 41.793 339.297 41.4648C339.602 41.1367 339.949 40.8883 340.336 40.7197C340.723 40.5511 341.124 40.4668 341.539 40.4668C342.068 40.4668 342.523 40.5579 342.906 40.7402C343.294 40.9225 343.61 41.1777 343.856 41.5059C344.103 41.8294 344.285 42.2122 344.403 42.6543C344.522 43.0918 344.581 43.5703 344.581 44.0898V44.6572H339.058V43.625H343.316V43.5293C343.298 43.2012 343.23 42.8822 343.111 42.5723C342.997 42.2624 342.815 42.0072 342.564 41.8066C342.314 41.6061 341.972 41.5059 341.539 41.5059C341.252 41.5059 340.988 41.5674 340.746 41.6904C340.505 41.8089 340.297 41.9867 340.124 42.2236C339.951 42.4606 339.816 42.75 339.721 43.0918C339.625 43.4336 339.577 43.8278 339.577 44.2744V44.5615C339.577 44.9124 339.625 45.2428 339.721 45.5527C339.821 45.8581 339.965 46.127 340.151 46.3594C340.343 46.5918 340.573 46.7741 340.842 46.9062C341.115 47.0384 341.425 47.1045 341.771 47.1045C342.218 47.1045 342.596 47.0133 342.906 46.8311C343.216 46.6488 343.487 46.4049 343.72 46.0996L344.485 46.708C344.326 46.9495 344.123 47.1797 343.877 47.3984C343.631 47.6172 343.328 47.7949 342.968 47.9316C342.612 48.0684 342.191 48.1367 341.703 48.1367ZM347.322 41.7656V48H346.058V40.6035H347.288L347.322 41.7656ZM349.633 40.5625L349.626 41.7383C349.521 41.7155 349.421 41.7018 349.325 41.6973C349.234 41.6882 349.129 41.6836 349.011 41.6836C348.719 41.6836 348.462 41.7292 348.238 41.8203C348.015 41.9115 347.826 42.0391 347.671 42.2031C347.516 42.3672 347.393 42.5632 347.302 42.791C347.215 43.0143 347.158 43.2604 347.131 43.5293L346.775 43.7344C346.775 43.2878 346.819 42.8685 346.905 42.4766C346.996 42.0846 347.135 41.7383 347.322 41.4375C347.509 41.1322 347.746 40.8952 348.033 40.7266C348.325 40.5534 348.671 40.4668 349.072 40.4668C349.163 40.4668 349.268 40.4782 349.387 40.501C349.505 40.5192 349.587 40.5397 349.633 40.5625ZM352.06 42.0732V48H350.788V40.6035H351.991L352.06 42.0732ZM351.8 44.0215L351.212 44.001C351.216 43.4951 351.283 43.028 351.41 42.5996C351.538 42.1667 351.727 41.7907 351.978 41.4717C352.228 41.1527 352.54 40.9066 352.914 40.7334C353.288 40.5557 353.721 40.4668 354.213 40.4668C354.559 40.4668 354.878 40.5169 355.17 40.6172C355.462 40.7129 355.715 40.8656 355.929 41.0752C356.143 41.2848 356.309 41.5537 356.428 41.8818C356.546 42.21 356.605 42.6064 356.605 43.0713V48H355.341V43.1328C355.341 42.7454 355.275 42.4355 355.143 42.2031C355.015 41.9707 354.833 41.8021 354.596 41.6973C354.359 41.5879 354.081 41.5332 353.762 41.5332C353.388 41.5332 353.076 41.5993 352.825 41.7314C352.575 41.8636 352.374 42.0459 352.224 42.2783C352.073 42.5107 351.964 42.7773 351.896 43.0781C351.832 43.3743 351.8 43.6888 351.8 44.0215ZM356.592 43.3242L355.744 43.584C355.749 43.1784 355.815 42.7887 355.942 42.415C356.075 42.0413 356.264 41.7087 356.51 41.417C356.76 41.1253 357.068 40.8952 357.433 40.7266C357.797 40.5534 358.214 40.4668 358.684 40.4668C359.08 40.4668 359.431 40.5192 359.736 40.624C360.046 40.7288 360.306 40.8906 360.516 41.1094C360.73 41.3236 360.892 41.5993 361.001 41.9365C361.11 42.2738 361.165 42.6748 361.165 43.1396V48H359.894V43.126C359.894 42.7113 359.827 42.39 359.695 42.1621C359.568 41.9297 359.385 41.7679 359.148 41.6768C358.916 41.5811 358.638 41.5332 358.314 41.5332C358.036 41.5332 357.79 41.5811 357.576 41.6768C357.362 41.7725 357.182 41.9046 357.036 42.0732C356.89 42.2373 356.779 42.4264 356.701 42.6406C356.628 42.8548 356.592 43.0827 356.592 43.3242ZM367.386 46.0381C367.386 45.8558 367.345 45.6872 367.263 45.5322C367.185 45.3727 367.023 45.2292 366.777 45.1016C366.536 44.9694 366.171 44.8555 365.684 44.7598C365.273 44.6732 364.902 44.5706 364.569 44.4521C364.241 44.3337 363.961 44.1901 363.729 44.0215C363.501 43.8529 363.325 43.6546 363.202 43.4268C363.079 43.1989 363.018 42.9323 363.018 42.627C363.018 42.3353 363.081 42.0596 363.209 41.7998C363.341 41.54 363.526 41.3099 363.763 41.1094C364.004 40.9089 364.294 40.7516 364.631 40.6377C364.968 40.5238 365.344 40.4668 365.759 40.4668C366.351 40.4668 366.857 40.5716 367.276 40.7812C367.696 40.9909 368.017 41.2712 368.24 41.6221C368.464 41.9684 368.575 42.3535 368.575 42.7773H367.311C367.311 42.5723 367.249 42.374 367.126 42.1826C367.007 41.9867 366.832 41.8249 366.6 41.6973C366.372 41.5697 366.091 41.5059 365.759 41.5059C365.408 41.5059 365.123 41.5605 364.904 41.6699C364.69 41.7747 364.533 41.9092 364.433 42.0732C364.337 42.2373 364.289 42.4105 364.289 42.5928C364.289 42.7295 364.312 42.8525 364.357 42.9619C364.408 43.0667 364.494 43.1647 364.617 43.2559C364.74 43.3424 364.913 43.4245 365.137 43.502C365.36 43.5794 365.645 43.6569 365.991 43.7344C366.597 43.8711 367.096 44.0352 367.488 44.2266C367.88 44.418 368.172 44.6527 368.363 44.9307C368.555 45.2087 368.65 45.5459 368.65 45.9424C368.65 46.266 368.582 46.5622 368.445 46.8311C368.313 47.0999 368.119 47.3324 367.864 47.5283C367.614 47.7197 367.313 47.8701 366.962 47.9795C366.616 48.0843 366.226 48.1367 365.793 48.1367C365.141 48.1367 364.59 48.0205 364.139 47.7881C363.688 47.5557 363.346 47.2549 363.113 46.8857C362.881 46.5166 362.765 46.127 362.765 45.7168H364.036C364.054 46.0632 364.155 46.3389 364.337 46.5439C364.519 46.7445 364.743 46.888 365.007 46.9746C365.271 47.0566 365.533 47.0977 365.793 47.0977C366.139 47.0977 366.429 47.0521 366.661 46.9609C366.898 46.8698 367.078 46.7445 367.201 46.585C367.324 46.4255 367.386 46.2432 367.386 46.0381ZM373.449 44.3838V44.2266C373.449 43.6934 373.527 43.1989 373.682 42.7432C373.837 42.2829 374.06 41.8841 374.352 41.5469C374.643 41.2051 374.996 40.9408 375.411 40.7539C375.826 40.5625 376.291 40.4668 376.806 40.4668C377.325 40.4668 377.792 40.5625 378.207 40.7539C378.626 40.9408 378.982 41.2051 379.273 41.5469C379.57 41.8841 379.795 42.2829 379.95 42.7432C380.105 43.1989 380.183 43.6934 380.183 44.2266V44.3838C380.183 44.917 380.105 45.4115 379.95 45.8672C379.795 46.3229 379.57 46.7217 379.273 47.0635C378.982 47.4007 378.629 47.665 378.214 47.8564C377.804 48.0433 377.339 48.1367 376.819 48.1367C376.3 48.1367 375.833 48.0433 375.418 47.8564C375.003 47.665 374.648 47.4007 374.352 47.0635C374.06 46.7217 373.837 46.3229 373.682 45.8672C373.527 45.4115 373.449 44.917 373.449 44.3838ZM374.714 44.2266V44.3838C374.714 44.7529 374.757 45.1016 374.844 45.4297C374.93 45.7533 375.06 46.0404 375.233 46.291C375.411 46.5417 375.632 46.7399 375.896 46.8857C376.161 47.027 376.468 47.0977 376.819 47.0977C377.166 47.0977 377.469 47.027 377.729 46.8857C377.993 46.7399 378.212 46.5417 378.385 46.291C378.558 46.0404 378.688 45.7533 378.774 45.4297C378.866 45.1016 378.911 44.7529 378.911 44.3838V44.2266C378.911 43.862 378.866 43.5179 378.774 43.1943C378.688 42.8662 378.556 42.5768 378.378 42.3262C378.205 42.071 377.986 41.8704 377.722 41.7246C377.462 41.5788 377.157 41.5059 376.806 41.5059C376.459 41.5059 376.154 41.5788 375.89 41.7246C375.63 41.8704 375.411 42.071 375.233 42.3262C375.06 42.5768 374.93 42.8662 374.844 43.1943C374.757 43.5179 374.714 43.862 374.714 44.2266ZM383.655 48H382.391V39.8242C382.391 39.291 382.486 38.8421 382.678 38.4775C382.874 38.1084 383.154 37.8304 383.519 37.6436C383.883 37.4521 384.316 37.3564 384.817 37.3564C384.963 37.3564 385.109 37.3656 385.255 37.3838C385.405 37.402 385.551 37.4294 385.692 37.4658L385.624 38.498C385.528 38.4753 385.419 38.4593 385.296 38.4502C385.177 38.4411 385.059 38.4365 384.94 38.4365C384.672 38.4365 384.439 38.4912 384.243 38.6006C384.052 38.7054 383.906 38.8604 383.806 39.0654C383.705 39.2705 383.655 39.5234 383.655 39.8242V48ZM385.228 40.6035V41.5742H381.222V40.6035H385.228ZM395.604 45.4844C395.604 45.252 395.568 45.0469 395.495 44.8691C395.427 44.6868 395.304 44.5228 395.126 44.377C394.953 44.2311 394.711 44.0921 394.401 43.96C394.096 43.8278 393.709 43.6934 393.239 43.5566C392.747 43.4108 392.303 43.249 391.906 43.0713C391.51 42.889 391.17 42.6816 390.888 42.4492C390.605 42.2168 390.389 41.9502 390.238 41.6494C390.088 41.3486 390.013 41.0046 390.013 40.6172C390.013 40.2298 390.092 39.8721 390.252 39.5439C390.411 39.2158 390.639 38.931 390.936 38.6895C391.236 38.4434 391.594 38.252 392.009 38.1152C392.424 37.9785 392.886 37.9102 393.396 37.9102C394.144 37.9102 394.777 38.0537 395.297 38.3408C395.821 38.6234 396.22 38.9948 396.493 39.4551C396.767 39.9108 396.903 40.3984 396.903 40.918H395.591C395.591 40.5443 395.511 40.2139 395.352 39.9268C395.192 39.6351 394.951 39.4072 394.627 39.2432C394.303 39.0745 393.893 38.9902 393.396 38.9902C392.927 38.9902 392.54 39.0609 392.234 39.2021C391.929 39.3434 391.701 39.5348 391.551 39.7764C391.405 40.0179 391.332 40.2936 391.332 40.6035C391.332 40.8132 391.375 41.0046 391.462 41.1777C391.553 41.3464 391.692 41.5036 391.879 41.6494C392.07 41.7952 392.312 41.9297 392.604 42.0527C392.9 42.1758 393.253 42.2943 393.663 42.4082C394.228 42.5677 394.716 42.7454 395.126 42.9414C395.536 43.1374 395.873 43.3584 396.138 43.6045C396.407 43.846 396.605 44.1217 396.732 44.4316C396.865 44.737 396.931 45.0833 396.931 45.4707C396.931 45.8763 396.849 46.2432 396.685 46.5713C396.521 46.8994 396.286 47.1797 395.98 47.4121C395.675 47.6445 395.308 47.8245 394.88 47.9521C394.456 48.0752 393.982 48.1367 393.458 48.1367C392.998 48.1367 392.544 48.0729 392.098 47.9453C391.656 47.8177 391.252 47.6263 390.888 47.3711C390.528 47.1159 390.238 46.8014 390.02 46.4277C389.805 46.0495 389.698 45.612 389.698 45.1152H391.011C391.011 45.457 391.077 45.751 391.209 45.9971C391.341 46.2386 391.521 46.4391 391.749 46.5986C391.981 46.7581 392.243 46.8766 392.535 46.9541C392.831 47.027 393.139 47.0635 393.458 47.0635C393.918 47.0635 394.308 46.9997 394.627 46.8721C394.946 46.7445 395.188 46.5622 395.352 46.3252C395.52 46.0882 395.604 45.8079 395.604 45.4844ZM401.49 48.1367C400.975 48.1367 400.508 48.0501 400.089 47.877C399.674 47.6992 399.316 47.4508 399.016 47.1318C398.719 46.8128 398.492 46.4346 398.332 45.9971C398.173 45.5596 398.093 45.0811 398.093 44.5615V44.2744C398.093 43.6729 398.182 43.1374 398.359 42.668C398.537 42.194 398.779 41.793 399.084 41.4648C399.389 41.1367 399.736 40.8883 400.123 40.7197C400.51 40.5511 400.911 40.4668 401.326 40.4668C401.855 40.4668 402.311 40.5579 402.693 40.7402C403.081 40.9225 403.397 41.1777 403.644 41.5059C403.89 41.8294 404.072 42.2122 404.19 42.6543C404.309 43.0918 404.368 43.5703 404.368 44.0898V44.6572H398.845V43.625H403.104V43.5293C403.085 43.2012 403.017 42.8822 402.898 42.5723C402.785 42.2624 402.602 42.0072 402.352 41.8066C402.101 41.6061 401.759 41.5059 401.326 41.5059C401.039 41.5059 400.775 41.5674 400.533 41.6904C400.292 41.8089 400.084 41.9867 399.911 42.2236C399.738 42.4606 399.604 42.75 399.508 43.0918C399.412 43.4336 399.364 43.8278 399.364 44.2744V44.5615C399.364 44.9124 399.412 45.2428 399.508 45.5527C399.608 45.8581 399.752 46.127 399.938 46.3594C400.13 46.5918 400.36 46.7741 400.629 46.9062C400.902 47.0384 401.212 47.1045 401.559 47.1045C402.005 47.1045 402.383 47.0133 402.693 46.8311C403.003 46.6488 403.274 46.4049 403.507 46.0996L404.272 46.708C404.113 46.9495 403.91 47.1797 403.664 47.3984C403.418 47.6172 403.115 47.7949 402.755 47.9316C402.399 48.0684 401.978 48.1367 401.49 48.1367ZM407.109 41.7656V48H405.845V40.6035H407.075L407.109 41.7656ZM409.42 40.5625L409.413 41.7383C409.308 41.7155 409.208 41.7018 409.112 41.6973C409.021 41.6882 408.916 41.6836 408.798 41.6836C408.506 41.6836 408.249 41.7292 408.025 41.8203C407.802 41.9115 407.613 42.0391 407.458 42.2031C407.303 42.3672 407.18 42.5632 407.089 42.791C407.002 43.0143 406.945 43.2604 406.918 43.5293L406.562 43.7344C406.562 43.2878 406.606 42.8685 406.692 42.4766C406.784 42.0846 406.923 41.7383 407.109 41.4375C407.296 41.1322 407.533 40.8952 407.82 40.7266C408.112 40.5534 408.458 40.4668 408.859 40.4668C408.951 40.4668 409.055 40.4782 409.174 40.501C409.292 40.5192 409.374 40.5397 409.42 40.5625ZM412.961 46.8584L414.984 40.6035H416.276L413.617 48H412.77L412.961 46.8584ZM411.272 40.6035L413.357 46.8926L413.501 48H412.653L409.974 40.6035H411.272ZM418.867 40.6035V48H417.596V40.6035H418.867ZM417.5 38.6416C417.5 38.4365 417.562 38.2633 417.685 38.1221C417.812 37.9808 417.999 37.9102 418.245 37.9102C418.487 37.9102 418.671 37.9808 418.799 38.1221C418.931 38.2633 418.997 38.4365 418.997 38.6416C418.997 38.8376 418.931 39.0062 418.799 39.1475C418.671 39.2842 418.487 39.3525 418.245 39.3525C417.999 39.3525 417.812 39.2842 417.685 39.1475C417.562 39.0062 417.5 38.8376 417.5 38.6416ZM423.857 47.0977C424.158 47.0977 424.436 47.0361 424.691 46.9131C424.947 46.79 425.156 46.6214 425.32 46.4072C425.484 46.1885 425.578 45.9401 425.601 45.6621H426.804C426.781 46.0996 426.633 46.5075 426.359 46.8857C426.09 47.2594 425.737 47.5625 425.3 47.7949C424.862 48.0228 424.382 48.1367 423.857 48.1367C423.301 48.1367 422.816 48.0387 422.401 47.8428C421.991 47.6468 421.649 47.3779 421.376 47.0361C421.107 46.6943 420.904 46.3024 420.768 45.8604C420.635 45.4137 420.569 44.9421 420.569 44.4453V44.1582C420.569 43.6615 420.635 43.1921 420.768 42.75C420.904 42.3034 421.107 41.9092 421.376 41.5674C421.649 41.2256 421.991 40.9567 422.401 40.7607C422.816 40.5648 423.301 40.4668 423.857 40.4668C424.436 40.4668 424.942 40.5853 425.375 40.8223C425.808 41.0547 426.147 41.3737 426.394 41.7793C426.644 42.1803 426.781 42.6361 426.804 43.1465H425.601C425.578 42.8411 425.491 42.5654 425.341 42.3193C425.195 42.0732 424.994 41.8773 424.739 41.7314C424.489 41.5811 424.195 41.5059 423.857 41.5059C423.47 41.5059 423.144 41.5833 422.88 41.7383C422.62 41.8887 422.413 42.0938 422.258 42.3535C422.107 42.6087 421.998 42.8936 421.93 43.208C421.866 43.5179 421.834 43.8346 421.834 44.1582V44.4453C421.834 44.7689 421.866 45.0879 421.93 45.4023C421.993 45.7168 422.101 46.0016 422.251 46.2568C422.406 46.512 422.613 46.7171 422.873 46.8721C423.137 47.0225 423.465 47.0977 423.857 47.0977ZM431.295 48.1367C430.78 48.1367 430.313 48.0501 429.894 47.877C429.479 47.6992 429.121 47.4508 428.82 47.1318C428.524 46.8128 428.296 46.4346 428.137 45.9971C427.977 45.5596 427.897 45.0811 427.897 44.5615V44.2744C427.897 43.6729 427.986 43.1374 428.164 42.668C428.342 42.194 428.583 41.793 428.889 41.4648C429.194 41.1367 429.54 40.8883 429.928 40.7197C430.315 40.5511 430.716 40.4668 431.131 40.4668C431.66 40.4668 432.115 40.5579 432.498 40.7402C432.885 40.9225 433.202 41.1777 433.448 41.5059C433.694 41.8294 433.877 42.2122 433.995 42.6543C434.114 43.0918 434.173 43.5703 434.173 44.0898V44.6572H428.649V43.625H432.908V43.5293C432.89 43.2012 432.822 42.8822 432.703 42.5723C432.589 42.2624 432.407 42.0072 432.156 41.8066C431.906 41.6061 431.564 41.5059 431.131 41.5059C430.844 41.5059 430.579 41.5674 430.338 41.6904C430.096 41.8089 429.889 41.9867 429.716 42.2236C429.543 42.4606 429.408 42.75 429.312 43.0918C429.217 43.4336 429.169 43.8278 429.169 44.2744V44.5615C429.169 44.9124 429.217 45.2428 429.312 45.5527C429.413 45.8581 429.556 46.127 429.743 46.3594C429.935 46.5918 430.165 46.7741 430.434 46.9062C430.707 47.0384 431.017 47.1045 431.363 47.1045C431.81 47.1045 432.188 47.0133 432.498 46.8311C432.808 46.6488 433.079 46.4049 433.312 46.0996L434.077 46.708C433.918 46.9495 433.715 47.1797 433.469 47.3984C433.223 47.6172 432.92 47.7949 432.56 47.9316C432.204 48.0684 431.783 48.1367 431.295 48.1367Z" fill="black"/>
<path d="M330 49.3672H434.686V50.0508H330V49.3672Z" fill="black"/>
<path d="M466.164 44.835H467.477C467.408 45.4639 467.228 46.0267 466.937 46.5234C466.645 47.0202 466.232 47.4144 465.699 47.7061C465.166 47.9932 464.501 48.1367 463.703 48.1367C463.12 48.1367 462.589 48.0273 462.11 47.8086C461.636 47.5898 461.229 47.2799 460.887 46.8789C460.545 46.4733 460.281 45.988 460.094 45.4229C459.911 44.8532 459.82 44.2197 459.82 43.5225V42.5312C459.82 41.834 459.911 41.2028 460.094 40.6377C460.281 40.068 460.547 39.5804 460.894 39.1748C461.244 38.7692 461.666 38.457 462.158 38.2383C462.65 38.0195 463.204 37.9102 463.819 37.9102C464.571 37.9102 465.207 38.0514 465.727 38.334C466.246 38.6165 466.649 39.0085 466.937 39.5098C467.228 40.0065 467.408 40.583 467.477 41.2393H466.164C466.1 40.7744 465.982 40.3757 465.809 40.043C465.635 39.7057 465.389 39.446 465.07 39.2637C464.751 39.0814 464.334 38.9902 463.819 38.9902C463.377 38.9902 462.988 39.0745 462.65 39.2432C462.318 39.4118 462.037 39.651 461.81 39.9609C461.586 40.2708 461.418 40.6423 461.304 41.0752C461.19 41.5081 461.133 41.9889 461.133 42.5176V43.5225C461.133 44.0101 461.183 44.4681 461.283 44.8965C461.388 45.3249 461.545 45.7008 461.755 46.0244C461.965 46.348 462.231 46.6032 462.555 46.79C462.878 46.9723 463.261 47.0635 463.703 47.0635C464.264 47.0635 464.71 46.9746 465.043 46.7969C465.376 46.6191 465.626 46.3639 465.795 46.0312C465.968 45.6986 466.091 45.2998 466.164 44.835ZM468.748 44.3838V44.2266C468.748 43.6934 468.826 43.1989 468.98 42.7432C469.135 42.2829 469.359 41.8841 469.65 41.5469C469.942 41.2051 470.295 40.9408 470.71 40.7539C471.125 40.5625 471.59 40.4668 472.104 40.4668C472.624 40.4668 473.091 40.5625 473.506 40.7539C473.925 40.9408 474.281 41.2051 474.572 41.5469C474.868 41.8841 475.094 42.2829 475.249 42.7432C475.404 43.1989 475.481 43.6934 475.481 44.2266V44.3838C475.481 44.917 475.404 45.4115 475.249 45.8672C475.094 46.3229 474.868 46.7217 474.572 47.0635C474.281 47.4007 473.927 47.665 473.513 47.8564C473.103 48.0433 472.638 48.1367 472.118 48.1367C471.599 48.1367 471.132 48.0433 470.717 47.8564C470.302 47.665 469.947 47.4007 469.65 47.0635C469.359 46.7217 469.135 46.3229 468.98 45.8672C468.826 45.4115 468.748 44.917 468.748 44.3838ZM470.013 44.2266V44.3838C470.013 44.7529 470.056 45.1016 470.143 45.4297C470.229 45.7533 470.359 46.0404 470.532 46.291C470.71 46.5417 470.931 46.7399 471.195 46.8857C471.46 47.027 471.767 47.0977 472.118 47.0977C472.465 47.0977 472.768 47.027 473.027 46.8857C473.292 46.7399 473.51 46.5417 473.684 46.291C473.857 46.0404 473.987 45.7533 474.073 45.4297C474.164 45.1016 474.21 44.7529 474.21 44.3838V44.2266C474.21 43.862 474.164 43.5179 474.073 43.1943C473.987 42.8662 473.854 42.5768 473.677 42.3262C473.504 42.071 473.285 41.8704 473.021 41.7246C472.761 41.5788 472.455 41.5059 472.104 41.5059C471.758 41.5059 471.453 41.5788 471.188 41.7246C470.929 41.8704 470.71 42.071 470.532 42.3262C470.359 42.5768 470.229 42.8662 470.143 43.1943C470.056 43.5179 470.013 43.862 470.013 44.2266ZM476.732 44.3838V44.2266C476.732 43.6934 476.81 43.1989 476.965 42.7432C477.12 42.2829 477.343 41.8841 477.635 41.5469C477.926 41.2051 478.28 40.9408 478.694 40.7539C479.109 40.5625 479.574 40.4668 480.089 40.4668C480.608 40.4668 481.076 40.5625 481.49 40.7539C481.91 40.9408 482.265 41.2051 482.557 41.5469C482.853 41.8841 483.078 42.2829 483.233 42.7432C483.388 43.1989 483.466 43.6934 483.466 44.2266V44.3838C483.466 44.917 483.388 45.4115 483.233 45.8672C483.078 46.3229 482.853 46.7217 482.557 47.0635C482.265 47.4007 481.912 47.665 481.497 47.8564C481.087 48.0433 480.622 48.1367 480.103 48.1367C479.583 48.1367 479.116 48.0433 478.701 47.8564C478.286 47.665 477.931 47.4007 477.635 47.0635C477.343 46.7217 477.12 46.3229 476.965 45.8672C476.81 45.4115 476.732 44.917 476.732 44.3838ZM477.997 44.2266V44.3838C477.997 44.7529 478.04 45.1016 478.127 45.4297C478.214 45.7533 478.343 46.0404 478.517 46.291C478.694 46.5417 478.915 46.7399 479.18 46.8857C479.444 47.027 479.752 47.0977 480.103 47.0977C480.449 47.0977 480.752 47.027 481.012 46.8857C481.276 46.7399 481.495 46.5417 481.668 46.291C481.841 46.0404 481.971 45.7533 482.058 45.4297C482.149 45.1016 482.194 44.7529 482.194 44.3838V44.2266C482.194 43.862 482.149 43.5179 482.058 43.1943C481.971 42.8662 481.839 42.5768 481.661 42.3262C481.488 42.071 481.269 41.8704 481.005 41.7246C480.745 41.5788 480.44 41.5059 480.089 41.5059C479.743 41.5059 479.437 41.5788 479.173 41.7246C478.913 41.8704 478.694 42.071 478.517 42.3262C478.343 42.5768 478.214 42.8662 478.127 43.1943C478.04 43.5179 477.997 43.862 477.997 44.2266ZM486.323 37.5V48H485.052V37.5H486.323ZM490.842 40.6035L487.615 44.0557L485.811 45.9287L485.708 44.582L487 43.0371L489.297 40.6035H490.842ZM489.687 48L487.048 44.4727L487.704 43.3447L491.177 48H489.687ZM493.521 40.6035V48H492.25V40.6035H493.521ZM492.154 38.6416C492.154 38.4365 492.216 38.2633 492.339 38.1221C492.466 37.9808 492.653 37.9102 492.899 37.9102C493.141 37.9102 493.326 37.9808 493.453 38.1221C493.585 38.2633 493.651 38.4365 493.651 38.6416C493.651 38.8376 493.585 39.0062 493.453 39.1475C493.326 39.2842 493.141 39.3525 492.899 39.3525C492.653 39.3525 492.466 39.2842 492.339 39.1475C492.216 39.0062 492.154 38.8376 492.154 38.6416ZM498.621 48.1367C498.106 48.1367 497.639 48.0501 497.22 47.877C496.805 47.6992 496.447 47.4508 496.146 47.1318C495.85 46.8128 495.622 46.4346 495.463 45.9971C495.303 45.5596 495.224 45.0811 495.224 44.5615V44.2744C495.224 43.6729 495.312 43.1374 495.49 42.668C495.668 42.194 495.91 41.793 496.215 41.4648C496.52 41.1367 496.867 40.8883 497.254 40.7197C497.641 40.5511 498.042 40.4668 498.457 40.4668C498.986 40.4668 499.441 40.5579 499.824 40.7402C500.212 40.9225 500.528 41.1777 500.774 41.5059C501.021 41.8294 501.203 42.2122 501.321 42.6543C501.44 43.0918 501.499 43.5703 501.499 44.0898V44.6572H495.976V43.625H500.234V43.5293C500.216 43.2012 500.148 42.8822 500.029 42.5723C499.915 42.2624 499.733 42.0072 499.482 41.8066C499.232 41.6061 498.89 41.5059 498.457 41.5059C498.17 41.5059 497.906 41.5674 497.664 41.6904C497.423 41.8089 497.215 41.9867 497.042 42.2236C496.869 42.4606 496.734 42.75 496.639 43.0918C496.543 43.4336 496.495 43.8278 496.495 44.2744V44.5615C496.495 44.9124 496.543 45.2428 496.639 45.5527C496.739 45.8581 496.882 46.127 497.069 46.3594C497.261 46.5918 497.491 46.7741 497.76 46.9062C498.033 47.0384 498.343 47.1045 498.689 47.1045C499.136 47.1045 499.514 47.0133 499.824 46.8311C500.134 46.6488 500.405 46.4049 500.638 46.0996L501.403 46.708C501.244 46.9495 501.041 47.1797 500.795 47.3984C500.549 47.6172 500.246 47.7949 499.886 47.9316C499.53 48.0684 499.109 48.1367 498.621 48.1367ZM507.282 46.0381C507.282 45.8558 507.241 45.6872 507.159 45.5322C507.082 45.3727 506.92 45.2292 506.674 45.1016C506.432 44.9694 506.068 44.8555 505.58 44.7598C505.17 44.6732 504.799 44.5706 504.466 44.4521C504.138 44.3337 503.857 44.1901 503.625 44.0215C503.397 43.8529 503.222 43.6546 503.099 43.4268C502.976 43.1989 502.914 42.9323 502.914 42.627C502.914 42.3353 502.978 42.0596 503.105 41.7998C503.238 41.54 503.422 41.3099 503.659 41.1094C503.901 40.9089 504.19 40.7516 504.527 40.6377C504.865 40.5238 505.241 40.4668 505.655 40.4668C506.248 40.4668 506.754 40.5716 507.173 40.7812C507.592 40.9909 507.913 41.2712 508.137 41.6221C508.36 41.9684 508.472 42.3535 508.472 42.7773H507.207C507.207 42.5723 507.146 42.374 507.022 42.1826C506.904 41.9867 506.729 41.8249 506.496 41.6973C506.268 41.5697 505.988 41.5059 505.655 41.5059C505.304 41.5059 505.02 41.5605 504.801 41.6699C504.587 41.7747 504.429 41.9092 504.329 42.0732C504.233 42.2373 504.186 42.4105 504.186 42.5928C504.186 42.7295 504.208 42.8525 504.254 42.9619C504.304 43.0667 504.391 43.1647 504.514 43.2559C504.637 43.3424 504.81 43.4245 505.033 43.502C505.257 43.5794 505.541 43.6569 505.888 43.7344C506.494 43.8711 506.993 44.0352 507.385 44.2266C507.777 44.418 508.068 44.6527 508.26 44.9307C508.451 45.2087 508.547 45.5459 508.547 45.9424C508.547 46.266 508.479 46.5622 508.342 46.8311C508.21 47.0999 508.016 47.3324 507.761 47.5283C507.51 47.7197 507.209 47.8701 506.858 47.9795C506.512 48.0843 506.122 48.1367 505.689 48.1367C505.038 48.1367 504.486 48.0205 504.035 47.7881C503.584 47.5557 503.242 47.2549 503.01 46.8857C502.777 46.5166 502.661 46.127 502.661 45.7168H503.933C503.951 46.0632 504.051 46.3389 504.233 46.5439C504.416 46.7445 504.639 46.888 504.903 46.9746C505.168 47.0566 505.43 47.0977 505.689 47.0977C506.036 47.0977 506.325 47.0521 506.558 46.9609C506.795 46.8698 506.975 46.7445 507.098 46.585C507.221 46.4255 507.282 46.2432 507.282 46.0381ZM519.177 45.4844C519.177 45.252 519.14 45.0469 519.067 44.8691C518.999 44.6868 518.876 44.5228 518.698 44.377C518.525 44.2311 518.284 44.0921 517.974 43.96C517.668 43.8278 517.281 43.6934 516.812 43.5566C516.319 43.4108 515.875 43.249 515.479 43.0713C515.082 42.889 514.743 42.6816 514.46 42.4492C514.177 42.2168 513.961 41.9502 513.811 41.6494C513.66 41.3486 513.585 41.0046 513.585 40.6172C513.585 40.2298 513.665 39.8721 513.824 39.5439C513.984 39.2158 514.212 38.931 514.508 38.6895C514.809 38.4434 515.166 38.252 515.581 38.1152C515.996 37.9785 516.458 37.9102 516.969 37.9102C517.716 37.9102 518.35 38.0537 518.869 38.3408C519.393 38.6234 519.792 38.9948 520.065 39.4551C520.339 39.9108 520.476 40.3984 520.476 40.918H519.163C519.163 40.5443 519.083 40.2139 518.924 39.9268C518.764 39.6351 518.523 39.4072 518.199 39.2432C517.876 39.0745 517.465 38.9902 516.969 38.9902C516.499 38.9902 516.112 39.0609 515.807 39.2021C515.501 39.3434 515.273 39.5348 515.123 39.7764C514.977 40.0179 514.904 40.2936 514.904 40.6035C514.904 40.8132 514.948 41.0046 515.034 41.1777C515.125 41.3464 515.264 41.5036 515.451 41.6494C515.643 41.7952 515.884 41.9297 516.176 42.0527C516.472 42.1758 516.825 42.2943 517.235 42.4082C517.8 42.5677 518.288 42.7454 518.698 42.9414C519.108 43.1374 519.446 43.3584 519.71 43.6045C519.979 43.846 520.177 44.1217 520.305 44.4316C520.437 44.737 520.503 45.0833 520.503 45.4707C520.503 45.8763 520.421 46.2432 520.257 46.5713C520.093 46.8994 519.858 47.1797 519.553 47.4121C519.247 47.6445 518.881 47.8245 518.452 47.9521C518.028 48.0752 517.554 48.1367 517.03 48.1367C516.57 48.1367 516.117 48.0729 515.67 47.9453C515.228 47.8177 514.825 47.6263 514.46 47.3711C514.1 47.1159 513.811 46.8014 513.592 46.4277C513.378 46.0495 513.271 45.612 513.271 45.1152H514.583C514.583 45.457 514.649 45.751 514.781 45.9971C514.913 46.2386 515.093 46.4391 515.321 46.5986C515.554 46.7581 515.816 46.8766 516.107 46.9541C516.404 47.027 516.711 47.0635 517.03 47.0635C517.491 47.0635 517.88 46.9997 518.199 46.8721C518.518 46.7445 518.76 46.5622 518.924 46.3252C519.092 46.0882 519.177 45.8079 519.177 45.4844ZM525.062 48.1367C524.548 48.1367 524.08 48.0501 523.661 47.877C523.246 47.6992 522.889 47.4508 522.588 47.1318C522.292 46.8128 522.064 46.4346 521.904 45.9971C521.745 45.5596 521.665 45.0811 521.665 44.5615V44.2744C521.665 43.6729 521.754 43.1374 521.932 42.668C522.109 42.194 522.351 41.793 522.656 41.4648C522.962 41.1367 523.308 40.8883 523.695 40.7197C524.083 40.5511 524.484 40.4668 524.898 40.4668C525.427 40.4668 525.883 40.5579 526.266 40.7402C526.653 40.9225 526.97 41.1777 527.216 41.5059C527.462 41.8294 527.644 42.2122 527.763 42.6543C527.881 43.0918 527.94 43.5703 527.94 44.0898V44.6572H522.417V43.625H526.676V43.5293C526.658 43.2012 526.589 42.8822 526.471 42.5723C526.357 42.2624 526.174 42.0072 525.924 41.8066C525.673 41.6061 525.331 41.5059 524.898 41.5059C524.611 41.5059 524.347 41.5674 524.105 41.6904C523.864 41.8089 523.657 41.9867 523.483 42.2236C523.31 42.4606 523.176 42.75 523.08 43.0918C522.984 43.4336 522.937 43.8278 522.937 44.2744V44.5615C522.937 44.9124 522.984 45.2428 523.08 45.5527C523.18 45.8581 523.324 46.127 523.511 46.3594C523.702 46.5918 523.932 46.7741 524.201 46.9062C524.475 47.0384 524.785 47.1045 525.131 47.1045C525.577 47.1045 525.956 47.0133 526.266 46.8311C526.576 46.6488 526.847 46.4049 527.079 46.0996L527.845 46.708C527.685 46.9495 527.482 47.1797 527.236 47.3984C526.99 47.6172 526.687 47.7949 526.327 47.9316C525.972 48.0684 525.55 48.1367 525.062 48.1367ZM532.514 40.6035V41.5742H528.515V40.6035H532.514ZM529.868 38.8057H531.133V46.168C531.133 46.4186 531.172 46.6077 531.249 46.7354C531.326 46.863 531.427 46.9473 531.55 46.9883C531.673 47.0293 531.805 47.0498 531.946 47.0498C532.051 47.0498 532.16 47.0407 532.274 47.0225C532.393 46.9997 532.482 46.9814 532.541 46.9678L532.548 48C532.448 48.0319 532.315 48.0615 532.151 48.0889C531.992 48.1208 531.798 48.1367 531.57 48.1367C531.26 48.1367 530.976 48.0752 530.716 47.9521C530.456 47.8291 530.249 47.624 530.094 47.3369C529.943 47.0452 529.868 46.6533 529.868 46.1611V38.8057ZM537.094 40.6035V41.5742H533.095V40.6035H537.094ZM534.448 38.8057H535.713V46.168C535.713 46.4186 535.752 46.6077 535.829 46.7354C535.907 46.863 536.007 46.9473 536.13 46.9883C536.253 47.0293 536.385 47.0498 536.526 47.0498C536.631 47.0498 536.741 47.0407 536.854 47.0225C536.973 46.9997 537.062 46.9814 537.121 46.9678L537.128 48C537.028 48.0319 536.896 48.0615 536.731 48.0889C536.572 48.1208 536.378 48.1367 536.15 48.1367C535.84 48.1367 535.556 48.0752 535.296 47.9521C535.036 47.8291 534.829 47.624 534.674 47.3369C534.523 47.0452 534.448 46.6533 534.448 46.1611V38.8057ZM539.951 40.6035V48H538.68V40.6035H539.951ZM538.584 38.6416C538.584 38.4365 538.646 38.2633 538.769 38.1221C538.896 37.9808 539.083 37.9102 539.329 37.9102C539.571 37.9102 539.755 37.9808 539.883 38.1221C540.015 38.2633 540.081 38.4365 540.081 38.6416C540.081 38.8376 540.015 39.0062 539.883 39.1475C539.755 39.2842 539.571 39.3525 539.329 39.3525C539.083 39.3525 538.896 39.2842 538.769 39.1475C538.646 39.0062 538.584 38.8376 538.584 38.6416ZM543.246 42.1826V48H541.981V40.6035H543.178L543.246 42.1826ZM542.945 44.0215L542.419 44.001C542.424 43.4951 542.499 43.028 542.645 42.5996C542.79 42.1667 542.995 41.7907 543.26 41.4717C543.524 41.1527 543.839 40.9066 544.203 40.7334C544.572 40.5557 544.98 40.4668 545.427 40.4668C545.791 40.4668 546.119 40.5169 546.411 40.6172C546.703 40.7129 546.951 40.8678 547.156 41.082C547.366 41.2962 547.525 41.5742 547.635 41.916C547.744 42.2533 547.799 42.6657 547.799 43.1533V48H546.527V43.1396C546.527 42.7523 546.47 42.4424 546.356 42.21C546.243 41.973 546.076 41.8021 545.857 41.6973C545.639 41.5879 545.37 41.5332 545.051 41.5332C544.736 41.5332 544.449 41.5993 544.189 41.7314C543.934 41.8636 543.713 42.0459 543.526 42.2783C543.344 42.5107 543.201 42.7773 543.096 43.0781C542.995 43.3743 542.945 43.6888 542.945 44.0215ZM554.512 40.6035H555.66V47.8428C555.66 48.4945 555.528 49.0505 555.264 49.5107C554.999 49.971 554.63 50.3197 554.156 50.5566C553.687 50.7982 553.145 50.9189 552.529 50.9189C552.274 50.9189 551.973 50.8779 551.627 50.7959C551.285 50.7184 550.948 50.584 550.615 50.3926C550.287 50.2057 550.011 49.9528 549.788 49.6338L550.451 48.8818C550.761 49.2555 551.085 49.5153 551.422 49.6611C551.764 49.807 552.101 49.8799 552.434 49.8799C552.835 49.8799 553.181 49.8047 553.473 49.6543C553.764 49.5039 553.99 49.2806 554.149 48.9844C554.313 48.6927 554.396 48.3327 554.396 47.9043V42.2305L554.512 40.6035ZM549.419 44.3838V44.2402C549.419 43.6751 549.485 43.1624 549.617 42.7021C549.754 42.2373 549.948 41.8385 550.198 41.5059C550.453 41.1732 550.761 40.918 551.121 40.7402C551.481 40.5579 551.887 40.4668 552.338 40.4668C552.803 40.4668 553.208 40.5488 553.555 40.7129C553.906 40.8724 554.202 41.1071 554.443 41.417C554.689 41.7223 554.883 42.0915 555.024 42.5244C555.166 42.9574 555.264 43.4473 555.318 43.9941V44.623C555.268 45.1654 555.17 45.653 555.024 46.0859C554.883 46.5189 554.689 46.888 554.443 47.1934C554.202 47.4987 553.906 47.7334 553.555 47.8975C553.204 48.057 552.794 48.1367 552.324 48.1367C551.882 48.1367 551.481 48.0433 551.121 47.8564C550.766 47.6696 550.46 47.4076 550.205 47.0703C549.95 46.7331 549.754 46.3366 549.617 45.8809C549.485 45.4206 549.419 44.9215 549.419 44.3838ZM550.684 44.2402V44.3838C550.684 44.7529 550.72 45.0993 550.793 45.4229C550.87 45.7464 550.987 46.0312 551.142 46.2773C551.301 46.5234 551.504 46.7171 551.75 46.8584C551.996 46.9951 552.29 47.0635 552.632 47.0635C553.051 47.0635 553.397 46.9746 553.671 46.7969C553.944 46.6191 554.161 46.3844 554.32 46.0928C554.484 45.8011 554.612 45.4844 554.703 45.1426V43.4951C554.653 43.2445 554.576 43.0029 554.471 42.7705C554.37 42.5335 554.238 42.3239 554.074 42.1416C553.915 41.9548 553.716 41.8066 553.479 41.6973C553.243 41.5879 552.965 41.5332 552.646 41.5332C552.299 41.5332 552.001 41.6061 551.75 41.752C551.504 41.8932 551.301 42.0892 551.142 42.3398C550.987 42.5859 550.87 42.873 550.793 43.2012C550.72 43.5247 550.684 43.8711 550.684 44.2402ZM561.888 46.0381C561.888 45.8558 561.847 45.6872 561.765 45.5322C561.687 45.3727 561.525 45.2292 561.279 45.1016C561.038 44.9694 560.673 44.8555 560.186 44.7598C559.775 44.6732 559.404 44.5706 559.071 44.4521C558.743 44.3337 558.463 44.1901 558.23 44.0215C558.003 43.8529 557.827 43.6546 557.704 43.4268C557.581 43.1989 557.52 42.9323 557.52 42.627C557.52 42.3353 557.583 42.0596 557.711 41.7998C557.843 41.54 558.028 41.3099 558.265 41.1094C558.506 40.9089 558.796 40.7516 559.133 40.6377C559.47 40.5238 559.846 40.4668 560.261 40.4668C560.853 40.4668 561.359 40.5716 561.778 40.7812C562.198 40.9909 562.519 41.2712 562.742 41.6221C562.965 41.9684 563.077 42.3535 563.077 42.7773H561.812C561.812 42.5723 561.751 42.374 561.628 42.1826C561.509 41.9867 561.334 41.8249 561.102 41.6973C560.874 41.5697 560.593 41.5059 560.261 41.5059C559.91 41.5059 559.625 41.5605 559.406 41.6699C559.192 41.7747 559.035 41.9092 558.935 42.0732C558.839 42.2373 558.791 42.4105 558.791 42.5928C558.791 42.7295 558.814 42.8525 558.859 42.9619C558.91 43.0667 558.996 43.1647 559.119 43.2559C559.242 43.3424 559.415 43.4245 559.639 43.502C559.862 43.5794 560.147 43.6569 560.493 43.7344C561.099 43.8711 561.598 44.0352 561.99 44.2266C562.382 44.418 562.674 44.6527 562.865 44.9307C563.057 45.2087 563.152 45.5459 563.152 45.9424C563.152 46.266 563.084 46.5622 562.947 46.8311C562.815 47.0999 562.621 47.3324 562.366 47.5283C562.116 47.7197 561.815 47.8701 561.464 47.9795C561.118 48.0843 560.728 48.1367 560.295 48.1367C559.643 48.1367 559.092 48.0205 558.641 47.7881C558.189 47.5557 557.848 47.2549 557.615 46.8857C557.383 46.5166 557.267 46.127 557.267 45.7168H558.538C558.556 46.0632 558.657 46.3389 558.839 46.5439C559.021 46.7445 559.244 46.888 559.509 46.9746C559.773 47.0566 560.035 47.0977 560.295 47.0977C560.641 47.0977 560.931 47.0521 561.163 46.9609C561.4 46.8698 561.58 46.7445 561.703 46.585C561.826 46.4255 561.888 46.2432 561.888 46.0381Z" fill="black"/>
<path d="M459 49.3672H563.843V50.0508H459V49.3672Z" fill="black"/>
<path d="M1004.5 39H1001.5C1000.95 39 1000.5 39.4477 1000.5 40V43H1004.5C1004.61 42.9975 1004.72 43.0504 1004.79 43.1419C1004.86 43.2334 1004.88 43.352 1004.84 43.46L1004.1 45.66C1004.03 45.8619 1003.84 45.9984 1003.63 46H1000.5V53.5C1000.5 53.7761 1000.28 54 1000 54H997.5C997.224 54 997 53.7761 997 53.5V46H995.5C995.224 46 995 45.7761 995 45.5V43.5C995 43.2239 995.224 43 995.5 43H997V40C997 37.7909 998.791 36 1001 36H1004.5C1004.78 36 1005 36.2239 1005 36.5V38.5C1005 38.7761 1004.78 39 1004.5 39Z" fill="black"/>
<path fill-rule="evenodd" clip-rule="evenodd" d="M1040 36H1032C1029.24 36 1027 38.2386 1027 41V49C1027 51.7614 1029.24 54 1032 54H1040C1042.76 54 1045 51.7614 1045 49V41C1045 38.2386 1042.76 36 1040 36ZM1043.25 49C1043.24 50.7926 1041.79 52.2445 1040 52.25H1032C1030.21 52.2445 1028.76 50.7926 1028.75 49V41C1028.76 39.2074 1030.21 37.7555 1032 37.75H1040C1041.79 37.7555 1043.24 39.2074 1043.25 41V49ZM1040.75 41.25C1041.3 41.25 1041.75 40.8023 1041.75 40.25C1041.75 39.6977 1041.3 39.25 1040.75 39.25C1040.2 39.25 1039.75 39.6977 1039.75 40.25C1039.75 40.8023 1040.2 41.25 1040.75 41.25ZM1036 40.5C1033.51 40.5 1031.5 42.5147 1031.5 45C1031.5 47.4853 1033.51 49.5 1036 49.5C1038.49 49.5 1040.5 47.4853 1040.5 45C1040.5 43.8057 1040.03 42.6596 1039.18 41.8151C1038.34 40.9706 1037.19 40.4973 1036 40.5ZM1033.25 45C1033.25 46.5188 1034.48 47.75 1036 47.75C1037.52 47.75 1038.75 46.5188 1038.75 45C1038.75 43.4812 1037.52 42.25 1036 42.25C1034.48 42.25 1033.25 43.4812 1033.25 45Z" fill="black"/>
<path d="M1080.97 39.7174C1080.51 40.3369 1079.95 40.8773 1079.31 41.3178C1079.31 41.4796 1079.31 41.6414 1079.31 41.8123C1079.32 44.7511 1078.14 47.5691 1076.05 49.6345C1073.96 51.6999 1071.13 52.8399 1068.19 52.7989C1066.5 52.8046 1064.82 52.4169 1063.3 51.6661C1063.21 51.6302 1063.16 51.549 1063.16 51.4593V51.3604C1063.16 51.2313 1063.27 51.1267 1063.4 51.1267C1065.06 51.0716 1066.67 50.4929 1068 49.4724C1066.49 49.4419 1065.13 48.5469 1064.5 47.1707C1064.47 47.0956 1064.48 47.0093 1064.53 46.9432C1064.57 46.8771 1064.65 46.8407 1064.73 46.8471C1065.19 46.8932 1065.66 46.8505 1066.1 46.7212C1064.43 46.375 1063.18 44.9904 1063 43.2957C1062.99 43.2144 1063.03 43.1357 1063.1 43.0879C1063.16 43.0402 1063.25 43.0303 1063.32 43.062C1063.77 43.2595 1064.25 43.3635 1064.74 43.3676C1063.28 42.4085 1062.65 40.5841 1063.21 38.9262C1063.26 38.7651 1063.4 38.6461 1063.57 38.6129C1063.74 38.5798 1063.91 38.6373 1064.02 38.7644C1066 40.8633 1068.71 42.114 1071.58 42.2528C1071.51 41.9589 1071.47 41.6568 1071.47 41.3537C1071.5 39.7647 1072.48 38.3492 1073.96 37.7699C1075.44 37.1905 1077.12 37.562 1078.22 38.7104C1078.97 38.5679 1079.7 38.3165 1080.37 37.9642C1080.42 37.9333 1080.48 37.9333 1080.53 37.9642C1080.56 38.0137 1080.56 38.0765 1080.53 38.126C1080.21 38.8755 1079.65 39.5041 1078.95 39.9242C1079.57 39.853 1080.17 39.7081 1080.75 39.4926C1080.8 39.4594 1080.86 39.4594 1080.91 39.4926C1080.95 39.5113 1080.98 39.5471 1080.99 39.5904C1081.01 39.6337 1081 39.6802 1080.97 39.7174Z" fill="black"/>
<path fill-rule="evenodd" clip-rule="evenodd" d="M1101 36H1115C1116.1 36 1117 36.8954 1117 38V52C1117 53.1046 1116.1 54 1115 54H1101C1099.9 54 1099 53.1046 1099 52V38C1099 36.8954 1099.9 36 1101 36ZM1104 51C1104.28 51 1104.5 50.7761 1104.5 50.5V43.5C1104.5 43.2239 1104.28 43 1104 43H1102.5C1102.22 43 1102 43.2239 1102 43.5V50.5C1102 50.7761 1102.22 51 1102.5 51H1104ZM1103.25 42C1102.42 42 1101.75 41.3284 1101.75 40.5C1101.75 39.6716 1102.42 39 1103.25 39C1104.08 39 1104.75 39.6716 1104.75 40.5C1104.75 41.3284 1104.08 42 1103.25 42ZM1113.5 51C1113.78 51 1114 50.7761 1114 50.5V45.9C1114.03 44.3108 1112.86 42.9545 1111.28 42.76C1110.18 42.6593 1109.11 43.1744 1108.5 44.1V43.5C1108.5 43.2239 1108.28 43 1108 43H1106.5C1106.22 43 1106 43.2239 1106 43.5V50.5C1106 50.7761 1106.22 51 1106.5 51H1108C1108.28 51 1108.5 50.7761 1108.5 50.5V46.75C1108.5 45.9216 1109.17 45.25 1110 45.25C1110.83 45.25 1111.5 45.9216 1111.5 46.75V50.5C1111.5 50.7761 1111.72 51 1112 51H1113.5Z" fill="black"/>
</svg>
