<svg width="560" height="109" viewBox="0 0 560 109" fill="none" xmlns="http://www.w3.org/2000/svg">
<path d="M22.8281 33.6797H29.8359C29.6953 35.9766 29.0625 38.0156 27.9375 39.7969C26.8281 41.5781 25.2734 42.9688 23.2734 43.9688C21.2891 44.9688 18.8984 45.4688 16.1016 45.4688C13.9141 45.4688 11.9531 45.0938 10.2188 44.3438C8.48438 43.5781 7 42.4844 5.76562 41.0625C4.54688 39.6406 3.61719 37.9219 2.97656 35.9062C2.33594 33.8906 2.01562 31.6328 2.01562 29.1328V26.7656C2.01562 24.2656 2.34375 22.0078 3 19.9922C3.67188 17.9609 4.625 16.2344 5.85938 14.8125C7.10938 13.3906 8.60156 12.2969 10.3359 11.5312C12.0703 10.7656 14.0078 10.3828 16.1484 10.3828C18.9922 10.3828 21.3906 10.8984 23.3438 11.9297C25.3125 12.9609 26.8359 14.3828 27.9141 16.1953C29.0078 18.0078 29.6641 20.0703 29.8828 22.3828H22.8516C22.7734 21.0078 22.5 19.8438 22.0312 18.8906C21.5625 17.9219 20.8516 17.1953 19.8984 16.7109C18.9609 16.2109 17.7109 15.9609 16.1484 15.9609C14.9766 15.9609 13.9531 16.1797 13.0781 16.6172C12.2031 17.0547 11.4688 17.7188 10.875 18.6094C10.2812 19.5 9.83594 20.625 9.53906 21.9844C9.25781 23.3281 9.11719 24.9062 9.11719 26.7188V29.1328C9.11719 30.8984 9.25 32.4531 9.51562 33.7969C9.78125 35.125 10.1875 36.25 10.7344 37.1719C11.2969 38.0781 12.0156 38.7656 12.8906 39.2344C13.7812 39.6875 14.8516 39.9141 16.1016 39.9141C17.5703 39.9141 18.7812 39.6797 19.7344 39.2109C20.6875 38.7422 21.4141 38.0469 21.9141 37.125C22.4297 36.2031 22.7344 35.0547 22.8281 33.6797ZM49.0312 38.9297V19.6406H55.7812V45H49.4297L49.0312 38.9297ZM49.7812 33.7266L51.7734 33.6797C51.7734 35.3672 51.5781 36.9375 51.1875 38.3906C50.7969 39.8281 50.2109 41.0781 49.4297 42.1406C48.6484 43.1875 47.6641 44.0078 46.4766 44.6016C45.2891 45.1797 43.8906 45.4688 42.2812 45.4688C41.0469 45.4688 39.9062 45.2969 38.8594 44.9531C37.8281 44.5938 36.9375 44.0391 36.1875 43.2891C35.4531 42.5234 34.875 41.5469 34.4531 40.3594C34.0469 39.1562 33.8438 37.7109 33.8438 36.0234V19.6406H40.5938V36.0703C40.5938 36.8203 40.6797 37.4531 40.8516 37.9688C41.0391 38.4844 41.2969 38.9062 41.625 39.2344C41.9531 39.5625 42.3359 39.7969 42.7734 39.9375C43.2266 40.0781 43.7266 40.1484 44.2734 40.1484C45.6641 40.1484 46.7578 39.8672 47.5547 39.3047C48.3672 38.7422 48.9375 37.9766 49.2656 37.0078C49.6094 36.0234 49.7812 34.9297 49.7812 33.7266ZM74.6484 37.9922C74.6484 37.5078 74.5078 37.0703 74.2266 36.6797C73.9453 36.2891 73.4219 35.9297 72.6562 35.6016C71.9062 35.2578 70.8203 34.9453 69.3984 34.6641C68.1172 34.3828 66.9219 34.0312 65.8125 33.6094C64.7188 33.1719 63.7656 32.6484 62.9531 32.0391C62.1562 31.4297 61.5312 30.7109 61.0781 29.8828C60.625 29.0391 60.3984 28.0781 60.3984 27C60.3984 25.9375 60.625 24.9375 61.0781 24C61.5469 23.0625 62.2109 22.2344 63.0703 21.5156C63.9453 20.7812 65.0078 20.2109 66.2578 19.8047C67.5234 19.3828 68.9453 19.1719 70.5234 19.1719C72.7266 19.1719 74.6172 19.5234 76.1953 20.2266C77.7891 20.9297 79.0078 21.8984 79.8516 23.1328C80.7109 24.3516 81.1406 25.7422 81.1406 27.3047H74.3906C74.3906 26.6484 74.25 26.0625 73.9688 25.5469C73.7031 25.0156 73.2812 24.6016 72.7031 24.3047C72.1406 23.9922 71.4062 23.8359 70.5 23.8359C69.75 23.8359 69.1016 23.9688 68.5547 24.2344C68.0078 24.4844 67.5859 24.8281 67.2891 25.2656C67.0078 25.6875 66.8672 26.1562 66.8672 26.6719C66.8672 27.0625 66.9453 27.4141 67.1016 27.7266C67.2734 28.0234 67.5469 28.2969 67.9219 28.5469C68.2969 28.7969 68.7812 29.0312 69.375 29.25C69.9844 29.4531 70.7344 29.6406 71.625 29.8125C73.4531 30.1875 75.0859 30.6797 76.5234 31.2891C77.9609 31.8828 79.1016 32.6953 79.9453 33.7266C80.7891 34.7422 81.2109 36.0781 81.2109 37.7344C81.2109 38.8594 80.9609 39.8906 80.4609 40.8281C79.9609 41.7656 79.2422 42.5859 78.3047 43.2891C77.3672 43.9766 76.2422 44.5156 74.9297 44.9062C73.6328 45.2812 72.1719 45.4688 70.5469 45.4688C68.1875 45.4688 66.1875 45.0469 64.5469 44.2031C62.9219 43.3594 61.6875 42.2891 60.8438 40.9922C60.0156 39.6797 59.6016 38.3359 59.6016 36.9609H66C66.0312 37.8828 66.2656 38.625 66.7031 39.1875C67.1562 39.75 67.7266 40.1562 68.4141 40.4062C69.1172 40.6562 69.875 40.7812 70.6875 40.7812C71.5625 40.7812 72.2891 40.6641 72.8672 40.4297C73.4453 40.1797 73.8828 39.8516 74.1797 39.4453C74.4922 39.0234 74.6484 38.5391 74.6484 37.9922ZM98.0156 19.6406V24.4219H83.25V19.6406H98.0156ZM86.9062 13.3828H93.6562V37.3594C93.6562 38.0938 93.75 38.6562 93.9375 39.0469C94.1406 39.4375 94.4375 39.7109 94.8281 39.8672C95.2188 40.0078 95.7109 40.0781 96.3047 40.0781C96.7266 40.0781 97.1016 40.0625 97.4297 40.0312C97.7734 39.9844 98.0625 39.9375 98.2969 39.8906L98.3203 44.8594C97.7422 45.0469 97.1172 45.1953 96.4453 45.3047C95.7734 45.4141 95.0312 45.4688 94.2188 45.4688C92.7344 45.4688 91.4375 45.2266 90.3281 44.7422C89.2344 44.2422 88.3906 43.4453 87.7969 42.3516C87.2031 41.2578 86.9062 39.8203 86.9062 38.0391V13.3828ZM100.172 32.5781V32.0859C100.172 30.2266 100.438 28.5156 100.969 26.9531C101.5 25.375 102.273 24.0078 103.289 22.8516C104.305 21.6953 105.555 20.7969 107.039 20.1562C108.523 19.5 110.227 19.1719 112.148 19.1719C114.07 19.1719 115.781 19.5 117.281 20.1562C118.781 20.7969 120.039 21.6953 121.055 22.8516C122.086 24.0078 122.867 25.375 123.398 26.9531C123.93 28.5156 124.195 30.2266 124.195 32.0859V32.5781C124.195 34.4219 123.93 36.1328 123.398 37.7109C122.867 39.2734 122.086 40.6406 121.055 41.8125C120.039 42.9688 118.789 43.8672 117.305 44.5078C115.82 45.1484 114.117 45.4688 112.195 45.4688C110.273 45.4688 108.562 45.1484 107.062 44.5078C105.578 43.8672 104.32 42.9688 103.289 41.8125C102.273 40.6406 101.5 39.2734 100.969 37.7109C100.438 36.1328 100.172 34.4219 100.172 32.5781ZM106.922 32.0859V32.5781C106.922 33.6406 107.016 34.6328 107.203 35.5547C107.391 36.4766 107.688 37.2891 108.094 37.9922C108.516 38.6797 109.062 39.2188 109.734 39.6094C110.406 40 111.227 40.1953 112.195 40.1953C113.133 40.1953 113.938 40 114.609 39.6094C115.281 39.2188 115.82 38.6797 116.227 37.9922C116.633 37.2891 116.93 36.4766 117.117 35.5547C117.32 34.6328 117.422 33.6406 117.422 32.5781V32.0859C117.422 31.0547 117.32 30.0859 117.117 29.1797C116.93 28.2578 116.625 27.4453 116.203 26.7422C115.797 26.0234 115.258 25.4609 114.586 25.0547C113.914 24.6484 113.102 24.4453 112.148 24.4453C111.195 24.4453 110.383 24.6484 109.711 25.0547C109.055 25.4609 108.516 26.0234 108.094 26.7422C107.688 27.4453 107.391 28.2578 107.203 29.1797C107.016 30.0859 106.922 31.0547 106.922 32.0859ZM135.094 24.8906V45H128.32V19.6406H134.672L135.094 24.8906ZM134.156 31.4297H132.281C132.281 29.6641 132.492 28.0391 132.914 26.5547C133.352 25.0547 133.984 23.7578 134.812 22.6641C135.656 21.5547 136.695 20.6953 137.93 20.0859C139.164 19.4766 140.594 19.1719 142.219 19.1719C143.344 19.1719 144.375 19.3438 145.312 19.6875C146.25 20.0156 147.055 20.5391 147.727 21.2578C148.414 21.9609 148.945 22.8828 149.32 24.0234C149.695 25.1484 149.883 26.5 149.883 28.0781V45H143.133V28.8281C143.133 27.6719 142.977 26.7812 142.664 26.1562C142.352 25.5312 141.906 25.0938 141.328 24.8438C140.766 24.5938 140.086 24.4688 139.289 24.4688C138.414 24.4688 137.648 24.6484 136.992 25.0078C136.352 25.3672 135.82 25.8672 135.398 26.5078C134.977 27.1328 134.664 27.8672 134.461 28.7109C134.258 29.5547 134.156 30.4609 134.156 31.4297ZM149.25 30.6562L146.836 30.9609C146.836 29.3047 147.039 27.7656 147.445 26.3438C147.867 24.9219 148.484 23.6719 149.297 22.5938C150.125 21.5156 151.148 20.6797 152.367 20.0859C153.586 19.4766 154.992 19.1719 156.586 19.1719C157.805 19.1719 158.914 19.3516 159.914 19.7109C160.914 20.0547 161.766 20.6094 162.469 21.375C163.188 22.125 163.734 23.1094 164.109 24.3281C164.5 25.5469 164.695 27.0391 164.695 28.8047V45H157.922V28.8047C157.922 27.6328 157.766 26.7422 157.453 26.1328C157.156 25.5078 156.719 25.0781 156.141 24.8438C155.578 24.5938 154.906 24.4688 154.125 24.4688C153.312 24.4688 152.602 24.6328 151.992 24.9609C151.383 25.2734 150.875 25.7109 150.469 26.2734C150.062 26.8359 149.758 27.4922 149.555 28.2422C149.352 28.9766 149.25 29.7812 149.25 30.6562ZM181.594 45.4688C179.625 45.4688 177.859 45.1562 176.297 44.5312C174.734 43.8906 173.406 43.0078 172.312 41.8828C171.234 40.7578 170.406 39.4531 169.828 37.9688C169.25 36.4688 168.961 34.875 168.961 33.1875V32.25C168.961 30.3281 169.234 28.5703 169.781 26.9766C170.328 25.3828 171.109 24 172.125 22.8281C173.156 21.6562 174.406 20.7578 175.875 20.1328C177.344 19.4922 179 19.1719 180.844 19.1719C182.641 19.1719 184.234 19.4688 185.625 20.0625C187.016 20.6562 188.18 21.5 189.117 22.5938C190.07 23.6875 190.789 25 191.273 26.5312C191.758 28.0469 192 29.7344 192 31.5938V34.4062H171.844V29.9062H185.367V29.3906C185.367 28.4531 185.195 27.6172 184.852 26.8828C184.523 26.1328 184.023 25.5391 183.352 25.1016C182.68 24.6641 181.82 24.4453 180.773 24.4453C179.883 24.4453 179.117 24.6406 178.477 25.0312C177.836 25.4219 177.312 25.9688 176.906 26.6719C176.516 27.375 176.219 28.2031 176.016 29.1562C175.828 30.0938 175.734 31.125 175.734 32.25V33.1875C175.734 34.2031 175.875 35.1406 176.156 36C176.453 36.8594 176.867 37.6016 177.398 38.2266C177.945 38.8516 178.602 39.3359 179.367 39.6797C180.148 40.0234 181.031 40.1953 182.016 40.1953C183.234 40.1953 184.367 39.9609 185.414 39.4922C186.477 39.0078 187.391 38.2812 188.156 37.3125L191.438 40.875C190.906 41.6406 190.18 42.375 189.258 43.0781C188.352 43.7812 187.258 44.3594 185.977 44.8125C184.695 45.25 183.234 45.4688 181.594 45.4688ZM202.594 25.1719V45H195.844V19.6406H202.195L202.594 25.1719ZM210.234 19.4766L210.117 25.7344C209.789 25.6875 209.391 25.6484 208.922 25.6172C208.469 25.5703 208.055 25.5469 207.68 25.5469C206.727 25.5469 205.898 25.6719 205.195 25.9219C204.508 26.1562 203.93 26.5078 203.461 26.9766C203.008 27.4453 202.664 28.0156 202.43 28.6875C202.211 29.3594 202.086 30.125 202.055 30.9844L200.695 30.5625C200.695 28.9219 200.859 27.4141 201.188 26.0391C201.516 24.6484 201.992 23.4375 202.617 22.4062C203.258 21.375 204.039 20.5781 204.961 20.0156C205.883 19.4531 206.938 19.1719 208.125 19.1719C208.5 19.1719 208.883 19.2031 209.273 19.2656C209.664 19.3125 209.984 19.3828 210.234 19.4766ZM237.797 19.6406V24.4219H223.031V19.6406H237.797ZM226.688 13.3828H233.438V37.3594C233.438 38.0938 233.531 38.6562 233.719 39.0469C233.922 39.4375 234.219 39.7109 234.609 39.8672C235 40.0078 235.492 40.0781 236.086 40.0781C236.508 40.0781 236.883 40.0625 237.211 40.0312C237.555 39.9844 237.844 39.9375 238.078 39.8906L238.102 44.8594C237.523 45.0469 236.898 45.1953 236.227 45.3047C235.555 45.4141 234.812 45.4688 234 45.4688C232.516 45.4688 231.219 45.2266 230.109 44.7422C229.016 44.2422 228.172 43.4453 227.578 42.3516C226.984 41.2578 226.688 39.8203 226.688 38.0391V13.3828ZM253.312 45.4688C251.344 45.4688 249.578 45.1562 248.016 44.5312C246.453 43.8906 245.125 43.0078 244.031 41.8828C242.953 40.7578 242.125 39.4531 241.547 37.9688C240.969 36.4688 240.68 34.875 240.68 33.1875V32.25C240.68 30.3281 240.953 28.5703 241.5 26.9766C242.047 25.3828 242.828 24 243.844 22.8281C244.875 21.6562 246.125 20.7578 247.594 20.1328C249.062 19.4922 250.719 19.1719 252.562 19.1719C254.359 19.1719 255.953 19.4688 257.344 20.0625C258.734 20.6562 259.898 21.5 260.836 22.5938C261.789 23.6875 262.508 25 262.992 26.5312C263.477 28.0469 263.719 29.7344 263.719 31.5938V34.4062H243.562V29.9062H257.086V29.3906C257.086 28.4531 256.914 27.6172 256.57 26.8828C256.242 26.1328 255.742 25.5391 255.07 25.1016C254.398 24.6641 253.539 24.4453 252.492 24.4453C251.602 24.4453 250.836 24.6406 250.195 25.0312C249.555 25.4219 249.031 25.9688 248.625 26.6719C248.234 27.375 247.938 28.2031 247.734 29.1562C247.547 30.0938 247.453 31.125 247.453 32.25V33.1875C247.453 34.2031 247.594 35.1406 247.875 36C248.172 36.8594 248.586 37.6016 249.117 38.2266C249.664 38.8516 250.32 39.3359 251.086 39.6797C251.867 40.0234 252.75 40.1953 253.734 40.1953C254.953 40.1953 256.086 39.9609 257.133 39.4922C258.195 39.0078 259.109 38.2812 259.875 37.3125L263.156 40.875C262.625 41.6406 261.898 42.375 260.977 43.0781C260.07 43.7812 258.977 44.3594 257.695 44.8125C256.414 45.25 254.953 45.4688 253.312 45.4688ZM281.273 37.9922C281.273 37.5078 281.133 37.0703 280.852 36.6797C280.57 36.2891 280.047 35.9297 279.281 35.6016C278.531 35.2578 277.445 34.9453 276.023 34.6641C274.742 34.3828 273.547 34.0312 272.438 33.6094C271.344 33.1719 270.391 32.6484 269.578 32.0391C268.781 31.4297 268.156 30.7109 267.703 29.8828C267.25 29.0391 267.023 28.0781 267.023 27C267.023 25.9375 267.25 24.9375 267.703 24C268.172 23.0625 268.836 22.2344 269.695 21.5156C270.57 20.7812 271.633 20.2109 272.883 19.8047C274.148 19.3828 275.57 19.1719 277.148 19.1719C279.352 19.1719 281.242 19.5234 282.82 20.2266C284.414 20.9297 285.633 21.8984 286.477 23.1328C287.336 24.3516 287.766 25.7422 287.766 27.3047H281.016C281.016 26.6484 280.875 26.0625 280.594 25.5469C280.328 25.0156 279.906 24.6016 279.328 24.3047C278.766 23.9922 278.031 23.8359 277.125 23.8359C276.375 23.8359 275.727 23.9688 275.18 24.2344C274.633 24.4844 274.211 24.8281 273.914 25.2656C273.633 25.6875 273.492 26.1562 273.492 26.6719C273.492 27.0625 273.57 27.4141 273.727 27.7266C273.898 28.0234 274.172 28.2969 274.547 28.5469C274.922 28.7969 275.406 29.0312 276 29.25C276.609 29.4531 277.359 29.6406 278.25 29.8125C280.078 30.1875 281.711 30.6797 283.148 31.2891C284.586 31.8828 285.727 32.6953 286.57 33.7266C287.414 34.7422 287.836 36.0781 287.836 37.7344C287.836 38.8594 287.586 39.8906 287.086 40.8281C286.586 41.7656 285.867 42.5859 284.93 43.2891C283.992 43.9766 282.867 44.5156 281.555 44.9062C280.258 45.2812 278.797 45.4688 277.172 45.4688C274.812 45.4688 272.812 45.0469 271.172 44.2031C269.547 43.3594 268.312 42.2891 267.469 40.9922C266.641 39.6797 266.227 38.3359 266.227 36.9609H272.625C272.656 37.8828 272.891 38.625 273.328 39.1875C273.781 39.75 274.352 40.1562 275.039 40.4062C275.742 40.6562 276.5 40.7812 277.312 40.7812C278.188 40.7812 278.914 40.6641 279.492 40.4297C280.07 40.1797 280.508 39.8516 280.805 39.4453C281.117 39.0234 281.273 38.5391 281.273 37.9922ZM304.641 19.6406V24.4219H289.875V19.6406H304.641ZM293.531 13.3828H300.281V37.3594C300.281 38.0938 300.375 38.6562 300.562 39.0469C300.766 39.4375 301.062 39.7109 301.453 39.8672C301.844 40.0078 302.336 40.0781 302.93 40.0781C303.352 40.0781 303.727 40.0625 304.055 40.0312C304.398 39.9844 304.688 39.9375 304.922 39.8906L304.945 44.8594C304.367 45.0469 303.742 45.1953 303.07 45.3047C302.398 45.4141 301.656 45.4688 300.844 45.4688C299.359 45.4688 298.062 45.2266 296.953 44.7422C295.859 44.2422 295.016 43.4453 294.422 42.3516C293.828 41.2578 293.531 39.8203 293.531 38.0391V13.3828ZM315.609 19.6406V45H308.836V19.6406H315.609ZM308.414 13.0312C308.414 12.0469 308.758 11.2344 309.445 10.5938C310.133 9.95313 311.055 9.63281 312.211 9.63281C313.352 9.63281 314.266 9.95313 314.953 10.5938C315.656 11.2344 316.008 12.0469 316.008 13.0312C316.008 14.0156 315.656 14.8281 314.953 15.4688C314.266 16.1094 313.352 16.4297 312.211 16.4297C311.055 16.4297 310.133 16.1094 309.445 15.4688C308.758 14.8281 308.414 14.0156 308.414 13.0312ZM327.938 24.8906V45H321.164V19.6406H327.516L327.938 24.8906ZM327 31.4297H325.125C325.125 29.6641 325.336 28.0391 325.758 26.5547C326.195 25.0547 326.828 23.7578 327.656 22.6641C328.5 21.5547 329.539 20.6953 330.773 20.0859C332.008 19.4766 333.438 19.1719 335.062 19.1719C336.188 19.1719 337.219 19.3438 338.156 19.6875C339.094 20.0156 339.898 20.5391 340.57 21.2578C341.258 21.9609 341.789 22.8828 342.164 24.0234C342.539 25.1484 342.727 26.5 342.727 28.0781V45H335.977V28.8281C335.977 27.6719 335.82 26.7812 335.508 26.1562C335.195 25.5312 334.75 25.0938 334.172 24.8438C333.609 24.5938 332.93 24.4688 332.133 24.4688C331.258 24.4688 330.492 24.6484 329.836 25.0078C329.195 25.3672 328.664 25.8672 328.242 26.5078C327.82 27.1328 327.508 27.8672 327.305 28.7109C327.102 29.5547 327 30.4609 327 31.4297ZM342.094 30.6562L339.68 30.9609C339.68 29.3047 339.883 27.7656 340.289 26.3438C340.711 24.9219 341.328 23.6719 342.141 22.5938C342.969 21.5156 343.992 20.6797 345.211 20.0859C346.43 19.4766 347.836 19.1719 349.43 19.1719C350.648 19.1719 351.758 19.3516 352.758 19.7109C353.758 20.0547 354.609 20.6094 355.312 21.375C356.031 22.125 356.578 23.1094 356.953 24.3281C357.344 25.5469 357.539 27.0391 357.539 28.8047V45H350.766V28.8047C350.766 27.6328 350.609 26.7422 350.297 26.1328C350 25.5078 349.562 25.0781 348.984 24.8438C348.422 24.5938 347.75 24.4688 346.969 24.4688C346.156 24.4688 345.445 24.6328 344.836 24.9609C344.227 25.2734 343.719 25.7109 343.312 26.2734C342.906 26.8359 342.602 27.4922 342.398 28.2422C342.195 28.9766 342.094 29.7812 342.094 30.6562ZM361.688 32.5781V32.0859C361.688 30.2266 361.953 28.5156 362.484 26.9531C363.016 25.375 363.789 24.0078 364.805 22.8516C365.82 21.6953 367.07 20.7969 368.555 20.1562C370.039 19.5 371.742 19.1719 373.664 19.1719C375.586 19.1719 377.297 19.5 378.797 20.1562C380.297 20.7969 381.555 21.6953 382.57 22.8516C383.602 24.0078 384.383 25.375 384.914 26.9531C385.445 28.5156 385.711 30.2266 385.711 32.0859V32.5781C385.711 34.4219 385.445 36.1328 384.914 37.7109C384.383 39.2734 383.602 40.6406 382.57 41.8125C381.555 42.9688 380.305 43.8672 378.82 44.5078C377.336 45.1484 375.633 45.4688 373.711 45.4688C371.789 45.4688 370.078 45.1484 368.578 44.5078C367.094 43.8672 365.836 42.9688 364.805 41.8125C363.789 40.6406 363.016 39.2734 362.484 37.7109C361.953 36.1328 361.688 34.4219 361.688 32.5781ZM368.438 32.0859V32.5781C368.438 33.6406 368.531 34.6328 368.719 35.5547C368.906 36.4766 369.203 37.2891 369.609 37.9922C370.031 38.6797 370.578 39.2188 371.25 39.6094C371.922 40 372.742 40.1953 373.711 40.1953C374.648 40.1953 375.453 40 376.125 39.6094C376.797 39.2188 377.336 38.6797 377.742 37.9922C378.148 37.2891 378.445 36.4766 378.633 35.5547C378.836 34.6328 378.938 33.6406 378.938 32.5781V32.0859C378.938 31.0547 378.836 30.0859 378.633 29.1797C378.445 28.2578 378.141 27.4453 377.719 26.7422C377.312 26.0234 376.773 25.4609 376.102 25.0547C375.43 24.6484 374.617 24.4453 373.664 24.4453C372.711 24.4453 371.898 24.6484 371.227 25.0547C370.57 25.4609 370.031 26.0234 369.609 26.7422C369.203 27.4453 368.906 28.2578 368.719 29.1797C368.531 30.0859 368.438 31.0547 368.438 32.0859ZM396.469 25.0547V45H389.719V19.6406H396.047L396.469 25.0547ZM395.484 31.4297H393.656C393.656 29.5547 393.898 27.8672 394.383 26.3672C394.867 24.8516 395.547 23.5625 396.422 22.5C397.297 21.4219 398.336 20.6016 399.539 20.0391C400.758 19.4609 402.117 19.1719 403.617 19.1719C404.805 19.1719 405.891 19.3438 406.875 19.6875C407.859 20.0312 408.703 20.5781 409.406 21.3281C410.125 22.0781 410.672 23.0703 411.047 24.3047C411.438 25.5391 411.633 27.0469 411.633 28.8281V45H404.836V28.8047C404.836 27.6797 404.68 26.8047 404.367 26.1797C404.055 25.5547 403.594 25.1172 402.984 24.8672C402.391 24.6016 401.656 24.4688 400.781 24.4688C399.875 24.4688 399.086 24.6484 398.414 25.0078C397.758 25.3672 397.211 25.8672 396.773 26.5078C396.352 27.1328 396.031 27.8672 395.812 28.7109C395.594 29.5547 395.484 30.4609 395.484 31.4297ZM423.891 19.6406V45H417.117V19.6406H423.891ZM416.695 13.0312C416.695 12.0469 417.039 11.2344 417.727 10.5938C418.414 9.95313 419.336 9.63281 420.492 9.63281C421.633 9.63281 422.547 9.95313 423.234 10.5938C423.938 11.2344 424.289 12.0469 424.289 13.0312C424.289 14.0156 423.938 14.8281 423.234 15.4688C422.547 16.1094 421.633 16.4297 420.492 16.4297C419.336 16.4297 418.414 16.1094 417.727 15.4688C417.039 14.8281 416.695 14.0156 416.695 13.0312ZM443.156 39.2812V27.9844C443.156 27.1719 443.023 26.4766 442.758 25.8984C442.492 25.3047 442.078 24.8438 441.516 24.5156C440.969 24.1875 440.258 24.0234 439.383 24.0234C438.633 24.0234 437.984 24.1562 437.438 24.4219C436.891 24.6719 436.469 25.0391 436.172 25.5234C435.875 25.9922 435.727 26.5469 435.727 27.1875H428.977C428.977 26.1094 429.227 25.0859 429.727 24.1172C430.227 23.1484 430.953 22.2969 431.906 21.5625C432.859 20.8125 433.992 20.2266 435.305 19.8047C436.633 19.3828 438.117 19.1719 439.758 19.1719C441.727 19.1719 443.477 19.5 445.008 20.1562C446.539 20.8125 447.742 21.7969 448.617 23.1094C449.508 24.4219 449.953 26.0625 449.953 28.0312V38.8828C449.953 40.2734 450.039 41.4141 450.211 42.3047C450.383 43.1797 450.633 43.9453 450.961 44.6016V45H444.141C443.812 44.3125 443.562 43.4531 443.391 42.4219C443.234 41.375 443.156 40.3281 443.156 39.2812ZM444.047 29.5547L444.094 33.375H440.32C439.43 33.375 438.656 33.4766 438 33.6797C437.344 33.8828 436.805 34.1719 436.383 34.5469C435.961 34.9062 435.648 35.3281 435.445 35.8125C435.258 36.2969 435.164 36.8281 435.164 37.4062C435.164 37.9844 435.297 38.5078 435.562 38.9766C435.828 39.4297 436.211 39.7891 436.711 40.0547C437.211 40.3047 437.797 40.4297 438.469 40.4297C439.484 40.4297 440.367 40.2266 441.117 39.8203C441.867 39.4141 442.445 38.9141 442.852 38.3203C443.273 37.7266 443.492 37.1641 443.508 36.6328L445.289 39.4922C445.039 40.1328 444.695 40.7969 444.258 41.4844C443.836 42.1719 443.297 42.8203 442.641 43.4297C441.984 44.0234 441.195 44.5156 440.273 44.9062C439.352 45.2812 438.258 45.4688 436.992 45.4688C435.383 45.4688 433.922 45.1484 432.609 44.5078C431.312 43.8516 430.281 42.9531 429.516 41.8125C428.766 40.6562 428.391 39.3438 428.391 37.875C428.391 36.5469 428.641 35.3672 429.141 34.3359C429.641 33.3047 430.375 32.4375 431.344 31.7344C432.328 31.0156 433.555 30.4766 435.023 30.1172C436.492 29.7422 438.195 29.5547 440.133 29.5547H444.047ZM462.281 9V45H455.508V9H462.281ZM481.57 37.9922C481.57 37.5078 481.43 37.0703 481.148 36.6797C480.867 36.2891 480.344 35.9297 479.578 35.6016C478.828 35.2578 477.742 34.9453 476.32 34.6641C475.039 34.3828 473.844 34.0312 472.734 33.6094C471.641 33.1719 470.688 32.6484 469.875 32.0391C469.078 31.4297 468.453 30.7109 468 29.8828C467.547 29.0391 467.32 28.0781 467.32 27C467.32 25.9375 467.547 24.9375 468 24C468.469 23.0625 469.133 22.2344 469.992 21.5156C470.867 20.7812 471.93 20.2109 473.18 19.8047C474.445 19.3828 475.867 19.1719 477.445 19.1719C479.648 19.1719 481.539 19.5234 483.117 20.2266C484.711 20.9297 485.93 21.8984 486.773 23.1328C487.633 24.3516 488.062 25.7422 488.062 27.3047H481.312C481.312 26.6484 481.172 26.0625 480.891 25.5469C480.625 25.0156 480.203 24.6016 479.625 24.3047C479.062 23.9922 478.328 23.8359 477.422 23.8359C476.672 23.8359 476.023 23.9688 475.477 24.2344C474.93 24.4844 474.508 24.8281 474.211 25.2656C473.93 25.6875 473.789 26.1562 473.789 26.6719C473.789 27.0625 473.867 27.4141 474.023 27.7266C474.195 28.0234 474.469 28.2969 474.844 28.5469C475.219 28.7969 475.703 29.0312 476.297 29.25C476.906 29.4531 477.656 29.6406 478.547 29.8125C480.375 30.1875 482.008 30.6797 483.445 31.2891C484.883 31.8828 486.023 32.6953 486.867 33.7266C487.711 34.7422 488.133 36.0781 488.133 37.7344C488.133 38.8594 487.883 39.8906 487.383 40.8281C486.883 41.7656 486.164 42.5859 485.227 43.2891C484.289 43.9766 483.164 44.5156 481.852 44.9062C480.555 45.2812 479.094 45.4688 477.469 45.4688C475.109 45.4688 473.109 45.0469 471.469 44.2031C469.844 43.3594 468.609 42.2891 467.766 40.9922C466.938 39.6797 466.523 38.3359 466.523 36.9609H472.922C472.953 37.8828 473.188 38.625 473.625 39.1875C474.078 39.75 474.648 40.1562 475.336 40.4062C476.039 40.6562 476.797 40.7812 477.609 40.7812C478.484 40.7812 479.211 40.6641 479.789 40.4297C480.367 40.1797 480.805 39.8516 481.102 39.4453C481.414 39.0234 481.57 38.5391 481.57 37.9922Z" fill="black"/>
<path d="M9.24609 100.62V102H2.84766V100.62H9.24609ZM3.18164 89.2031V102H1.48535V89.2031H3.18164ZM10.5117 97.3506V97.1484C10.5117 96.4629 10.6113 95.8271 10.8105 95.2412C11.0098 94.6494 11.2969 94.1367 11.6719 93.7031C12.0469 93.2637 12.501 92.9238 13.0342 92.6836C13.5674 92.4375 14.165 92.3145 14.8271 92.3145C15.4951 92.3145 16.0957 92.4375 16.6289 92.6836C17.168 92.9238 17.625 93.2637 18 93.7031C18.3809 94.1367 18.6709 94.6494 18.8701 95.2412C19.0693 95.8271 19.1689 96.4629 19.1689 97.1484V97.3506C19.1689 98.0361 19.0693 98.6719 18.8701 99.2578C18.6709 99.8438 18.3809 100.356 18 100.796C17.625 101.229 17.1709 101.569 16.6377 101.815C16.1104 102.056 15.5127 102.176 14.8447 102.176C14.1768 102.176 13.5762 102.056 13.043 101.815C12.5098 101.569 12.0527 101.229 11.6719 100.796C11.2969 100.356 11.0098 99.8438 10.8105 99.2578C10.6113 98.6719 10.5117 98.0361 10.5117 97.3506ZM12.1377 97.1484V97.3506C12.1377 97.8252 12.1934 98.2734 12.3047 98.6953C12.416 99.1113 12.583 99.4805 12.8057 99.8027C13.0342 100.125 13.3184 100.38 13.6582 100.567C13.998 100.749 14.3936 100.84 14.8447 100.84C15.29 100.84 15.6797 100.749 16.0137 100.567C16.3535 100.38 16.6348 100.125 16.8574 99.8027C17.0801 99.4805 17.2471 99.1113 17.3584 98.6953C17.4756 98.2734 17.5342 97.8252 17.5342 97.3506V97.1484C17.5342 96.6797 17.4756 96.2373 17.3584 95.8213C17.2471 95.3994 17.0771 95.0273 16.8486 94.7051C16.626 94.377 16.3447 94.1191 16.0049 93.9316C15.6709 93.7441 15.2783 93.6504 14.8271 93.6504C14.3818 93.6504 13.9893 93.7441 13.6494 93.9316C13.3154 94.1191 13.0342 94.377 12.8057 94.7051C12.583 95.0273 12.416 95.3994 12.3047 95.8213C12.1934 96.2373 12.1377 96.6797 12.1377 97.1484ZM22.834 93.9844V102H21.208V92.4902H22.79L22.834 93.9844ZM25.8047 92.4375L25.7959 93.9492C25.6611 93.9199 25.5322 93.9023 25.4092 93.8965C25.292 93.8848 25.1572 93.8789 25.0049 93.8789C24.6299 93.8789 24.2988 93.9375 24.0117 94.0547C23.7246 94.1719 23.4814 94.3359 23.2822 94.5469C23.083 94.7578 22.9248 95.0098 22.8076 95.3027C22.6963 95.5898 22.623 95.9062 22.5879 96.252L22.1309 96.5156C22.1309 95.9414 22.1865 95.4023 22.2979 94.8984C22.415 94.3945 22.5938 93.9492 22.834 93.5625C23.0742 93.1699 23.3789 92.8652 23.748 92.6484C24.123 92.4258 24.5684 92.3145 25.084 92.3145C25.2012 92.3145 25.3359 92.3291 25.4883 92.3584C25.6406 92.3818 25.7461 92.4082 25.8047 92.4375ZM31.0781 102.176C30.416 102.176 29.8154 102.064 29.2764 101.842C28.7432 101.613 28.2832 101.294 27.8965 100.884C27.5156 100.474 27.2227 99.9873 27.0176 99.4248C26.8125 98.8623 26.71 98.2471 26.71 97.5791V97.21C26.71 96.4365 26.8242 95.748 27.0527 95.1445C27.2812 94.5352 27.5918 94.0195 27.9844 93.5977C28.377 93.1758 28.8223 92.8564 29.3203 92.6396C29.8184 92.4229 30.334 92.3145 30.8672 92.3145C31.5469 92.3145 32.1328 92.4316 32.625 92.666C33.123 92.9004 33.5303 93.2285 33.8467 93.6504C34.1631 94.0664 34.3975 94.5586 34.5498 95.127C34.7021 95.6895 34.7783 96.3047 34.7783 96.9727V97.7021H27.6768V96.375H33.1523V96.252C33.1289 95.8301 33.041 95.4199 32.8887 95.0215C32.7422 94.623 32.5078 94.2949 32.1855 94.0371C31.8633 93.7793 31.4238 93.6504 30.8672 93.6504C30.498 93.6504 30.1582 93.7295 29.8477 93.8877C29.5371 94.04 29.2705 94.2686 29.0479 94.5732C28.8252 94.8779 28.6523 95.25 28.5293 95.6895C28.4062 96.1289 28.3447 96.6357 28.3447 97.21V97.5791C28.3447 98.0303 28.4062 98.4551 28.5293 98.8535C28.6582 99.2461 28.8428 99.5918 29.083 99.8906C29.3291 100.189 29.625 100.424 29.9707 100.594C30.3223 100.764 30.7207 100.849 31.166 100.849C31.7402 100.849 32.2266 100.731 32.625 100.497C33.0234 100.263 33.3721 99.9492 33.6709 99.5566L34.6553 100.339C34.4502 100.649 34.1895 100.945 33.873 101.227C33.5566 101.508 33.167 101.736 32.7041 101.912C32.2471 102.088 31.7051 102.176 31.0781 102.176ZM38.2939 94.3799V102H36.6592V92.4902H38.2061L38.2939 94.3799ZM37.96 96.8848L37.2041 96.8584C37.21 96.208 37.2949 95.6074 37.459 95.0566C37.623 94.5 37.8662 94.0166 38.1885 93.6064C38.5107 93.1963 38.9121 92.8799 39.3926 92.6572C39.873 92.4287 40.4297 92.3145 41.0625 92.3145C41.5078 92.3145 41.918 92.3789 42.293 92.5078C42.668 92.6309 42.9932 92.8271 43.2686 93.0967C43.5439 93.3662 43.7578 93.7119 43.9102 94.1338C44.0625 94.5557 44.1387 95.0654 44.1387 95.6631V102H42.5127V95.7422C42.5127 95.2441 42.4277 94.8457 42.2578 94.5469C42.0938 94.248 41.8594 94.0312 41.5547 93.8965C41.25 93.7559 40.8926 93.6855 40.4824 93.6855C40.002 93.6855 39.6006 93.7705 39.2783 93.9404C38.9561 94.1104 38.6982 94.3447 38.5049 94.6436C38.3115 94.9424 38.1709 95.2852 38.083 95.6719C38.001 96.0527 37.96 96.457 37.96 96.8848ZM44.1211 95.9883L43.0312 96.3223C43.0371 95.8008 43.1221 95.2998 43.2861 94.8193C43.4561 94.3389 43.6992 93.9111 44.0156 93.5361C44.3379 93.1611 44.7334 92.8652 45.2021 92.6484C45.6709 92.4258 46.207 92.3145 46.8105 92.3145C47.3203 92.3145 47.7715 92.3818 48.1641 92.5166C48.5625 92.6514 48.8965 92.8594 49.166 93.1406C49.4414 93.416 49.6494 93.7705 49.79 94.2041C49.9307 94.6377 50.001 95.1533 50.001 95.751V102H48.3662V95.7334C48.3662 95.2002 48.2812 94.7871 48.1113 94.4941C47.9473 94.1953 47.7129 93.9873 47.4082 93.8701C47.1094 93.7471 46.752 93.6855 46.3359 93.6855C45.9785 93.6855 45.6621 93.7471 45.3867 93.8701C45.1113 93.9932 44.8799 94.1631 44.6924 94.3799C44.5049 94.5908 44.3613 94.834 44.2617 95.1094C44.168 95.3848 44.1211 95.6777 44.1211 95.9883ZM58.6934 92.4902V102H57.0586V92.4902H58.6934ZM56.9355 89.9678C56.9355 89.7041 57.0146 89.4814 57.1729 89.2998C57.3369 89.1182 57.5771 89.0273 57.8936 89.0273C58.2041 89.0273 58.4414 89.1182 58.6055 89.2998C58.7754 89.4814 58.8604 89.7041 58.8604 89.9678C58.8604 90.2197 58.7754 90.4365 58.6055 90.6182C58.4414 90.7939 58.2041 90.8818 57.8936 90.8818C57.5771 90.8818 57.3369 90.7939 57.1729 90.6182C57.0146 90.4365 56.9355 90.2197 56.9355 89.9678ZM62.9297 94.3184V105.656H61.2949V92.4902H62.7891L62.9297 94.3184ZM69.3369 97.166V97.3506C69.3369 98.042 69.2549 98.6836 69.0908 99.2754C68.9268 99.8613 68.6865 100.371 68.3701 100.805C68.0596 101.238 67.6758 101.575 67.2188 101.815C66.7617 102.056 66.2373 102.176 65.6455 102.176C65.042 102.176 64.5088 102.076 64.0459 101.877C63.583 101.678 63.1904 101.388 62.8682 101.007C62.5459 100.626 62.2881 100.169 62.0947 99.6357C61.9072 99.1025 61.7783 98.502 61.708 97.834V96.8496C61.7783 96.1465 61.9102 95.5166 62.1035 94.96C62.2969 94.4033 62.5518 93.9287 62.8682 93.5361C63.1904 93.1377 63.5801 92.8359 64.0371 92.6309C64.4941 92.4199 65.0215 92.3145 65.6191 92.3145C66.2168 92.3145 66.7471 92.4316 67.21 92.666C67.6729 92.8945 68.0625 93.2227 68.3789 93.6504C68.6953 94.0781 68.9326 94.5908 69.0908 95.1885C69.2549 95.7803 69.3369 96.4395 69.3369 97.166ZM67.7021 97.3506V97.166C67.7021 96.6914 67.6523 96.2461 67.5527 95.8301C67.4531 95.4082 67.2979 95.0391 67.0869 94.7227C66.8818 94.4004 66.6182 94.1484 66.2959 93.9668C65.9736 93.7793 65.5898 93.6855 65.1445 93.6855C64.7344 93.6855 64.377 93.7559 64.0723 93.8965C63.7734 94.0371 63.5186 94.2275 63.3076 94.4678C63.0967 94.7021 62.9238 94.9717 62.7891 95.2764C62.6602 95.5752 62.5635 95.8857 62.499 96.208V98.4844C62.6162 98.8945 62.7803 99.2812 62.9912 99.6445C63.2021 100.002 63.4834 100.292 63.835 100.515C64.1865 100.731 64.6289 100.84 65.1621 100.84C65.6016 100.84 65.9795 100.749 66.2959 100.567C66.6182 100.38 66.8818 100.125 67.0869 99.8027C67.2979 99.4805 67.4531 99.1113 67.5527 98.6953C67.6523 98.2734 67.7021 97.8252 67.7021 97.3506ZM76.9482 99.4775C76.9482 99.2432 76.8955 99.0264 76.79 98.8271C76.6904 98.6221 76.4824 98.4375 76.166 98.2734C75.8555 98.1035 75.3867 97.957 74.7598 97.834C74.2324 97.7227 73.7549 97.5908 73.3271 97.4385C72.9053 97.2861 72.5449 97.1016 72.2461 96.8848C71.9531 96.668 71.7275 96.4131 71.5693 96.1201C71.4111 95.8271 71.332 95.4844 71.332 95.0918C71.332 94.7168 71.4141 94.3623 71.5781 94.0283C71.748 93.6943 71.9854 93.3984 72.29 93.1406C72.6006 92.8828 72.9727 92.6807 73.4062 92.5342C73.8398 92.3877 74.3232 92.3145 74.8564 92.3145C75.6182 92.3145 76.2686 92.4492 76.8076 92.7188C77.3467 92.9883 77.7598 93.3486 78.0469 93.7998C78.334 94.2451 78.4775 94.7402 78.4775 95.2852H76.8516C76.8516 95.0215 76.7725 94.7666 76.6143 94.5205C76.4619 94.2686 76.2363 94.0605 75.9375 93.8965C75.6445 93.7324 75.2842 93.6504 74.8564 93.6504C74.4053 93.6504 74.0391 93.7207 73.7578 93.8613C73.4824 93.9961 73.2803 94.1689 73.1514 94.3799C73.0283 94.5908 72.9668 94.8135 72.9668 95.0479C72.9668 95.2236 72.9961 95.3818 73.0547 95.5225C73.1191 95.6572 73.2305 95.7832 73.3887 95.9004C73.5469 96.0117 73.7695 96.1172 74.0566 96.2168C74.3438 96.3164 74.71 96.416 75.1553 96.5156C75.9346 96.6914 76.5762 96.9023 77.0801 97.1484C77.584 97.3945 77.959 97.6963 78.2051 98.0537C78.4512 98.4111 78.5742 98.8447 78.5742 99.3545C78.5742 99.7705 78.4863 100.151 78.3105 100.497C78.1406 100.843 77.8916 101.142 77.5635 101.394C77.2412 101.64 76.8545 101.833 76.4033 101.974C75.958 102.108 75.457 102.176 74.9004 102.176C74.0625 102.176 73.3535 102.026 72.7734 101.728C72.1934 101.429 71.7539 101.042 71.4551 100.567C71.1562 100.093 71.0068 99.5918 71.0068 99.0645H72.6416C72.665 99.5098 72.7939 99.8643 73.0283 100.128C73.2627 100.386 73.5498 100.57 73.8896 100.682C74.2295 100.787 74.5664 100.84 74.9004 100.84C75.3457 100.84 75.7178 100.781 76.0166 100.664C76.3213 100.547 76.5527 100.386 76.7109 100.181C76.8691 99.9756 76.9482 99.7412 76.9482 99.4775ZM86.5283 99.8027V92.4902H88.1631V102H86.6074L86.5283 99.8027ZM86.8359 97.7988L87.5127 97.7812C87.5127 98.4141 87.4453 99 87.3105 99.5391C87.1816 100.072 86.9707 100.535 86.6777 100.928C86.3848 101.32 86.001 101.628 85.5264 101.851C85.0518 102.067 84.4746 102.176 83.7949 102.176C83.332 102.176 82.9072 102.108 82.5205 101.974C82.1396 101.839 81.8115 101.631 81.5361 101.35C81.2607 101.068 81.0469 100.702 80.8945 100.251C80.748 99.7998 80.6748 99.2578 80.6748 98.625V92.4902H82.3008V98.6426C82.3008 99.0703 82.3477 99.4248 82.4414 99.7061C82.541 99.9814 82.6729 100.201 82.8369 100.365C83.0068 100.523 83.1943 100.635 83.3994 100.699C83.6104 100.764 83.8271 100.796 84.0498 100.796C84.7412 100.796 85.2891 100.664 85.6934 100.4C86.0977 100.131 86.3877 99.7705 86.5635 99.3193C86.7451 98.8623 86.8359 98.3555 86.8359 97.7988ZM92.2588 94.3799V102H90.624V92.4902H92.1709L92.2588 94.3799ZM91.9248 96.8848L91.1689 96.8584C91.1748 96.208 91.2598 95.6074 91.4238 95.0566C91.5879 94.5 91.8311 94.0166 92.1533 93.6064C92.4756 93.1963 92.877 92.8799 93.3574 92.6572C93.8379 92.4287 94.3945 92.3145 95.0273 92.3145C95.4727 92.3145 95.8828 92.3789 96.2578 92.5078C96.6328 92.6309 96.958 92.8271 97.2334 93.0967C97.5088 93.3662 97.7227 93.7119 97.875 94.1338C98.0273 94.5557 98.1035 95.0654 98.1035 95.6631V102H96.4775V95.7422C96.4775 95.2441 96.3926 94.8457 96.2227 94.5469C96.0586 94.248 95.8242 94.0312 95.5195 93.8965C95.2148 93.7559 94.8574 93.6855 94.4473 93.6855C93.9668 93.6855 93.5654 93.7705 93.2432 93.9404C92.9209 94.1104 92.6631 94.3447 92.4697 94.6436C92.2764 94.9424 92.1357 95.2852 92.0479 95.6719C91.9658 96.0527 91.9248 96.457 91.9248 96.8848ZM98.0859 95.9883L96.9961 96.3223C97.002 95.8008 97.0869 95.2998 97.251 94.8193C97.4209 94.3389 97.6641 93.9111 97.9805 93.5361C98.3027 93.1611 98.6982 92.8652 99.167 92.6484C99.6357 92.4258 100.172 92.3145 100.775 92.3145C101.285 92.3145 101.736 92.3818 102.129 92.5166C102.527 92.6514 102.861 92.8594 103.131 93.1406C103.406 93.416 103.614 93.7705 103.755 94.2041C103.896 94.6377 103.966 95.1533 103.966 95.751V102H102.331V95.7334C102.331 95.2002 102.246 94.7871 102.076 94.4941C101.912 94.1953 101.678 93.9873 101.373 93.8701C101.074 93.7471 100.717 93.6855 100.301 93.6855C99.9434 93.6855 99.627 93.7471 99.3516 93.8701C99.0762 93.9932 98.8447 94.1631 98.6572 94.3799C98.4697 94.5908 98.3262 94.834 98.2266 95.1094C98.1328 95.3848 98.0859 95.6777 98.0859 95.9883ZM116.886 100.154V88.5H118.521V102H117.026L116.886 100.154ZM110.487 97.3506V97.166C110.487 96.4395 110.575 95.7803 110.751 95.1885C110.933 94.5908 111.188 94.0781 111.516 93.6504C111.85 93.2227 112.245 92.8945 112.702 92.666C113.165 92.4316 113.681 92.3145 114.249 92.3145C114.847 92.3145 115.368 92.4199 115.813 92.6309C116.265 92.8359 116.646 93.1377 116.956 93.5361C117.272 93.9287 117.521 94.4033 117.703 94.96C117.885 95.5166 118.011 96.1465 118.081 96.8496V97.6582C118.017 98.3555 117.891 98.9824 117.703 99.5391C117.521 100.096 117.272 100.57 116.956 100.963C116.646 101.355 116.265 101.657 115.813 101.868C115.362 102.073 114.835 102.176 114.231 102.176C113.675 102.176 113.165 102.056 112.702 101.815C112.245 101.575 111.85 101.238 111.516 100.805C111.188 100.371 110.933 99.8613 110.751 99.2754C110.575 98.6836 110.487 98.042 110.487 97.3506ZM112.122 97.166V97.3506C112.122 97.8252 112.169 98.2705 112.263 98.6865C112.362 99.1025 112.515 99.4688 112.72 99.7852C112.925 100.102 113.186 100.351 113.502 100.532C113.818 100.708 114.196 100.796 114.636 100.796C115.175 100.796 115.617 100.682 115.963 100.453C116.314 100.225 116.596 99.9229 116.807 99.5479C117.018 99.1729 117.182 98.7656 117.299 98.3262V96.208C117.229 95.8857 117.126 95.5752 116.991 95.2764C116.862 94.9717 116.692 94.7021 116.481 94.4678C116.276 94.2275 116.021 94.0371 115.717 93.8965C115.418 93.7559 115.063 93.6855 114.653 93.6855C114.208 93.6855 113.824 93.7793 113.502 93.9668C113.186 94.1484 112.925 94.4004 112.72 94.7227C112.515 95.0391 112.362 95.4082 112.263 95.8301C112.169 96.2461 112.122 96.6914 112.122 97.166ZM120.621 97.3506V97.1484C120.621 96.4629 120.721 95.8271 120.92 95.2412C121.119 94.6494 121.406 94.1367 121.781 93.7031C122.156 93.2637 122.61 92.9238 123.144 92.6836C123.677 92.4375 124.274 92.3145 124.937 92.3145C125.604 92.3145 126.205 92.4375 126.738 92.6836C127.277 92.9238 127.734 93.2637 128.109 93.7031C128.49 94.1367 128.78 94.6494 128.979 95.2412C129.179 95.8271 129.278 96.4629 129.278 97.1484V97.3506C129.278 98.0361 129.179 98.6719 128.979 99.2578C128.78 99.8438 128.49 100.356 128.109 100.796C127.734 101.229 127.28 101.569 126.747 101.815C126.22 102.056 125.622 102.176 124.954 102.176C124.286 102.176 123.686 102.056 123.152 101.815C122.619 101.569 122.162 101.229 121.781 100.796C121.406 100.356 121.119 99.8438 120.92 99.2578C120.721 98.6719 120.621 98.0361 120.621 97.3506ZM122.247 97.1484V97.3506C122.247 97.8252 122.303 98.2734 122.414 98.6953C122.525 99.1113 122.692 99.4805 122.915 99.8027C123.144 100.125 123.428 100.38 123.768 100.567C124.107 100.749 124.503 100.84 124.954 100.84C125.399 100.84 125.789 100.749 126.123 100.567C126.463 100.38 126.744 100.125 126.967 99.8027C127.189 99.4805 127.356 99.1113 127.468 98.6953C127.585 98.2734 127.644 97.8252 127.644 97.3506V97.1484C127.644 96.6797 127.585 96.2373 127.468 95.8213C127.356 95.3994 127.187 95.0273 126.958 94.7051C126.735 94.377 126.454 94.1191 126.114 93.9316C125.78 93.7441 125.388 93.6504 124.937 93.6504C124.491 93.6504 124.099 93.7441 123.759 93.9316C123.425 94.1191 123.144 94.377 122.915 94.7051C122.692 95.0273 122.525 95.3994 122.414 95.8213C122.303 96.2373 122.247 96.6797 122.247 97.1484ZM133.084 88.5V102H131.449V88.5H133.084ZM135.264 97.3506V97.1484C135.264 96.4629 135.363 95.8271 135.562 95.2412C135.762 94.6494 136.049 94.1367 136.424 93.7031C136.799 93.2637 137.253 92.9238 137.786 92.6836C138.319 92.4375 138.917 92.3145 139.579 92.3145C140.247 92.3145 140.848 92.4375 141.381 92.6836C141.92 92.9238 142.377 93.2637 142.752 93.7031C143.133 94.1367 143.423 94.6494 143.622 95.2412C143.821 95.8271 143.921 96.4629 143.921 97.1484V97.3506C143.921 98.0361 143.821 98.6719 143.622 99.2578C143.423 99.8438 143.133 100.356 142.752 100.796C142.377 101.229 141.923 101.569 141.39 101.815C140.862 102.056 140.265 102.176 139.597 102.176C138.929 102.176 138.328 102.056 137.795 101.815C137.262 101.569 136.805 101.229 136.424 100.796C136.049 100.356 135.762 99.8438 135.562 99.2578C135.363 98.6719 135.264 98.0361 135.264 97.3506ZM136.89 97.1484V97.3506C136.89 97.8252 136.945 98.2734 137.057 98.6953C137.168 99.1113 137.335 99.4805 137.558 99.8027C137.786 100.125 138.07 100.38 138.41 100.567C138.75 100.749 139.146 100.84 139.597 100.84C140.042 100.84 140.432 100.749 140.766 100.567C141.105 100.38 141.387 100.125 141.609 99.8027C141.832 99.4805 141.999 99.1113 142.11 98.6953C142.228 98.2734 142.286 97.8252 142.286 97.3506V97.1484C142.286 96.6797 142.228 96.2373 142.11 95.8213C141.999 95.3994 141.829 95.0273 141.601 94.7051C141.378 94.377 141.097 94.1191 140.757 93.9316C140.423 93.7441 140.03 93.6504 139.579 93.6504C139.134 93.6504 138.741 93.7441 138.401 93.9316C138.067 94.1191 137.786 94.377 137.558 94.7051C137.335 95.0273 137.168 95.3994 137.057 95.8213C136.945 96.2373 136.89 96.6797 136.89 97.1484ZM147.586 93.9844V102H145.96V92.4902H147.542L147.586 93.9844ZM150.557 92.4375L150.548 93.9492C150.413 93.9199 150.284 93.9023 150.161 93.8965C150.044 93.8848 149.909 93.8789 149.757 93.8789C149.382 93.8789 149.051 93.9375 148.764 94.0547C148.477 94.1719 148.233 94.3359 148.034 94.5469C147.835 94.7578 147.677 95.0098 147.56 95.3027C147.448 95.5898 147.375 95.9062 147.34 96.252L146.883 96.5156C146.883 95.9414 146.938 95.4023 147.05 94.8984C147.167 94.3945 147.346 93.9492 147.586 93.5625C147.826 93.1699 148.131 92.8652 148.5 92.6484C148.875 92.4258 149.32 92.3145 149.836 92.3145C149.953 92.3145 150.088 92.3291 150.24 92.3584C150.393 92.3818 150.498 92.4082 150.557 92.4375ZM162.062 99.4775C162.062 99.2432 162.009 99.0264 161.903 98.8271C161.804 98.6221 161.596 98.4375 161.279 98.2734C160.969 98.1035 160.5 97.957 159.873 97.834C159.346 97.7227 158.868 97.5908 158.44 97.4385C158.019 97.2861 157.658 97.1016 157.359 96.8848C157.066 96.668 156.841 96.4131 156.683 96.1201C156.524 95.8271 156.445 95.4844 156.445 95.0918C156.445 94.7168 156.527 94.3623 156.691 94.0283C156.861 93.6943 157.099 93.3984 157.403 93.1406C157.714 92.8828 158.086 92.6807 158.52 92.5342C158.953 92.3877 159.437 92.3145 159.97 92.3145C160.731 92.3145 161.382 92.4492 161.921 92.7188C162.46 92.9883 162.873 93.3486 163.16 93.7998C163.447 94.2451 163.591 94.7402 163.591 95.2852H161.965C161.965 95.0215 161.886 94.7666 161.728 94.5205C161.575 94.2686 161.35 94.0605 161.051 93.8965C160.758 93.7324 160.397 93.6504 159.97 93.6504C159.519 93.6504 159.152 93.7207 158.871 93.8613C158.596 93.9961 158.394 94.1689 158.265 94.3799C158.142 94.5908 158.08 94.8135 158.08 95.0479C158.08 95.2236 158.109 95.3818 158.168 95.5225C158.232 95.6572 158.344 95.7832 158.502 95.9004C158.66 96.0117 158.883 96.1172 159.17 96.2168C159.457 96.3164 159.823 96.416 160.269 96.5156C161.048 96.6914 161.689 96.9023 162.193 97.1484C162.697 97.3945 163.072 97.6963 163.318 98.0537C163.564 98.4111 163.688 98.8447 163.688 99.3545C163.688 99.7705 163.6 100.151 163.424 100.497C163.254 100.843 163.005 101.142 162.677 101.394C162.354 101.64 161.968 101.833 161.517 101.974C161.071 102.108 160.57 102.176 160.014 102.176C159.176 102.176 158.467 102.026 157.887 101.728C157.307 101.429 156.867 101.042 156.568 100.567C156.27 100.093 156.12 99.5918 156.12 99.0645H157.755C157.778 99.5098 157.907 99.8643 158.142 100.128C158.376 100.386 158.663 100.57 159.003 100.682C159.343 100.787 159.68 100.84 160.014 100.84C160.459 100.84 160.831 100.781 161.13 100.664C161.435 100.547 161.666 100.386 161.824 100.181C161.982 99.9756 162.062 99.7412 162.062 99.4775ZM167.59 92.4902V102H165.955V92.4902H167.59ZM165.832 89.9678C165.832 89.7041 165.911 89.4814 166.069 89.2998C166.233 89.1182 166.474 89.0273 166.79 89.0273C167.101 89.0273 167.338 89.1182 167.502 89.2998C167.672 89.4814 167.757 89.7041 167.757 89.9678C167.757 90.2197 167.672 90.4365 167.502 90.6182C167.338 90.7939 167.101 90.8818 166.79 90.8818C166.474 90.8818 166.233 90.7939 166.069 90.6182C165.911 90.4365 165.832 90.2197 165.832 89.9678ZM174.182 92.4902V93.7383H169.04V92.4902H174.182ZM170.78 90.1787H172.406V99.6445C172.406 99.9668 172.456 100.21 172.556 100.374C172.655 100.538 172.784 100.646 172.942 100.699C173.101 100.752 173.271 100.778 173.452 100.778C173.587 100.778 173.728 100.767 173.874 100.743C174.026 100.714 174.141 100.69 174.217 100.673L174.226 102C174.097 102.041 173.927 102.079 173.716 102.114C173.511 102.155 173.262 102.176 172.969 102.176C172.57 102.176 172.204 102.097 171.87 101.938C171.536 101.78 171.27 101.517 171.07 101.147C170.877 100.772 170.78 100.269 170.78 99.6357V90.1787ZM186.161 100.374V95.4785C186.161 95.1035 186.085 94.7783 185.933 94.5029C185.786 94.2217 185.563 94.0049 185.265 93.8525C184.966 93.7002 184.597 93.624 184.157 93.624C183.747 93.624 183.387 93.6943 183.076 93.835C182.771 93.9756 182.531 94.1602 182.355 94.3887C182.186 94.6172 182.101 94.8633 182.101 95.127H180.475C180.475 94.7871 180.562 94.4502 180.738 94.1162C180.914 93.7822 181.166 93.4805 181.494 93.2109C181.828 92.9355 182.227 92.7188 182.689 92.5605C183.158 92.3965 183.68 92.3145 184.254 92.3145C184.945 92.3145 185.555 92.4316 186.082 92.666C186.615 92.9004 187.031 93.2549 187.33 93.7295C187.635 94.1982 187.787 94.7871 187.787 95.4961V99.9258C187.787 100.242 187.813 100.579 187.866 100.937C187.925 101.294 188.01 101.602 188.121 101.859V102H186.425C186.343 101.812 186.278 101.563 186.231 101.253C186.185 100.937 186.161 100.644 186.161 100.374ZM186.442 96.2344L186.46 97.377H184.816C184.354 97.377 183.94 97.415 183.577 97.4912C183.214 97.5615 182.909 97.6699 182.663 97.8164C182.417 97.9629 182.229 98.1475 182.101 98.3701C181.972 98.5869 181.907 98.8418 181.907 99.1348C181.907 99.4336 181.975 99.7061 182.109 99.9521C182.244 100.198 182.446 100.395 182.716 100.541C182.991 100.682 183.328 100.752 183.727 100.752C184.225 100.752 184.664 100.646 185.045 100.436C185.426 100.225 185.728 99.9668 185.95 99.6621C186.179 99.3574 186.302 99.0615 186.319 98.7744L187.014 99.5566C186.973 99.8027 186.861 100.075 186.68 100.374C186.498 100.673 186.255 100.96 185.95 101.235C185.651 101.505 185.294 101.73 184.878 101.912C184.468 102.088 184.005 102.176 183.489 102.176C182.845 102.176 182.279 102.05 181.793 101.798C181.312 101.546 180.938 101.209 180.668 100.787C180.404 100.359 180.272 99.8818 180.272 99.3545C180.272 98.8447 180.372 98.3965 180.571 98.0098C180.771 97.6172 181.058 97.292 181.433 97.0342C181.808 96.7705 182.259 96.5713 182.786 96.4365C183.313 96.3018 183.902 96.2344 184.553 96.2344H186.442ZM191.962 94.3799V102H190.327V92.4902H191.874L191.962 94.3799ZM191.628 96.8848L190.872 96.8584C190.878 96.208 190.963 95.6074 191.127 95.0566C191.291 94.5 191.534 94.0166 191.856 93.6064C192.179 93.1963 192.58 92.8799 193.061 92.6572C193.541 92.4287 194.098 92.3145 194.73 92.3145C195.176 92.3145 195.586 92.3789 195.961 92.5078C196.336 92.6309 196.661 92.8271 196.937 93.0967C197.212 93.3662 197.426 93.7119 197.578 94.1338C197.73 94.5557 197.807 95.0654 197.807 95.6631V102H196.181V95.7422C196.181 95.2441 196.096 94.8457 195.926 94.5469C195.762 94.248 195.527 94.0312 195.223 93.8965C194.918 93.7559 194.561 93.6855 194.15 93.6855C193.67 93.6855 193.269 93.7705 192.946 93.9404C192.624 94.1104 192.366 94.3447 192.173 94.6436C191.979 94.9424 191.839 95.2852 191.751 95.6719C191.669 96.0527 191.628 96.457 191.628 96.8848ZM197.789 95.9883L196.699 96.3223C196.705 95.8008 196.79 95.2998 196.954 94.8193C197.124 94.3389 197.367 93.9111 197.684 93.5361C198.006 93.1611 198.401 92.8652 198.87 92.6484C199.339 92.4258 199.875 92.3145 200.479 92.3145C200.988 92.3145 201.439 92.3818 201.832 92.5166C202.23 92.6514 202.564 92.8594 202.834 93.1406C203.109 93.416 203.317 93.7705 203.458 94.2041C203.599 94.6377 203.669 95.1533 203.669 95.751V102H202.034V95.7334C202.034 95.2002 201.949 94.7871 201.779 94.4941C201.615 94.1953 201.381 93.9873 201.076 93.8701C200.777 93.7471 200.42 93.6855 200.004 93.6855C199.646 93.6855 199.33 93.7471 199.055 93.8701C198.779 93.9932 198.548 94.1631 198.36 94.3799C198.173 94.5908 198.029 94.834 197.93 95.1094C197.836 95.3848 197.789 95.6777 197.789 95.9883ZM210.076 102.176C209.414 102.176 208.813 102.064 208.274 101.842C207.741 101.613 207.281 101.294 206.895 100.884C206.514 100.474 206.221 99.9873 206.016 99.4248C205.811 98.8623 205.708 98.2471 205.708 97.5791V97.21C205.708 96.4365 205.822 95.748 206.051 95.1445C206.279 94.5352 206.59 94.0195 206.982 93.5977C207.375 93.1758 207.82 92.8564 208.318 92.6396C208.816 92.4229 209.332 92.3145 209.865 92.3145C210.545 92.3145 211.131 92.4316 211.623 92.666C212.121 92.9004 212.528 93.2285 212.845 93.6504C213.161 94.0664 213.396 94.5586 213.548 95.127C213.7 95.6895 213.776 96.3047 213.776 96.9727V97.7021H206.675V96.375H212.15V96.252C212.127 95.8301 212.039 95.4199 211.887 95.0215C211.74 94.623 211.506 94.2949 211.184 94.0371C210.861 93.7793 210.422 93.6504 209.865 93.6504C209.496 93.6504 209.156 93.7295 208.846 93.8877C208.535 94.04 208.269 94.2686 208.046 94.5732C207.823 94.8779 207.65 95.25 207.527 95.6895C207.404 96.1289 207.343 96.6357 207.343 97.21V97.5791C207.343 98.0303 207.404 98.4551 207.527 98.8535C207.656 99.2461 207.841 99.5918 208.081 99.8906C208.327 100.189 208.623 100.424 208.969 100.594C209.32 100.764 209.719 100.849 210.164 100.849C210.738 100.849 211.225 100.731 211.623 100.497C212.021 100.263 212.37 99.9492 212.669 99.5566L213.653 100.339C213.448 100.649 213.188 100.945 212.871 101.227C212.555 101.508 212.165 101.736 211.702 101.912C211.245 102.088 210.703 102.176 210.076 102.176ZM219.656 92.4902V93.7383H214.515V92.4902H219.656ZM216.255 90.1787H217.881V99.6445C217.881 99.9668 217.931 100.21 218.03 100.374C218.13 100.538 218.259 100.646 218.417 100.699C218.575 100.752 218.745 100.778 218.927 100.778C219.062 100.778 219.202 100.767 219.349 100.743C219.501 100.714 219.615 100.69 219.691 100.673L219.7 102C219.571 102.041 219.401 102.079 219.19 102.114C218.985 102.155 218.736 102.176 218.443 102.176C218.045 102.176 217.679 102.097 217.345 101.938C217.011 101.78 216.744 101.517 216.545 101.147C216.352 100.772 216.255 100.269 216.255 99.6357V90.1787ZM223.04 100.066V101.376C223.04 101.909 222.905 102.472 222.636 103.063C222.366 103.661 221.988 104.159 221.502 104.558L220.579 103.916C220.767 103.658 220.925 103.395 221.054 103.125C221.183 102.861 221.279 102.586 221.344 102.299C221.414 102.018 221.449 101.719 221.449 101.402V100.066H223.04ZM233.385 100.84C233.771 100.84 234.129 100.761 234.457 100.603C234.785 100.444 235.055 100.228 235.266 99.9521C235.477 99.6709 235.597 99.3516 235.626 98.9941H237.173C237.144 99.5566 236.953 100.081 236.602 100.567C236.256 101.048 235.802 101.438 235.239 101.736C234.677 102.029 234.059 102.176 233.385 102.176C232.67 102.176 232.046 102.05 231.513 101.798C230.985 101.546 230.546 101.2 230.194 100.761C229.849 100.321 229.588 99.8174 229.412 99.249C229.242 98.6748 229.157 98.0684 229.157 97.4297V97.0605C229.157 96.4219 229.242 95.8184 229.412 95.25C229.588 94.6758 229.849 94.1689 230.194 93.7295C230.546 93.29 230.985 92.9443 231.513 92.6924C232.046 92.4404 232.67 92.3145 233.385 92.3145C234.129 92.3145 234.779 92.4668 235.336 92.7715C235.893 93.0703 236.329 93.4805 236.646 94.002C236.968 94.5176 237.144 95.1035 237.173 95.7598H235.626C235.597 95.3672 235.485 95.0127 235.292 94.6963C235.104 94.3799 234.847 94.1279 234.519 93.9404C234.196 93.7471 233.818 93.6504 233.385 93.6504C232.887 93.6504 232.468 93.75 232.128 93.9492C231.794 94.1426 231.527 94.4062 231.328 94.7402C231.135 95.0684 230.994 95.4346 230.906 95.8389C230.824 96.2373 230.783 96.6445 230.783 97.0605V97.4297C230.783 97.8457 230.824 98.2559 230.906 98.6602C230.988 99.0645 231.126 99.4307 231.319 99.7588C231.519 100.087 231.785 100.351 232.119 100.55C232.459 100.743 232.881 100.84 233.385 100.84ZM238.57 97.3506V97.1484C238.57 96.4629 238.67 95.8271 238.869 95.2412C239.068 94.6494 239.355 94.1367 239.73 93.7031C240.105 93.2637 240.56 92.9238 241.093 92.6836C241.626 92.4375 242.224 92.3145 242.886 92.3145C243.554 92.3145 244.154 92.4375 244.688 92.6836C245.227 92.9238 245.684 93.2637 246.059 93.7031C246.439 94.1367 246.729 94.6494 246.929 95.2412C247.128 95.8271 247.228 96.4629 247.228 97.1484V97.3506C247.228 98.0361 247.128 98.6719 246.929 99.2578C246.729 99.8438 246.439 100.356 246.059 100.796C245.684 101.229 245.229 101.569 244.696 101.815C244.169 102.056 243.571 102.176 242.903 102.176C242.235 102.176 241.635 102.056 241.102 101.815C240.568 101.569 240.111 101.229 239.73 100.796C239.355 100.356 239.068 99.8438 238.869 99.2578C238.67 98.6719 238.57 98.0361 238.57 97.3506ZM240.196 97.1484V97.3506C240.196 97.8252 240.252 98.2734 240.363 98.6953C240.475 99.1113 240.642 99.4805 240.864 99.8027C241.093 100.125 241.377 100.38 241.717 100.567C242.057 100.749 242.452 100.84 242.903 100.84C243.349 100.84 243.738 100.749 244.072 100.567C244.412 100.38 244.693 100.125 244.916 99.8027C245.139 99.4805 245.306 99.1113 245.417 98.6953C245.534 98.2734 245.593 97.8252 245.593 97.3506V97.1484C245.593 96.6797 245.534 96.2373 245.417 95.8213C245.306 95.3994 245.136 95.0273 244.907 94.7051C244.685 94.377 244.403 94.1191 244.063 93.9316C243.729 93.7441 243.337 93.6504 242.886 93.6504C242.44 93.6504 242.048 93.7441 241.708 93.9316C241.374 94.1191 241.093 94.377 240.864 94.7051C240.642 95.0273 240.475 95.3994 240.363 95.8213C240.252 96.2373 240.196 96.6797 240.196 97.1484ZM250.893 94.5205V102H249.267V92.4902H250.805L250.893 94.5205ZM250.506 96.8848L249.829 96.8584C249.835 96.208 249.932 95.6074 250.119 95.0566C250.307 94.5 250.57 94.0166 250.91 93.6064C251.25 93.1963 251.654 92.8799 252.123 92.6572C252.598 92.4287 253.122 92.3145 253.696 92.3145C254.165 92.3145 254.587 92.3789 254.962 92.5078C255.337 92.6309 255.656 92.8301 255.92 93.1055C256.189 93.3809 256.395 93.7383 256.535 94.1777C256.676 94.6113 256.746 95.1416 256.746 95.7686V102H255.111V95.751C255.111 95.2529 255.038 94.8545 254.892 94.5557C254.745 94.251 254.531 94.0312 254.25 93.8965C253.969 93.7559 253.623 93.6855 253.213 93.6855C252.809 93.6855 252.439 93.7705 252.105 93.9404C251.777 94.1104 251.493 94.3447 251.253 94.6436C251.019 94.9424 250.834 95.2852 250.699 95.6719C250.57 96.0527 250.506 96.457 250.506 96.8848ZM264.753 99.4775C264.753 99.2432 264.7 99.0264 264.595 98.8271C264.495 98.6221 264.287 98.4375 263.971 98.2734C263.66 98.1035 263.191 97.957 262.564 97.834C262.037 97.7227 261.56 97.5908 261.132 97.4385C260.71 97.2861 260.35 97.1016 260.051 96.8848C259.758 96.668 259.532 96.4131 259.374 96.1201C259.216 95.8271 259.137 95.4844 259.137 95.0918C259.137 94.7168 259.219 94.3623 259.383 94.0283C259.553 93.6943 259.79 93.3984 260.095 93.1406C260.405 92.8828 260.777 92.6807 261.211 92.5342C261.645 92.3877 262.128 92.3145 262.661 92.3145C263.423 92.3145 264.073 92.4492 264.612 92.7188C265.151 92.9883 265.564 93.3486 265.852 93.7998C266.139 94.2451 266.282 94.7402 266.282 95.2852H264.656C264.656 95.0215 264.577 94.7666 264.419 94.5205C264.267 94.2686 264.041 94.0605 263.742 93.8965C263.449 93.7324 263.089 93.6504 262.661 93.6504C262.21 93.6504 261.844 93.7207 261.562 93.8613C261.287 93.9961 261.085 94.1689 260.956 94.3799C260.833 94.5908 260.771 94.8135 260.771 95.0479C260.771 95.2236 260.801 95.3818 260.859 95.5225C260.924 95.6572 261.035 95.7832 261.193 95.9004C261.352 96.0117 261.574 96.1172 261.861 96.2168C262.148 96.3164 262.515 96.416 262.96 96.5156C263.739 96.6914 264.381 96.9023 264.885 97.1484C265.389 97.3945 265.764 97.6963 266.01 98.0537C266.256 98.4111 266.379 98.8447 266.379 99.3545C266.379 99.7705 266.291 100.151 266.115 100.497C265.945 100.843 265.696 101.142 265.368 101.394C265.046 101.64 264.659 101.833 264.208 101.974C263.763 102.108 263.262 102.176 262.705 102.176C261.867 102.176 261.158 102.026 260.578 101.728C259.998 101.429 259.559 101.042 259.26 100.567C258.961 100.093 258.812 99.5918 258.812 99.0645H260.446C260.47 99.5098 260.599 99.8643 260.833 100.128C261.067 100.386 261.354 100.57 261.694 100.682C262.034 100.787 262.371 100.84 262.705 100.84C263.15 100.84 263.522 100.781 263.821 100.664C264.126 100.547 264.357 100.386 264.516 100.181C264.674 99.9756 264.753 99.7412 264.753 99.4775ZM272.461 102.176C271.799 102.176 271.198 102.064 270.659 101.842C270.126 101.613 269.666 101.294 269.279 100.884C268.898 100.474 268.605 99.9873 268.4 99.4248C268.195 98.8623 268.093 98.2471 268.093 97.5791V97.21C268.093 96.4365 268.207 95.748 268.436 95.1445C268.664 94.5352 268.975 94.0195 269.367 93.5977C269.76 93.1758 270.205 92.8564 270.703 92.6396C271.201 92.4229 271.717 92.3145 272.25 92.3145C272.93 92.3145 273.516 92.4316 274.008 92.666C274.506 92.9004 274.913 93.2285 275.229 93.6504C275.546 94.0664 275.78 94.5586 275.933 95.127C276.085 95.6895 276.161 96.3047 276.161 96.9727V97.7021H269.06V96.375H274.535V96.252C274.512 95.8301 274.424 95.4199 274.271 95.0215C274.125 94.623 273.891 94.2949 273.568 94.0371C273.246 93.7793 272.807 93.6504 272.25 93.6504C271.881 93.6504 271.541 93.7295 271.23 93.8877C270.92 94.04 270.653 94.2686 270.431 94.5732C270.208 94.8779 270.035 95.25 269.912 95.6895C269.789 96.1289 269.728 96.6357 269.728 97.21V97.5791C269.728 98.0303 269.789 98.4551 269.912 98.8535C270.041 99.2461 270.226 99.5918 270.466 99.8906C270.712 100.189 271.008 100.424 271.354 100.594C271.705 100.764 272.104 100.849 272.549 100.849C273.123 100.849 273.609 100.731 274.008 100.497C274.406 100.263 274.755 99.9492 275.054 99.5566L276.038 100.339C275.833 100.649 275.572 100.945 275.256 101.227C274.939 101.508 274.55 101.736 274.087 101.912C273.63 102.088 273.088 102.176 272.461 102.176ZM281.865 100.84C282.252 100.84 282.609 100.761 282.938 100.603C283.266 100.444 283.535 100.228 283.746 99.9521C283.957 99.6709 284.077 99.3516 284.106 98.9941H285.653C285.624 99.5566 285.434 100.081 285.082 100.567C284.736 101.048 284.282 101.438 283.72 101.736C283.157 102.029 282.539 102.176 281.865 102.176C281.15 102.176 280.526 102.05 279.993 101.798C279.466 101.546 279.026 101.2 278.675 100.761C278.329 100.321 278.068 99.8174 277.893 99.249C277.723 98.6748 277.638 98.0684 277.638 97.4297V97.0605C277.638 96.4219 277.723 95.8184 277.893 95.25C278.068 94.6758 278.329 94.1689 278.675 93.7295C279.026 93.29 279.466 92.9443 279.993 92.6924C280.526 92.4404 281.15 92.3145 281.865 92.3145C282.609 92.3145 283.26 92.4668 283.816 92.7715C284.373 93.0703 284.81 93.4805 285.126 94.002C285.448 94.5176 285.624 95.1035 285.653 95.7598H284.106C284.077 95.3672 283.966 95.0127 283.772 94.6963C283.585 94.3799 283.327 94.1279 282.999 93.9404C282.677 93.7471 282.299 93.6504 281.865 93.6504C281.367 93.6504 280.948 93.75 280.608 93.9492C280.274 94.1426 280.008 94.4062 279.809 94.7402C279.615 95.0684 279.475 95.4346 279.387 95.8389C279.305 96.2373 279.264 96.6445 279.264 97.0605V97.4297C279.264 97.8457 279.305 98.2559 279.387 98.6602C279.469 99.0645 279.606 99.4307 279.8 99.7588C279.999 100.087 280.266 100.351 280.6 100.55C280.939 100.743 281.361 100.84 281.865 100.84ZM291.463 92.4902V93.7383H286.321V92.4902H291.463ZM288.062 90.1787H289.688V99.6445C289.688 99.9668 289.737 100.21 289.837 100.374C289.937 100.538 290.065 100.646 290.224 100.699C290.382 100.752 290.552 100.778 290.733 100.778C290.868 100.778 291.009 100.767 291.155 100.743C291.308 100.714 291.422 100.69 291.498 100.673L291.507 102C291.378 102.041 291.208 102.079 290.997 102.114C290.792 102.155 290.543 102.176 290.25 102.176C289.852 102.176 289.485 102.097 289.151 101.938C288.817 101.78 288.551 101.517 288.352 101.147C288.158 100.772 288.062 100.269 288.062 99.6357V90.1787ZM297.316 102.176C296.654 102.176 296.054 102.064 295.515 101.842C294.981 101.613 294.521 101.294 294.135 100.884C293.754 100.474 293.461 99.9873 293.256 99.4248C293.051 98.8623 292.948 98.2471 292.948 97.5791V97.21C292.948 96.4365 293.062 95.748 293.291 95.1445C293.52 94.5352 293.83 94.0195 294.223 93.5977C294.615 93.1758 295.061 92.8564 295.559 92.6396C296.057 92.4229 296.572 92.3145 297.105 92.3145C297.785 92.3145 298.371 92.4316 298.863 92.666C299.361 92.9004 299.769 93.2285 300.085 93.6504C300.401 94.0664 300.636 94.5586 300.788 95.127C300.94 95.6895 301.017 96.3047 301.017 96.9727V97.7021H293.915V96.375H299.391V96.252C299.367 95.8301 299.279 95.4199 299.127 95.0215C298.98 94.623 298.746 94.2949 298.424 94.0371C298.102 93.7793 297.662 93.6504 297.105 93.6504C296.736 93.6504 296.396 93.7295 296.086 93.8877C295.775 94.04 295.509 94.2686 295.286 94.5732C295.063 94.8779 294.891 95.25 294.768 95.6895C294.645 96.1289 294.583 96.6357 294.583 97.21V97.5791C294.583 98.0303 294.645 98.4551 294.768 98.8535C294.896 99.2461 295.081 99.5918 295.321 99.8906C295.567 100.189 295.863 100.424 296.209 100.594C296.561 100.764 296.959 100.849 297.404 100.849C297.979 100.849 298.465 100.731 298.863 100.497C299.262 100.263 299.61 99.9492 299.909 99.5566L300.894 100.339C300.688 100.649 300.428 100.945 300.111 101.227C299.795 101.508 299.405 101.736 298.942 101.912C298.485 102.088 297.943 102.176 297.316 102.176ZM306.896 92.4902V93.7383H301.755V92.4902H306.896ZM303.495 90.1787H305.121V99.6445C305.121 99.9668 305.171 100.21 305.271 100.374C305.37 100.538 305.499 100.646 305.657 100.699C305.815 100.752 305.985 100.778 306.167 100.778C306.302 100.778 306.442 100.767 306.589 100.743C306.741 100.714 306.855 100.69 306.932 100.673L306.94 102C306.812 102.041 306.642 102.079 306.431 102.114C306.226 102.155 305.977 102.176 305.684 102.176C305.285 102.176 304.919 102.097 304.585 101.938C304.251 101.78 303.984 101.517 303.785 101.147C303.592 100.772 303.495 100.269 303.495 99.6357V90.1787ZM314.622 99.8027V92.4902H316.257V102H314.701L314.622 99.8027ZM314.93 97.7988L315.606 97.7812C315.606 98.4141 315.539 99 315.404 99.5391C315.275 100.072 315.064 100.535 314.771 100.928C314.479 101.32 314.095 101.628 313.62 101.851C313.146 102.067 312.568 102.176 311.889 102.176C311.426 102.176 311.001 102.108 310.614 101.974C310.233 101.839 309.905 101.631 309.63 101.35C309.354 101.068 309.141 100.702 308.988 100.251C308.842 99.7998 308.769 99.2578 308.769 98.625V92.4902H310.395V98.6426C310.395 99.0703 310.441 99.4248 310.535 99.7061C310.635 99.9814 310.767 100.201 310.931 100.365C311.101 100.523 311.288 100.635 311.493 100.699C311.704 100.764 311.921 100.796 312.144 100.796C312.835 100.796 313.383 100.664 313.787 100.4C314.191 100.131 314.481 99.7705 314.657 99.3193C314.839 98.8623 314.93 98.3555 314.93 97.7988ZM320.361 93.9844V102H318.735V92.4902H320.317L320.361 93.9844ZM323.332 92.4375L323.323 93.9492C323.188 93.9199 323.06 93.9023 322.937 93.8965C322.819 93.8848 322.685 93.8789 322.532 93.8789C322.157 93.8789 321.826 93.9375 321.539 94.0547C321.252 94.1719 321.009 94.3359 320.81 94.5469C320.61 94.7578 320.452 95.0098 320.335 95.3027C320.224 95.5898 320.15 95.9062 320.115 96.252L319.658 96.5156C319.658 95.9414 319.714 95.4023 319.825 94.8984C319.942 94.3945 320.121 93.9492 320.361 93.5625C320.602 93.1699 320.906 92.8652 321.275 92.6484C321.65 92.4258 322.096 92.3145 322.611 92.3145C322.729 92.3145 322.863 92.3291 323.016 92.3584C323.168 92.3818 323.273 92.4082 323.332 92.4375ZM334.907 100.374V95.4785C334.907 95.1035 334.831 94.7783 334.679 94.5029C334.532 94.2217 334.31 94.0049 334.011 93.8525C333.712 93.7002 333.343 93.624 332.903 93.624C332.493 93.624 332.133 93.6943 331.822 93.835C331.518 93.9756 331.277 94.1602 331.102 94.3887C330.932 94.6172 330.847 94.8633 330.847 95.127H329.221C329.221 94.7871 329.309 94.4502 329.484 94.1162C329.66 93.7822 329.912 93.4805 330.24 93.2109C330.574 92.9355 330.973 92.7188 331.436 92.5605C331.904 92.3965 332.426 92.3145 333 92.3145C333.691 92.3145 334.301 92.4316 334.828 92.666C335.361 92.9004 335.777 93.2549 336.076 93.7295C336.381 94.1982 336.533 94.7871 336.533 95.4961V99.9258C336.533 100.242 336.56 100.579 336.612 100.937C336.671 101.294 336.756 101.602 336.867 101.859V102H335.171C335.089 101.812 335.024 101.563 334.978 101.253C334.931 100.937 334.907 100.644 334.907 100.374ZM335.188 96.2344L335.206 97.377H333.562C333.1 97.377 332.687 97.415 332.323 97.4912C331.96 97.5615 331.655 97.6699 331.409 97.8164C331.163 97.9629 330.976 98.1475 330.847 98.3701C330.718 98.5869 330.653 98.8418 330.653 99.1348C330.653 99.4336 330.721 99.7061 330.855 99.9521C330.99 100.198 331.192 100.395 331.462 100.541C331.737 100.682 332.074 100.752 332.473 100.752C332.971 100.752 333.41 100.646 333.791 100.436C334.172 100.225 334.474 99.9668 334.696 99.6621C334.925 99.3574 335.048 99.0615 335.065 98.7744L335.76 99.5566C335.719 99.8027 335.607 100.075 335.426 100.374C335.244 100.673 335.001 100.96 334.696 101.235C334.397 101.505 334.04 101.73 333.624 101.912C333.214 102.088 332.751 102.176 332.235 102.176C331.591 102.176 331.025 102.05 330.539 101.798C330.059 101.546 329.684 101.209 329.414 100.787C329.15 100.359 329.019 99.8818 329.019 99.3545C329.019 98.8447 329.118 98.3965 329.317 98.0098C329.517 97.6172 329.804 97.292 330.179 97.0342C330.554 96.7705 331.005 96.5713 331.532 96.4365C332.06 96.3018 332.648 96.2344 333.299 96.2344H335.188ZM345.085 100.154V88.5H346.72V102H345.226L345.085 100.154ZM338.687 97.3506V97.166C338.687 96.4395 338.774 95.7803 338.95 95.1885C339.132 94.5908 339.387 94.0781 339.715 93.6504C340.049 93.2227 340.444 92.8945 340.901 92.666C341.364 92.4316 341.88 92.3145 342.448 92.3145C343.046 92.3145 343.567 92.4199 344.013 92.6309C344.464 92.8359 344.845 93.1377 345.155 93.5361C345.472 93.9287 345.721 94.4033 345.902 94.96C346.084 95.5166 346.21 96.1465 346.28 96.8496V97.6582C346.216 98.3555 346.09 98.9824 345.902 99.5391C345.721 100.096 345.472 100.57 345.155 100.963C344.845 101.355 344.464 101.657 344.013 101.868C343.562 102.073 343.034 102.176 342.431 102.176C341.874 102.176 341.364 102.056 340.901 101.815C340.444 101.575 340.049 101.238 339.715 100.805C339.387 100.371 339.132 99.8613 338.95 99.2754C338.774 98.6836 338.687 98.042 338.687 97.3506ZM340.321 97.166V97.3506C340.321 97.8252 340.368 98.2705 340.462 98.6865C340.562 99.1025 340.714 99.4688 340.919 99.7852C341.124 100.102 341.385 100.351 341.701 100.532C342.018 100.708 342.396 100.796 342.835 100.796C343.374 100.796 343.816 100.682 344.162 100.453C344.514 100.225 344.795 99.9229 345.006 99.5479C345.217 99.1729 345.381 98.7656 345.498 98.3262V96.208C345.428 95.8857 345.325 95.5752 345.19 95.2764C345.062 94.9717 344.892 94.7021 344.681 94.4678C344.476 94.2275 344.221 94.0371 343.916 93.8965C343.617 93.7559 343.263 93.6855 342.853 93.6855C342.407 93.6855 342.023 93.7793 341.701 93.9668C341.385 94.1484 341.124 94.4004 340.919 94.7227C340.714 95.0391 340.562 95.4082 340.462 95.8301C340.368 96.2461 340.321 96.6914 340.321 97.166ZM351.018 92.4902V102H349.383V92.4902H351.018ZM349.26 89.9678C349.26 89.7041 349.339 89.4814 349.497 89.2998C349.661 89.1182 349.901 89.0273 350.218 89.0273C350.528 89.0273 350.766 89.1182 350.93 89.2998C351.1 89.4814 351.185 89.7041 351.185 89.9678C351.185 90.2197 351.1 90.4365 350.93 90.6182C350.766 90.7939 350.528 90.8818 350.218 90.8818C349.901 90.8818 349.661 90.7939 349.497 90.6182C349.339 90.4365 349.26 90.2197 349.26 89.9678ZM355.254 94.3184V105.656H353.619V92.4902H355.113L355.254 94.3184ZM361.661 97.166V97.3506C361.661 98.042 361.579 98.6836 361.415 99.2754C361.251 99.8613 361.011 100.371 360.694 100.805C360.384 101.238 360 101.575 359.543 101.815C359.086 102.056 358.562 102.176 357.97 102.176C357.366 102.176 356.833 102.076 356.37 101.877C355.907 101.678 355.515 101.388 355.192 101.007C354.87 100.626 354.612 100.169 354.419 99.6357C354.231 99.1025 354.103 98.502 354.032 97.834V96.8496C354.103 96.1465 354.234 95.5166 354.428 94.96C354.621 94.4033 354.876 93.9287 355.192 93.5361C355.515 93.1377 355.904 92.8359 356.361 92.6309C356.818 92.4199 357.346 92.3145 357.943 92.3145C358.541 92.3145 359.071 92.4316 359.534 92.666C359.997 92.8945 360.387 93.2227 360.703 93.6504C361.02 94.0781 361.257 94.5908 361.415 95.1885C361.579 95.7803 361.661 96.4395 361.661 97.166ZM360.026 97.3506V97.166C360.026 96.6914 359.977 96.2461 359.877 95.8301C359.777 95.4082 359.622 95.0391 359.411 94.7227C359.206 94.4004 358.942 94.1484 358.62 93.9668C358.298 93.7793 357.914 93.6855 357.469 93.6855C357.059 93.6855 356.701 93.7559 356.396 93.8965C356.098 94.0371 355.843 94.2275 355.632 94.4678C355.421 94.7021 355.248 94.9717 355.113 95.2764C354.984 95.5752 354.888 95.8857 354.823 96.208V98.4844C354.94 98.8945 355.104 99.2812 355.315 99.6445C355.526 100.002 355.808 100.292 356.159 100.515C356.511 100.731 356.953 100.84 357.486 100.84C357.926 100.84 358.304 100.749 358.62 100.567C358.942 100.38 359.206 100.125 359.411 99.8027C359.622 99.4805 359.777 99.1113 359.877 98.6953C359.977 98.2734 360.026 97.8252 360.026 97.3506ZM365.502 92.4902V102H363.867V92.4902H365.502ZM363.744 89.9678C363.744 89.7041 363.823 89.4814 363.981 89.2998C364.146 89.1182 364.386 89.0273 364.702 89.0273C365.013 89.0273 365.25 89.1182 365.414 89.2998C365.584 89.4814 365.669 89.7041 365.669 89.9678C365.669 90.2197 365.584 90.4365 365.414 90.6182C365.25 90.7939 365.013 90.8818 364.702 90.8818C364.386 90.8818 364.146 90.7939 363.981 90.6182C363.823 90.4365 363.744 90.2197 363.744 89.9678ZM373.649 99.4775C373.649 99.2432 373.597 99.0264 373.491 98.8271C373.392 98.6221 373.184 98.4375 372.867 98.2734C372.557 98.1035 372.088 97.957 371.461 97.834C370.934 97.7227 370.456 97.5908 370.028 97.4385C369.606 97.2861 369.246 97.1016 368.947 96.8848C368.654 96.668 368.429 96.4131 368.271 96.1201C368.112 95.8271 368.033 95.4844 368.033 95.0918C368.033 94.7168 368.115 94.3623 368.279 94.0283C368.449 93.6943 368.687 93.3984 368.991 93.1406C369.302 92.8828 369.674 92.6807 370.107 92.5342C370.541 92.3877 371.024 92.3145 371.558 92.3145C372.319 92.3145 372.97 92.4492 373.509 92.7188C374.048 92.9883 374.461 93.3486 374.748 93.7998C375.035 94.2451 375.179 94.7402 375.179 95.2852H373.553C373.553 95.0215 373.474 94.7666 373.315 94.5205C373.163 94.2686 372.938 94.0605 372.639 93.8965C372.346 93.7324 371.985 93.6504 371.558 93.6504C371.106 93.6504 370.74 93.7207 370.459 93.8613C370.184 93.9961 369.981 94.1689 369.853 94.3799C369.729 94.5908 369.668 94.8135 369.668 95.0479C369.668 95.2236 369.697 95.3818 369.756 95.5225C369.82 95.6572 369.932 95.7832 370.09 95.9004C370.248 96.0117 370.471 96.1172 370.758 96.2168C371.045 96.3164 371.411 96.416 371.856 96.5156C372.636 96.6914 373.277 96.9023 373.781 97.1484C374.285 97.3945 374.66 97.6963 374.906 98.0537C375.152 98.4111 375.275 98.8447 375.275 99.3545C375.275 99.7705 375.188 100.151 375.012 100.497C374.842 100.843 374.593 101.142 374.265 101.394C373.942 101.64 373.556 101.833 373.104 101.974C372.659 102.108 372.158 102.176 371.602 102.176C370.764 102.176 370.055 102.026 369.475 101.728C368.895 101.429 368.455 101.042 368.156 100.567C367.857 100.093 367.708 99.5918 367.708 99.0645H369.343C369.366 99.5098 369.495 99.8643 369.729 100.128C369.964 100.386 370.251 100.57 370.591 100.682C370.931 100.787 371.268 100.84 371.602 100.84C372.047 100.84 372.419 100.781 372.718 100.664C373.022 100.547 373.254 100.386 373.412 100.181C373.57 99.9756 373.649 99.7412 373.649 99.4775ZM381.217 100.84C381.604 100.84 381.961 100.761 382.289 100.603C382.617 100.444 382.887 100.228 383.098 99.9521C383.309 99.6709 383.429 99.3516 383.458 98.9941H385.005C384.976 99.5566 384.785 100.081 384.434 100.567C384.088 101.048 383.634 101.438 383.071 101.736C382.509 102.029 381.891 102.176 381.217 102.176C380.502 102.176 379.878 102.05 379.345 101.798C378.817 101.546 378.378 101.2 378.026 100.761C377.681 100.321 377.42 99.8174 377.244 99.249C377.074 98.6748 376.989 98.0684 376.989 97.4297V97.0605C376.989 96.4219 377.074 95.8184 377.244 95.25C377.42 94.6758 377.681 94.1689 378.026 93.7295C378.378 93.29 378.817 92.9443 379.345 92.6924C379.878 92.4404 380.502 92.3145 381.217 92.3145C381.961 92.3145 382.611 92.4668 383.168 92.7715C383.725 93.0703 384.161 93.4805 384.478 94.002C384.8 94.5176 384.976 95.1035 385.005 95.7598H383.458C383.429 95.3672 383.317 95.0127 383.124 94.6963C382.937 94.3799 382.679 94.1279 382.351 93.9404C382.028 93.7471 381.65 93.6504 381.217 93.6504C380.719 93.6504 380.3 93.75 379.96 93.9492C379.626 94.1426 379.359 94.4062 379.16 94.7402C378.967 95.0684 378.826 95.4346 378.738 95.8389C378.656 96.2373 378.615 96.6445 378.615 97.0605V97.4297C378.615 97.8457 378.656 98.2559 378.738 98.6602C378.82 99.0645 378.958 99.4307 379.151 99.7588C379.351 100.087 379.617 100.351 379.951 100.55C380.291 100.743 380.713 100.84 381.217 100.84ZM388.6 92.4902V102H386.965V92.4902H388.6ZM386.842 89.9678C386.842 89.7041 386.921 89.4814 387.079 89.2998C387.243 89.1182 387.483 89.0273 387.8 89.0273C388.11 89.0273 388.348 89.1182 388.512 89.2998C388.682 89.4814 388.767 89.7041 388.767 89.9678C388.767 90.2197 388.682 90.4365 388.512 90.6182C388.348 90.7939 388.11 90.8818 387.8 90.8818C387.483 90.8818 387.243 90.7939 387.079 90.6182C386.921 90.4365 386.842 90.2197 386.842 89.9678ZM392.836 94.5205V102H391.21V92.4902H392.748L392.836 94.5205ZM392.449 96.8848L391.772 96.8584C391.778 96.208 391.875 95.6074 392.062 95.0566C392.25 94.5 392.514 94.0166 392.854 93.6064C393.193 93.1963 393.598 92.8799 394.066 92.6572C394.541 92.4287 395.065 92.3145 395.64 92.3145C396.108 92.3145 396.53 92.3789 396.905 92.5078C397.28 92.6309 397.6 92.8301 397.863 93.1055C398.133 93.3809 398.338 93.7383 398.479 94.1777C398.619 94.6113 398.689 95.1416 398.689 95.7686V102H397.055V95.751C397.055 95.2529 396.981 94.8545 396.835 94.5557C396.688 94.251 396.475 94.0312 396.193 93.8965C395.912 93.7559 395.566 93.6855 395.156 93.6855C394.752 93.6855 394.383 93.7705 394.049 93.9404C393.721 94.1104 393.437 94.3447 393.196 94.6436C392.962 94.9424 392.777 95.2852 392.643 95.6719C392.514 96.0527 392.449 96.457 392.449 96.8848ZM407.32 92.4902H408.797V101.798C408.797 102.636 408.627 103.351 408.287 103.942C407.947 104.534 407.473 104.982 406.863 105.287C406.26 105.598 405.562 105.753 404.771 105.753C404.443 105.753 404.057 105.7 403.611 105.595C403.172 105.495 402.738 105.322 402.311 105.076C401.889 104.836 401.534 104.511 401.247 104.101L402.1 103.134C402.498 103.614 402.914 103.948 403.348 104.136C403.787 104.323 404.221 104.417 404.648 104.417C405.164 104.417 405.609 104.32 405.984 104.127C406.359 103.934 406.649 103.646 406.854 103.266C407.065 102.891 407.171 102.428 407.171 101.877V94.582L407.32 92.4902ZM400.772 97.3506V97.166C400.772 96.4395 400.857 95.7803 401.027 95.1885C401.203 94.5908 401.452 94.0781 401.774 93.6504C402.103 93.2227 402.498 92.8945 402.961 92.666C403.424 92.4316 403.945 92.3145 404.525 92.3145C405.123 92.3145 405.645 92.4199 406.09 92.6309C406.541 92.8359 406.922 93.1377 407.232 93.5361C407.549 93.9287 407.798 94.4033 407.979 94.96C408.161 95.5166 408.287 96.1465 408.357 96.8496V97.6582C408.293 98.3555 408.167 98.9824 407.979 99.5391C407.798 100.096 407.549 100.57 407.232 100.963C406.922 101.355 406.541 101.657 406.09 101.868C405.639 102.073 405.111 102.176 404.508 102.176C403.939 102.176 403.424 102.056 402.961 101.815C402.504 101.575 402.111 101.238 401.783 100.805C401.455 100.371 401.203 99.8613 401.027 99.2754C400.857 98.6836 400.772 98.042 400.772 97.3506ZM402.398 97.166V97.3506C402.398 97.8252 402.445 98.2705 402.539 98.6865C402.639 99.1025 402.788 99.4688 402.987 99.7852C403.192 100.102 403.453 100.351 403.77 100.532C404.086 100.708 404.464 100.796 404.903 100.796C405.442 100.796 405.888 100.682 406.239 100.453C406.591 100.225 406.869 99.9229 407.074 99.5479C407.285 99.1729 407.449 98.7656 407.566 98.3262V96.208C407.502 95.8857 407.402 95.5752 407.268 95.2764C407.139 94.9717 406.969 94.7021 406.758 94.4678C406.553 94.2275 406.298 94.0371 405.993 93.8965C405.688 93.7559 405.331 93.6855 404.921 93.6855C404.476 93.6855 404.092 93.7793 403.77 93.9668C403.453 94.1484 403.192 94.4004 402.987 94.7227C402.788 95.0391 402.639 95.4082 402.539 95.8301C402.445 96.2461 402.398 96.6914 402.398 97.166ZM419.678 102.176C419.016 102.176 418.415 102.064 417.876 101.842C417.343 101.613 416.883 101.294 416.496 100.884C416.115 100.474 415.822 99.9873 415.617 99.4248C415.412 98.8623 415.31 98.2471 415.31 97.5791V97.21C415.31 96.4365 415.424 95.748 415.652 95.1445C415.881 94.5352 416.191 94.0195 416.584 93.5977C416.977 93.1758 417.422 92.8564 417.92 92.6396C418.418 92.4229 418.934 92.3145 419.467 92.3145C420.146 92.3145 420.732 92.4316 421.225 92.666C421.723 92.9004 422.13 93.2285 422.446 93.6504C422.763 94.0664 422.997 94.5586 423.149 95.127C423.302 95.6895 423.378 96.3047 423.378 96.9727V97.7021H416.276V96.375H421.752V96.252C421.729 95.8301 421.641 95.4199 421.488 95.0215C421.342 94.623 421.107 94.2949 420.785 94.0371C420.463 93.7793 420.023 93.6504 419.467 93.6504C419.098 93.6504 418.758 93.7295 418.447 93.8877C418.137 94.04 417.87 94.2686 417.647 94.5732C417.425 94.8779 417.252 95.25 417.129 95.6895C417.006 96.1289 416.944 96.6357 416.944 97.21V97.5791C416.944 98.0303 417.006 98.4551 417.129 98.8535C417.258 99.2461 417.442 99.5918 417.683 99.8906C417.929 100.189 418.225 100.424 418.57 100.594C418.922 100.764 419.32 100.849 419.766 100.849C420.34 100.849 420.826 100.731 421.225 100.497C421.623 100.263 421.972 99.9492 422.271 99.5566L423.255 100.339C423.05 100.649 422.789 100.945 422.473 101.227C422.156 101.508 421.767 101.736 421.304 101.912C420.847 102.088 420.305 102.176 419.678 102.176ZM427.043 88.5V102H425.408V88.5H427.043ZM431.42 92.4902V102H429.785V92.4902H431.42ZM429.662 89.9678C429.662 89.7041 429.741 89.4814 429.899 89.2998C430.063 89.1182 430.304 89.0273 430.62 89.0273C430.931 89.0273 431.168 89.1182 431.332 89.2998C431.502 89.4814 431.587 89.7041 431.587 89.9678C431.587 90.2197 431.502 90.4365 431.332 90.6182C431.168 90.7939 430.931 90.8818 430.62 90.8818C430.304 90.8818 430.063 90.7939 429.899 90.6182C429.741 90.4365 429.662 90.2197 429.662 89.9678ZM438.012 92.4902V93.7383H432.87V92.4902H438.012ZM434.61 90.1787H436.236V99.6445C436.236 99.9668 436.286 100.21 436.386 100.374C436.485 100.538 436.614 100.646 436.772 100.699C436.931 100.752 437.101 100.778 437.282 100.778C437.417 100.778 437.558 100.767 437.704 100.743C437.856 100.714 437.971 100.69 438.047 100.673L438.056 102C437.927 102.041 437.757 102.079 437.546 102.114C437.341 102.155 437.092 102.176 436.799 102.176C436.4 102.176 436.034 102.097 435.7 101.938C435.366 101.78 435.1 101.517 434.9 101.147C434.707 100.772 434.61 100.269 434.61 99.6357V90.1787ZM439.945 101.139C439.945 100.863 440.03 100.632 440.2 100.444C440.376 100.251 440.628 100.154 440.956 100.154C441.284 100.154 441.533 100.251 441.703 100.444C441.879 100.632 441.967 100.863 441.967 101.139C441.967 101.408 441.879 101.637 441.703 101.824C441.533 102.012 441.284 102.105 440.956 102.105C440.628 102.105 440.376 102.012 440.2 101.824C440.03 101.637 439.945 101.408 439.945 101.139Z" fill="black"/>
</svg>
