<svg width="768" height="109" viewBox="0 0 768 109" fill="none" xmlns="http://www.w3.org/2000/svg">
<path d="M315.586 27.1406V28.7578C315.586 31.3516 315.234 33.6797 314.531 35.7422C313.828 37.8047 312.836 39.5625 311.555 41.0156C310.273 42.4531 308.742 43.5547 306.961 44.3203C305.195 45.0859 303.234 45.4688 301.078 45.4688C298.938 45.4688 296.977 45.0859 295.195 44.3203C293.43 43.5547 291.898 42.4531 290.602 41.0156C289.305 39.5625 288.297 37.8047 287.578 35.7422C286.875 33.6797 286.523 31.3516 286.523 28.7578V27.1406C286.523 24.5312 286.875 22.2031 287.578 20.1562C288.281 18.0938 289.273 16.3359 290.555 14.8828C291.852 13.4297 293.383 12.3203 295.148 11.5547C296.93 10.7891 298.891 10.4062 301.031 10.4062C303.188 10.4062 305.148 10.7891 306.914 11.5547C308.695 12.3203 310.227 13.4297 311.508 14.8828C312.805 16.3359 313.805 18.0938 314.508 20.1562C315.227 22.2031 315.586 24.5312 315.586 27.1406ZM308.484 28.7578V27.0938C308.484 25.2812 308.32 23.6875 307.992 22.3125C307.664 20.9375 307.18 19.7812 306.539 18.8438C305.898 17.9062 305.117 17.2031 304.195 16.7344C303.273 16.25 302.219 16.0078 301.031 16.0078C299.844 16.0078 298.789 16.25 297.867 16.7344C296.961 17.2031 296.188 17.9062 295.547 18.8438C294.922 19.7812 294.445 20.9375 294.117 22.3125C293.789 23.6875 293.625 25.2812 293.625 27.0938V28.7578C293.625 30.5547 293.789 32.1484 294.117 33.5391C294.445 34.9141 294.93 36.0781 295.57 37.0312C296.211 37.9688 296.992 38.6797 297.914 39.1641C298.836 39.6484 299.891 39.8906 301.078 39.8906C302.266 39.8906 303.32 39.6484 304.242 39.1641C305.164 38.6797 305.938 37.9688 306.562 37.0312C307.188 36.0781 307.664 34.9141 307.992 33.5391C308.32 32.1484 308.484 30.5547 308.484 28.7578ZM335.227 38.9297V19.6406H341.977V45H335.625L335.227 38.9297ZM335.977 33.7266L337.969 33.6797C337.969 35.3672 337.773 36.9375 337.383 38.3906C336.992 39.8281 336.406 41.0781 335.625 42.1406C334.844 43.1875 333.859 44.0078 332.672 44.6016C331.484 45.1797 330.086 45.4688 328.477 45.4688C327.242 45.4688 326.102 45.2969 325.055 44.9531C324.023 44.5938 323.133 44.0391 322.383 43.2891C321.648 42.5234 321.07 41.5469 320.648 40.3594C320.242 39.1562 320.039 37.7109 320.039 36.0234V19.6406H326.789V36.0703C326.789 36.8203 326.875 37.4531 327.047 37.9688C327.234 38.4844 327.492 38.9062 327.82 39.2344C328.148 39.5625 328.531 39.7969 328.969 39.9375C329.422 40.0781 329.922 40.1484 330.469 40.1484C331.859 40.1484 332.953 39.8672 333.75 39.3047C334.562 38.7422 335.133 37.9766 335.461 37.0078C335.805 36.0234 335.977 34.9297 335.977 33.7266ZM353.883 25.1719V45H347.133V19.6406H353.484L353.883 25.1719ZM361.523 19.4766L361.406 25.7344C361.078 25.6875 360.68 25.6484 360.211 25.6172C359.758 25.5703 359.344 25.5469 358.969 25.5469C358.016 25.5469 357.188 25.6719 356.484 25.9219C355.797 26.1562 355.219 26.5078 354.75 26.9766C354.297 27.4453 353.953 28.0156 353.719 28.6875C353.5 29.3594 353.375 30.125 353.344 30.9844L351.984 30.5625C351.984 28.9219 352.148 27.4141 352.477 26.0391C352.805 24.6484 353.281 23.4375 353.906 22.4062C354.547 21.375 355.328 20.5781 356.25 20.0156C357.172 19.4531 358.227 19.1719 359.414 19.1719C359.789 19.1719 360.172 19.2031 360.562 19.2656C360.953 19.3125 361.273 19.3828 361.523 19.4766ZM389.086 19.6406V24.4219H374.32V19.6406H389.086ZM377.977 13.3828H384.727V37.3594C384.727 38.0938 384.82 38.6562 385.008 39.0469C385.211 39.4375 385.508 39.7109 385.898 39.8672C386.289 40.0078 386.781 40.0781 387.375 40.0781C387.797 40.0781 388.172 40.0625 388.5 40.0312C388.844 39.9844 389.133 39.9375 389.367 39.8906L389.391 44.8594C388.812 45.0469 388.188 45.1953 387.516 45.3047C386.844 45.4141 386.102 45.4688 385.289 45.4688C383.805 45.4688 382.508 45.2266 381.398 44.7422C380.305 44.2422 379.461 43.4453 378.867 42.3516C378.273 41.2578 377.977 39.8203 377.977 38.0391V13.3828ZM404.602 45.4688C402.633 45.4688 400.867 45.1562 399.305 44.5312C397.742 43.8906 396.414 43.0078 395.32 41.8828C394.242 40.7578 393.414 39.4531 392.836 37.9688C392.258 36.4688 391.969 34.875 391.969 33.1875V32.25C391.969 30.3281 392.242 28.5703 392.789 26.9766C393.336 25.3828 394.117 24 395.133 22.8281C396.164 21.6562 397.414 20.7578 398.883 20.1328C400.352 19.4922 402.008 19.1719 403.852 19.1719C405.648 19.1719 407.242 19.4688 408.633 20.0625C410.023 20.6562 411.188 21.5 412.125 22.5938C413.078 23.6875 413.797 25 414.281 26.5312C414.766 28.0469 415.008 29.7344 415.008 31.5938V34.4062H394.852V29.9062H408.375V29.3906C408.375 28.4531 408.203 27.6172 407.859 26.8828C407.531 26.1328 407.031 25.5391 406.359 25.1016C405.688 24.6641 404.828 24.4453 403.781 24.4453C402.891 24.4453 402.125 24.6406 401.484 25.0312C400.844 25.4219 400.32 25.9688 399.914 26.6719C399.523 27.375 399.227 28.2031 399.023 29.1562C398.836 30.0938 398.742 31.125 398.742 32.25V33.1875C398.742 34.2031 398.883 35.1406 399.164 36C399.461 36.8594 399.875 37.6016 400.406 38.2266C400.953 38.8516 401.609 39.3359 402.375 39.6797C403.156 40.0234 404.039 40.1953 405.023 40.1953C406.242 40.1953 407.375 39.9609 408.422 39.4922C409.484 39.0078 410.398 38.2812 411.164 37.3125L414.445 40.875C413.914 41.6406 413.188 42.375 412.266 43.0781C411.359 43.7812 410.266 44.3594 408.984 44.8125C407.703 45.25 406.242 45.4688 404.602 45.4688ZM432.539 39.2812V27.9844C432.539 27.1719 432.406 26.4766 432.141 25.8984C431.875 25.3047 431.461 24.8438 430.898 24.5156C430.352 24.1875 429.641 24.0234 428.766 24.0234C428.016 24.0234 427.367 24.1562 426.82 24.4219C426.273 24.6719 425.852 25.0391 425.555 25.5234C425.258 25.9922 425.109 26.5469 425.109 27.1875H418.359C418.359 26.1094 418.609 25.0859 419.109 24.1172C419.609 23.1484 420.336 22.2969 421.289 21.5625C422.242 20.8125 423.375 20.2266 424.688 19.8047C426.016 19.3828 427.5 19.1719 429.141 19.1719C431.109 19.1719 432.859 19.5 434.391 20.1562C435.922 20.8125 437.125 21.7969 438 23.1094C438.891 24.4219 439.336 26.0625 439.336 28.0312V38.8828C439.336 40.2734 439.422 41.4141 439.594 42.3047C439.766 43.1797 440.016 43.9453 440.344 44.6016V45H433.523C433.195 44.3125 432.945 43.4531 432.773 42.4219C432.617 41.375 432.539 40.3281 432.539 39.2812ZM433.43 29.5547L433.477 33.375H429.703C428.812 33.375 428.039 33.4766 427.383 33.6797C426.727 33.8828 426.188 34.1719 425.766 34.5469C425.344 34.9062 425.031 35.3281 424.828 35.8125C424.641 36.2969 424.547 36.8281 424.547 37.4062C424.547 37.9844 424.68 38.5078 424.945 38.9766C425.211 39.4297 425.594 39.7891 426.094 40.0547C426.594 40.3047 427.18 40.4297 427.852 40.4297C428.867 40.4297 429.75 40.2266 430.5 39.8203C431.25 39.4141 431.828 38.9141 432.234 38.3203C432.656 37.7266 432.875 37.1641 432.891 36.6328L434.672 39.4922C434.422 40.1328 434.078 40.7969 433.641 41.4844C433.219 42.1719 432.68 42.8203 432.023 43.4297C431.367 44.0234 430.578 44.5156 429.656 44.9062C428.734 45.2812 427.641 45.4688 426.375 45.4688C424.766 45.4688 423.305 45.1484 421.992 44.5078C420.695 43.8516 419.664 42.9531 418.898 41.8125C418.148 40.6562 417.773 39.3438 417.773 37.875C417.773 36.5469 418.023 35.3672 418.523 34.3359C419.023 33.3047 419.758 32.4375 420.727 31.7344C421.711 31.0156 422.938 30.4766 424.406 30.1172C425.875 29.7422 427.578 29.5547 429.516 29.5547H433.43ZM451.289 24.8906V45H444.516V19.6406H450.867L451.289 24.8906ZM450.352 31.4297H448.477C448.477 29.6641 448.688 28.0391 449.109 26.5547C449.547 25.0547 450.18 23.7578 451.008 22.6641C451.852 21.5547 452.891 20.6953 454.125 20.0859C455.359 19.4766 456.789 19.1719 458.414 19.1719C459.539 19.1719 460.57 19.3438 461.508 19.6875C462.445 20.0156 463.25 20.5391 463.922 21.2578C464.609 21.9609 465.141 22.8828 465.516 24.0234C465.891 25.1484 466.078 26.5 466.078 28.0781V45H459.328V28.8281C459.328 27.6719 459.172 26.7812 458.859 26.1562C458.547 25.5312 458.102 25.0938 457.523 24.8438C456.961 24.5938 456.281 24.4688 455.484 24.4688C454.609 24.4688 453.844 24.6484 453.188 25.0078C452.547 25.3672 452.016 25.8672 451.594 26.5078C451.172 27.1328 450.859 27.8672 450.656 28.7109C450.453 29.5547 450.352 30.4609 450.352 31.4297ZM465.445 30.6562L463.031 30.9609C463.031 29.3047 463.234 27.7656 463.641 26.3438C464.062 24.9219 464.68 23.6719 465.492 22.5938C466.32 21.5156 467.344 20.6797 468.562 20.0859C469.781 19.4766 471.188 19.1719 472.781 19.1719C474 19.1719 475.109 19.3516 476.109 19.7109C477.109 20.0547 477.961 20.6094 478.664 21.375C479.383 22.125 479.93 23.1094 480.305 24.3281C480.695 25.5469 480.891 27.0391 480.891 28.8047V45H474.117V28.8047C474.117 27.6328 473.961 26.7422 473.648 26.1328C473.352 25.5078 472.914 25.0781 472.336 24.8438C471.773 24.5938 471.102 24.4688 470.32 24.4688C469.508 24.4688 468.797 24.6328 468.188 24.9609C467.578 25.2734 467.07 25.7109 466.664 26.2734C466.258 26.8359 465.953 27.4922 465.75 28.2422C465.547 28.9766 465.445 29.7812 465.445 30.6562Z" fill="black"/>
<path d="M171.533 100.62V102H165.135V100.62H171.533ZM165.469 89.2031V102H163.772V89.2031H165.469ZM172.799 97.3506V97.1484C172.799 96.4629 172.898 95.8271 173.098 95.2412C173.297 94.6494 173.584 94.1367 173.959 93.7031C174.334 93.2637 174.788 92.9238 175.321 92.6836C175.854 92.4375 176.452 92.3145 177.114 92.3145C177.782 92.3145 178.383 92.4375 178.916 92.6836C179.455 92.9238 179.912 93.2637 180.287 93.7031C180.668 94.1367 180.958 94.6494 181.157 95.2412C181.356 95.8271 181.456 96.4629 181.456 97.1484V97.3506C181.456 98.0361 181.356 98.6719 181.157 99.2578C180.958 99.8438 180.668 100.356 180.287 100.796C179.912 101.229 179.458 101.569 178.925 101.815C178.397 102.056 177.8 102.176 177.132 102.176C176.464 102.176 175.863 102.056 175.33 101.815C174.797 101.569 174.34 101.229 173.959 100.796C173.584 100.356 173.297 99.8438 173.098 99.2578C172.898 98.6719 172.799 98.0361 172.799 97.3506ZM174.425 97.1484V97.3506C174.425 97.8252 174.48 98.2734 174.592 98.6953C174.703 99.1113 174.87 99.4805 175.093 99.8027C175.321 100.125 175.605 100.38 175.945 100.567C176.285 100.749 176.681 100.84 177.132 100.84C177.577 100.84 177.967 100.749 178.301 100.567C178.641 100.38 178.922 100.125 179.145 99.8027C179.367 99.4805 179.534 99.1113 179.646 98.6953C179.763 98.2734 179.821 97.8252 179.821 97.3506V97.1484C179.821 96.6797 179.763 96.2373 179.646 95.8213C179.534 95.3994 179.364 95.0273 179.136 94.7051C178.913 94.377 178.632 94.1191 178.292 93.9316C177.958 93.7441 177.565 93.6504 177.114 93.6504C176.669 93.6504 176.276 93.7441 175.937 93.9316C175.603 94.1191 175.321 94.377 175.093 94.7051C174.87 95.0273 174.703 95.3994 174.592 95.8213C174.48 96.2373 174.425 96.6797 174.425 97.1484ZM185.121 93.9844V102H183.495V92.4902H185.077L185.121 93.9844ZM188.092 92.4375L188.083 93.9492C187.948 93.9199 187.819 93.9023 187.696 93.8965C187.579 93.8848 187.444 93.8789 187.292 93.8789C186.917 93.8789 186.586 93.9375 186.299 94.0547C186.012 94.1719 185.769 94.3359 185.569 94.5469C185.37 94.7578 185.212 95.0098 185.095 95.3027C184.983 95.5898 184.91 95.9062 184.875 96.252L184.418 96.5156C184.418 95.9414 184.474 95.4023 184.585 94.8984C184.702 94.3945 184.881 93.9492 185.121 93.5625C185.361 93.1699 185.666 92.8652 186.035 92.6484C186.41 92.4258 186.855 92.3145 187.371 92.3145C187.488 92.3145 187.623 92.3291 187.775 92.3584C187.928 92.3818 188.033 92.4082 188.092 92.4375ZM193.365 102.176C192.703 102.176 192.103 102.064 191.563 101.842C191.03 101.613 190.57 101.294 190.184 100.884C189.803 100.474 189.51 99.9873 189.305 99.4248C189.1 98.8623 188.997 98.2471 188.997 97.5791V97.21C188.997 96.4365 189.111 95.748 189.34 95.1445C189.568 94.5352 189.879 94.0195 190.271 93.5977C190.664 93.1758 191.109 92.8564 191.607 92.6396C192.105 92.4229 192.621 92.3145 193.154 92.3145C193.834 92.3145 194.42 92.4316 194.912 92.666C195.41 92.9004 195.817 93.2285 196.134 93.6504C196.45 94.0664 196.685 94.5586 196.837 95.127C196.989 95.6895 197.065 96.3047 197.065 96.9727V97.7021H189.964V96.375H195.439V96.252C195.416 95.8301 195.328 95.4199 195.176 95.0215C195.029 94.623 194.795 94.2949 194.473 94.0371C194.15 93.7793 193.711 93.6504 193.154 93.6504C192.785 93.6504 192.445 93.7295 192.135 93.8877C191.824 94.04 191.558 94.2686 191.335 94.5732C191.112 94.8779 190.939 95.25 190.816 95.6895C190.693 96.1289 190.632 96.6357 190.632 97.21V97.5791C190.632 98.0303 190.693 98.4551 190.816 98.8535C190.945 99.2461 191.13 99.5918 191.37 99.8906C191.616 100.189 191.912 100.424 192.258 100.594C192.609 100.764 193.008 100.849 193.453 100.849C194.027 100.849 194.514 100.731 194.912 100.497C195.311 100.263 195.659 99.9492 195.958 99.5566L196.942 100.339C196.737 100.649 196.477 100.945 196.16 101.227C195.844 101.508 195.454 101.736 194.991 101.912C194.534 102.088 193.992 102.176 193.365 102.176ZM200.581 94.3799V102H198.946V92.4902H200.493L200.581 94.3799ZM200.247 96.8848L199.491 96.8584C199.497 96.208 199.582 95.6074 199.746 95.0566C199.91 94.5 200.153 94.0166 200.476 93.6064C200.798 93.1963 201.199 92.8799 201.68 92.6572C202.16 92.4287 202.717 92.3145 203.35 92.3145C203.795 92.3145 204.205 92.3789 204.58 92.5078C204.955 92.6309 205.28 92.8271 205.556 93.0967C205.831 93.3662 206.045 93.7119 206.197 94.1338C206.35 94.5557 206.426 95.0654 206.426 95.6631V102H204.8V95.7422C204.8 95.2441 204.715 94.8457 204.545 94.5469C204.381 94.248 204.146 94.0312 203.842 93.8965C203.537 93.7559 203.18 93.6855 202.77 93.6855C202.289 93.6855 201.888 93.7705 201.565 93.9404C201.243 94.1104 200.985 94.3447 200.792 94.6436C200.599 94.9424 200.458 95.2852 200.37 95.6719C200.288 96.0527 200.247 96.457 200.247 96.8848ZM206.408 95.9883L205.318 96.3223C205.324 95.8008 205.409 95.2998 205.573 94.8193C205.743 94.3389 205.986 93.9111 206.303 93.5361C206.625 93.1611 207.021 92.8652 207.489 92.6484C207.958 92.4258 208.494 92.3145 209.098 92.3145C209.607 92.3145 210.059 92.3818 210.451 92.5166C210.85 92.6514 211.184 92.8594 211.453 93.1406C211.729 93.416 211.937 93.7705 212.077 94.2041C212.218 94.6377 212.288 95.1533 212.288 95.751V102H210.653V95.7334C210.653 95.2002 210.568 94.7871 210.398 94.4941C210.234 94.1953 210 93.9873 209.695 93.8701C209.396 93.7471 209.039 93.6855 208.623 93.6855C208.266 93.6855 207.949 93.7471 207.674 93.8701C207.398 93.9932 207.167 94.1631 206.979 94.3799C206.792 94.5908 206.648 94.834 206.549 95.1094C206.455 95.3848 206.408 95.6777 206.408 95.9883ZM220.98 92.4902V102H219.346V92.4902H220.98ZM219.223 89.9678C219.223 89.7041 219.302 89.4814 219.46 89.2998C219.624 89.1182 219.864 89.0273 220.181 89.0273C220.491 89.0273 220.729 89.1182 220.893 89.2998C221.062 89.4814 221.147 89.7041 221.147 89.9678C221.147 90.2197 221.062 90.4365 220.893 90.6182C220.729 90.7939 220.491 90.8818 220.181 90.8818C219.864 90.8818 219.624 90.7939 219.46 90.6182C219.302 90.4365 219.223 90.2197 219.223 89.9678ZM225.217 94.3184V105.656H223.582V92.4902H225.076L225.217 94.3184ZM231.624 97.166V97.3506C231.624 98.042 231.542 98.6836 231.378 99.2754C231.214 99.8613 230.974 100.371 230.657 100.805C230.347 101.238 229.963 101.575 229.506 101.815C229.049 102.056 228.524 102.176 227.933 102.176C227.329 102.176 226.796 102.076 226.333 101.877C225.87 101.678 225.478 101.388 225.155 101.007C224.833 100.626 224.575 100.169 224.382 99.6357C224.194 99.1025 224.065 98.502 223.995 97.834V96.8496C224.065 96.1465 224.197 95.5166 224.391 94.96C224.584 94.4033 224.839 93.9287 225.155 93.5361C225.478 93.1377 225.867 92.8359 226.324 92.6309C226.781 92.4199 227.309 92.3145 227.906 92.3145C228.504 92.3145 229.034 92.4316 229.497 92.666C229.96 92.8945 230.35 93.2227 230.666 93.6504C230.982 94.0781 231.22 94.5908 231.378 95.1885C231.542 95.7803 231.624 96.4395 231.624 97.166ZM229.989 97.3506V97.166C229.989 96.6914 229.939 96.2461 229.84 95.8301C229.74 95.4082 229.585 95.0391 229.374 94.7227C229.169 94.4004 228.905 94.1484 228.583 93.9668C228.261 93.7793 227.877 93.6855 227.432 93.6855C227.021 93.6855 226.664 93.7559 226.359 93.8965C226.061 94.0371 225.806 94.2275 225.595 94.4678C225.384 94.7021 225.211 94.9717 225.076 95.2764C224.947 95.5752 224.851 95.8857 224.786 96.208V98.4844C224.903 98.8945 225.067 99.2812 225.278 99.6445C225.489 100.002 225.771 100.292 226.122 100.515C226.474 100.731 226.916 100.84 227.449 100.84C227.889 100.84 228.267 100.749 228.583 100.567C228.905 100.38 229.169 100.125 229.374 99.8027C229.585 99.4805 229.74 99.1113 229.84 98.6953C229.939 98.2734 229.989 97.8252 229.989 97.3506ZM239.235 99.4775C239.235 99.2432 239.183 99.0264 239.077 98.8271C238.978 98.6221 238.77 98.4375 238.453 98.2734C238.143 98.1035 237.674 97.957 237.047 97.834C236.52 97.7227 236.042 97.5908 235.614 97.4385C235.192 97.2861 234.832 97.1016 234.533 96.8848C234.24 96.668 234.015 96.4131 233.856 96.1201C233.698 95.8271 233.619 95.4844 233.619 95.0918C233.619 94.7168 233.701 94.3623 233.865 94.0283C234.035 93.6943 234.272 93.3984 234.577 93.1406C234.888 92.8828 235.26 92.6807 235.693 92.5342C236.127 92.3877 236.61 92.3145 237.144 92.3145C237.905 92.3145 238.556 92.4492 239.095 92.7188C239.634 92.9883 240.047 93.3486 240.334 93.7998C240.621 94.2451 240.765 94.7402 240.765 95.2852H239.139C239.139 95.0215 239.06 94.7666 238.901 94.5205C238.749 94.2686 238.523 94.0605 238.225 93.8965C237.932 93.7324 237.571 93.6504 237.144 93.6504C236.692 93.6504 236.326 93.7207 236.045 93.8613C235.77 93.9961 235.567 94.1689 235.438 94.3799C235.315 94.5908 235.254 94.8135 235.254 95.0479C235.254 95.2236 235.283 95.3818 235.342 95.5225C235.406 95.6572 235.518 95.7832 235.676 95.9004C235.834 96.0117 236.057 96.1172 236.344 96.2168C236.631 96.3164 236.997 96.416 237.442 96.5156C238.222 96.6914 238.863 96.9023 239.367 97.1484C239.871 97.3945 240.246 97.6963 240.492 98.0537C240.738 98.4111 240.861 98.8447 240.861 99.3545C240.861 99.7705 240.773 100.151 240.598 100.497C240.428 100.843 240.179 101.142 239.851 101.394C239.528 101.64 239.142 101.833 238.69 101.974C238.245 102.108 237.744 102.176 237.188 102.176C236.35 102.176 235.641 102.026 235.061 101.728C234.48 101.429 234.041 101.042 233.742 100.567C233.443 100.093 233.294 99.5918 233.294 99.0645H234.929C234.952 99.5098 235.081 99.8643 235.315 100.128C235.55 100.386 235.837 100.57 236.177 100.682C236.517 100.787 236.854 100.84 237.188 100.84C237.633 100.84 238.005 100.781 238.304 100.664C238.608 100.547 238.84 100.386 238.998 100.181C239.156 99.9756 239.235 99.7412 239.235 99.4775ZM248.815 99.8027V92.4902H250.45V102H248.895L248.815 99.8027ZM249.123 97.7988L249.8 97.7812C249.8 98.4141 249.732 99 249.598 99.5391C249.469 100.072 249.258 100.535 248.965 100.928C248.672 101.32 248.288 101.628 247.813 101.851C247.339 102.067 246.762 102.176 246.082 102.176C245.619 102.176 245.194 102.108 244.808 101.974C244.427 101.839 244.099 101.631 243.823 101.35C243.548 101.068 243.334 100.702 243.182 100.251C243.035 99.7998 242.962 99.2578 242.962 98.625V92.4902H244.588V98.6426C244.588 99.0703 244.635 99.4248 244.729 99.7061C244.828 99.9814 244.96 100.201 245.124 100.365C245.294 100.523 245.481 100.635 245.687 100.699C245.897 100.764 246.114 100.796 246.337 100.796C247.028 100.796 247.576 100.664 247.98 100.4C248.385 100.131 248.675 99.7705 248.851 99.3193C249.032 98.8623 249.123 98.3555 249.123 97.7988ZM254.546 94.3799V102H252.911V92.4902H254.458L254.546 94.3799ZM254.212 96.8848L253.456 96.8584C253.462 96.208 253.547 95.6074 253.711 95.0566C253.875 94.5 254.118 94.0166 254.44 93.6064C254.763 93.1963 255.164 92.8799 255.645 92.6572C256.125 92.4287 256.682 92.3145 257.314 92.3145C257.76 92.3145 258.17 92.3789 258.545 92.5078C258.92 92.6309 259.245 92.8271 259.521 93.0967C259.796 93.3662 260.01 93.7119 260.162 94.1338C260.314 94.5557 260.391 95.0654 260.391 95.6631V102H258.765V95.7422C258.765 95.2441 258.68 94.8457 258.51 94.5469C258.346 94.248 258.111 94.0312 257.807 93.8965C257.502 93.7559 257.145 93.6855 256.734 93.6855C256.254 93.6855 255.853 93.7705 255.53 93.9404C255.208 94.1104 254.95 94.3447 254.757 94.6436C254.563 94.9424 254.423 95.2852 254.335 95.6719C254.253 96.0527 254.212 96.457 254.212 96.8848ZM260.373 95.9883L259.283 96.3223C259.289 95.8008 259.374 95.2998 259.538 94.8193C259.708 94.3389 259.951 93.9111 260.268 93.5361C260.59 93.1611 260.985 92.8652 261.454 92.6484C261.923 92.4258 262.459 92.3145 263.062 92.3145C263.572 92.3145 264.023 92.3818 264.416 92.5166C264.814 92.6514 265.148 92.8594 265.418 93.1406C265.693 93.416 265.901 93.7705 266.042 94.2041C266.183 94.6377 266.253 95.1533 266.253 95.751V102H264.618V95.7334C264.618 95.2002 264.533 94.7871 264.363 94.4941C264.199 94.1953 263.965 93.9873 263.66 93.8701C263.361 93.7471 263.004 93.6855 262.588 93.6855C262.23 93.6855 261.914 93.7471 261.639 93.8701C261.363 93.9932 261.132 94.1631 260.944 94.3799C260.757 94.5908 260.613 94.834 260.514 95.1094C260.42 95.3848 260.373 95.6777 260.373 95.9883ZM279.173 100.154V88.5H280.808V102H279.313L279.173 100.154ZM272.774 97.3506V97.166C272.774 96.4395 272.862 95.7803 273.038 95.1885C273.22 94.5908 273.475 94.0781 273.803 93.6504C274.137 93.2227 274.532 92.8945 274.989 92.666C275.452 92.4316 275.968 92.3145 276.536 92.3145C277.134 92.3145 277.655 92.4199 278.101 92.6309C278.552 92.8359 278.933 93.1377 279.243 93.5361C279.56 93.9287 279.809 94.4033 279.99 94.96C280.172 95.5166 280.298 96.1465 280.368 96.8496V97.6582C280.304 98.3555 280.178 98.9824 279.99 99.5391C279.809 100.096 279.56 100.57 279.243 100.963C278.933 101.355 278.552 101.657 278.101 101.868C277.649 102.073 277.122 102.176 276.519 102.176C275.962 102.176 275.452 102.056 274.989 101.815C274.532 101.575 274.137 101.238 273.803 100.805C273.475 100.371 273.22 99.8613 273.038 99.2754C272.862 98.6836 272.774 98.042 272.774 97.3506ZM274.409 97.166V97.3506C274.409 97.8252 274.456 98.2705 274.55 98.6865C274.649 99.1025 274.802 99.4688 275.007 99.7852C275.212 100.102 275.473 100.351 275.789 100.532C276.105 100.708 276.483 100.796 276.923 100.796C277.462 100.796 277.904 100.682 278.25 100.453C278.602 100.225 278.883 99.9229 279.094 99.5479C279.305 99.1729 279.469 98.7656 279.586 98.3262V96.208C279.516 95.8857 279.413 95.5752 279.278 95.2764C279.149 94.9717 278.979 94.7021 278.769 94.4678C278.563 94.2275 278.309 94.0371 278.004 93.8965C277.705 93.7559 277.351 93.6855 276.94 93.6855C276.495 93.6855 276.111 93.7793 275.789 93.9668C275.473 94.1484 275.212 94.4004 275.007 94.7227C274.802 95.0391 274.649 95.4082 274.55 95.8301C274.456 96.2461 274.409 96.6914 274.409 97.166ZM282.908 97.3506V97.1484C282.908 96.4629 283.008 95.8271 283.207 95.2412C283.406 94.6494 283.693 94.1367 284.068 93.7031C284.443 93.2637 284.897 92.9238 285.431 92.6836C285.964 92.4375 286.562 92.3145 287.224 92.3145C287.892 92.3145 288.492 92.4375 289.025 92.6836C289.564 92.9238 290.021 93.2637 290.396 93.7031C290.777 94.1367 291.067 94.6494 291.267 95.2412C291.466 95.8271 291.565 96.4629 291.565 97.1484V97.3506C291.565 98.0361 291.466 98.6719 291.267 99.2578C291.067 99.8438 290.777 100.356 290.396 100.796C290.021 101.229 289.567 101.569 289.034 101.815C288.507 102.056 287.909 102.176 287.241 102.176C286.573 102.176 285.973 102.056 285.439 101.815C284.906 101.569 284.449 101.229 284.068 100.796C283.693 100.356 283.406 99.8438 283.207 99.2578C283.008 98.6719 282.908 98.0361 282.908 97.3506ZM284.534 97.1484V97.3506C284.534 97.8252 284.59 98.2734 284.701 98.6953C284.812 99.1113 284.979 99.4805 285.202 99.8027C285.431 100.125 285.715 100.38 286.055 100.567C286.395 100.749 286.79 100.84 287.241 100.84C287.687 100.84 288.076 100.749 288.41 100.567C288.75 100.38 289.031 100.125 289.254 99.8027C289.477 99.4805 289.644 99.1113 289.755 98.6953C289.872 98.2734 289.931 97.8252 289.931 97.3506V97.1484C289.931 96.6797 289.872 96.2373 289.755 95.8213C289.644 95.3994 289.474 95.0273 289.245 94.7051C289.022 94.377 288.741 94.1191 288.401 93.9316C288.067 93.7441 287.675 93.6504 287.224 93.6504C286.778 93.6504 286.386 93.7441 286.046 93.9316C285.712 94.1191 285.431 94.377 285.202 94.7051C284.979 95.0273 284.812 95.3994 284.701 95.8213C284.59 96.2373 284.534 96.6797 284.534 97.1484ZM295.371 88.5V102H293.736V88.5H295.371ZM297.551 97.3506V97.1484C297.551 96.4629 297.65 95.8271 297.85 95.2412C298.049 94.6494 298.336 94.1367 298.711 93.7031C299.086 93.2637 299.54 92.9238 300.073 92.6836C300.606 92.4375 301.204 92.3145 301.866 92.3145C302.534 92.3145 303.135 92.4375 303.668 92.6836C304.207 92.9238 304.664 93.2637 305.039 93.7031C305.42 94.1367 305.71 94.6494 305.909 95.2412C306.108 95.8271 306.208 96.4629 306.208 97.1484V97.3506C306.208 98.0361 306.108 98.6719 305.909 99.2578C305.71 99.8438 305.42 100.356 305.039 100.796C304.664 101.229 304.21 101.569 303.677 101.815C303.149 102.056 302.552 102.176 301.884 102.176C301.216 102.176 300.615 102.056 300.082 101.815C299.549 101.569 299.092 101.229 298.711 100.796C298.336 100.356 298.049 99.8438 297.85 99.2578C297.65 98.6719 297.551 98.0361 297.551 97.3506ZM299.177 97.1484V97.3506C299.177 97.8252 299.232 98.2734 299.344 98.6953C299.455 99.1113 299.622 99.4805 299.845 99.8027C300.073 100.125 300.357 100.38 300.697 100.567C301.037 100.749 301.433 100.84 301.884 100.84C302.329 100.84 302.719 100.749 303.053 100.567C303.393 100.38 303.674 100.125 303.896 99.8027C304.119 99.4805 304.286 99.1113 304.397 98.6953C304.515 98.2734 304.573 97.8252 304.573 97.3506V97.1484C304.573 96.6797 304.515 96.2373 304.397 95.8213C304.286 95.3994 304.116 95.0273 303.888 94.7051C303.665 94.377 303.384 94.1191 303.044 93.9316C302.71 93.7441 302.317 93.6504 301.866 93.6504C301.421 93.6504 301.028 93.7441 300.688 93.9316C300.354 94.1191 300.073 94.377 299.845 94.7051C299.622 95.0273 299.455 95.3994 299.344 95.8213C299.232 96.2373 299.177 96.6797 299.177 97.1484ZM309.873 93.9844V102H308.247V92.4902H309.829L309.873 93.9844ZM312.844 92.4375L312.835 93.9492C312.7 93.9199 312.571 93.9023 312.448 93.8965C312.331 93.8848 312.196 93.8789 312.044 93.8789C311.669 93.8789 311.338 93.9375 311.051 94.0547C310.764 94.1719 310.521 94.3359 310.321 94.5469C310.122 94.7578 309.964 95.0098 309.847 95.3027C309.735 95.5898 309.662 95.9062 309.627 96.252L309.17 96.5156C309.17 95.9414 309.226 95.4023 309.337 94.8984C309.454 94.3945 309.633 93.9492 309.873 93.5625C310.113 93.1699 310.418 92.8652 310.787 92.6484C311.162 92.4258 311.607 92.3145 312.123 92.3145C312.24 92.3145 312.375 92.3291 312.527 92.3584C312.68 92.3818 312.785 92.4082 312.844 92.4375ZM324.349 99.4775C324.349 99.2432 324.296 99.0264 324.19 98.8271C324.091 98.6221 323.883 98.4375 323.566 98.2734C323.256 98.1035 322.787 97.957 322.16 97.834C321.633 97.7227 321.155 97.5908 320.728 97.4385C320.306 97.2861 319.945 97.1016 319.646 96.8848C319.354 96.668 319.128 96.4131 318.97 96.1201C318.812 95.8271 318.732 95.4844 318.732 95.0918C318.732 94.7168 318.814 94.3623 318.979 94.0283C319.148 93.6943 319.386 93.3984 319.69 93.1406C320.001 92.8828 320.373 92.6807 320.807 92.5342C321.24 92.3877 321.724 92.3145 322.257 92.3145C323.019 92.3145 323.669 92.4492 324.208 92.7188C324.747 92.9883 325.16 93.3486 325.447 93.7998C325.734 94.2451 325.878 94.7402 325.878 95.2852H324.252C324.252 95.0215 324.173 94.7666 324.015 94.5205C323.862 94.2686 323.637 94.0605 323.338 93.8965C323.045 93.7324 322.685 93.6504 322.257 93.6504C321.806 93.6504 321.439 93.7207 321.158 93.8613C320.883 93.9961 320.681 94.1689 320.552 94.3799C320.429 94.5908 320.367 94.8135 320.367 95.0479C320.367 95.2236 320.396 95.3818 320.455 95.5225C320.52 95.6572 320.631 95.7832 320.789 95.9004C320.947 96.0117 321.17 96.1172 321.457 96.2168C321.744 96.3164 322.11 96.416 322.556 96.5156C323.335 96.6914 323.977 96.9023 324.48 97.1484C324.984 97.3945 325.359 97.6963 325.605 98.0537C325.852 98.4111 325.975 98.8447 325.975 99.3545C325.975 99.7705 325.887 100.151 325.711 100.497C325.541 100.843 325.292 101.142 324.964 101.394C324.642 101.64 324.255 101.833 323.804 101.974C323.358 102.108 322.857 102.176 322.301 102.176C321.463 102.176 320.754 102.026 320.174 101.728C319.594 101.429 319.154 101.042 318.855 100.567C318.557 100.093 318.407 99.5918 318.407 99.0645H320.042C320.065 99.5098 320.194 99.8643 320.429 100.128C320.663 100.386 320.95 100.57 321.29 100.682C321.63 100.787 321.967 100.84 322.301 100.84C322.746 100.84 323.118 100.781 323.417 100.664C323.722 100.547 323.953 100.386 324.111 100.181C324.27 99.9756 324.349 99.7412 324.349 99.4775ZM329.877 92.4902V102H328.242V92.4902H329.877ZM328.119 89.9678C328.119 89.7041 328.198 89.4814 328.356 89.2998C328.521 89.1182 328.761 89.0273 329.077 89.0273C329.388 89.0273 329.625 89.1182 329.789 89.2998C329.959 89.4814 330.044 89.7041 330.044 89.9678C330.044 90.2197 329.959 90.4365 329.789 90.6182C329.625 90.7939 329.388 90.8818 329.077 90.8818C328.761 90.8818 328.521 90.7939 328.356 90.6182C328.198 90.4365 328.119 90.2197 328.119 89.9678ZM336.469 92.4902V93.7383H331.327V92.4902H336.469ZM333.067 90.1787H334.693V99.6445C334.693 99.9668 334.743 100.21 334.843 100.374C334.942 100.538 335.071 100.646 335.229 100.699C335.388 100.752 335.558 100.778 335.739 100.778C335.874 100.778 336.015 100.767 336.161 100.743C336.313 100.714 336.428 100.69 336.504 100.673L336.513 102C336.384 102.041 336.214 102.079 336.003 102.114C335.798 102.155 335.549 102.176 335.256 102.176C334.857 102.176 334.491 102.097 334.157 101.938C333.823 101.78 333.557 101.517 333.357 101.147C333.164 100.772 333.067 100.269 333.067 99.6357V90.1787ZM348.448 100.374V95.4785C348.448 95.1035 348.372 94.7783 348.22 94.5029C348.073 94.2217 347.851 94.0049 347.552 93.8525C347.253 93.7002 346.884 93.624 346.444 93.624C346.034 93.624 345.674 93.6943 345.363 93.835C345.059 93.9756 344.818 94.1602 344.643 94.3887C344.473 94.6172 344.388 94.8633 344.388 95.127H342.762C342.762 94.7871 342.85 94.4502 343.025 94.1162C343.201 93.7822 343.453 93.4805 343.781 93.2109C344.115 92.9355 344.514 92.7188 344.977 92.5605C345.445 92.3965 345.967 92.3145 346.541 92.3145C347.232 92.3145 347.842 92.4316 348.369 92.666C348.902 92.9004 349.318 93.2549 349.617 93.7295C349.922 94.1982 350.074 94.7871 350.074 95.4961V99.9258C350.074 100.242 350.101 100.579 350.153 100.937C350.212 101.294 350.297 101.602 350.408 101.859V102H348.712C348.63 101.812 348.565 101.563 348.519 101.253C348.472 100.937 348.448 100.644 348.448 100.374ZM348.729 96.2344L348.747 97.377H347.104C346.641 97.377 346.228 97.415 345.864 97.4912C345.501 97.5615 345.196 97.6699 344.95 97.8164C344.704 97.9629 344.517 98.1475 344.388 98.3701C344.259 98.5869 344.194 98.8418 344.194 99.1348C344.194 99.4336 344.262 99.7061 344.396 99.9521C344.531 100.198 344.733 100.395 345.003 100.541C345.278 100.682 345.615 100.752 346.014 100.752C346.512 100.752 346.951 100.646 347.332 100.436C347.713 100.225 348.015 99.9668 348.237 99.6621C348.466 99.3574 348.589 99.0615 348.606 98.7744L349.301 99.5566C349.26 99.8027 349.148 100.075 348.967 100.374C348.785 100.673 348.542 100.96 348.237 101.235C347.938 101.505 347.581 101.73 347.165 101.912C346.755 102.088 346.292 102.176 345.776 102.176C345.132 102.176 344.566 102.05 344.08 101.798C343.6 101.546 343.225 101.209 342.955 100.787C342.691 100.359 342.56 99.8818 342.56 99.3545C342.56 98.8447 342.659 98.3965 342.858 98.0098C343.058 97.6172 343.345 97.292 343.72 97.0342C344.095 96.7705 344.546 96.5713 345.073 96.4365C345.601 96.3018 346.189 96.2344 346.84 96.2344H348.729ZM354.249 94.3799V102H352.614V92.4902H354.161L354.249 94.3799ZM353.915 96.8848L353.159 96.8584C353.165 96.208 353.25 95.6074 353.414 95.0566C353.578 94.5 353.821 94.0166 354.144 93.6064C354.466 93.1963 354.867 92.8799 355.348 92.6572C355.828 92.4287 356.385 92.3145 357.018 92.3145C357.463 92.3145 357.873 92.3789 358.248 92.5078C358.623 92.6309 358.948 92.8271 359.224 93.0967C359.499 93.3662 359.713 93.7119 359.865 94.1338C360.018 94.5557 360.094 95.0654 360.094 95.6631V102H358.468V95.7422C358.468 95.2441 358.383 94.8457 358.213 94.5469C358.049 94.248 357.814 94.0312 357.51 93.8965C357.205 93.7559 356.848 93.6855 356.438 93.6855C355.957 93.6855 355.556 93.7705 355.233 93.9404C354.911 94.1104 354.653 94.3447 354.46 94.6436C354.267 94.9424 354.126 95.2852 354.038 95.6719C353.956 96.0527 353.915 96.457 353.915 96.8848ZM360.076 95.9883L358.986 96.3223C358.992 95.8008 359.077 95.2998 359.241 94.8193C359.411 94.3389 359.654 93.9111 359.971 93.5361C360.293 93.1611 360.688 92.8652 361.157 92.6484C361.626 92.4258 362.162 92.3145 362.766 92.3145C363.275 92.3145 363.727 92.3818 364.119 92.5166C364.518 92.6514 364.852 92.8594 365.121 93.1406C365.396 93.416 365.604 93.7705 365.745 94.2041C365.886 94.6377 365.956 95.1533 365.956 95.751V102H364.321V95.7334C364.321 95.2002 364.236 94.7871 364.066 94.4941C363.902 94.1953 363.668 93.9873 363.363 93.8701C363.064 93.7471 362.707 93.6855 362.291 93.6855C361.934 93.6855 361.617 93.7471 361.342 93.8701C361.066 93.9932 360.835 94.1631 360.647 94.3799C360.46 94.5908 360.316 94.834 360.217 95.1094C360.123 95.3848 360.076 95.6777 360.076 95.9883ZM372.363 102.176C371.701 102.176 371.101 102.064 370.562 101.842C370.028 101.613 369.568 101.294 369.182 100.884C368.801 100.474 368.508 99.9873 368.303 99.4248C368.098 98.8623 367.995 98.2471 367.995 97.5791V97.21C367.995 96.4365 368.109 95.748 368.338 95.1445C368.566 94.5352 368.877 94.0195 369.27 93.5977C369.662 93.1758 370.107 92.8564 370.605 92.6396C371.104 92.4229 371.619 92.3145 372.152 92.3145C372.832 92.3145 373.418 92.4316 373.91 92.666C374.408 92.9004 374.815 93.2285 375.132 93.6504C375.448 94.0664 375.683 94.5586 375.835 95.127C375.987 95.6895 376.063 96.3047 376.063 96.9727V97.7021H368.962V96.375H374.438V96.252C374.414 95.8301 374.326 95.4199 374.174 95.0215C374.027 94.623 373.793 94.2949 373.471 94.0371C373.148 93.7793 372.709 93.6504 372.152 93.6504C371.783 93.6504 371.443 93.7295 371.133 93.8877C370.822 94.04 370.556 94.2686 370.333 94.5732C370.11 94.8779 369.938 95.25 369.814 95.6895C369.691 96.1289 369.63 96.6357 369.63 97.21V97.5791C369.63 98.0303 369.691 98.4551 369.814 98.8535C369.943 99.2461 370.128 99.5918 370.368 99.8906C370.614 100.189 370.91 100.424 371.256 100.594C371.607 100.764 372.006 100.849 372.451 100.849C373.025 100.849 373.512 100.731 373.91 100.497C374.309 100.263 374.657 99.9492 374.956 99.5566L375.94 100.339C375.735 100.649 375.475 100.945 375.158 101.227C374.842 101.508 374.452 101.736 373.989 101.912C373.532 102.088 372.99 102.176 372.363 102.176ZM381.943 92.4902V93.7383H376.802V92.4902H381.943ZM378.542 90.1787H380.168V99.6445C380.168 99.9668 380.218 100.21 380.317 100.374C380.417 100.538 380.546 100.646 380.704 100.699C380.862 100.752 381.032 100.778 381.214 100.778C381.349 100.778 381.489 100.767 381.636 100.743C381.788 100.714 381.902 100.69 381.979 100.673L381.987 102C381.858 102.041 381.688 102.079 381.478 102.114C381.272 102.155 381.023 102.176 380.73 102.176C380.332 102.176 379.966 102.097 379.632 101.938C379.298 101.78 379.031 101.517 378.832 101.147C378.639 100.772 378.542 100.269 378.542 99.6357V90.1787ZM385.327 100.066V101.376C385.327 101.909 385.192 102.472 384.923 103.063C384.653 103.661 384.275 104.159 383.789 104.558L382.866 103.916C383.054 103.658 383.212 103.395 383.341 103.125C383.47 102.861 383.566 102.586 383.631 102.299C383.701 102.018 383.736 101.719 383.736 101.402V100.066H385.327ZM395.672 100.84C396.059 100.84 396.416 100.761 396.744 100.603C397.072 100.444 397.342 100.228 397.553 99.9521C397.764 99.6709 397.884 99.3516 397.913 98.9941H399.46C399.431 99.5566 399.24 100.081 398.889 100.567C398.543 101.048 398.089 101.438 397.526 101.736C396.964 102.029 396.346 102.176 395.672 102.176C394.957 102.176 394.333 102.05 393.8 101.798C393.272 101.546 392.833 101.2 392.481 100.761C392.136 100.321 391.875 99.8174 391.699 99.249C391.529 98.6748 391.444 98.0684 391.444 97.4297V97.0605C391.444 96.4219 391.529 95.8184 391.699 95.25C391.875 94.6758 392.136 94.1689 392.481 93.7295C392.833 93.29 393.272 92.9443 393.8 92.6924C394.333 92.4404 394.957 92.3145 395.672 92.3145C396.416 92.3145 397.066 92.4668 397.623 92.7715C398.18 93.0703 398.616 93.4805 398.933 94.002C399.255 94.5176 399.431 95.1035 399.46 95.7598H397.913C397.884 95.3672 397.772 95.0127 397.579 94.6963C397.392 94.3799 397.134 94.1279 396.806 93.9404C396.483 93.7471 396.105 93.6504 395.672 93.6504C395.174 93.6504 394.755 93.75 394.415 93.9492C394.081 94.1426 393.814 94.4062 393.615 94.7402C393.422 95.0684 393.281 95.4346 393.193 95.8389C393.111 96.2373 393.07 96.6445 393.07 97.0605V97.4297C393.07 97.8457 393.111 98.2559 393.193 98.6602C393.275 99.0645 393.413 99.4307 393.606 99.7588C393.806 100.087 394.072 100.351 394.406 100.55C394.746 100.743 395.168 100.84 395.672 100.84ZM400.857 97.3506V97.1484C400.857 96.4629 400.957 95.8271 401.156 95.2412C401.355 94.6494 401.643 94.1367 402.018 93.7031C402.393 93.2637 402.847 92.9238 403.38 92.6836C403.913 92.4375 404.511 92.3145 405.173 92.3145C405.841 92.3145 406.441 92.4375 406.975 92.6836C407.514 92.9238 407.971 93.2637 408.346 93.7031C408.727 94.1367 409.017 94.6494 409.216 95.2412C409.415 95.8271 409.515 96.4629 409.515 97.1484V97.3506C409.515 98.0361 409.415 98.6719 409.216 99.2578C409.017 99.8438 408.727 100.356 408.346 100.796C407.971 101.229 407.517 101.569 406.983 101.815C406.456 102.056 405.858 102.176 405.19 102.176C404.522 102.176 403.922 102.056 403.389 101.815C402.855 101.569 402.398 101.229 402.018 100.796C401.643 100.356 401.355 99.8438 401.156 99.2578C400.957 98.6719 400.857 98.0361 400.857 97.3506ZM402.483 97.1484V97.3506C402.483 97.8252 402.539 98.2734 402.65 98.6953C402.762 99.1113 402.929 99.4805 403.151 99.8027C403.38 100.125 403.664 100.38 404.004 100.567C404.344 100.749 404.739 100.84 405.19 100.84C405.636 100.84 406.025 100.749 406.359 100.567C406.699 100.38 406.98 100.125 407.203 99.8027C407.426 99.4805 407.593 99.1113 407.704 98.6953C407.821 98.2734 407.88 97.8252 407.88 97.3506V97.1484C407.88 96.6797 407.821 96.2373 407.704 95.8213C407.593 95.3994 407.423 95.0273 407.194 94.7051C406.972 94.377 406.69 94.1191 406.351 93.9316C406.017 93.7441 405.624 93.6504 405.173 93.6504C404.728 93.6504 404.335 93.7441 403.995 93.9316C403.661 94.1191 403.38 94.377 403.151 94.7051C402.929 95.0273 402.762 95.3994 402.65 95.8213C402.539 96.2373 402.483 96.6797 402.483 97.1484ZM413.18 94.5205V102H411.554V92.4902H413.092L413.18 94.5205ZM412.793 96.8848L412.116 96.8584C412.122 96.208 412.219 95.6074 412.406 95.0566C412.594 94.5 412.857 94.0166 413.197 93.6064C413.537 93.1963 413.941 92.8799 414.41 92.6572C414.885 92.4287 415.409 92.3145 415.983 92.3145C416.452 92.3145 416.874 92.3789 417.249 92.5078C417.624 92.6309 417.943 92.8301 418.207 93.1055C418.477 93.3809 418.682 93.7383 418.822 94.1777C418.963 94.6113 419.033 95.1416 419.033 95.7686V102H417.398V95.751C417.398 95.2529 417.325 94.8545 417.179 94.5557C417.032 94.251 416.818 94.0312 416.537 93.8965C416.256 93.7559 415.91 93.6855 415.5 93.6855C415.096 93.6855 414.727 93.7705 414.393 93.9404C414.064 94.1104 413.78 94.3447 413.54 94.6436C413.306 94.9424 413.121 95.2852 412.986 95.6719C412.857 96.0527 412.793 96.457 412.793 96.8848ZM427.04 99.4775C427.04 99.2432 426.987 99.0264 426.882 98.8271C426.782 98.6221 426.574 98.4375 426.258 98.2734C425.947 98.1035 425.479 97.957 424.852 97.834C424.324 97.7227 423.847 97.5908 423.419 97.4385C422.997 97.2861 422.637 97.1016 422.338 96.8848C422.045 96.668 421.819 96.4131 421.661 96.1201C421.503 95.8271 421.424 95.4844 421.424 95.0918C421.424 94.7168 421.506 94.3623 421.67 94.0283C421.84 93.6943 422.077 93.3984 422.382 93.1406C422.692 92.8828 423.064 92.6807 423.498 92.5342C423.932 92.3877 424.415 92.3145 424.948 92.3145C425.71 92.3145 426.36 92.4492 426.899 92.7188C427.438 92.9883 427.852 93.3486 428.139 93.7998C428.426 94.2451 428.569 94.7402 428.569 95.2852H426.943C426.943 95.0215 426.864 94.7666 426.706 94.5205C426.554 94.2686 426.328 94.0605 426.029 93.8965C425.736 93.7324 425.376 93.6504 424.948 93.6504C424.497 93.6504 424.131 93.7207 423.85 93.8613C423.574 93.9961 423.372 94.1689 423.243 94.3799C423.12 94.5908 423.059 94.8135 423.059 95.0479C423.059 95.2236 423.088 95.3818 423.146 95.5225C423.211 95.6572 423.322 95.7832 423.48 95.9004C423.639 96.0117 423.861 96.1172 424.148 96.2168C424.436 96.3164 424.802 96.416 425.247 96.5156C426.026 96.6914 426.668 96.9023 427.172 97.1484C427.676 97.3945 428.051 97.6963 428.297 98.0537C428.543 98.4111 428.666 98.8447 428.666 99.3545C428.666 99.7705 428.578 100.151 428.402 100.497C428.232 100.843 427.983 101.142 427.655 101.394C427.333 101.64 426.946 101.833 426.495 101.974C426.05 102.108 425.549 102.176 424.992 102.176C424.154 102.176 423.445 102.026 422.865 101.728C422.285 101.429 421.846 101.042 421.547 100.567C421.248 100.093 421.099 99.5918 421.099 99.0645H422.733C422.757 99.5098 422.886 99.8643 423.12 100.128C423.354 100.386 423.642 100.57 423.981 100.682C424.321 100.787 424.658 100.84 424.992 100.84C425.438 100.84 425.81 100.781 426.108 100.664C426.413 100.547 426.645 100.386 426.803 100.181C426.961 99.9756 427.04 99.7412 427.04 99.4775ZM434.748 102.176C434.086 102.176 433.485 102.064 432.946 101.842C432.413 101.613 431.953 101.294 431.566 100.884C431.186 100.474 430.893 99.9873 430.688 99.4248C430.482 98.8623 430.38 98.2471 430.38 97.5791V97.21C430.38 96.4365 430.494 95.748 430.723 95.1445C430.951 94.5352 431.262 94.0195 431.654 93.5977C432.047 93.1758 432.492 92.8564 432.99 92.6396C433.488 92.4229 434.004 92.3145 434.537 92.3145C435.217 92.3145 435.803 92.4316 436.295 92.666C436.793 92.9004 437.2 93.2285 437.517 93.6504C437.833 94.0664 438.067 94.5586 438.22 95.127C438.372 95.6895 438.448 96.3047 438.448 96.9727V97.7021H431.347V96.375H436.822V96.252C436.799 95.8301 436.711 95.4199 436.559 95.0215C436.412 94.623 436.178 94.2949 435.855 94.0371C435.533 93.7793 435.094 93.6504 434.537 93.6504C434.168 93.6504 433.828 93.7295 433.518 93.8877C433.207 94.04 432.94 94.2686 432.718 94.5732C432.495 94.8779 432.322 95.25 432.199 95.6895C432.076 96.1289 432.015 96.6357 432.015 97.21V97.5791C432.015 98.0303 432.076 98.4551 432.199 98.8535C432.328 99.2461 432.513 99.5918 432.753 99.8906C432.999 100.189 433.295 100.424 433.641 100.594C433.992 100.764 434.391 100.849 434.836 100.849C435.41 100.849 435.896 100.731 436.295 100.497C436.693 100.263 437.042 99.9492 437.341 99.5566L438.325 100.339C438.12 100.649 437.859 100.945 437.543 101.227C437.227 101.508 436.837 101.736 436.374 101.912C435.917 102.088 435.375 102.176 434.748 102.176ZM444.152 100.84C444.539 100.84 444.896 100.761 445.225 100.603C445.553 100.444 445.822 100.228 446.033 99.9521C446.244 99.6709 446.364 99.3516 446.394 98.9941H447.94C447.911 99.5566 447.721 100.081 447.369 100.567C447.023 101.048 446.569 101.438 446.007 101.736C445.444 102.029 444.826 102.176 444.152 102.176C443.438 102.176 442.813 102.05 442.28 101.798C441.753 101.546 441.313 101.2 440.962 100.761C440.616 100.321 440.355 99.8174 440.18 99.249C440.01 98.6748 439.925 98.0684 439.925 97.4297V97.0605C439.925 96.4219 440.01 95.8184 440.18 95.25C440.355 94.6758 440.616 94.1689 440.962 93.7295C441.313 93.29 441.753 92.9443 442.28 92.6924C442.813 92.4404 443.438 92.3145 444.152 92.3145C444.896 92.3145 445.547 92.4668 446.104 92.7715C446.66 93.0703 447.097 93.4805 447.413 94.002C447.735 94.5176 447.911 95.1035 447.94 95.7598H446.394C446.364 95.3672 446.253 95.0127 446.06 94.6963C445.872 94.3799 445.614 94.1279 445.286 93.9404C444.964 93.7471 444.586 93.6504 444.152 93.6504C443.654 93.6504 443.235 93.75 442.896 93.9492C442.562 94.1426 442.295 94.4062 442.096 94.7402C441.902 95.0684 441.762 95.4346 441.674 95.8389C441.592 96.2373 441.551 96.6445 441.551 97.0605V97.4297C441.551 97.8457 441.592 98.2559 441.674 98.6602C441.756 99.0645 441.894 99.4307 442.087 99.7588C442.286 100.087 442.553 100.351 442.887 100.55C443.227 100.743 443.648 100.84 444.152 100.84ZM453.75 92.4902V93.7383H448.608V92.4902H453.75ZM450.349 90.1787H451.975V99.6445C451.975 99.9668 452.024 100.21 452.124 100.374C452.224 100.538 452.353 100.646 452.511 100.699C452.669 100.752 452.839 100.778 453.021 100.778C453.155 100.778 453.296 100.767 453.442 100.743C453.595 100.714 453.709 100.69 453.785 100.673L453.794 102C453.665 102.041 453.495 102.079 453.284 102.114C453.079 102.155 452.83 102.176 452.537 102.176C452.139 102.176 451.772 102.097 451.438 101.938C451.104 101.78 450.838 101.517 450.639 101.147C450.445 100.772 450.349 100.269 450.349 99.6357V90.1787ZM459.604 102.176C458.941 102.176 458.341 102.064 457.802 101.842C457.269 101.613 456.809 101.294 456.422 100.884C456.041 100.474 455.748 99.9873 455.543 99.4248C455.338 98.8623 455.235 98.2471 455.235 97.5791V97.21C455.235 96.4365 455.35 95.748 455.578 95.1445C455.807 94.5352 456.117 94.0195 456.51 93.5977C456.902 93.1758 457.348 92.8564 457.846 92.6396C458.344 92.4229 458.859 92.3145 459.393 92.3145C460.072 92.3145 460.658 92.4316 461.15 92.666C461.648 92.9004 462.056 93.2285 462.372 93.6504C462.688 94.0664 462.923 94.5586 463.075 95.127C463.228 95.6895 463.304 96.3047 463.304 96.9727V97.7021H456.202V96.375H461.678V96.252C461.654 95.8301 461.566 95.4199 461.414 95.0215C461.268 94.623 461.033 94.2949 460.711 94.0371C460.389 93.7793 459.949 93.6504 459.393 93.6504C459.023 93.6504 458.684 93.7295 458.373 93.8877C458.062 94.04 457.796 94.2686 457.573 94.5732C457.351 94.8779 457.178 95.25 457.055 95.6895C456.932 96.1289 456.87 96.6357 456.87 97.21V97.5791C456.87 98.0303 456.932 98.4551 457.055 98.8535C457.184 99.2461 457.368 99.5918 457.608 99.8906C457.854 100.189 458.15 100.424 458.496 100.594C458.848 100.764 459.246 100.849 459.691 100.849C460.266 100.849 460.752 100.731 461.15 100.497C461.549 100.263 461.897 99.9492 462.196 99.5566L463.181 100.339C462.976 100.649 462.715 100.945 462.398 101.227C462.082 101.508 461.692 101.736 461.229 101.912C460.772 102.088 460.23 102.176 459.604 102.176ZM469.184 92.4902V93.7383H464.042V92.4902H469.184ZM465.782 90.1787H467.408V99.6445C467.408 99.9668 467.458 100.21 467.558 100.374C467.657 100.538 467.786 100.646 467.944 100.699C468.103 100.752 468.272 100.778 468.454 100.778C468.589 100.778 468.729 100.767 468.876 100.743C469.028 100.714 469.143 100.69 469.219 100.673L469.228 102C469.099 102.041 468.929 102.079 468.718 102.114C468.513 102.155 468.264 102.176 467.971 102.176C467.572 102.176 467.206 102.097 466.872 101.938C466.538 101.78 466.271 101.517 466.072 101.147C465.879 100.772 465.782 100.269 465.782 99.6357V90.1787ZM476.909 99.8027V92.4902H478.544V102H476.988L476.909 99.8027ZM477.217 97.7988L477.894 97.7812C477.894 98.4141 477.826 99 477.691 99.5391C477.562 100.072 477.352 100.535 477.059 100.928C476.766 101.32 476.382 101.628 475.907 101.851C475.433 102.067 474.855 102.176 474.176 102.176C473.713 102.176 473.288 102.108 472.901 101.974C472.521 101.839 472.192 101.631 471.917 101.35C471.642 101.068 471.428 100.702 471.275 100.251C471.129 99.7998 471.056 99.2578 471.056 98.625V92.4902H472.682V98.6426C472.682 99.0703 472.729 99.4248 472.822 99.7061C472.922 99.9814 473.054 100.201 473.218 100.365C473.388 100.523 473.575 100.635 473.78 100.699C473.991 100.764 474.208 100.796 474.431 100.796C475.122 100.796 475.67 100.664 476.074 100.4C476.479 100.131 476.769 99.7705 476.944 99.3193C477.126 98.8623 477.217 98.3555 477.217 97.7988ZM482.648 93.9844V102H481.022V92.4902H482.604L482.648 93.9844ZM485.619 92.4375L485.61 93.9492C485.476 93.9199 485.347 93.9023 485.224 93.8965C485.106 93.8848 484.972 93.8789 484.819 93.8789C484.444 93.8789 484.113 93.9375 483.826 94.0547C483.539 94.1719 483.296 94.3359 483.097 94.5469C482.897 94.7578 482.739 95.0098 482.622 95.3027C482.511 95.5898 482.438 95.9062 482.402 96.252L481.945 96.5156C481.945 95.9414 482.001 95.4023 482.112 94.8984C482.229 94.3945 482.408 93.9492 482.648 93.5625C482.889 93.1699 483.193 92.8652 483.562 92.6484C483.938 92.4258 484.383 92.3145 484.898 92.3145C485.016 92.3145 485.15 92.3291 485.303 92.3584C485.455 92.3818 485.561 92.4082 485.619 92.4375ZM497.194 100.374V95.4785C497.194 95.1035 497.118 94.7783 496.966 94.5029C496.819 94.2217 496.597 94.0049 496.298 93.8525C495.999 93.7002 495.63 93.624 495.19 93.624C494.78 93.624 494.42 93.6943 494.109 93.835C493.805 93.9756 493.564 94.1602 493.389 94.3887C493.219 94.6172 493.134 94.8633 493.134 95.127H491.508C491.508 94.7871 491.596 94.4502 491.771 94.1162C491.947 93.7822 492.199 93.4805 492.527 93.2109C492.861 92.9355 493.26 92.7188 493.723 92.5605C494.191 92.3965 494.713 92.3145 495.287 92.3145C495.979 92.3145 496.588 92.4316 497.115 92.666C497.648 92.9004 498.064 93.2549 498.363 93.7295C498.668 94.1982 498.82 94.7871 498.82 95.4961V99.9258C498.82 100.242 498.847 100.579 498.899 100.937C498.958 101.294 499.043 101.602 499.154 101.859V102H497.458C497.376 101.812 497.312 101.563 497.265 101.253C497.218 100.937 497.194 100.644 497.194 100.374ZM497.476 96.2344L497.493 97.377H495.85C495.387 97.377 494.974 97.415 494.61 97.4912C494.247 97.5615 493.942 97.6699 493.696 97.8164C493.45 97.9629 493.263 98.1475 493.134 98.3701C493.005 98.5869 492.94 98.8418 492.94 99.1348C492.94 99.4336 493.008 99.7061 493.143 99.9521C493.277 100.198 493.479 100.395 493.749 100.541C494.024 100.682 494.361 100.752 494.76 100.752C495.258 100.752 495.697 100.646 496.078 100.436C496.459 100.225 496.761 99.9668 496.983 99.6621C497.212 99.3574 497.335 99.0615 497.353 98.7744L498.047 99.5566C498.006 99.8027 497.895 100.075 497.713 100.374C497.531 100.673 497.288 100.96 496.983 101.235C496.685 101.505 496.327 101.73 495.911 101.912C495.501 102.088 495.038 102.176 494.522 102.176C493.878 102.176 493.312 102.05 492.826 101.798C492.346 101.546 491.971 101.209 491.701 100.787C491.438 100.359 491.306 99.8818 491.306 99.3545C491.306 98.8447 491.405 98.3965 491.604 98.0098C491.804 97.6172 492.091 97.292 492.466 97.0342C492.841 96.7705 493.292 96.5713 493.819 96.4365C494.347 96.3018 494.936 96.2344 495.586 96.2344H497.476ZM507.372 100.154V88.5H509.007V102H507.513L507.372 100.154ZM500.974 97.3506V97.166C500.974 96.4395 501.062 95.7803 501.237 95.1885C501.419 94.5908 501.674 94.0781 502.002 93.6504C502.336 93.2227 502.731 92.8945 503.188 92.666C503.651 92.4316 504.167 92.3145 504.735 92.3145C505.333 92.3145 505.854 92.4199 506.3 92.6309C506.751 92.8359 507.132 93.1377 507.442 93.5361C507.759 93.9287 508.008 94.4033 508.189 94.96C508.371 95.5166 508.497 96.1465 508.567 96.8496V97.6582C508.503 98.3555 508.377 98.9824 508.189 99.5391C508.008 100.096 507.759 100.57 507.442 100.963C507.132 101.355 506.751 101.657 506.3 101.868C505.849 102.073 505.321 102.176 504.718 102.176C504.161 102.176 503.651 102.056 503.188 101.815C502.731 101.575 502.336 101.238 502.002 100.805C501.674 100.371 501.419 99.8613 501.237 99.2754C501.062 98.6836 500.974 98.042 500.974 97.3506ZM502.608 97.166V97.3506C502.608 97.8252 502.655 98.2705 502.749 98.6865C502.849 99.1025 503.001 99.4688 503.206 99.7852C503.411 100.102 503.672 100.351 503.988 100.532C504.305 100.708 504.683 100.796 505.122 100.796C505.661 100.796 506.104 100.682 506.449 100.453C506.801 100.225 507.082 99.9229 507.293 99.5479C507.504 99.1729 507.668 98.7656 507.785 98.3262V96.208C507.715 95.8857 507.612 95.5752 507.478 95.2764C507.349 94.9717 507.179 94.7021 506.968 94.4678C506.763 94.2275 506.508 94.0371 506.203 93.8965C505.904 93.7559 505.55 93.6855 505.14 93.6855C504.694 93.6855 504.311 93.7793 503.988 93.9668C503.672 94.1484 503.411 94.4004 503.206 94.7227C503.001 95.0391 502.849 95.4082 502.749 95.8301C502.655 96.2461 502.608 96.6914 502.608 97.166ZM513.305 92.4902V102H511.67V92.4902H513.305ZM511.547 89.9678C511.547 89.7041 511.626 89.4814 511.784 89.2998C511.948 89.1182 512.188 89.0273 512.505 89.0273C512.815 89.0273 513.053 89.1182 513.217 89.2998C513.387 89.4814 513.472 89.7041 513.472 89.9678C513.472 90.2197 513.387 90.4365 513.217 90.6182C513.053 90.7939 512.815 90.8818 512.505 90.8818C512.188 90.8818 511.948 90.7939 511.784 90.6182C511.626 90.4365 511.547 90.2197 511.547 89.9678ZM517.541 94.3184V105.656H515.906V92.4902H517.4L517.541 94.3184ZM523.948 97.166V97.3506C523.948 98.042 523.866 98.6836 523.702 99.2754C523.538 99.8613 523.298 100.371 522.981 100.805C522.671 101.238 522.287 101.575 521.83 101.815C521.373 102.056 520.849 102.176 520.257 102.176C519.653 102.176 519.12 102.076 518.657 101.877C518.194 101.678 517.802 101.388 517.479 101.007C517.157 100.626 516.899 100.169 516.706 99.6357C516.519 99.1025 516.39 98.502 516.319 97.834V96.8496C516.39 96.1465 516.521 95.5166 516.715 94.96C516.908 94.4033 517.163 93.9287 517.479 93.5361C517.802 93.1377 518.191 92.8359 518.648 92.6309C519.105 92.4199 519.633 92.3145 520.23 92.3145C520.828 92.3145 521.358 92.4316 521.821 92.666C522.284 92.8945 522.674 93.2227 522.99 93.6504C523.307 94.0781 523.544 94.5908 523.702 95.1885C523.866 95.7803 523.948 96.4395 523.948 97.166ZM522.313 97.3506V97.166C522.313 96.6914 522.264 96.2461 522.164 95.8301C522.064 95.4082 521.909 95.0391 521.698 94.7227C521.493 94.4004 521.229 94.1484 520.907 93.9668C520.585 93.7793 520.201 93.6855 519.756 93.6855C519.346 93.6855 518.988 93.7559 518.684 93.8965C518.385 94.0371 518.13 94.2275 517.919 94.4678C517.708 94.7021 517.535 94.9717 517.4 95.2764C517.271 95.5752 517.175 95.8857 517.11 96.208V98.4844C517.228 98.8945 517.392 99.2812 517.603 99.6445C517.813 100.002 518.095 100.292 518.446 100.515C518.798 100.731 519.24 100.84 519.773 100.84C520.213 100.84 520.591 100.749 520.907 100.567C521.229 100.38 521.493 100.125 521.698 99.8027C521.909 99.4805 522.064 99.1113 522.164 98.6953C522.264 98.2734 522.313 97.8252 522.313 97.3506ZM527.789 92.4902V102H526.154V92.4902H527.789ZM526.031 89.9678C526.031 89.7041 526.11 89.4814 526.269 89.2998C526.433 89.1182 526.673 89.0273 526.989 89.0273C527.3 89.0273 527.537 89.1182 527.701 89.2998C527.871 89.4814 527.956 89.7041 527.956 89.9678C527.956 90.2197 527.871 90.4365 527.701 90.6182C527.537 90.7939 527.3 90.8818 526.989 90.8818C526.673 90.8818 526.433 90.7939 526.269 90.6182C526.11 90.4365 526.031 90.2197 526.031 89.9678ZM535.937 99.4775C535.937 99.2432 535.884 99.0264 535.778 98.8271C535.679 98.6221 535.471 98.4375 535.154 98.2734C534.844 98.1035 534.375 97.957 533.748 97.834C533.221 97.7227 532.743 97.5908 532.315 97.4385C531.894 97.2861 531.533 97.1016 531.234 96.8848C530.941 96.668 530.716 96.4131 530.558 96.1201C530.399 95.8271 530.32 95.4844 530.32 95.0918C530.32 94.7168 530.402 94.3623 530.566 94.0283C530.736 93.6943 530.974 93.3984 531.278 93.1406C531.589 92.8828 531.961 92.6807 532.395 92.5342C532.828 92.3877 533.312 92.3145 533.845 92.3145C534.606 92.3145 535.257 92.4492 535.796 92.7188C536.335 92.9883 536.748 93.3486 537.035 93.7998C537.322 94.2451 537.466 94.7402 537.466 95.2852H535.84C535.84 95.0215 535.761 94.7666 535.603 94.5205C535.45 94.2686 535.225 94.0605 534.926 93.8965C534.633 93.7324 534.272 93.6504 533.845 93.6504C533.394 93.6504 533.027 93.7207 532.746 93.8613C532.471 93.9961 532.269 94.1689 532.14 94.3799C532.017 94.5908 531.955 94.8135 531.955 95.0479C531.955 95.2236 531.984 95.3818 532.043 95.5225C532.107 95.6572 532.219 95.7832 532.377 95.9004C532.535 96.0117 532.758 96.1172 533.045 96.2168C533.332 96.3164 533.698 96.416 534.144 96.5156C534.923 96.6914 535.564 96.9023 536.068 97.1484C536.572 97.3945 536.947 97.6963 537.193 98.0537C537.439 98.4111 537.562 98.8447 537.562 99.3545C537.562 99.7705 537.475 100.151 537.299 100.497C537.129 100.843 536.88 101.142 536.552 101.394C536.229 101.64 535.843 101.833 535.392 101.974C534.946 102.108 534.445 102.176 533.889 102.176C533.051 102.176 532.342 102.026 531.762 101.728C531.182 101.429 530.742 101.042 530.443 100.567C530.145 100.093 529.995 99.5918 529.995 99.0645H531.63C531.653 99.5098 531.782 99.8643 532.017 100.128C532.251 100.386 532.538 100.57 532.878 100.682C533.218 100.787 533.555 100.84 533.889 100.84C534.334 100.84 534.706 100.781 535.005 100.664C535.31 100.547 535.541 100.386 535.699 100.181C535.857 99.9756 535.937 99.7412 535.937 99.4775ZM543.504 100.84C543.891 100.84 544.248 100.761 544.576 100.603C544.904 100.444 545.174 100.228 545.385 99.9521C545.596 99.6709 545.716 99.3516 545.745 98.9941H547.292C547.263 99.5566 547.072 100.081 546.721 100.567C546.375 101.048 545.921 101.438 545.358 101.736C544.796 102.029 544.178 102.176 543.504 102.176C542.789 102.176 542.165 102.05 541.632 101.798C541.104 101.546 540.665 101.2 540.313 100.761C539.968 100.321 539.707 99.8174 539.531 99.249C539.361 98.6748 539.276 98.0684 539.276 97.4297V97.0605C539.276 96.4219 539.361 95.8184 539.531 95.25C539.707 94.6758 539.968 94.1689 540.313 93.7295C540.665 93.29 541.104 92.9443 541.632 92.6924C542.165 92.4404 542.789 92.3145 543.504 92.3145C544.248 92.3145 544.898 92.4668 545.455 92.7715C546.012 93.0703 546.448 93.4805 546.765 94.002C547.087 94.5176 547.263 95.1035 547.292 95.7598H545.745C545.716 95.3672 545.604 95.0127 545.411 94.6963C545.224 94.3799 544.966 94.1279 544.638 93.9404C544.315 93.7471 543.938 93.6504 543.504 93.6504C543.006 93.6504 542.587 93.75 542.247 93.9492C541.913 94.1426 541.646 94.4062 541.447 94.7402C541.254 95.0684 541.113 95.4346 541.025 95.8389C540.943 96.2373 540.902 96.6445 540.902 97.0605V97.4297C540.902 97.8457 540.943 98.2559 541.025 98.6602C541.107 99.0645 541.245 99.4307 541.438 99.7588C541.638 100.087 541.904 100.351 542.238 100.55C542.578 100.743 543 100.84 543.504 100.84ZM550.887 92.4902V102H549.252V92.4902H550.887ZM549.129 89.9678C549.129 89.7041 549.208 89.4814 549.366 89.2998C549.53 89.1182 549.771 89.0273 550.087 89.0273C550.397 89.0273 550.635 89.1182 550.799 89.2998C550.969 89.4814 551.054 89.7041 551.054 89.9678C551.054 90.2197 550.969 90.4365 550.799 90.6182C550.635 90.7939 550.397 90.8818 550.087 90.8818C549.771 90.8818 549.53 90.7939 549.366 90.6182C549.208 90.4365 549.129 90.2197 549.129 89.9678ZM555.123 94.5205V102H553.497V92.4902H555.035L555.123 94.5205ZM554.736 96.8848L554.06 96.8584C554.065 96.208 554.162 95.6074 554.35 95.0566C554.537 94.5 554.801 94.0166 555.141 93.6064C555.48 93.1963 555.885 92.8799 556.354 92.6572C556.828 92.4287 557.353 92.3145 557.927 92.3145C558.396 92.3145 558.817 92.3789 559.192 92.5078C559.567 92.6309 559.887 92.8301 560.15 93.1055C560.42 93.3809 560.625 93.7383 560.766 94.1777C560.906 94.6113 560.977 95.1416 560.977 95.7686V102H559.342V95.751C559.342 95.2529 559.269 94.8545 559.122 94.5557C558.976 94.251 558.762 94.0312 558.48 93.8965C558.199 93.7559 557.854 93.6855 557.443 93.6855C557.039 93.6855 556.67 93.7705 556.336 93.9404C556.008 94.1104 555.724 94.3447 555.483 94.6436C555.249 94.9424 555.064 95.2852 554.93 95.6719C554.801 96.0527 554.736 96.457 554.736 96.8848ZM569.607 92.4902H571.084V101.798C571.084 102.636 570.914 103.351 570.574 103.942C570.234 104.534 569.76 104.982 569.15 105.287C568.547 105.598 567.85 105.753 567.059 105.753C566.73 105.753 566.344 105.7 565.898 105.595C565.459 105.495 565.025 105.322 564.598 105.076C564.176 104.836 563.821 104.511 563.534 104.101L564.387 103.134C564.785 103.614 565.201 103.948 565.635 104.136C566.074 104.323 566.508 104.417 566.936 104.417C567.451 104.417 567.896 104.32 568.271 104.127C568.646 103.934 568.937 103.646 569.142 103.266C569.353 102.891 569.458 102.428 569.458 101.877V94.582L569.607 92.4902ZM563.06 97.3506V97.166C563.06 96.4395 563.145 95.7803 563.314 95.1885C563.49 94.5908 563.739 94.0781 564.062 93.6504C564.39 93.2227 564.785 92.8945 565.248 92.666C565.711 92.4316 566.232 92.3145 566.812 92.3145C567.41 92.3145 567.932 92.4199 568.377 92.6309C568.828 92.8359 569.209 93.1377 569.52 93.5361C569.836 93.9287 570.085 94.4033 570.267 94.96C570.448 95.5166 570.574 96.1465 570.645 96.8496V97.6582C570.58 98.3555 570.454 98.9824 570.267 99.5391C570.085 100.096 569.836 100.57 569.52 100.963C569.209 101.355 568.828 101.657 568.377 101.868C567.926 102.073 567.398 102.176 566.795 102.176C566.227 102.176 565.711 102.056 565.248 101.815C564.791 101.575 564.398 101.238 564.07 100.805C563.742 100.371 563.49 99.8613 563.314 99.2754C563.145 98.6836 563.06 98.042 563.06 97.3506ZM564.686 97.166V97.3506C564.686 97.8252 564.732 98.2705 564.826 98.6865C564.926 99.1025 565.075 99.4688 565.274 99.7852C565.479 100.102 565.74 100.351 566.057 100.532C566.373 100.708 566.751 100.796 567.19 100.796C567.729 100.796 568.175 100.682 568.526 100.453C568.878 100.225 569.156 99.9229 569.361 99.5479C569.572 99.1729 569.736 98.7656 569.854 98.3262V96.208C569.789 95.8857 569.689 95.5752 569.555 95.2764C569.426 94.9717 569.256 94.7021 569.045 94.4678C568.84 94.2275 568.585 94.0371 568.28 93.8965C567.976 93.7559 567.618 93.6855 567.208 93.6855C566.763 93.6855 566.379 93.7793 566.057 93.9668C565.74 94.1484 565.479 94.4004 565.274 94.7227C565.075 95.0391 564.926 95.4082 564.826 95.8301C564.732 96.2461 564.686 96.6914 564.686 97.166ZM581.965 102.176C581.303 102.176 580.702 102.064 580.163 101.842C579.63 101.613 579.17 101.294 578.783 100.884C578.402 100.474 578.109 99.9873 577.904 99.4248C577.699 98.8623 577.597 98.2471 577.597 97.5791V97.21C577.597 96.4365 577.711 95.748 577.939 95.1445C578.168 94.5352 578.479 94.0195 578.871 93.5977C579.264 93.1758 579.709 92.8564 580.207 92.6396C580.705 92.4229 581.221 92.3145 581.754 92.3145C582.434 92.3145 583.02 92.4316 583.512 92.666C584.01 92.9004 584.417 93.2285 584.733 93.6504C585.05 94.0664 585.284 94.5586 585.437 95.127C585.589 95.6895 585.665 96.3047 585.665 96.9727V97.7021H578.563V96.375H584.039V96.252C584.016 95.8301 583.928 95.4199 583.775 95.0215C583.629 94.623 583.395 94.2949 583.072 94.0371C582.75 93.7793 582.311 93.6504 581.754 93.6504C581.385 93.6504 581.045 93.7295 580.734 93.8877C580.424 94.04 580.157 94.2686 579.935 94.5732C579.712 94.8779 579.539 95.25 579.416 95.6895C579.293 96.1289 579.231 96.6357 579.231 97.21V97.5791C579.231 98.0303 579.293 98.4551 579.416 98.8535C579.545 99.2461 579.729 99.5918 579.97 99.8906C580.216 100.189 580.512 100.424 580.857 100.594C581.209 100.764 581.607 100.849 582.053 100.849C582.627 100.849 583.113 100.731 583.512 100.497C583.91 100.263 584.259 99.9492 584.558 99.5566L585.542 100.339C585.337 100.649 585.076 100.945 584.76 101.227C584.443 101.508 584.054 101.736 583.591 101.912C583.134 102.088 582.592 102.176 581.965 102.176ZM589.33 88.5V102H587.695V88.5H589.33ZM593.707 92.4902V102H592.072V92.4902H593.707ZM591.949 89.9678C591.949 89.7041 592.028 89.4814 592.187 89.2998C592.351 89.1182 592.591 89.0273 592.907 89.0273C593.218 89.0273 593.455 89.1182 593.619 89.2998C593.789 89.4814 593.874 89.7041 593.874 89.9678C593.874 90.2197 593.789 90.4365 593.619 90.6182C593.455 90.7939 593.218 90.8818 592.907 90.8818C592.591 90.8818 592.351 90.7939 592.187 90.6182C592.028 90.4365 591.949 90.2197 591.949 89.9678ZM600.299 92.4902V93.7383H595.157V92.4902H600.299ZM596.897 90.1787H598.523V99.6445C598.523 99.9668 598.573 100.21 598.673 100.374C598.772 100.538 598.901 100.646 599.06 100.699C599.218 100.752 599.388 100.778 599.569 100.778C599.704 100.778 599.845 100.767 599.991 100.743C600.144 100.714 600.258 100.69 600.334 100.673L600.343 102C600.214 102.041 600.044 102.079 599.833 102.114C599.628 102.155 599.379 102.176 599.086 102.176C598.688 102.176 598.321 102.097 597.987 101.938C597.653 101.78 597.387 101.517 597.188 101.147C596.994 100.772 596.897 100.269 596.897 99.6357V90.1787ZM602.232 101.139C602.232 100.863 602.317 100.632 602.487 100.444C602.663 100.251 602.915 100.154 603.243 100.154C603.571 100.154 603.82 100.251 603.99 100.444C604.166 100.632 604.254 100.863 604.254 101.139C604.254 101.408 604.166 101.637 603.99 101.824C603.82 102.012 603.571 102.105 603.243 102.105C602.915 102.105 602.663 102.012 602.487 101.824C602.317 101.637 602.232 101.408 602.232 101.139Z" fill="black"/>
</svg>
