<svg width="101" height="24" viewBox="0 0 101 24" fill="none" xmlns="http://www.w3.org/2000/svg">
<path fill-rule="evenodd" clip-rule="evenodd" d="M5.33331 3H19.3333C20.4379 3 21.3333 3.89543 21.3333 5V19C21.3333 20.1046 20.4379 21 19.3333 21H5.33331C4.22874 21 3.33331 20.1046 3.33331 19V5C3.33331 3.89543 4.22874 3 5.33331 3ZM8.33331 18C8.60945 18 8.83331 17.7761 8.83331 17.5V10.5C8.83331 10.2239 8.60945 10 8.33331 10H6.83331C6.55717 10 6.33331 10.2239 6.33331 10.5V17.5C6.33331 17.7761 6.55717 18 6.83331 18H8.33331ZM7.58331 9C6.75488 9 6.08331 8.32843 6.08331 7.5C6.08331 6.67157 6.75488 6 7.58331 6C8.41174 6 9.08331 6.67157 9.08331 7.5C9.08331 8.32843 8.41174 9 7.58331 9ZM17.8333 18C18.1094 18 18.3333 17.7761 18.3333 17.5V12.9C18.3658 11.3108 17.1909 9.95452 15.6133 9.76C14.5103 9.65925 13.4416 10.1744 12.8333 11.1V10.5C12.8333 10.2239 12.6094 10 12.3333 10H10.8333C10.5572 10 10.3333 10.2239 10.3333 10.5V17.5C10.3333 17.7761 10.5572 18 10.8333 18H12.3333C12.6094 18 12.8333 17.7761 12.8333 17.5V13.75C12.8333 12.9216 13.5049 12.25 14.3333 12.25C15.1617 12.25 15.8333 12.9216 15.8333 13.75V17.5C15.8333 17.7761 16.0572 18 16.3333 18H17.8333Z" fill="black"/>
<path d="M59.3061 6.7174C58.8417 7.33692 58.2803 7.87733 57.6436 8.31776C57.6436 8.47959 57.6436 8.64142 57.6436 8.81225C57.6487 11.7511 56.4748 14.5691 54.3851 16.6345C52.2953 18.6999 49.4645 19.8399 46.5274 19.7989C44.8293 19.8046 43.153 19.4169 41.6297 18.6661C41.5476 18.6302 41.4946 18.549 41.4949 18.4593V18.3604C41.4949 18.2313 41.5995 18.1267 41.7286 18.1267C43.3977 18.0716 45.0073 17.4929 46.3297 16.4724C44.8188 16.4419 43.4595 15.5469 42.8339 14.1707C42.8023 14.0956 42.8122 14.0093 42.8599 13.9432C42.9076 13.8771 42.9863 13.8407 43.0676 13.8471C43.5267 13.8932 43.9905 13.8505 44.4335 13.7212C42.7657 13.375 41.5125 11.9904 41.3332 10.2957C41.3268 10.2144 41.3632 10.1357 41.4293 10.0879C41.4954 10.0402 41.5816 10.0303 41.6567 10.062C42.1043 10.2595 42.5874 10.3635 43.0766 10.3676C41.6152 9.40846 40.9839 7.58405 41.5399 5.92622C41.5973 5.76513 41.7351 5.64612 41.9028 5.61294C42.0705 5.57975 42.2433 5.63728 42.3576 5.76439C44.3297 7.86325 47.0394 9.11396 49.9152 9.25279C49.8416 8.95885 49.8054 8.65676 49.8074 8.35372C49.8343 6.76472 50.8175 5.34921 52.2967 4.76987C53.7758 4.19054 55.4582 4.56203 56.5563 5.71044C57.3047 5.56785 58.0283 5.31645 58.704 4.96421C58.7535 4.93331 58.8163 4.93331 58.8658 4.96421C58.8967 5.01373 58.8967 5.07652 58.8658 5.12604C58.5385 5.87552 57.9856 6.50412 57.2842 6.92419C57.8984 6.85296 58.5018 6.70807 59.0815 6.49264C59.1303 6.45942 59.1944 6.45942 59.2432 6.49264C59.2841 6.51134 59.3147 6.54711 59.3268 6.59042C59.3389 6.63373 59.3313 6.68018 59.3061 6.7174Z" fill="black"/>
<path fill-rule="evenodd" clip-rule="evenodd" d="M88.3333 3C83.3648 3 79.3333 7.03145 79.3333 12C79.3333 16.9686 83.3648 21 88.3333 21C93.2921 21 97.3333 16.9686 97.3333 12C97.3333 7.03145 93.2921 3 88.3333 3ZM94.278 7.14859C95.3517 8.45662 95.996 10.1258 96.0155 11.9317C95.7617 11.8829 93.2237 11.3655 90.6663 11.6876C90.6077 11.5607 90.5589 11.4241 90.5003 11.2874C90.3441 10.9165 90.1685 10.5358 89.9927 10.1746C92.8235 9.0228 94.112 7.36334 94.278 7.14859ZM88.3333 4.32755C90.2856 4.32755 92.0719 5.05966 93.4288 6.26031C93.2921 6.45553 92.1305 8.00759 89.3973 9.03253C88.1381 6.71909 86.7422 4.82538 86.5275 4.53254C87.1033 4.39588 87.7086 4.32755 88.3333 4.32755ZM85.0633 5.04989C85.2683 5.32321 86.6348 7.22668 87.9136 9.49131C84.3214 10.448 81.1489 10.4284 80.8073 10.4284C81.3051 8.04664 82.9157 6.06507 85.0633 5.04989ZM80.6413 12.0098C80.6413 11.9317 80.6413 11.8536 80.6413 11.7755C80.9732 11.7852 84.7021 11.8341 88.5383 10.6822C88.7628 11.1117 88.9678 11.551 89.163 11.9902C89.0654 12.0195 88.958 12.0488 88.8604 12.0781C84.8973 13.3568 82.7888 16.8514 82.6131 17.1442C81.393 15.7874 80.6413 13.9816 80.6413 12.0098ZM88.3333 19.692C86.5567 19.692 84.9168 19.0868 83.6186 18.0716C83.7552 17.7885 85.317 14.782 89.6511 13.269C89.6706 13.2592 89.6804 13.2592 89.6999 13.2495C90.7834 16.051 91.2227 18.4034 91.3398 19.077C90.4125 19.4772 89.3973 19.692 88.3333 19.692ZM92.6185 18.3742C92.5405 17.9056 92.1305 15.6605 91.125 12.898C93.5361 12.5173 95.6446 13.1421 95.9082 13.23C95.5763 15.3677 94.3463 17.2126 92.6185 18.3742Z" fill="black"/>
</svg>
